<?xml version="1.0"?>
<svg version="1.1" xmlns="http://www.w3.org/2000/svg" width="400px" height="200px" style="border: dashed 2px #aaa"><path fill="#070808" d="M19.6,124l0-3.4l3-1.2l0-18.8l-3-1.2l0-3.4l12.2-0.2l0,3.6l-3,1.2l0,18.8l3,1.2l0,3.4l-12.2,0z M37.5804,124l0-3.4l3-1.2l0-18.8l-3-1.2l0-3.4l9.6-0.2l10.8,18.48l0-13.68l-2.92-1.2l0-3.4l11.4-0.2l0,3.6l-3,1.2l0,23.4l-6.68,0l-10.72-18.12l0,13.52l3.12,1.2l0,3.4l-11.6,0z M77.0008,115.32l0.6,3.36s1.6,0.84,3.92,0.84c2.56,0,4.84-1.12,4.84-3.24c0-4.68-13.52-2.6-13.52-12.48c0-5.52,4.36-8.48,10.16-8.48c4.52,0,8.8,1.6,8.8,1.6l-0.2,7.28l-3.68,0l-1-3.4s-1.8-0.6-3.52-0.6c-2.84,0-4.24,1.24-4.24,2.84c0,4.64,13.48,2.8,13.48,12.2c0,6-4.64,9.28-10.8,9.28c-4.52,0-8.92-1.52-8.92-1.52l0-7.68l4.08,0z M118.3012,104.8l-0.92-3.84s-1.88-0.64-4.48-0.64c-4.2,0-6.6,3.12-6.6,9.8c0,6.48,2.6,9.2,6.8,9.2c4,0,7.6-2.8,7.6-2.8l2.2,3.6s-4.2,4.36-10.48,4.36c-8.12,0-12.8-4.88-12.8-14.16c0-9.4,5.28-15,13.48-15c4.84,0,9.32,1.88,9.32,1.88l-0.2,7.6l-3.92,0z M145.9616,107.2l0,4.4l-8.08,0l0,7.6l7.16,0l0.92-3.28l3.6,0l0,8.08l-20.88,0l0-3.4l3-1.2l0-18.8l-3-1.2l0-3.4l9.2-0.2l11.2,0l0,7.72l-3.6,0l-1-2.92l-6.6,0l0,6.6l8.08,0z M155.942,124l0-3.4l3-1.2l0-18.8l-3-1.2l0-3.4l9.6-0.2l10.8,18.48l0-13.68l-2.92-1.2l0-3.4l11.4-0.2l0,3.6l-3,1.2l0,23.4l-6.68,0l-10.72-18.12l0,13.52l3.12,1.2l0,3.4l-11.6,0z M195.3624,115.32l0.6,3.36s1.6,0.84,3.92,0.84c2.56,0,4.84-1.12,4.84-3.24c0-4.68-13.52-2.6-13.52-12.48c0-5.52,4.36-8.48,10.16-8.48c4.52,0,8.8,1.6,8.8,1.6l-0.2,7.28l-3.68,0l-1-3.4s-1.8-0.6-3.52-0.6c-2.84,0-4.24,1.24-4.24,2.84c0,4.64,13.48,2.8,13.48,12.2c0,6-4.64,9.28-10.8,9.28c-4.52,0-8.92-1.52-8.92-1.52l0-7.68l4.08,0z M234.8628,107.2l0,4.4l-8.08,0l0,7.6l7.16,0l0.92-3.28l3.6,0l0,8.08l-20.88,0l0-3.4l3-1.2l0-18.8l-3-1.2l0-3.4l9.2-0.2l11.2,0l0,7.72l-3.6,0l-1-2.92l-6.6,0l0,6.6l8.08,0z M257.2236,124l0-3.4l3-1.2l0-18.8l-3-1.2l0-3.4l12.2-0.2l0,3.6l-3,1.2l0,18.8l3,1.2l0,3.4l-12.2,0z M275.204,124l0-3.4l3-1.2l0-18.8l-3-1.2l0-3.4l9.6-0.2l10.8,18.48l0-13.68l-2.92-1.2l0-3.4l11.4-0.2l0,3.6l-3,1.2l0,23.4l-6.68,0l-10.72-18.12l0,13.52l3.12,1.2l0,3.4l-11.6,0z M312.6644,119.4l0-18.8l-3-1.2l0-3.4l9.2-0.2l3.8,0c8,0,12.72,4.72,12.72,13.72s-5.2,14.48-13.32,14.48l-12.4,0l0-3.4z M318.8644,119.2l3.32,0c3.88,0,6.48-2.28,6.48-9.48c0-6.72-2.28-9.12-6.2-9.12l-3.6,0l0,18.6z M341.7648,124l0-3.4l3-1.2l0-18.8l-3-1.2l0-3.4l12.2-0.2l0,3.6l-3,1.2l0,18.8l3,1.2l0,3.4l-12.2,0z M388.0652,120.6l0,3.4l-12.72,0l0-3.4l3-1.08l-0.96-2.92l-8.88,0l-1,2.88l3.12,1.12l0,3.4l-12.08,0l0-3.4l2.92-1.12l8.8-23.56l6.4-0.12l8.6,23.68z M376.0652,112.32l-3-9.48l-3.16,9.48l6.16,0z"/><path fill="#" d=""/></svg>
