<?xml version="1.0" standalone="no"?>
<!DOCTYPE svg PUBLIC "-//W3C//DTD SVG 1.1//EN" "http://www.w3.org/Graphics/SVG/1.1/DTD/svg11.dtd" >
<svg xmlns="http://www.w3.org/2000/svg" xmlns:xlink="http://www.w3.org/1999/xlink" version="1.1">
<metadata>
Created by FontForge 20170924 at Sat Apr 21 17:15:25 2018
 By www-data
Copyright \(c\) 2017 by Rakel Tomas. All rights reserved.
</metadata>
<defs>
<font id="SilkSerif-ExtraLightItalic" horiz-adv-x="600" >
  <font-face 
    font-family="Silk Serif"
    font-weight="250"
    font-style="italic"
    font-stretch="normal"
    units-per-em="1000"
    panose-1="0 0 3 0 0 0 0 0 0 0"
    ascent="733"
    descent="-267"
    x-height="452"
    cap-height="700"
    bbox="-259.854 -382 1119 902.601"
    underline-thickness="50"
    underline-position="-100"
    unicode-range="U+0020-2265"
  />
<missing-glyph horiz-adv-x="458" 
d="M85 700h290v-915h-290v915zM305 609v30h-151v-30h59v-34h-60v-31h152v31h-61v34h61zM244 457v64h-91v-95h152v31h-61zM183 490h30v-33h-30v33zM305 371v30h-152v-30h60v-34h-60v-30h91v64h61zM305 254v92h-30v-60h-122v-32h152zM305 131v103h-92v-51h31v21h31v-43h-92v73
h-30v-103h152zM305 -27v103h-152v-103h152zM183 46h92v-43h-92v43zM305 -79v31h-152v-31h64l-64 -43v-30h152v30h-94l64 43h30z" />
    <glyph glyph-name=".notdef" horiz-adv-x="458" 
d="M85 700h290v-915h-290v915zM305 609v30h-151v-30h59v-34h-60v-31h152v31h-61v34h61zM244 457v64h-91v-95h152v31h-61zM183 490h30v-33h-30v33zM305 371v30h-152v-30h60v-34h-60v-30h91v64h61zM305 254v92h-30v-60h-122v-32h152zM305 131v103h-92v-51h31v21h31v-43h-92v73
h-30v-103h152zM305 -27v103h-152v-103h152zM183 46h92v-43h-92v43zM305 -79v31h-152v-31h64l-64 -43v-30h152v30h-94l64 43h30z" />
    <glyph glyph-name="NULL" horiz-adv-x="0" 
 />
    <glyph glyph-name="CR" horiz-adv-x="333" 
 />
    <glyph glyph-name="space" unicode=" " horiz-adv-x="280" 
 />
    <glyph glyph-name="exclam" unicode="!" horiz-adv-x="207" 
d="M39 130l60 178c21 63 37 114 49 152c12 39 24 75 36 110c25 69 43 99 59 99c17 0 18 -19 5 -58c-12 -39 -32 -84 -63 -151s-60 -128 -97 -212c-18 -42 -34 -81 -49 -118zM25 6c31 31 -18 79 -46 47c-13 -12 -13 -34 0 -47c12 -12 34 -12 46 0z" />
    <glyph glyph-name="quotedbl" unicode="&#x22;" horiz-adv-x="144" 
d="M165 680l-60 -102l31 118c4 17 16 27 27 22c13 -5 14 -22 2 -38zM235 680l-60 -102l31 118c4 17 16 27 27 22c13 -5 14 -22 2 -38z" />
    <glyph glyph-name="numbersign" unicode="#" horiz-adv-x="642" 
d="M666 701h13l-143 -250h119l-3 -9h-121l-114 -198h178l-3 -10h-181l-140 -244h-14l140 244h-206l-140 -244h-14l140 244h-114l3 10h117l114 199h-173l3 9h176l143 249h13l-143 -249l206 -1zM197 244h206l114 198l-206 1z" />
    <glyph glyph-name="dollar" unicode="$" horiz-adv-x="554" 
d="M523 729l-11 -27c88 -8 126 -60 114 -121c-5 -35 -38 -72 -73 -68c-27 4 -37 30 -25 50c2 5 10 11 23 20s22 20 27 33c9 30 -3 52 -36 67c-11 4 -23 7 -34 9l-125 -308c51 -25 84 -59 98 -103c15 -43 10 -88 -14 -133c-53 -105 -129 -142 -238 -146l-14 -34h-9l148 365
c-17 10 -31 17 -42 22l-14 7l-159 -394h-8l18 44c-3 0 -4 0 -5 1c-41 13 -71 35 -91 66c-15 23 -24 49 -27 77s0 50 8 66c13 35 48 74 85 74c36 0 34 -50 12 -64c-25 -15 -53 -18 -64 -43c-13 -27 -13 -57 0 -88c14 -31 34 -53 59 -68c9 -5 18 -9 27 -11l139 343
c-53 29 -82 73 -86 113c-4 41 3 73 16 102c17 35 45 63 84 83s79 32 120 35l13 31h8l-127 -313c11 -8 26 -16 44 -23l12 -5l138 341h9zM357 671c-96 -36 -147 -178 -43 -251l108 268c-28 -5 -50 -11 -65 -17zM431 149c11 39 12 71 3 96c-11 31 -36 59 -73 83l-129 -318
c42 1 83 15 123 42c41 27 66 59 76 97z" />
    <glyph glyph-name="percent" unicode="%" horiz-adv-x="616" 
d="M284 692c67 23 104 -17 104 -76c-1 -54 -19 -102 -54 -144s-72 -61 -113 -56c-65 8 -69 84 -50 143c25 77 73 118 113 133zM-39 0h19l740 701h-17zM287 687c-35 -15 -66 -70 -85 -133c-8 -31 -11 -57 -10 -88c3 -31 19 -49 50 -46c28 3 53 27 74 70c22 44 35 87 38 128
c7 68 -30 86 -67 69zM402 276c67 23 104 -17 104 -76c-1 -54 -19 -102 -54 -144s-72 -61 -113 -56c-65 8 -69 84 -50 143c25 77 73 118 113 133zM405 271c-35 -15 -66 -70 -85 -133c-8 -31 -11 -57 -10 -88c3 -31 19 -49 50 -46c28 3 53 27 74 70c22 44 35 87 38 128
c7 68 -30 86 -67 69z" />
    <glyph glyph-name="ampersand" unicode="&#x26;" horiz-adv-x="753" 
d="M715 424c-20 -11 -41 -25 -63 -44s-50 -44 -85 -76c-34 -32 -63 -59 -88 -80l-29 -25l24 -76c1 -3 8 -24 8 -27c1 -1 2 -5 4 -12c5 -12 6 -10 11 -21c12 -16 26 -24 55 -28c48 -4 107 29 140 80c-13 -28 -34 -54 -63 -79s-59 -37 -92 -38c-50 -1 -81 17 -93 54l-34 112
c-37 -33 -65 -56 -82 -70s-40 -31 -69 -51c-56 -39 -100 -52 -151 -52c-43 0 -76 13 -97 39c-21 27 -22 65 -2 114c11 28 33 57 50 77c9 11 22 22 39 35l40 31c10 7 26 18 49 31l47 27l54 28c27 15 43 24 50 27l-3 11c-15 49 -23 83 -23 102c0 23 5 47 15 74
c32 83 114 130 201 133c36 1 63 -9 80 -30s19 -50 4 -85c-22 -55 -72 -103 -150 -146l-81 -44l67 -210l76 66c81 71 122 120 125 145c0 15 -10 26 -30 33h173c-19 0 -45 -8 -77 -25zM367 590c-7 -18 -11 -36 -12 -54c0 -35 5 -52 21 -104l3 -10l33 19l25 16
c41 26 72 50 93 72c22 22 39 50 51 84c16 44 14 102 -54 102c-67 0 -128 -40 -160 -125zM143 32c61 0 149 47 264 140l-67 222l-55 -32c-41 -25 -74 -45 -97 -61c-45 -31 -103 -85 -124 -140c-32 -71 -6 -129 79 -129z" />
    <glyph glyph-name="quotesingle" unicode="'" horiz-adv-x="54" 
d="M164 679l-65 -98l37 116c5 17 17 25 28 20c13 -6 13 -19 0 -38z" />
    <glyph glyph-name="parenleft" unicode="(" horiz-adv-x="300" 
d="M105 -158l7 -29c-8 11 -23 49 -38 124c-7 37 -13 77 -16 119c-3 43 -1 91 5 145c7 55 19 107 37 156c39 105 102 198 155 250c83 82 162 118 166 114l-21 -12c-9 -5 -25 -19 -50 -40s-48 -45 -71 -71s-48 -62 -75 -107s-51 -94 -70 -147c-36 -97 -52 -216 -49 -301
s11 -161 20 -201z" />
    <glyph glyph-name="parenright" unicode=")" horiz-adv-x="298" 
d="M-115 -196l24 21c10 9 29 28 57 58c28 29 54 60 77 92c24 32 49 73 75 122c27 50 47 100 61 150c29 108 37 220 29 292c-8 73 -22 133 -34 161l-9 21c5 -1 23 -30 43 -89c10 -29 18 -63 25 -100c13 -73 9 -186 -20 -294c-29 -101 -87 -203 -142 -268
c-84 -101 -173 -164 -186 -166z" />
    <glyph glyph-name="asterisk" unicode="*" horiz-adv-x="255" 
d="M238 646l-37 -80l5 91c3 19 12 29 24 26c14 -3 17 -15 8 -37zM143 632l58 -66l-81 44c-17 7 -23 23 -15 32c9 12 26 6 38 -10zM289 564l-88 2l86 31c20 5 31 1 33 -12c1 -15 -12 -24 -31 -21zM120 531l81 35l-66 -65c-15 -13 -26 -15 -35 -4c-8 13 -1 24 20 34zM224 481
l-23 85l54 -74c11 -16 10 -28 -2 -36c-13 -5 -25 5 -29 25z" />
    <glyph glyph-name="plus" unicode="+" horiz-adv-x="567" 
d="M336 357h209l-3 -9h-209l-85 -209h-9l85 209h-209l3 9h209l85 209h9z" />
    <glyph glyph-name="comma" unicode="," horiz-adv-x="39" 
d="M-11 61c17 -3 30 -19 27 -38c-8 -45 -53 -86 -98 -102c32 15 68 51 75 76c-4 -2 -9 -2 -16 -1c-19 3 -30 20 -26 39c3 19 21 30 38 26z" />
    <glyph glyph-name="hyphen" unicode="-" horiz-adv-x="385" 
d="M55 260v9h275v-9h-275z" />
    <glyph glyph-name="period" unicode="." horiz-adv-x="69" 
d="M21 6c-12 -12 -34 -12 -46 0c-13 13 -13 35 0 47c28 32 77 -16 46 -47z" />
    <glyph glyph-name="slash" unicode="/" horiz-adv-x="328" 
d="M-63 0l-12 2l510 699l12 1z" />
    <glyph glyph-name="zero" unicode="0" horiz-adv-x="588" 
d="M467 693c110 -27 186 -159 108 -385c-25 -74 -60 -138 -103 -191s-93 -92 -150 -115c-56 -23 -115 -21 -178 4c-117 40 -151 281 -62 455c44 93 101 159 172 198s142 51 213 34zM427 692c-35 7 -79 -3 -136 -36c-56 -32 -118 -112 -159 -224c-35 -95 -48 -185 -37 -268
s41 -136 91 -158c85 -38 243 12 326 283c68 241 28 382 -85 403z" />
    <glyph glyph-name="one" unicode="1" horiz-adv-x="326" 
d="M210 613l177 101l-66 -161l-23 -56l-136 -345l-33 -87c-5 -29 -4 -45 15 -54c20 -8 32 -10 49 -11h-237c61 2 101 24 118 66l177 441l23 57c27 75 -14 67 -64 49zM-44 0h-12h12zM204 0h-11h11z" />
    <glyph glyph-name="two" unicode="2" horiz-adv-x="516" 
d="M420 710c156 17 179 -99 143 -189c-8 -20 -19 -40 -32 -59s-25 -35 -38 -50c-12 -14 -31 -32 -56 -54s-46 -39 -62 -52l-81 -64c-38 -29 -68 -52 -89 -69c-83 -66 -129 -105 -136 -117c-5 -8 0 -13 14 -14c5 -1 20 -1 46 -1h90c61 0 104 4 131 13s55 32 82 69l-80 -123
h-408c83 53 178 123 286 210l74 60c14 11 35 29 62 54c28 25 49 46 62 63c28 33 63 86 82 134c18 49 14 89 -13 120c-26 31 -64 41 -114 32c-37 -7 -74 -22 -111 -45s-64 -45 -82 -64l-28 -30c5 8 10 19 45 56c17 19 35 36 54 51c37 31 99 62 159 69z" />
    <glyph glyph-name="three" unicode="3" horiz-adv-x="508" 
d="M387 715c141 11 156 -93 144 -156c-7 -37 -27 -71 -58 -102s-64 -54 -101 -67c38 -13 62 -43 73 -92s8 -93 -11 -133c-61 -143 -180 -211 -328 -171c-76 20 -116 82 -120 185c7 -31 21 -63 42 -94s49 -51 84 -59c49 -11 98 -7 148 14c51 21 89 59 114 115
c25 57 26 109 1 154c-25 46 -63 67 -114 64l7 1c27 7 51 15 98 38c47 24 89 66 110 117c16 40 15 77 -4 111s-52 50 -100 48c-25 -1 -49 -6 -72 -15c-22 -9 -39 -17 -51 -26l-60 -48c68 71 119 109 198 116z" />
    <glyph glyph-name="four" unicode="4" 
d="M586 204l-57 -43h-108l-57 -141l-73 -44l75 185h-357l639 558l-209 -515h147zM120 203l264 1l169 386c15 39 2 35 -26 10l-404 -355c-23 -21 -40 -42 -3 -42z" />
    <glyph glyph-name="five" unicode="5" horiz-adv-x="532" 
d="M262 596l-89 -143c-13 -22 -19 -34 -16 -37c2 -2 9 0 20 6c64 35 124 54 180 55c60 1 106 -18 137 -57c32 -39 35 -91 9 -155c-29 -69 -84 -127 -165 -172c-46 -25 -104 -50 -173 -74s-126 -42 -173 -53l-69 -17c44 15 78 26 102 35s57 21 100 38s78 32 105 47
s55 33 86 53c63 41 103 91 126 144c9 27 12 52 11 77c-3 51 -49 92 -121 92c-43 0 -83 -7 -122 -21c-39 -13 -67 -27 -84 -40l-25 -20l214 347h317l-50 -46h-238c-43 0 -55 -14 -82 -59z" />
    <glyph glyph-name="six" unicode="6" horiz-adv-x="504" 
d="M321 593c117 88 228 132 332 132c-21 -3 -44 -8 -70 -15c-25 -7 -62 -24 -109 -49s-92 -56 -133 -94c-67 -63 -115 -117 -145 -160c5 7 58 28 116 28c50 -1 93 -23 128 -65c36 -41 46 -96 30 -163c-17 -70 -50 -125 -99 -166c-49 -40 -105 -61 -168 -62
c-52 -1 -95 18 -130 57c-34 39 -46 92 -37 158c21 139 116 272 285 399zM415 213c21 128 -22 210 -115 209c-60 -1 -113 -34 -145 -82c-31 -48 -49 -94 -60 -142c-15 -69 -9 -122 17 -160s64 -55 113 -50s91 28 124 70c34 43 56 94 66 155z" />
    <glyph glyph-name="seven" unicode="7" horiz-adv-x="498" 
d="M218 702h436c-83 -75 -169 -164 -260 -267c-21 -23 -40 -46 -57 -67c-33 -41 -66 -94 -85 -119c-9 -13 -20 -32 -33 -57l-26 -48l-27 -55l-24 -49c-14 -29 -32 -44 -54 -47c-16 -2 -25 4 -27 17c-1 7 1 15 6 24c61 119 181 271 360 455c83 85 129 137 136 155
c6 13 0 21 -18 23c-4 1 -27 1 -68 1h-126c-57 0 -99 -5 -128 -16s-57 -35 -85 -73z" />
    <glyph glyph-name="eight" unicode="8" horiz-adv-x="537" 
d="M414 355c17 -13 31 -30 43 -50c25 -39 42 -101 14 -164c-26 -63 -73 -109 -141 -139c-67 -29 -140 -32 -217 -8c-43 13 -73 39 -91 80c-17 41 -15 86 6 133c24 48 61 85 113 112c26 13 48 23 67 30s43 16 74 25c-36 19 -122 95 -82 198c15 37 38 68 69 91
c64 47 133 57 205 49c46 -5 79 -25 98 -60c20 -35 20 -73 1 -114c-11 -23 -28 -44 -43 -60c-15 -15 -42 -32 -58 -41c-15 -8 -47 -22 -59 -27l-29 -10l-23 -8c1 -1 31 -21 53 -37zM241 578c-20 -73 31 -140 110 -181c45 19 80 38 105 57c25 20 47 47 65 82
c19 37 22 74 9 110s-39 56 -78 59c-114 10 -184 -32 -211 -127zM293 367c-47 -16 -76 -28 -117 -53s-73 -62 -93 -109c-21 -44 -23 -87 -8 -128c16 -41 47 -67 94 -77c79 -16 144 -5 196 34s77 92 74 159c-1 38 -17 72 -48 101c-30 30 -63 54 -98 73z" />
    <glyph glyph-name="nine" unicode="9" horiz-adv-x="520" 
d="M259 102c-47 -35 -97 -64 -151 -85c-53 -21 -92 -33 -116 -37c-25 -4 -43 -6 -54 -6c31 4 75 18 131 43c57 25 117 63 181 115c55 45 102 96 141 153c-3 -4 -16 -9 -39 -14s-47 -8 -73 -7c-55 1 -99 25 -131 71c-31 46 -40 102 -27 168c13 69 45 122 95 160
s107 57 172 57c51 0 93 -18 124 -55c31 -36 42 -86 33 -150c-9 -61 -26 -112 -66 -184c-40 -71 -116 -150 -220 -229zM175 490c-11 -63 -5 -115 16 -155c21 -39 55 -59 100 -58c128 0 184 141 202 224c29 137 -28 217 -127 210c-49 -3 -91 -26 -125 -68
c-34 -41 -56 -92 -66 -153z" />
    <glyph glyph-name="colon" unicode=":" horiz-adv-x="237" 
d="M203 400c-12 -12 -34 -12 -47 0c-12 13 -12 35 0 47c31 31 78 -16 47 -47zM42 6c-28 -31 -78 19 -46 47c30 30 77 -16 46 -47z" />
    <glyph glyph-name="semicolon" unicode=";" horiz-adv-x="190" 
d="M106 447c30 30 77 -16 46 -47c-28 -31 -78 19 -46 47zM-4 61c17 -3 30 -19 27 -38c-8 -45 -53 -86 -98 -102c32 15 68 51 75 76c-4 -2 -9 -2 -16 -1c-19 3 -30 20 -26 39c3 19 21 30 38 26z" />
    <glyph glyph-name="less" unicode="&#x3c;" horiz-adv-x="497" 
d="M383 212l-290 142l408 151v-11l-380 -141l262 -129v-12z" />
    <glyph glyph-name="equal" unicode="=" horiz-adv-x="577" 
d="M166 426l4 9h387l-4 -9h-387zM102 266l3 9h387l-3 -9h-387z" />
    <glyph glyph-name="greater" unicode="&#x3e;" horiz-adv-x="507" 
d="M199 497l290 -142l-408 -151v11l380 141l-262 129v12z" />
    <glyph glyph-name="question" unicode="?" horiz-adv-x="388" 
d="M115 121c4 125 96 216 164 281c48 48 86 97 87 144c1 79 -39 121 -106 124c-51 2 -82 -17 -92 -57c-4 -17 6 -51 5 -63c-4 -25 -23 -38 -47 -33c-19 5 -26 23 -20 53c15 57 70 111 157 108c97 -3 161 -59 149 -155c-8 -73 -106 -139 -185 -210
c-53 -48 -101 -117 -112 -192zM110 6c31 31 -16 77 -46 47c-32 -28 18 -78 46 -47z" />
    <glyph glyph-name="at" unicode="@" horiz-adv-x="734" 
d="M564 571c74 1 126 -20 157 -64c31 -43 31 -100 0 -171c-35 -80 -86 -143 -152 -188c-65 -45 -124 -69 -175 -71c-41 -1 -50 24 -26 55l172 221l-19 -25c19 27 32 49 39 66c13 31 6 49 -21 49c-21 0 -50 -12 -88 -35c-37 -23 -73 -52 -106 -87c-51 -53 -87 -104 -107 -153
c-13 -35 -9 -53 14 -55c41 -7 98 27 172 101l-32 -36c-17 -19 -42 -39 -75 -62c-32 -23 -60 -34 -85 -34c-45 0 -56 35 -35 86c17 42 45 84 85 127c101 106 190 157 267 152c37 -2 38 -30 38 -34l57 34l-229 -307c-19 -23 -23 -37 -12 -42c3 -2 7 -3 12 -2
c53 3 107 24 162 65s96 96 124 165c41 104 2 225 -140 225c-103 -1 -206 -45 -283 -110c-76 -65 -135 -143 -167 -222c-61 -159 2 -248 153 -247c111 1 226 52 344 154c-119 -118 -246 -177 -379 -178c-178 0 -209 129 -154 268c39 96 105 179 198 248
c93 70 190 106 291 107zM521 328l-4 -4z" />
    <glyph glyph-name="A" unicode="A" horiz-adv-x="580" 
d="M535 1h-210c44 0 90 26 89 82l-6 216h-240l-130 -201c-36 -63 -10 -97 41 -97h-204c21 0 47 9 78 27c31 19 55 42 73 70l415 640l25 -669c1 -51 22 -65 69 -68zM363 601l-189 -293h233l-6 220c-1 56 -3 85 -6 87c-11 7 -21 3 -32 -14z" />
    <glyph glyph-name="B" unicode="B" horiz-adv-x="640" 
d="M209 700h224c141 0 201 -74 178 -177c-9 -43 -33 -79 -70 -108c-37 -28 -80 -43 -131 -46c56 -7 97 -31 123 -71c27 -39 34 -84 21 -134c-45 -178 -218 -167 -412 -166l-227 2c63 0 101 17 115 50l238 590c15 35 -12 57 -59 60zM340 693l-124 -314c63 0 108 0 137 1
c115 3 185 42 214 143c13 47 7 87 -19 120c-25 33 -72 50 -141 50h-67zM133 5h42h47c10 0 25 0 45 1c41 3 54 5 87 12c35 7 49 15 74 30c34 20 58 56 72 104c15 53 9 101 -20 146c-28 45 -77 68 -147 70l-120 3l-132 -322c-9 -24 4 -44 52 -44z" />
    <glyph glyph-name="C" unicode="C" horiz-adv-x="618" 
d="M673 613l-40 -91l-1 17c0 23 -11 59 -30 92c-17 35 -60 64 -115 68c-58 5 -113 -15 -166 -59c-53 -43 -96 -101 -131 -172c-26 -53 -43 -110 -50 -171s0 -116 20 -165c21 -49 56 -77 105 -86c121 -21 221 40 302 182c-32 -67 -71 -121 -126 -169
c-53 -47 -126 -69 -203 -57c-95 15 -151 87 -162 178s10 199 59 291c55 101 124 172 192 201s122 37 179 32c69 -6 125 -36 167 -91z" />
    <glyph glyph-name="D" unicode="D" horiz-adv-x="714" 
d="M578 670c44 -20 81 -62 104 -125c23 -61 17 -155 -23 -256c-27 -69 -66 -125 -115 -169c-99 -88 -213 -120 -354 -120h-276c66 0 109 24 128 73l232 575c13 28 -16 49 -64 52h118c114 2 197 -8 250 -30zM491 128c48 49 85 108 112 176c27 69 39 133 34 194
c-10 111 -65 173 -164 186c-43 6 -86 8 -129 6l-251 -621c-19 -33 -11 -56 46 -56h54c125 0 224 38 298 115z" />
    <glyph glyph-name="E" unicode="E" horiz-adv-x="662" 
d="M420 688h-77l-127 -317v1h87c56 0 93 7 120 30c13 12 22 21 27 27s12 17 23 34l-87 -221c10 49 9 118 -93 119h-81l-118 -292c-13 -35 -3 -57 28 -57h108c90 0 166 13 229 39c65 27 104 53 140 98l-90 -149h-592c25 0 49 6 74 17c24 12 40 26 48 42l237 589
c9 29 -18 49 -65 52h444l18 -125l-11 19c-4 8 -13 20 -28 36s-30 27 -45 34c-37 16 -93 24 -169 24z" />
    <glyph glyph-name="F" unicode="F" horiz-adv-x="602" 
d="M215 700h443l18 -125l-11 19c-4 8 -13 20 -28 36s-30 27 -45 34c-37 16 -93 24 -169 24h-75l-128 -316h86c56 0 93 7 120 30c13 12 22 21 27 27s12 17 23 34l-87 -221c10 49 9 118 -93 119h-80l-126 -312c-13 -32 15 -46 67 -49h-233c52 0 103 19 114 50l243 598
c9 28 -18 49 -66 52z" />
    <glyph glyph-name="G" unicode="G" horiz-adv-x="659" 
d="M675 621l-36 -96c-3 24 -8 48 -25 89c-17 43 -57 76 -109 84c-133 21 -242 -61 -328 -247c-37 -79 -52 -182 -43 -271c9 -88 59 -158 140 -165c45 -4 87 5 124 26c37 22 66 47 85 75c19 29 33 58 41 88c10 53 -41 66 -72 64h226l-20 -2c-25 -3 -63 -20 -75 -48
c-11 -25 -41 -98 -90 -218l-1 12c-1 17 -15 38 -40 38c-13 0 -91 -55 -178 -51c-112 5 -181 77 -198 170c-16 93 -1 203 42 292c117 254 318 255 404 243c65 -10 116 -38 153 -83z" />
    <glyph glyph-name="H" unicode="H" horiz-adv-x="712" 
d="M648 700h229c-61 0 -100 -18 -117 -55l-236 -596c-13 -32 16 -46 68 -49h-242c24 0 50 6 77 19c28 13 45 28 51 43l117 293h-374l-122 -306c-12 -32 16 -46 69 -49h-242c26 0 52 6 79 19s43 27 48 43l233 586c11 29 -15 49 -63 52h229c-61 0 -100 -18 -115 -55l-110 -276
h373l111 279c11 29 -15 51 -63 52z" />
    <glyph glyph-name="I" unicode="I" horiz-adv-x="304" 
d="M224 700h231c-62 0 -101 -18 -117 -55l-240 -596c-13 -32 15 -46 67 -49h-244c26 0 52 6 79 17s47 31 58 59l228 567c13 35 -10 54 -62 57z" />
    <glyph glyph-name="J" unicode="J" horiz-adv-x="281" 
d="M226 700h210c-62 0 -101 -19 -116 -57l-210 -529c-73 -183 -191 -276 -354 -279c31 0 74 16 134 53c59 36 126 118 169 226l217 544c9 28 -3 41 -50 42z" />
    <glyph glyph-name="K" unicode="K" horiz-adv-x="626" 
d="M239 700h230c-62 0 -101 -18 -117 -55l-240 -596c-13 -32 15 -46 67 -49h-243c51 0 112 20 135 76l231 567c13 35 -11 54 -63 57zM363 361l99 -194c61 -120 95 -167 120 -167h-88c-16 27 -28 50 -37 67l-131 254c-21 43 -72 30 -89 18l332 262c57 45 67 99 -4 99h201
c-47 -5 -125 -51 -235 -140l-128 -103c-47 -36 -57 -55 -40 -96z" />
    <glyph glyph-name="L" unicode="L" horiz-adv-x="594" 
d="M336 643l-232 -583c-13 -33 7 -47 60 -47h56c63 1 125 16 187 43c51 23 95 60 132 111l-91 -167h-517c55 0 105 25 124 70l235 578c9 29 -16 49 -64 52h230c-63 0 -103 -19 -120 -57z" />
    <glyph glyph-name="M" unicode="M" horiz-adv-x="1006" 
d="M991 700h128c-49 0 -84 -25 -105 -74l-215 -532c-24 -61 8 -93 72 -94h-258c52 0 107 32 130 89l207 504c9 21 10 32 4 35c-5 2 -18 -10 -41 -36l-504 -592l-87 568c-6 39 -11 60 -16 62c-1 1 -2 1 -3 1c-7 0 -17 -13 -28 -40l-199 -490c-24 -59 7 -98 74 -101h-236
c27 0 55 10 86 30c30 20 51 45 64 74l204 499c10 23 9 45 -3 65c-12 21 -36 31 -72 32h169l82 -550c5 -29 14 -44 27 -46c7 -1 20 8 37 28z" />
    <glyph glyph-name="N" unicode="N" horiz-adv-x="740" 
d="M671 700h200c-65 0 -113 -36 -142 -108l-245 -592l-176 582c-9 29 -15 45 -18 47c-1 1 -3 1 -4 1c-7 0 -16 -16 -29 -48l-195 -481c-24 -57 9 -98 74 -101h-232c27 0 55 10 86 30c30 20 51 45 63 74l203 499c9 23 8 45 -4 65c-12 21 -36 31 -72 32h150l163 -538
c8 -23 15 -36 20 -37c7 -2 13 2 30 42l177 429c25 71 4 101 -49 104z" />
    <glyph glyph-name="O" unicode="O" horiz-adv-x="667" 
d="M539 693c120 -31 179 -184 94 -408c-44 -114 -108 -197 -193 -250s-171 -62 -260 -29c-41 15 -71 47 -90 96s-26 105 -20 170c7 65 25 128 56 189c101 194 269 270 413 232zM498 689c-69 12 -218 -20 -325 -257c-42 -96 -58 -185 -49 -268c9 -82 41 -134 94 -155
c36 -15 79 -18 132 1c76 26 165 102 221 264c41 121 55 217 40 290s-52 115 -113 125z" />
    <glyph glyph-name="P" unicode="P" horiz-adv-x="607" 
d="M608 620c13 -23 15 -55 8 -97s-22 -77 -45 -104c-90 -105 -196 -104 -349 -86c191 -11 299 28 343 157c12 37 14 81 1 125c-12 45 -58 79 -130 79c-44 0 -73 -1 -88 -3l-258 -631c-13 -33 14 -57 63 -60h-241c68 0 114 28 137 84l223 544c19 46 1 70 -52 72h132h80
c99 0 147 -21 176 -80z" />
    <glyph glyph-name="Q" unicode="Q" horiz-adv-x="711" 
d="M545 693c120 -31 179 -184 94 -408c-44 -114 -108 -197 -193 -250s-171 -62 -260 -29c-41 15 -71 47 -90 96s-26 105 -20 170c7 65 25 128 56 189c101 194 269 270 413 232zM504 689c-69 12 -218 -20 -325 -257c-42 -96 -58 -185 -49 -268c9 -82 41 -134 94 -155
c36 -15 79 -18 132 1c76 26 165 102 221 264c41 121 55 217 40 290s-52 115 -113 125zM218 -43c71 -18 119 -134 177 -169c55 -36 130 -37 186 4c-51 -57 -111 -75 -180 -54c-57 17 -97 60 -116 99c-19 37 -53 81 -98 100c-37 15 -85 17 -144 5c61 35 106 38 175 15z" />
    <glyph glyph-name="R" unicode="R" horiz-adv-x="621" 
d="M612 486c-39 -93 -136 -138 -257 -141c21 -13 38 -33 51 -61l66 -148l7 -16c5 -10 7 -16 8 -18l8 -16c9 -19 11 -18 20 -34c9 -15 15 -18 26 -29s22 -18 34 -23h-88c-15 13 -32 42 -52 89l-71 167c-17 39 -35 65 -54 78s-51 23 -97 29l-121 -295c-16 -40 16 -68 60 -68
h-233c64 0 107 29 130 86l221 550c15 36 -6 63 -54 64h225c165 0 214 -112 171 -214zM382 367c80 9 154 55 182 126c31 74 34 197 -158 200l-59 1l-132 -325c69 -7 124 -7 167 -2z" />
    <glyph glyph-name="S" unicode="S" horiz-adv-x="534" 
d="M573 644l-31 -80c-8 76 -46 120 -113 133c-59 11 -105 2 -140 -29c-34 -31 -48 -72 -43 -124c4 -37 22 -68 41 -88c9 -10 28 -28 55 -54l21 -20l27 -26l25 -27c25 -28 29 -39 45 -68c22 -40 22 -77 10 -125c-16 -48 -44 -84 -84 -108c-39 -24 -81 -37 -125 -38
c-89 -2 -162 26 -221 85c-17 16 -29 31 -36 46l42 99l1 -14c1 -17 13 -58 34 -91c47 -77 115 -115 206 -114c50 1 87 21 112 61c25 41 32 84 20 131c-13 48 -53 104 -122 168c-43 41 -74 76 -91 107s-19 68 -8 109c22 83 88 126 198 130c52 2 97 -8 136 -30
c18 -9 32 -20 41 -33z" />
    <glyph glyph-name="T" unicode="T" horiz-adv-x="673" 
d="M147 700h571l-21 -123s-3 66 -59 94c-19 10 -37 16 -54 18c-16 3 -41 4 -74 4h-51l-247 -614c-20 -48 22 -76 75 -79h-252c30 0 97 12 129 87l243 606h-57h-38c-37 0 -79 -12 -126 -35c-33 -16 -73 -53 -92 -76l-13 -17z" />
    <glyph glyph-name="U" unicode="U" horiz-adv-x="680" 
d="M637 700h211c-34 0 -63 -9 -87 -26c-23 -17 -46 -53 -68 -106l-141 -350c-59 -146 -154 -219 -285 -219c-81 0 -139 44 -162 104c-23 59 -6 156 49 289l100 239c17 41 -3 66 -52 69h214c-57 0 -96 -26 -117 -77l-122 -301c-43 -105 -45 -186 -17 -230
c28 -43 67 -63 118 -68c105 -9 202 47 262 195l159 389c20 48 20 87 -62 92z" />
    <glyph glyph-name="V" unicode="V" horiz-adv-x="670" 
d="M259 -37l-24 650c-2 55 -29 84 -80 87h218c-44 0 -90 -26 -89 -82l17 -445c1 -29 2 -38 3 -54c3 -15 6 -19 13 -22c11 -4 22 8 55 59l289 447c36 63 14 97 -35 97h199c-45 0 -108 -32 -151 -97z" />
    <glyph glyph-name="W" unicode="W" horiz-adv-x="894" 
d="M849 700h200c-21 0 -47 -9 -78 -28c-31 -18 -55 -41 -73 -69l-415 -640l-18 487l-316 -487l-25 669c-1 51 -22 65 -69 68h208c-44 0 -90 -26 -89 -82l14 -394c0 -13 1 -47 1 -66c2 -31 3 -62 15 -64c10 -3 24 10 42 39l218 338l-6 161c-1 51 -22 65 -69 68h207
c-22 0 -43 -7 -62 -20s-28 -34 -27 -62l18 -445c0 -13 1 -40 1 -51c3 -19 3 -31 14 -33c14 -3 35 31 45 51l299 463c36 63 14 97 -35 97z" />
    <glyph glyph-name="X" unicode="X" horiz-adv-x="562" 
d="M514 700h203c-49 -4 -118 -45 -170 -102l-213 -234l77 -301c12 -41 62 -63 114 -63h-226c44 1 71 26 64 49l-71 280l-210 -228c-51 -63 -27 -98 26 -101h-203c21 0 49 12 83 36c34 25 63 49 86 74l215 230l-78 306c-9 32 -44 54 -89 54h204c-47 -3 -73 -23 -65 -51
l70 -274l208 227c55 61 22 96 -25 98z" />
    <glyph glyph-name="Y" unicode="Y" horiz-adv-x="509" 
d="M454 700h185c-39 -5 -89 -42 -148 -111l-175 -203c-17 -19 -31 -44 -43 -73l-95 -239c-16 -43 14 -70 55 -74h-217c19 0 40 6 63 19s40 33 50 59l93 238c8 20 9 46 2 77l-52 238c-12 48 -52 69 -85 69h185c-44 -5 -59 -33 -51 -72l48 -222c4 -15 9 -23 16 -24
c11 -1 22 5 34 20l169 196c24 31 31 56 21 74c-10 19 -28 28 -55 28z" />
    <glyph glyph-name="Z" unicode="Z" horiz-adv-x="623" 
d="M159 9h99c67 0 134 15 200 44c54 25 94 56 120 94l-77 -147h-513l616 658c21 23 17 35 -12 35h-103c-77 0 -141 -13 -192 -40c-50 -26 -87 -58 -111 -95l70 142h452l-580 -623c-28 -31 -38 -49 -23 -58c15 -8 23 -9 54 -10z" />
    <glyph glyph-name="bracketleft" unicode="[" horiz-adv-x="264" 
d="M92 -183l-164 -1l360 882l164 -2l-153 -11l-348 -856z" />
    <glyph glyph-name="backslash" unicode="\" horiz-adv-x="329" 
d="M297 -10h-13l-275 711h12z" />
    <glyph glyph-name="bracketright" unicode="]" horiz-adv-x="264" 
d="M162 700l164 1l-360 -882l-164 2l153 11l348 856z" />
    <glyph glyph-name="asciicircum" unicode="^" horiz-adv-x="383" 
d="M196 616l142 -257l-143 225l-150 -215z" />
    <glyph glyph-name="underscore" unicode="_" horiz-adv-x="387" 
d="M-55 2v9h397v-9h-397z" />
    <glyph glyph-name="grave" unicode="`" horiz-adv-x="152" 
d="M63 628l31 -136l-69 125c-10 23 -8 37 6 41c16 8 29 -6 32 -30z" />
    <glyph glyph-name="a" unicode="a" horiz-adv-x="471" 
d="M315 28c18 -5 60 28 126 101l-57 -66c-27 -31 -62 -63 -88 -63c-38 0 -47 34 -19 97l99 230c29 75 24 117 -16 127c-27 7 -60 -3 -97 -32s-72 -67 -105 -116c-77 -110 -119 -266 -43 -277c37 -5 78 11 107 39c31 28 46 47 59 66c-11 -20 -24 -41 -55 -78
s-77 -63 -121 -62c-106 3 -93 155 -7 284c89 133 185 187 258 183c31 -1 52 -16 61 -43l26 15l34 24l-152 -357c-19 -45 -23 -69 -10 -72zM441 129l1 1z" />
    <glyph glyph-name="b" unicode="b" horiz-adv-x="428" 
d="M165 343c12 21 33 45 64 72c31 28 62 43 93 46c99 12 131 -108 40 -269c-39 -70 -82 -122 -129 -155s-86 -49 -119 -48c-97 0 -101 106 -55 221l166 412c15 37 21 58 16 63c-5 7 -46 12 -77 13l-22 2h164l-199 -491c-12 -30 -22 -59 -29 -86s-9 -54 -7 -79
c3 -25 13 -41 31 -46c32 -9 67 3 104 36s71 76 100 128c60 106 105 255 11 266c-25 4 -53 -4 -84 -24s-53 -40 -68 -61z" />
    <glyph glyph-name="c" unicode="c" horiz-adv-x="384" 
d="M313 463c47 1 74 -25 81 -57c3 -21 0 -38 -10 -49c-12 -15 -36 -16 -47 -7c-13 12 -12 33 3 44c12 6 18 16 17 31c-1 24 -17 35 -46 34c-23 -1 -50 -14 -80 -39c-40 -33 -75 -82 -104 -147c-29 -64 -42 -118 -41 -161c1 -57 24 -86 68 -87c28 0 55 9 81 27
c27 19 46 37 59 56l18 27c-4 -8 -7 -17 -30 -50c-11 -16 -22 -30 -35 -43c-24 -24 -67 -50 -107 -51c-57 -1 -98 39 -101 102c-1 42 7 88 26 138s45 94 78 133c53 64 109 97 170 99z" />
    <glyph glyph-name="d" unicode="d" horiz-adv-x="468" 
d="M314 33c5 -3 18 4 37 19c20 16 38 32 55 49l26 25c-69 -84 -120 -126 -152 -126c-25 0 -28 22 -11 65l99 247c31 83 26 131 -16 144c-29 7 -61 -3 -97 -31c-36 -27 -69 -66 -99 -115c-25 -39 -45 -80 -61 -121c-15 -41 -22 -79 -20 -112s17 -52 44 -56
c49 -7 104 29 165 110c-11 -19 -18 -32 -53 -75c-33 -43 -81 -70 -126 -69c-102 -2 -93 164 -8 294c77 124 160 185 249 182c31 -1 54 -14 67 -39l79 196c14 38 19 59 14 64c-5 7 -46 11 -75 14l-22 1h161l-255 -634c-7 -19 -8 -29 -1 -32z" />
    <glyph glyph-name="e" unicode="e" horiz-adv-x="414" 
d="M344 463c44 -4 75 -38 67 -87c-3 -25 -17 -48 -42 -71s-63 -40 -115 -52s-95 -18 -130 -18c113 9 190 45 231 110c17 24 24 48 22 72c-1 25 -13 39 -36 42c-59 9 -123 -45 -192 -160c-19 -32 -35 -67 -46 -106s-14 -75 -9 -110s23 -55 53 -62c78 -17 153 63 177 100
l10 14c-4 -8 -8 -17 -33 -52c-13 -17 -26 -32 -40 -45c-27 -25 -73 -51 -117 -51c-52 0 -84 28 -95 85s4 125 45 204c27 51 56 91 88 121c65 60 113 70 162 66z" />
    <glyph glyph-name="f" unicode="f" horiz-adv-x="256" 
d="M518 646c4 -31 -14 -46 -34 -45s-31 20 -20 35c17 21 6 58 -33 66c-75 16 -112 -36 -163 -164l-35 -88h108l-17 -10h-95l-190 -478c-29 -72 -59 -120 -91 -144c-33 -24 -68 -35 -106 -34c-51 1 -83 17 -97 48c-9 19 -5 43 8 52c16 11 38 2 39 -17c1 -13 -10 -27 -10 -34
c-3 -19 17 -40 56 -43c54 -4 106 58 157 185l186 465h-33l-13 10h50l26 64c61 152 128 208 223 195c52 -7 80 -39 84 -63z" />
    <glyph glyph-name="g" unicode="g" horiz-adv-x="431" 
d="M301 460c79 -7 119 -60 116 -127c-2 -58 -25 -106 -70 -143c-44 -37 -93 -51 -148 -42c-25 3 -48 11 -68 25c-16 -7 -56 -24 -48 -56c2 -13 15 -27 40 -42l89 -52c35 -19 62 -39 80 -58c25 -24 37 -54 35 -89c-7 -84 -86 -139 -201 -134c-37 1 -72 7 -103 16
c-63 19 -115 67 -111 134c2 33 16 61 43 86c26 24 52 40 77 48l38 12c-75 -40 -108 -75 -113 -134c-2 -49 16 -86 54 -112c39 -26 85 -40 138 -42c59 -1 101 18 117 46c16 27 20 44 21 61c3 51 -29 95 -95 130c-10 5 -22 12 -37 19c-29 15 -39 20 -60 32
c-34 21 -50 40 -50 70c1 35 44 58 81 69c-29 25 -41 59 -38 102c4 53 26 98 65 134s89 52 148 47zM376 324c5 81 -26 120 -73 129c-45 9 -84 -5 -116 -40c-31 -35 -50 -77 -57 -128c-9 -77 16 -120 73 -130c44 -9 83 3 116 36c34 33 53 78 57 133zM475 453
c15 0 22 -6 22 -17c0 -9 -9 -18 -22 -18c-11 0 -21 10 -29 10c-12 0 -26 -7 -42 -22c23 31 47 47 71 47z" />
    <glyph glyph-name="h" unicode="h" horiz-adv-x="516" 
d="M328 700l-282 -700h-41l227 582l15 39c9 35 25 53 14 64c-5 7 -45 12 -74 13l-22 2h163zM357 28c5 -3 18 4 39 21s40 35 58 53l27 28l-14 -16l-16 -19c-5 -7 -26 -30 -35 -39c-8 -8 -26 -26 -35 -33c-17 -12 -34 -23 -48 -23c-21 0 -30 9 -29 28c3 20 7 32 16 57l77 200
c19 48 25 70 28 98s-8 41 -35 45c-54 9 -127 -38 -218 -141c23 29 38 48 46 57c8 10 22 25 41 46c20 21 36 35 48 42c25 15 65 31 104 27c71 -8 72 -84 28 -184l-71 -187c-14 -27 -20 -56 -11 -60z" />
    <glyph glyph-name="i" unicode="i" horiz-adv-x="297" 
d="M289 552c-26 -32 -78 18 -45 46c30 30 75 -16 45 -46zM55 59l133 327c10 23 12 36 5 38c-5 3 -18 -4 -39 -20c-21 -15 -40 -32 -58 -49l-27 -26c73 85 125 128 158 128c28 0 32 -24 13 -71l-134 -327c-9 -19 -10 -30 -3 -33c5 -3 18 4 39 19c21 16 41 33 59 50l27 26
c-73 -85 -126 -128 -159 -128c-37 0 -28 32 -14 66z" />
    <glyph glyph-name="j" unicode="j" horiz-adv-x="263" 
d="M273 542c-43 0 -43 66 0 66c41 0 41 -66 0 -66zM240 395l-197 -485c-39 -95 -110 -135 -215 -122c-24 3 -59 21 -68 37c-15 17 -13 38 0 46c13 12 38 6 43 -15c1 -8 -2 -28 -2 -33c1 -13 9 -22 24 -25c71 -15 128 29 171 132l186 445c15 35 18 54 10 57
c-5 3 -19 -4 -40 -21s-40 -34 -59 -51l-27 -27c72 81 122 123 151 126c34 3 42 -18 23 -64z" />
    <glyph glyph-name="k" unicode="k" horiz-adv-x="419" 
d="M292 28c28 -5 59 15 72 34l10 14c-23 -56 -55 -82 -96 -79c-48 3 -76 43 -84 119c-2 16 -4 34 -5 53c-1 40 -3 54 -14 67c-7 9 -15 14 -23 15l-102 -251h-45l246 618c12 32 26 59 19 67c-7 7 -48 12 -79 13l-23 2h166l-180 -444c16 1 53 -1 64 -36c3 -9 5 -30 7 -64
c5 -68 20 -117 67 -128zM427 452c27 -15 16 -42 -3 -46c-4 0 -73 -6 -130 -43c-37 -21 -88 -61 -113 -85l-19 -17c40 47 78 85 115 114c73 61 123 86 150 77z" />
    <glyph glyph-name="l" unicode="l" horiz-adv-x="251" 
d="M334 700l-257 -642c-7 -20 -9 -31 -4 -33c5 -3 18 4 38 19c21 16 40 33 58 50l27 25c-26 -31 -54 -59 -85 -86c-30 -27 -54 -40 -73 -40c-23 0 -26 22 -9 65l227 561c17 39 23 61 18 66c-7 7 -47 12 -78 13l-23 2h161z" />
    <glyph glyph-name="m" unicode="m" horiz-adv-x="804" 
d="M652 20c5 -3 18 5 37 22c20 17 38 35 55 54l26 27l-18 -22c-16 -20 -24 -29 -41 -49c-28 -32 -60 -59 -83 -59c-39 0 -29 43 -13 84l76 207c16 41 22 66 25 94c4 28 -6 44 -29 49c-26 6 -56 -4 -89 -29s-79 -71 -136 -139l37 51c17 25 30 42 38 53s20 25 35 42
c16 17 30 29 42 36c24 15 59 26 92 21c69 -12 71 -77 27 -189l-68 -193c-15 -38 -20 -58 -13 -60zM190 274c51 71 89 118 114 141c42 37 83 52 122 45c71 -14 74 -75 31 -187l-103 -274h-41l102 285c15 43 20 66 23 94s-8 43 -31 48c-50 11 -122 -39 -217 -152zM227 384
l-155 -384h-39l147 384c11 23 12 35 5 38c-5 3 -18 -4 -38 -20s-39 -33 -56 -50l-26 -26c72 87 121 130 148 130c28 0 33 -24 14 -72z" />
    <glyph glyph-name="n" unicode="n" horiz-adv-x="545" 
d="M384 28c5 -3 18 5 38 22c21 17 40 35 58 54l26 28l-30 -37c-5 -7 -25 -30 -33 -38s-24 -26 -35 -34c-17 -12 -31 -23 -46 -23c-36 0 -41 28 -16 85l81 200c34 84 31 132 -8 143c-24 6 -53 -2 -87 -24c-33 -22 -78 -66 -133 -131c49 67 81 107 95 122c47 51 95 72 144 64
c67 -11 78 -72 33 -181l-76 -190c-14 -37 -18 -57 -11 -60zM232 373l-150 -373h-44l146 378c9 24 11 37 4 39c-5 3 -18 -4 -37 -20s-38 -32 -55 -49l-25 -26c69 85 120 127 151 127c25 0 28 -25 10 -76z" />
    <glyph glyph-name="o" unicode="o" horiz-adv-x="439" 
d="M245 452c57 19 99 15 128 -12s43 -66 41 -116c-2 -55 -16 -109 -42 -163c-26 -53 -60 -97 -103 -130c-42 -33 -85 -47 -129 -42c-112 11 -111 144 -81 240c43 133 118 199 186 223zM255 447c-29 -13 -58 -41 -86 -84s-50 -91 -65 -142c-13 -51 -18 -97 -14 -148
s34 -83 86 -79c47 5 89 45 128 120s61 147 66 214c7 56 -3 93 -30 112c-26 19 -54 22 -85 7z" />
    <glyph glyph-name="p" unicode="p" horiz-adv-x="488" 
d="M388 464c50 -2 75 -33 75 -94c1 -61 -20 -125 -63 -194c-77 -127 -159 -190 -246 -187c-49 4 -64 37 -64 45l-68 -169c-15 -39 -21 -60 -16 -65c7 -7 47 -11 78 -14l23 -1h-262c53 1 85 7 97 17c7 7 18 28 31 63l216 527c8 19 9 29 2 32c-5 3 -18 -4 -39 -20
s-40 -33 -58 -50l-27 -25c73 85 124 127 152 127c26 0 31 -21 15 -64l-103 -256c-30 -81 -24 -127 19 -140c27 -7 59 4 96 34s72 71 103 122c69 114 105 261 29 275c-63 14 -140 -85 -168 -125l-10 -16c0 3 81 182 188 178z" />
    <glyph glyph-name="q" unicode="q" horiz-adv-x="462" 
d="M234 -200c5 -7 46 -11 78 -14l23 -1h-265c53 1 84 7 95 17c14 9 20 33 34 63l182 447c33 83 27 131 -18 144c-29 7 -62 -4 -100 -33c-37 -29 -72 -69 -103 -119c-25 -41 -46 -82 -62 -123c-15 -40 -22 -76 -21 -108s15 -50 41 -55c73 -11 155 88 180 128l11 16
c0 -1 -91 -180 -200 -176c-108 0 -97 153 -8 289c49 75 95 125 136 151c42 26 83 38 122 37c34 -1 56 -16 66 -44c5 3 17 10 34 22c18 12 28 19 31 22l-242 -598c-13 -33 -22 -57 -14 -65z" />
    <glyph glyph-name="r" unicode="r" horiz-adv-x="390" 
d="M15 0l155 388c10 22 14 38 2 38c-7 0 -20 -8 -40 -24c-19 -15 -37 -31 -54 -46l-24 -24c27 31 55 59 84 86s52 40 67 40c13 0 22 -5 25 -16c3 -13 0 -31 -11 -54l-158 -388h-46zM198 325l10 13c12 16 40 47 63 67c35 30 68 45 99 45c29 0 45 -17 45 -36
c0 -20 -15 -35 -38 -30c-7 1 -14 6 -19 15s-16 14 -31 13c-33 -2 -76 -31 -129 -87z" />
    <glyph glyph-name="s" unicode="s" horiz-adv-x="392" 
d="M263 464c30 1 57 -5 80 -18s36 -32 37 -55c1 -17 -8 -36 -25 -36c-16 0 -27 12 -26 25c0 9 8 23 8 32c0 27 -28 49 -73 48c-23 -1 -42 -10 -59 -29c-16 -19 -23 -38 -22 -59c0 -20 9 -44 14 -55l18 -31l18 -30c9 -16 32 -50 41 -67c11 -17 22 -46 22 -71
c1 -41 -14 -73 -44 -96s-67 -35 -111 -34c-80 1 -122 49 -122 109c-3 37 16 65 44 66c19 0 32 -14 27 -29c-2 -9 -8 -15 -18 -19c-9 -3 -15 -9 -18 -17c-10 -23 -8 -45 7 -67s37 -35 67 -38c35 -4 64 5 87 28c24 23 35 49 34 79c-1 29 -19 69 -52 121c-7 11 -21 35 -26 42
c-4 8 -14 25 -17 32c-8 19 -12 33 -15 54c-3 61 51 111 124 115z" />
    <glyph glyph-name="t" unicode="t" horiz-adv-x="286" 
d="M310 441h-68l-150 -381c-9 -22 -9 -34 -2 -37c5 -3 18 4 37 20c20 16 38 33 55 50l26 26l-23 -30c-13 -17 -23 -29 -30 -36l-28 -28c-23 -23 -41 -32 -60 -32c-32 0 -43 33 -28 65l154 383h-35l-7 9h45l43 107l67 47l-61 -154h74z" />
    <glyph glyph-name="u" unicode="u" horiz-adv-x="510" 
d="M179 430c-5 3 -17 -4 -36 -21s-36 -34 -53 -51l-24 -27c4 5 20 26 27 34l31 37c29 29 54 55 76 55c33 0 38 -27 15 -82l-80 -207c-27 -72 -41 -132 6 -142c44 -11 102 29 207 156c-49 -67 -76 -105 -83 -113c-45 -54 -90 -79 -135 -74c-2 0 -4 0 -7 1
c-64 11 -74 71 -29 182c34 91 59 156 76 194c15 35 18 55 9 58zM506 450l-153 -386c-10 -26 -12 -41 -5 -44c5 -2 18 5 38 21c21 17 40 34 58 51l26 27c-51 -61 -89 -99 -112 -114c-13 -8 -23 -12 -32 -12c-32 0 -38 36 -22 71l156 386h46z" />
    <glyph glyph-name="v" unicode="v" horiz-adv-x="428" 
d="M397 455c39 -4 47 -39 23 -106c-11 -31 -28 -65 -51 -102c-28 -45 -62 -90 -102 -137c-39 -47 -77 -86 -112 -117c1 9 3 22 6 37c3 16 6 45 9 86c3 42 5 79 4 112c-4 124 -28 189 -72 194c-20 3 -43 -18 -52 -49c7 40 27 79 62 83s62 -16 81 -59s28 -99 29 -168
c1 -68 -2 -124 -9 -167c25 21 55 55 90 102c36 47 60 83 71 107c25 51 28 89 10 112c-13 18 -20 33 -19 45c1 15 12 28 32 27z" />
    <glyph glyph-name="w" unicode="w" horiz-adv-x="628" 
d="M605 457c49 -2 40 -117 -54 -270c-30 -48 -65 -90 -104 -125s-74 -58 -105 -69c1 5 5 12 10 45c3 17 6 35 7 52c4 36 3 93 -8 145c-1 -3 -4 -10 -11 -21c-12 -21 -46 -71 -81 -107c-19 -21 -41 -41 -65 -60s-43 -32 -58 -41l-21 -13c14 72 23 147 27 224
c7 130 -8 199 -43 206c-24 5 -38 -7 -54 -54c0 3 3 19 4 23c1 5 3 21 6 26c9 20 22 41 52 40c69 3 91 -74 83 -237c-4 -71 -10 -131 -19 -182c84 59 146 141 178 204c-17 59 -27 95 -28 108c-6 58 14 91 59 100c17 3 28 -1 34 -13c6 -11 8 -27 7 -48s-13 -55 -36 -102
c24 -85 29 -169 15 -253c32 19 67 53 105 100s64 90 79 128c18 50 18 92 -1 127c-12 19 -17 34 -15 46c3 15 17 24 37 21zM405 390c-1 33 -8 50 -22 51c-5 0 -9 -2 -13 -6c-7 -9 -9 -32 -6 -71c1 -16 9 -43 14 -59l4 -12l2 3c4 12 21 56 21 94z" />
    <glyph glyph-name="x" unicode="x" horiz-adv-x="461" 
d="M433 461c67 1 67 -55 58 -95c1 35 -23 56 -54 56c-38 0 -80 -31 -126 -92l-31 -43l-32 -45l9 -92c5 -44 7 -61 15 -89c8 -27 21 -39 41 -40c27 -3 50 13 68 47c0 0 -18 -77 -82 -77c-43 0 -69 31 -76 93l-14 119c-19 -31 -44 -67 -73 -106c-20 -27 -35 -46 -46 -58
c-21 -24 -55 -48 -91 -48c-32 0 -56 15 -60 38s6 45 31 67c-23 -29 -7 -63 28 -66c43 -4 76 16 133 79c17 18 43 51 78 99l-16 136c-6 53 -22 81 -47 82c-35 2 -62 -20 -82 -65c1 5 2 12 13 35c14 29 39 65 80 65c56 0 72 -34 81 -123l9 -91c24 37 52 83 63 98l18 30
c9 15 17 26 22 33c17 23 49 58 83 53z" />
    <glyph glyph-name="y" unicode="y" horiz-adv-x="417" 
d="M393 457c60 -5 42 -122 -62 -268c-96 -139 -199 -250 -308 -333c-44 -33 -82 -51 -114 -56c-35 -4 -57 -1 -68 8c-17 15 -9 44 20 52c5 5 27 -1 31 -2s26 -10 31 -13c29 -11 79 3 127 43l29 25c29 25 57 52 84 81c11 78 13 156 8 235c-5 71 -11 120 -19 149
s-22 44 -42 46c-25 2 -43 -14 -56 -49c13 53 34 81 64 82c72 4 95 -70 102 -226c3 -87 2 -146 -3 -177c35 39 66 78 94 117c35 51 56 85 61 100c21 51 22 90 4 117c-14 20 -21 34 -20 43c1 15 14 30 37 26zM213 48c-1 0 -2 -1 -2 -2c0 1 1 2 2 2z" />
    <glyph glyph-name="z" unicode="z" horiz-adv-x="370" 
d="M103 384l11 18c16 25 51 55 84 55c18 0 37 -5 56 -15c20 -10 37 -15 50 -15c17 1 37 4 58 9c22 6 35 12 38 17l-17 -35c-11 -23 -32 -54 -61 -91s-62 -70 -99 -99c-23 -19 -51 -39 -82 -61s-55 -40 -72 -54c-17 -13 -31 -28 -44 -44l7 4c11 5 33 12 53 11
c24 -1 49 -10 76 -25s50 -24 68 -25c43 -3 75 9 96 36l-11 -20c-13 -25 -51 -58 -88 -58c-25 0 -54 8 -85 24s-57 24 -79 25c-35 1 -67 -10 -97 -33l11 16c13 21 48 62 80 90c3 3 38 28 103 75c65 48 109 85 130 111c35 39 59 72 71 99l-12 -5c-16 -8 -44 -13 -81 -9
c-14 3 -30 9 -48 19s-32 15 -42 16c-31 3 -56 -9 -74 -36z" />
    <glyph glyph-name="braceleft" unicode="{" horiz-adv-x="322" 
d="M468 700c-48 5 -85 3 -111 -7c-24 -10 -44 -26 -61 -49c-19 -25 -33 -55 -44 -90c-10 -35 -17 -67 -21 -94c-7 -55 -35 -116 -88 -147c11 -15 13 -40 8 -75c-5 -34 -16 -66 -32 -97l-27 -49c-15 -27 -25 -48 -31 -61c-12 -25 -31 -77 -32 -116c0 -82 82 -110 144 -117
c-179 2 -205 119 -131 264l22 42c19 36 23 45 35 70c16 37 20 54 20 84c0 34 -15 55 -45 64c23 3 46 14 69 32c22 18 40 52 55 102c7 22 17 86 36 134c27 68 75 109 120 117c47 9 83 5 114 -7z" />
    <glyph glyph-name="bar" unicode="|" horiz-adv-x="136" 
d="M65 -56v863h6v-863h-6z" />
    <glyph glyph-name="braceright" unicode="}" horiz-adv-x="282" 
d="M-196 -198c48 -5 85 -3 111 7c24 10 44 26 61 49c31 41 49 105 60 158c16 80 38 165 119 211c-10 11 -15 32 -15 63c1 31 7 59 19 82c3 7 14 28 32 61c36 67 49 105 52 154c0 82 -82 110 -144 117c177 -3 211 -120 131 -264l-28 -51l-18 -38c-1 -5 -10 -26 -10 -31
c1 -5 -5 -27 -1 -35c0 -34 15 -55 45 -64c-23 -3 -46 -14 -69 -32c-13 -11 -26 -30 -41 -59s-26 -57 -34 -84c-7 -22 -17 -86 -36 -134c-27 -68 -75 -109 -120 -117c-47 -9 -83 -5 -114 7z" />
    <glyph glyph-name="asciitilde" unicode="~" horiz-adv-x="388" 
d="M70 288c25 48 68 75 109 72c15 -1 32 -11 51 -29c19 -17 35 -26 48 -26c39 0 73 20 86 51c-4 -18 -16 -35 -35 -50s-39 -23 -59 -23c-21 0 -40 9 -59 28s-38 28 -58 28c-28 0 -56 -17 -83 -51z" />
    <glyph glyph-name="exclamdown" unicode="&#xa1;" horiz-adv-x="197" 
d="M124 454c30 30 76 -16 46 -46s-76 16 -46 46zM110 331l-60 -178c-21 -63 -37 -114 -49 -153c-12 -38 -24 -74 -36 -109c-25 -69 -43 -99 -59 -99c-17 0 -18 19 -5 58c12 39 32 84 63 151s60 128 96 212c19 42 35 81 50 118z" />
    <glyph glyph-name="cent" unicode="&#xa2;" horiz-adv-x="375" 
d="M396 461c3 -19 0 -35 -11 -46c-12 -15 -35 -19 -44 -10c-16 12 -13 32 3 43c1 0 1 0 2 1c12 6 17 16 15 30c-4 21 -20 31 -48 30c-3 0 -7 -1 -14 -2l-166 -411c8 -4 18 -6 29 -6c73 0 133 74 151 105l7 12c-4 -8 -8 -17 -33 -52c-32 -48 -80 -97 -138 -101
c-11 0 -22 1 -32 3l-24 -60h-10l26 63c-39 14 -59 45 -60 93c-1 42 7 88 26 138s45 94 77 132c42 51 89 81 140 91l27 67h10l-26 -65c3 0 10 1 14 1c45 1 71 -18 79 -56zM125 101l163 403c-19 -6 -36 -16 -53 -30c-40 -32 -74 -79 -101 -141c-27 -61 -39 -114 -38 -158
c1 -37 11 -62 29 -74z" />
    <glyph glyph-name="sterling" unicode="&#xa3;" horiz-adv-x="538" 
d="M648 708c35 -8 58 -37 45 -70c-7 -15 -23 -25 -39 -24c-23 3 -32 23 -19 46c16 29 3 43 -25 44c-29 1 -61 -16 -92 -49c-31 -32 -45 -52 -73 -91c-77 -108 -145 -200 -204 -275h126l-13 -9h-119l-139 -174c13 3 32 2 56 -2c24 -3 44 -11 61 -22c8 -5 17 -13 28 -23
c23 -19 37 -28 64 -35c20 -7 43 -8 70 -3c27 6 46 20 55 41s-3 44 -27 48c-17 3 -27 20 -24 35c4 13 15 26 31 27c17 1 29 -8 36 -25c5 -15 6 -32 3 -52c-5 -36 -22 -65 -51 -86s-66 -26 -111 -15c-35 8 -62 36 -79 57c-17 23 -59 43 -119 46c-29 -35 -46 -56 -53 -63
c-22 -22 -42 -33 -61 -33c-42 0 -29 36 -10 55c23 23 61 40 116 50c51 71 92 129 122 174h-60l-8 9h74l59 94c36 58 75 117 117 177c38 54 81 95 128 122c48 27 93 36 135 26zM7 33c17 7 39 28 66 63c-31 -3 -75 -25 -86 -48c-7 -12 4 -22 20 -15z" />
    <glyph glyph-name="currency" unicode="&#xa4;" horiz-adv-x="456" 
d="M498 512l10 -17l-76 -54c16 -31 15 -68 -2 -111c-18 -44 -48 -82 -91 -114l33 -52l-19 -14l-31 54c-43 -29 -87 -43 -131 -43c-43 0 -74 14 -95 42l-74 -53l-9 17l73 53c-15 31 -14 68 3 110c17 43 47 80 88 112l-33 53l19 14l31 -55c45 30 90 45 134 45
c42 0 74 -14 95 -42zM324 482c-41 0 -83 -15 -126 -45s-72 -66 -88 -107c-17 -43 -18 -79 -1 -108s45 -43 86 -43s83 15 125 44c43 29 73 65 90 107c35 84 2 152 -86 152z" />
    <glyph glyph-name="yen" unicode="&#xa5;" horiz-adv-x="577" 
d="M583 700h161c-45 -10 -94 -43 -147 -99l-204 -222h145l-12 -9h-391l-9 9h128l-48 237c-9 48 -37 77 -56 81l-13 3h193c-19 0 -37 -8 -55 -24c-18 -15 -24 -36 -18 -62c3 -11 10 -45 22 -104s22 -102 29 -131h71c9 9 21 21 36 38s37 40 64 69l81 87c53 55 78 116 23 127z
M267 300h-161l-8 9h412l-13 -9h-163c-8 -10 -16 -26 -25 -49l-77 -189c-12 -24 -2 -39 3 -48c14 -13 39 -15 46 -14h-199c49 0 81 21 98 62l77 189c9 21 12 37 10 49z" />
    <glyph glyph-name="brokenbar" unicode="&#xa6;" horiz-adv-x="216" 
d="M157 409l111 273h6l-111 -273h-6zM-4 9l110 273h6l-110 -273h-6z" />
    <glyph glyph-name="section" unicode="&#xa7;" horiz-adv-x="456" 
d="M416 718c38 -1 66 -13 83 -37c17 -23 20 -50 8 -80c-11 -27 -27 -40 -48 -40c-24 0 -22 27 -5 54c15 25 14 46 -3 64c-17 19 -43 27 -76 26c-56 -1 -111 -37 -139 -82c-27 -43 -43 -116 84 -124c116 -8 137 -74 107 -155c-16 -38 -43 -71 -82 -98c13 -25 11 -58 -5 -97
c-16 -41 -45 -74 -87 -101c-41 -27 -84 -40 -129 -40c-58 0 -98 15 -120 44c-21 30 -26 61 -13 92c11 27 33 49 57 49c25 0 33 -23 20 -46c-21 -36 -24 -66 -7 -91c13 -19 34 -31 65 -36s62 1 95 17s56 41 70 75c35 81 3 127 -94 136c-99 10 -130 54 -95 133
c17 39 46 73 86 100c-17 22 -17 54 0 95c18 39 48 73 89 101c42 29 88 42 139 41zM284 443c-43 4 -73 15 -90 32c-17 -13 -32 -29 -44 -48c-28 -42 -42 -115 83 -123c54 -4 90 -21 108 -50c16 15 28 32 37 53c23 53 28 125 -94 136z" />
    <glyph glyph-name="dieresis" unicode="&#xa8;" 
d="M112 550c-30 -33 -78 20 -48 47c31 31 79 -16 48 -47zM302 550c-30 -33 -78 20 -48 47c31 31 79 -16 48 -47z" />
    <glyph glyph-name="copyright" unicode="&#xa9;" horiz-adv-x="769" 
d="M513 10c-89 -63 -179 -95 -268 -95s-153 32 -191 95c-38 64 -39 141 -3 230s99 166 188 229s179 95 268 95s153 -32 191 -95s39 -140 3 -229s-99 -166 -188 -230zM694 241c35 87 34 161 -3 222c-37 62 -99 93 -186 93s-174 -31 -261 -93c-86 -61 -146 -135 -181 -222
s-35 -162 2 -224c37 -61 98 -92 185 -92s173 31 260 92c87 62 149 137 184 224zM190 212c-28 -105 22 -169 115 -174c87 -5 166 28 235 100c-60 -80 -157 -137 -250 -137c-63 0 -109 20 -138 60c-29 41 -29 96 -2 167c22 56 56 104 101 145c92 81 195 112 283 100
c55 -8 95 -45 76 -93c-9 -24 -31 -38 -50 -37c-27 1 -30 28 -13 51c25 44 -4 70 -56 73c-63 3 -125 -20 -184 -70s-98 -112 -117 -185z" />
    <glyph glyph-name="guillemotleft" unicode="&#xab;" horiz-adv-x="333" 
d="M149 136l-87 142l175 151l-150 -155zM249 136l-87 142l175 151l-150 -155z" />
    <glyph glyph-name="logicalnot" unicode="&#xac;" horiz-adv-x="455" 
d="M92 317h345l-3 -7l-42 -103h-7l42 103h-338z" />
    <glyph glyph-name="registered" unicode="&#xae;" horiz-adv-x="736" 
d="M219 469c89 63 179 95 268 95s153 -32 191 -95s39 -140 3 -229s-99 -166 -188 -230c-89 -63 -179 -95 -268 -95s-153 32 -191 95c-38 64 -39 141 -3 230s99 166 188 229zM674 241c35 87 34 161 -3 222c-37 62 -99 93 -186 93s-174 -31 -261 -93
c-86 -61 -146 -135 -181 -222s-35 -162 2 -224c37 -61 98 -92 185 -92s173 31 260 92c87 62 149 137 184 224zM425 468c83 -1 120 -11 124 -54c3 -17 -1 -36 -11 -57c-19 -40 -46 -70 -82 -90c-23 -11 -47 -19 -72 -22c15 -5 26 -22 32 -49l23 -117c5 -21 20 -38 31 -43
l8 -3h-60c-8 11 -14 31 -19 59l-20 103c-5 24 -13 39 -36 44c-21 5 -31 5 -66 5l-70 -172c-16 -38 23 -38 30 -39h-122c30 0 50 13 61 39l144 356c10 26 0 39 -30 39c13 0 36 0 67 1s54 1 68 0zM506 356c19 46 15 76 -10 89c-25 14 -68 20 -131 17l-86 -213h59
c76 1 141 43 168 107z" />
    <glyph glyph-name="overscore" unicode="&#xaf;" 
d="M158 530l4 7l197 1l-4 -8h-197z" />
    <glyph glyph-name="degree" unicode="&#xb0;" horiz-adv-x="154" 
d="M139 509c-33 0 -63 28 -63 63c0 36 28 65 63 65c36 0 65 -28 65 -65c0 -35 -29 -63 -65 -63zM140 523c27 0 51 24 51 51c0 28 -24 51 -51 51c-28 0 -51 -23 -51 -51c0 -27 23 -51 51 -51z" />
    <glyph glyph-name="plusminus" unicode="&#xb1;" horiz-adv-x="567" 
d="M422 570l-86 -213h209l-3 -9h-209l-67 -165h-9l67 165h-209l3 9h209l86 213h9zM455 132h-427l3 9h427z" />
    <glyph glyph-name="acute" unicode="&#xb4;" horiz-adv-x="222" 
d="M137 512l85 111c12 20 30 27 42 14c11 -11 7 -24 -12 -40z" />
    <glyph glyph-name="middot" unicode="&#xb7;" horiz-adv-x="197" 
d="M122 258c-30 -30 -76 16 -46 46s76 -16 46 -46z" />
    <glyph glyph-name="cedilla" unicode="&#xb8;" 
d="M4 -53l65 51l12 4l-54 -43c59 -5 65 -40 36 -76c-59 -83 -164 -84 -186 -48c12 -7 26 -11 43 -12c32 -3 83 15 115 63c30 42 -6 59 -31 61z" />
    <glyph glyph-name="guillemotright" unicode="&#xbb;" horiz-adv-x="333" 
d="M98 417l87 -142l-175 -151l150 155zM192 414l87 -142l-175 -151l150 155z" />
    <glyph glyph-name="questiondown" unicode="&#xbf;" horiz-adv-x="258" 
d="M172 466c31 31 77 -16 47 -46c-28 -32 -78 18 -47 46zM190 352c-3 -80 -44 -155 -92 -207c-24 -26 -48 -51 -72 -75c-48 -47 -86 -96 -87 -143c-1 -79 39 -121 106 -124c51 -2 82 17 92 57c4 17 -6 51 -5 63c4 25 23 38 47 33c19 -5 26 -23 20 -53
c-15 -57 -70 -111 -157 -108c-97 3 -161 59 -149 155c8 72 107 140 184 209c55 49 102 118 113 193z" />
    <glyph glyph-name="Agrave" unicode="&#xc0;" horiz-adv-x="580" 
d="M459 862l31 -136l-69 125c-10 23 -8 37 6 41c16 8 29 -6 32 -30zM535 1h-210c44 0 90 26 89 82l-6 216h-240l-130 -201c-36 -63 -10 -97 41 -97h-204c21 0 47 9 78 27c31 19 55 42 73 70l415 640l25 -669c1 -51 22 -65 69 -68zM363 601l-189 -293h233l-6 220
c-1 56 -3 85 -6 87c-11 7 -21 3 -32 -14z" />
    <glyph glyph-name="Aacute" unicode="&#xc1;" horiz-adv-x="580" 
d="M509 882c11 -11 7 -24 -12 -40l-115 -85l85 111c12 20 30 27 42 14zM535 1h-210c44 0 90 26 89 82l-6 216h-240l-130 -201c-36 -63 -10 -97 41 -97h-204c21 0 47 9 78 27c31 19 55 42 73 70l415 640l25 -669c1 -51 22 -65 69 -68zM363 601l-189 -293h233l-6 220
c-1 56 -3 85 -6 87c-11 7 -21 3 -32 -14z" />
    <glyph glyph-name="Acircumflex" unicode="&#xc2;" horiz-adv-x="580" 
d="M517 877l-6 -119l-24 92l-150 -94l140 121h40zM535 1h-210c44 0 90 26 89 82l-6 216h-240l-130 -201c-36 -63 -10 -97 41 -97h-204c21 0 47 9 78 27c31 19 55 42 73 70l415 640l25 -669c1 -51 22 -65 69 -68zM363 601l-189 -293h233l-6 220c-1 56 -3 85 -6 87
c-11 7 -21 3 -32 -14z" />
    <glyph glyph-name="Atilde" unicode="&#xc3;" horiz-adv-x="580" 
d="M507 785c29 -4 64 17 83 49c-10 -25 -26 -44 -47 -59c-21 -14 -41 -19 -58 -14c-13 3 -25 13 -35 29c-9 16 -21 25 -36 27c-19 3 -54 -14 -83 -51c29 51 74 79 114 70c13 -3 23 -12 32 -27s19 -23 30 -24zM441 738l25 -669c1 -51 22 -65 69 -68h-210c44 0 90 26 89 82
l-6 216h-240l-130 -201c-36 -63 -10 -97 41 -97h-204c21 0 47 9 78 27c31 19 55 42 73 70zM363 601l-189 -293h233l-6 220c-1 56 -3 85 -6 87c-11 7 -21 3 -32 -14z" />
    <glyph glyph-name="Adieresis" unicode="&#xc4;" horiz-adv-x="580" 
d="M363 869c44 3 44 -69 0 -67c-19 0 -33 15 -33 34s16 33 33 33zM553 869c44 3 44 -69 0 -67c-19 0 -33 15 -33 34s16 33 33 33zM441 738l25 -669c1 -51 22 -65 69 -68h-210c44 0 90 26 89 82l-6 216h-240l-130 -201c-36 -63 -10 -97 41 -97h-204c21 0 47 9 78 27
c31 19 55 42 73 70zM363 601l-189 -293h233l-6 220c-1 56 -3 85 -6 87c-11 7 -21 3 -32 -14z" />
    <glyph glyph-name="Aring" unicode="&#xc5;" horiz-adv-x="580" 
d="M455 763c-33 0 -63 28 -63 63c0 36 28 65 63 65c36 0 65 -28 65 -65c0 -35 -29 -63 -65 -63zM456 879c-28 0 -51 -23 -51 -51c0 -27 23 -51 51 -51c27 0 51 24 51 51c0 28 -24 51 -51 51zM535 1h-210c44 0 90 26 89 82l-6 216h-240l-130 -201c-36 -63 -10 -97 41 -97
h-204c21 0 47 9 78 27c31 19 55 42 73 70l415 640l25 -669c1 -51 22 -65 69 -68zM363 601l-189 -293h233l-6 220c-1 56 -3 85 -6 87c-11 7 -21 3 -32 -14z" />
    <glyph glyph-name="AE" unicode="&#xc6;" horiz-adv-x="914" 
d="M468 700h468l18 -125l-11 19c-4 8 -13 20 -28 36c-14 16 -29 27 -44 34c-36 16 -91 24 -166 24h-37c-33 0 -55 0 -68 -1c-3 -8 -12 -31 -18 -44l-107 -271h86c56 0 93 7 120 30c13 12 22 21 27 27s12 17 23 34l-87 -221c10 49 9 118 -93 119h-81l-115 -292
c-15 -38 1 -57 48 -57c5 0 18 0 40 -1c22 0 37 0 44 1c91 1 167 14 226 39c62 27 108 59 139 98l-89 -149h-586c23 0 47 7 74 22s46 36 57 64l92 227h-195l-208 -221c-65 -68 -1 -90 45 -92h-237c47 0 114 32 161 81l530 567c13 13 18 50 -28 52zM406 327l122 300
c5 13 6 20 3 22c-7 5 -28 -20 -45 -38l-268 -284h188z" />
    <glyph glyph-name="Ccedilla" unicode="&#xc7;" horiz-adv-x="719" 
d="M688 613l-40 -91c0 9 2 19 -9 58c-5 19 -13 37 -22 52c-17 31 -60 63 -115 67c-58 5 -113 -15 -166 -59c-53 -43 -96 -101 -131 -172c-26 -53 -43 -110 -50 -171s0 -116 20 -165c21 -49 56 -77 105 -86c121 -21 221 40 302 182c-29 -61 -66 -113 -115 -160
c-49 -45 -115 -73 -184 -69l-50 -40c59 -5 65 -40 36 -76c-59 -83 -164 -84 -186 -48c12 -7 26 -11 42 -12c33 -3 84 15 116 63c30 42 -6 59 -31 61l65 51l3 1l-25 3c-95 15 -151 87 -162 178s10 199 59 291c55 101 124 172 192 201s122 37 179 32c69 -6 125 -36 167 -91z
" />
    <glyph glyph-name="Egrave" unicode="&#xc8;" horiz-adv-x="662" 
d="M470 862l31 -136l-69 125c-10 23 -8 37 6 41c16 8 29 -6 32 -30zM420 688h-77l-127 -317v1h87c56 0 93 7 120 30c13 12 22 21 27 27s12 17 23 34l-87 -221c10 49 9 118 -93 119h-81l-118 -292c-13 -35 -3 -57 28 -57h108c90 0 166 13 229 39c65 27 104 53 140 98
l-90 -149h-592c25 0 49 6 74 17c24 12 40 26 48 42l237 589c9 29 -18 49 -65 52h444l18 -125l-11 19c-4 8 -13 20 -28 36s-30 27 -45 34c-37 16 -93 24 -169 24z" />
    <glyph glyph-name="Eacute" unicode="&#xc9;" horiz-adv-x="662" 
d="M623 882c11 -11 7 -24 -12 -40l-115 -85l85 111c12 20 30 27 42 14zM420 688h-77l-127 -317v1h87c56 0 93 7 120 30c13 12 22 21 27 27s12 17 23 34l-87 -221c10 49 9 118 -93 119h-81l-118 -292c-13 -35 -3 -57 28 -57h108c90 0 166 13 229 39c65 27 104 53 140 98
l-90 -149h-592c25 0 49 6 74 17c24 12 40 26 48 42l237 589c9 29 -18 49 -65 52h444l18 -125l-11 19c-4 8 -13 20 -28 36s-30 27 -45 34c-37 16 -93 24 -169 24z" />
    <glyph glyph-name="Ecircumflex" unicode="&#xca;" horiz-adv-x="662" 
d="M606 877l-6 -119l-24 92l-150 -94l140 121h40zM420 688h-77l-127 -317v1h87c56 0 93 7 120 30c13 12 22 21 27 27s12 17 23 34l-87 -221c10 49 9 118 -93 119h-81l-118 -292c-13 -35 -3 -57 28 -57h108c90 0 166 13 229 39c65 27 104 53 140 98l-90 -149h-592
c25 0 49 6 74 17c24 12 40 26 48 42l237 589c9 29 -18 49 -65 52h444l18 -125l-11 19c-4 8 -13 20 -28 36s-30 27 -45 34c-37 16 -93 24 -169 24z" />
    <glyph glyph-name="Edieresis" unicode="&#xcb;" horiz-adv-x="662" 
d="M415 869c44 3 44 -69 0 -67c-19 0 -33 15 -33 34s16 33 33 33zM605 869c44 3 44 -69 0 -67c-19 0 -33 15 -33 34s16 33 33 33zM420 688h-77l-127 -317v1h87c56 0 93 7 120 30c13 12 22 21 27 27s12 17 23 34l-87 -221c10 49 9 118 -93 119h-81l-118 -292
c-13 -35 -3 -57 28 -57h108c90 0 166 13 229 39c65 27 104 53 140 98l-90 -149h-592c25 0 49 6 74 17c24 12 40 26 48 42l237 589c9 29 -18 49 -65 52h444l18 -125l-11 19c-4 8 -13 20 -28 36s-30 27 -45 34c-37 16 -93 24 -169 24z" />
    <glyph glyph-name="Igrave" unicode="&#xcc;" horiz-adv-x="304" 
d="M335 862l31 -136l-69 125c-10 23 -8 37 6 41c16 8 29 -6 32 -30zM224 700h231c-62 0 -101 -18 -117 -55l-240 -596c-13 -32 15 -46 67 -49h-244c26 0 52 6 79 17s47 31 58 59l228 567c13 35 -10 54 -62 57z" />
    <glyph glyph-name="Iacute" unicode="&#xcd;" horiz-adv-x="304" 
d="M336 757l85 111c12 20 30 27 42 14c11 -11 7 -24 -12 -40zM455 700h-231c52 -3 75 -22 62 -57l-228 -567c-11 -28 -31 -48 -58 -59s-53 -17 -79 -17h244c-52 3 -80 17 -67 49l240 596c16 37 55 55 117 55z" />
    <glyph glyph-name="Icircumflex" unicode="&#xce;" horiz-adv-x="304" 
d="M266 756l140 121h40l-6 -119l-24 92zM455 700h-231c52 -3 75 -22 62 -57l-228 -567c-11 -28 -31 -48 -58 -59s-53 -17 -79 -17h244c-52 3 -80 17 -67 49l240 596c16 37 55 55 117 55z" />
    <glyph glyph-name="Idieresis" unicode="&#xcf;" horiz-adv-x="304" 
d="M275 869c44 3 44 -69 0 -67c-19 0 -33 15 -33 34s16 33 33 33zM465 869c44 3 44 -69 0 -67c-19 0 -33 15 -33 34s16 33 33 33zM224 700h231c-62 0 -101 -18 -117 -55l-240 -596c-13 -32 15 -46 67 -49h-244c26 0 52 6 79 17s47 31 58 59l228 567c13 35 -10 54 -62 57z
" />
    <glyph glyph-name="Eth" unicode="&#xd0;" horiz-adv-x="705" 
d="M598 670c44 -20 81 -62 104 -125c23 -61 17 -155 -23 -256c-27 -69 -66 -125 -115 -169c-99 -88 -213 -120 -354 -120h-276c66 0 109 24 128 73l113 280h-110l-6 9h120l115 286c13 28 -16 49 -64 52h118c114 2 197 -8 250 -30zM511 128c48 49 85 108 112 176
c27 69 39 133 34 194c-10 111 -65 173 -164 186c-43 6 -86 8 -129 6l-133 -328h83l-8 -9h-78l-115 -284c-19 -33 -11 -56 46 -56h54c125 0 224 38 298 115z" />
    <glyph glyph-name="Ntilde" unicode="&#xd1;" horiz-adv-x="740" 
d="M424 766c29 51 74 79 114 70c13 -3 23 -12 32 -27s19 -23 30 -24c29 -4 64 17 83 49c-10 -25 -26 -44 -47 -59c-21 -14 -41 -19 -58 -14c-13 3 -25 13 -35 29c-9 16 -21 25 -36 27c-19 3 -54 -14 -83 -51zM871 700h-200c53 -3 74 -33 49 -104l-177 -429
c-17 -40 -23 -44 -30 -42c-5 1 -12 14 -20 37l-163 538h-150c36 -1 60 -11 72 -32c12 -20 13 -42 4 -65l-203 -499c-12 -29 -33 -54 -63 -74c-31 -20 -59 -30 -86 -30h232c-65 3 -98 44 -74 101l195 481c13 32 22 48 29 48c1 0 3 0 4 -1c3 -2 9 -18 18 -47l176 -582l245 592
c29 72 77 108 142 108z" />
    <glyph glyph-name="Ograve" unicode="&#xd2;" horiz-adv-x="667" 
d="M492 862l31 -136l-69 125c-10 23 -8 37 6 41c16 8 29 -6 32 -30zM539 693c120 -31 179 -184 94 -408c-44 -114 -108 -197 -193 -250s-171 -62 -260 -29c-41 15 -71 47 -90 96s-26 105 -20 170c7 65 25 128 56 189c101 194 269 270 413 232zM498 689
c-69 12 -218 -20 -325 -257c-42 -96 -58 -185 -49 -268c9 -82 41 -134 94 -155c36 -15 79 -18 132 1c76 26 165 102 221 264c41 121 55 217 40 290s-52 115 -113 125z" />
    <glyph glyph-name="Oacute" unicode="&#xd3;" horiz-adv-x="667" 
d="M466 757l85 111c12 20 30 27 42 14c11 -11 7 -24 -12 -40zM539 693c-144 38 -312 -38 -413 -232c-31 -61 -49 -124 -56 -189c-6 -65 1 -121 20 -170s49 -81 90 -96c89 -33 175 -24 260 29s149 136 193 250c85 224 26 377 -94 408zM498 689c61 -10 98 -52 113 -125
s1 -169 -40 -290c-56 -162 -145 -238 -221 -264c-53 -19 -96 -16 -132 -1c-53 21 -85 73 -94 155c-9 83 7 172 49 268c107 237 256 269 325 257z" />
    <glyph glyph-name="Ocircumflex" unicode="&#xd4;" horiz-adv-x="667" 
d="M446 756l140 121h40l-6 -119l-24 92zM539 693c-144 38 -312 -38 -413 -232c-31 -61 -49 -124 -56 -189c-6 -65 1 -121 20 -170s49 -81 90 -96c89 -33 175 -24 260 29s149 136 193 250c85 224 26 377 -94 408zM498 689c61 -10 98 -52 113 -125s1 -169 -40 -290
c-56 -162 -145 -238 -221 -264c-53 -19 -96 -16 -132 -1c-53 21 -85 73 -94 155c-9 83 7 172 49 268c107 237 256 269 325 257z" />
    <glyph glyph-name="Otilde" unicode="&#xd5;" horiz-adv-x="667" 
d="M364 766c29 51 74 79 114 70c13 -3 23 -12 32 -27s19 -23 30 -24c29 -4 64 17 83 49c-10 -25 -26 -44 -47 -59c-21 -14 -41 -19 -58 -14c-13 3 -25 13 -35 29c-9 16 -21 25 -36 27c-19 3 -54 -14 -83 -51zM539 693c-144 38 -312 -38 -413 -232c-31 -61 -49 -124 -56 -189
c-6 -65 1 -121 20 -170s49 -81 90 -96c89 -33 175 -24 260 29s149 136 193 250c85 224 26 377 -94 408zM498 689c61 -10 98 -52 113 -125s1 -169 -40 -290c-56 -162 -145 -238 -221 -264c-53 -19 -96 -16 -132 -1c-53 21 -85 73 -94 155c-9 83 7 172 49 268
c107 237 256 269 325 257z" />
    <glyph glyph-name="Odieresis" unicode="&#xd6;" horiz-adv-x="667" 
d="M425 869c44 3 44 -69 0 -67c-19 0 -33 15 -33 34s16 33 33 33zM615 869c44 3 44 -69 0 -67c-19 0 -33 15 -33 34s16 33 33 33zM539 693c120 -31 179 -184 94 -408c-44 -114 -108 -197 -193 -250s-171 -62 -260 -29c-41 15 -71 47 -90 96s-26 105 -20 170
c7 65 25 128 56 189c101 194 269 270 413 232zM498 689c-69 12 -218 -20 -325 -257c-42 -96 -58 -185 -49 -268c9 -82 41 -134 94 -155c36 -15 79 -18 132 1c76 26 165 102 221 264c41 121 55 217 40 290s-52 115 -113 125z" />
    <glyph glyph-name="multiply" unicode="&#xd7;" horiz-adv-x="449" 
d="M468 500l5 -9l-207 -147l87 -146l-10 -7l-87 146l-207 -148l-5 9l207 147l-88 148l10 7l88 -147z" />
    <glyph glyph-name="Oslash" unicode="&#xd8;" horiz-adv-x="830" 
d="M619 702l-19 -26c96 -56 124 -191 53 -391c-44 -114 -108 -197 -193 -250s-171 -62 -260 -29c-21 8 -40 22 -57 41l-34 -47l-12 2l39 54c-33 43 -49 103 -48 180c2 77 21 152 58 225c101 194 269 270 413 232c13 -3 24 -8 33 -13l15 21zM193 432
c-28 -63 -45 -125 -50 -188c-5 -62 1 -113 19 -153l416 571c-16 14 -36 23 -60 27c-69 12 -218 -20 -325 -257zM591 274c65 189 59 319 -6 382l-418 -576c17 -35 40 -59 71 -71c36 -15 79 -18 132 1c76 26 165 102 221 264z" />
    <glyph glyph-name="Ugrave" unicode="&#xd9;" horiz-adv-x="680" 
d="M523 862l31 -136l-69 125c-10 23 -8 37 6 41c16 8 29 -6 32 -30zM642 700h211c-34 0 -63 -9 -87 -26c-23 -17 -46 -53 -68 -106l-141 -350c-59 -146 -154 -219 -285 -219c-81 0 -139 44 -162 104c-23 59 -6 156 49 289l100 239c17 41 -3 66 -52 69h214
c-57 0 -96 -26 -117 -77l-122 -301c-43 -105 -45 -186 -17 -230c28 -43 67 -63 118 -68c105 -9 202 47 262 195l159 389c20 48 20 87 -62 92z" />
    <glyph glyph-name="Uacute" unicode="&#xda;" horiz-adv-x="680" 
d="M516 757l85 111c12 20 30 27 42 14c11 -11 7 -24 -12 -40zM853 700h-211c82 -5 82 -44 62 -92l-159 -389c-60 -148 -157 -204 -262 -195c-51 5 -90 25 -118 68c-28 44 -26 125 17 230l122 301c21 51 60 77 117 77h-214c49 -3 69 -28 52 -69l-100 -239
c-55 -133 -72 -230 -49 -289c23 -60 81 -104 162 -104c131 0 226 73 285 219l141 350c22 53 45 89 68 106c24 17 53 26 87 26z" />
    <glyph glyph-name="Ucircumflex" unicode="&#xdb;" horiz-adv-x="680" 
d="M466 756l140 121h40l-6 -119l-24 92zM853 700h-211c82 -5 82 -44 62 -92l-159 -389c-60 -148 -157 -204 -262 -195c-51 5 -90 25 -118 68c-28 44 -26 125 17 230l122 301c21 51 60 77 117 77h-214c49 -3 69 -28 52 -69l-100 -239c-55 -133 -72 -230 -49 -289
c23 -60 81 -104 162 -104c131 0 226 73 285 219l141 350c22 53 45 89 68 106c24 17 53 26 87 26z" />
    <glyph glyph-name="Udieresis" unicode="&#xdc;" horiz-adv-x="680" 
d="M455 869c44 3 44 -69 0 -67c-19 0 -33 15 -33 34s16 33 33 33zM645 869c44 3 44 -69 0 -67c-19 0 -33 15 -33 34s16 33 33 33zM642 700h211c-34 0 -63 -9 -87 -26c-23 -17 -46 -53 -68 -106l-141 -350c-59 -146 -154 -219 -285 -219c-81 0 -139 44 -162 104
c-23 59 -6 156 49 289l100 239c17 41 -3 66 -52 69h214c-57 0 -96 -26 -117 -77l-122 -301c-43 -105 -45 -186 -17 -230c28 -43 67 -63 118 -68c105 -9 202 47 262 195l159 389c20 48 20 87 -62 92z" />
    <glyph glyph-name="Yacute" unicode="&#xdd;" horiz-adv-x="509" 
d="M375 757l85 111c12 20 30 27 42 14c11 -11 7 -24 -12 -40zM644 700h-185c27 0 45 -9 55 -28c10 -18 3 -43 -21 -74l-169 -196c-12 -15 -23 -21 -34 -20c-7 1 -12 9 -16 24l-48 222c-8 39 7 67 51 72h-185c33 0 73 -21 85 -69l52 -238c7 -31 6 -57 -2 -77l-93 -238
c-10 -26 -27 -46 -50 -59s-44 -19 -63 -19h217c-41 4 -71 31 -55 74l95 239c12 29 26 54 43 73l175 203c59 69 109 106 148 111z" />
    <glyph glyph-name="Thorn" unicode="&#xde;" horiz-adv-x="524" 
d="M492 457c19 -37 19 -114 -40 -175c-62 -65 -156 -87 -282 -67c2 0 11 0 28 1s29 1 34 2s16 2 32 3c17 2 29 4 36 7c15 5 50 15 66 28c29 22 57 51 76 99c15 42 14 79 -3 112s-55 50 -112 50h-62l-188 -468c-13 -32 15 -46 67 -49h-243c51 0 112 20 135 76l231 567
c13 35 -11 54 -63 57h230c-62 0 -101 -18 -117 -55l-48 -118h56c96 0 136 -19 167 -70z" />
    <glyph glyph-name="germandbls" unicode="&#xdf;" horiz-adv-x="433" 
d="M-35 -6l210 520c30 73 62 123 96 150s77 37 130 30c56 -8 81 -47 76 -118c-1 -15 0 -16 -12 -48c-14 -43 -51 -83 -131 -108c-12 -3 -41 -7 -54 -11c-25 -5 -44 -16 -46 -39c-1 -13 2 -24 9 -35c7 -10 19 -24 38 -43c19 -18 34 -32 43 -43c35 -40 52 -83 50 -130
c-1 -40 -18 -73 -49 -99s-68 -39 -111 -38c-77 1 -119 47 -119 106c-3 36 15 64 42 67c20 1 34 -14 27 -31c-4 -13 -30 -22 -35 -38c-5 -19 -2 -38 11 -58s33 -32 61 -35c35 -4 64 7 87 32c24 26 35 58 34 96c-1 40 -12 75 -32 106c-17 25 -38 54 -46 63
c-7 11 -14 25 -21 44c-10 30 -5 56 14 68c12 9 15 12 32 20c9 4 16 7 20 8l44 16c45 16 76 48 95 96c20 48 26 126 -30 141c-75 17 -125 -43 -173 -164l-207 -525h-53z" />
    <glyph glyph-name="agrave" unicode="&#xe0;" horiz-adv-x="471" 
d="M351 628l31 -136l-69 125c-10 23 -8 37 6 41c16 8 29 -6 32 -30zM315 28c18 -5 60 28 126 101l-57 -66c-27 -31 -62 -63 -88 -63c-38 0 -47 34 -19 97l99 230c29 75 24 117 -16 127c-27 7 -60 -3 -97 -32s-72 -67 -105 -116c-77 -110 -119 -266 -43 -277
c37 -5 78 11 107 39c31 28 46 47 59 66c-11 -20 -24 -41 -55 -78s-77 -63 -121 -62c-106 3 -93 155 -7 284c89 133 185 187 258 183c31 -1 52 -16 61 -43l26 15l34 24l-152 -357c-19 -45 -23 -69 -10 -72zM441 129l1 1z" />
    <glyph glyph-name="aacute" unicode="&#xe1;" horiz-adv-x="471" 
d="M502 637c11 -11 7 -24 -12 -40l-115 -85l85 111c12 20 30 27 42 14zM448 433l34 24l-152 -357c-19 -45 -23 -69 -10 -72c18 -5 60 28 126 101l-57 -66c-27 -31 -62 -63 -88 -63c-38 0 -47 34 -19 97l99 230c29 75 24 117 -16 127c-27 7 -60 -3 -97 -32s-72 -67 -105 -116
c-77 -110 -119 -266 -43 -277c37 -5 78 11 107 39c31 28 46 47 59 66c-11 -20 -24 -41 -55 -78s-77 -63 -121 -62c-106 3 -93 155 -7 284c89 133 185 187 258 183c31 -1 52 -16 61 -43zM446 129l1 1z" />
    <glyph glyph-name="acircumflex" unicode="&#xe2;" horiz-adv-x="471" 
d="M310 510l140 121h40l-6 -119l-24 92zM443 433l34 24l-152 -357c-19 -45 -23 -69 -10 -72c18 -5 60 28 126 101l-57 -66c-27 -31 -62 -63 -88 -63c-38 0 -47 34 -19 97l99 230c29 75 24 117 -16 127c-27 7 -60 -3 -97 -32s-72 -67 -105 -116c-77 -110 -119 -266 -43 -277
c37 -5 78 11 107 39c31 28 46 47 59 66c-11 -20 -24 -41 -55 -78s-77 -63 -121 -62c-106 3 -93 155 -7 284c89 133 185 187 258 183c31 -1 52 -16 61 -43zM441 129l1 1z" />
    <glyph glyph-name="atilde" unicode="&#xe3;" horiz-adv-x="471" 
d="M436 547c29 -4 64 17 83 49c-10 -25 -26 -44 -47 -59c-21 -14 -41 -19 -58 -14c-13 3 -25 13 -35 29c-9 16 -21 25 -36 27c-19 3 -54 -14 -83 -51c29 51 74 79 114 70c13 -3 23 -12 32 -27s19 -23 30 -24zM443 433l34 24l-152 -357c-19 -45 -23 -69 -10 -72
c18 -5 60 28 126 101l-57 -66c-27 -31 -62 -63 -88 -63c-38 0 -47 34 -19 97l99 230c29 75 24 117 -16 127c-27 7 -60 -3 -97 -32s-72 -67 -105 -116c-77 -110 -119 -266 -43 -277c37 -5 78 11 107 39c31 28 46 47 59 66c-11 -20 -24 -41 -55 -78s-77 -63 -121 -62
c-106 3 -93 155 -7 284c89 133 185 187 258 183c31 -1 52 -16 61 -43zM441 129l1 1z" />
    <glyph glyph-name="adieresis" unicode="&#xe4;" horiz-adv-x="471" 
d="M300 550c-30 -33 -78 20 -48 47c31 31 79 -16 48 -47zM442 597c31 31 79 -16 48 -47c-30 -33 -78 20 -48 47zM443 433l34 24l-152 -357c-19 -45 -23 -69 -10 -72c18 -5 60 28 126 101l-57 -66c-27 -31 -62 -63 -88 -63c-38 0 -47 34 -19 97l99 230c29 75 24 117 -16 127
c-27 7 -60 -3 -97 -32s-72 -67 -105 -116c-77 -110 -119 -266 -43 -277c37 -5 78 11 107 39c31 28 46 47 59 66c-11 -20 -24 -41 -55 -78s-77 -63 -121 -62c-106 3 -93 155 -7 284c89 133 185 187 258 183c31 -1 52 -16 61 -43zM441 129l1 1z" />
    <glyph glyph-name="aring" unicode="&#xe5;" horiz-adv-x="471" 
d="M421 509c-33 0 -63 28 -63 63c0 36 28 65 63 65c36 0 65 -28 65 -65c0 -35 -29 -63 -65 -63zM422 625c-28 0 -51 -23 -51 -51c0 -27 23 -51 51 -51c27 0 51 24 51 51c0 28 -24 51 -51 51zM443 433l34 24l-152 -357c-19 -45 -23 -69 -10 -72c18 -5 60 28 126 101l-57 -66
c-27 -31 -62 -63 -88 -63c-38 0 -47 34 -19 97l99 230c29 75 24 117 -16 127c-27 7 -60 -3 -97 -32s-72 -67 -105 -116c-77 -110 -119 -266 -43 -277c37 -5 78 11 107 39c31 28 46 47 59 66c-11 -20 -24 -41 -55 -78s-77 -63 -121 -62c-106 3 -93 155 -7 284
c89 133 185 187 258 183c31 -1 52 -16 61 -43zM441 129l1 1z" />
    <glyph glyph-name="ae" unicode="&#xe6;" horiz-adv-x="639" 
d="M578 460c64 -2 101 -89 24 -155c-24 -23 -62 -40 -113 -52s-94 -18 -127 -18c111 8 190 52 227 109c16 23 23 47 22 70c-1 24 -11 38 -31 42c-57 11 -122 -42 -193 -157c-19 -31 -34 -67 -45 -106s-13 -75 -8 -108s23 -52 52 -56c78 -11 151 64 174 95l9 13
c-5 -8 -10 -18 -39 -51c-14 -17 -28 -31 -42 -44c-28 -25 -71 -51 -107 -51c-101 -4 -131 135 -50 284c10 19 19 35 28 48c25 40 48 118 -1 131c-27 7 -58 -4 -94 -34c-36 -29 -69 -69 -98 -118c-74 -122 -110 -259 -39 -278c23 -5 46 -1 70 13c25 15 44 30 57 47l19 26
s-69 -123 -158 -119c-101 -1 -95 151 -9 282c80 129 162 191 247 186c39 -3 60 -24 64 -64c51 49 104 70 161 65z" />
    <glyph glyph-name="ccedilla" unicode="&#xe7;" horiz-adv-x="384" 
d="M394 406c3 -21 0 -38 -10 -49c-12 -15 -36 -16 -47 -7c-13 12 -12 33 3 44c12 6 18 16 17 31c-1 24 -17 35 -46 34c-23 -1 -50 -14 -80 -39c-40 -33 -75 -82 -104 -147c-29 -64 -42 -118 -41 -161c1 -57 24 -86 68 -87c28 0 55 9 81 27c27 19 46 37 59 56l18 27
c-3 -7 -6 -15 -26 -44c-26 -39 -67 -85 -125 -98l-43 -34c59 -5 65 -40 36 -76c-59 -83 -164 -84 -186 -48c12 -7 26 -11 42 -12c33 -3 84 15 116 63c30 42 -6 59 -31 61l57 45c-3 -1 -7 -1 -12 -1c-57 -1 -98 39 -101 102c-1 42 7 88 26 138s45 94 78 133
c53 64 109 97 170 99c47 1 74 -25 81 -57z" />
    <glyph glyph-name="egrave" unicode="&#xe8;" horiz-adv-x="414" 
d="M325 630l31 -136l-69 125c-10 23 -8 37 6 41c16 8 29 -6 32 -30zM344 463c44 -4 75 -38 67 -87c-3 -25 -17 -48 -42 -71s-63 -40 -115 -52s-95 -18 -130 -18c113 9 190 45 231 110c17 24 24 48 22 72c-1 25 -13 39 -36 42c-59 9 -123 -45 -192 -160
c-19 -32 -35 -67 -46 -106s-14 -75 -9 -110s23 -55 53 -62c78 -17 153 63 177 100l10 14c-4 -8 -8 -17 -33 -52c-13 -17 -26 -32 -40 -45c-27 -25 -73 -51 -117 -51c-52 0 -84 28 -95 85s4 125 45 204c27 51 56 91 88 121c65 60 113 70 162 66z" />
    <glyph glyph-name="eacute" unicode="&#xe9;" horiz-adv-x="414" 
d="M343 512l85 111c12 20 30 27 42 14c11 -11 7 -24 -12 -40zM344 463c-49 4 -97 -6 -162 -66c-32 -30 -61 -70 -88 -121c-41 -79 -56 -147 -45 -204s43 -85 95 -85c44 0 90 26 117 51c14 13 27 28 40 45c25 35 29 44 33 52l-10 -14c-24 -37 -99 -117 -177 -100
c-30 7 -48 27 -53 62s-2 71 9 110s27 74 46 106c69 115 133 169 192 160c23 -3 35 -17 36 -42c2 -24 -5 -48 -22 -72c-41 -65 -118 -101 -231 -110c35 0 78 6 130 18s90 29 115 52s39 46 42 71c8 49 -23 83 -67 87z" />
    <glyph glyph-name="ecircumflex" unicode="&#xea;" horiz-adv-x="414" 
d="M259 510l140 121h40l-6 -119l-24 92zM344 463c-49 4 -97 -6 -162 -66c-32 -30 -61 -70 -88 -121c-41 -79 -56 -147 -45 -204s43 -85 95 -85c44 0 90 26 117 51c14 13 27 28 40 45c25 35 29 44 33 52l-10 -14c-24 -37 -99 -117 -177 -100c-30 7 -48 27 -53 62s-2 71 9 110
s27 74 46 106c69 115 133 169 192 160c23 -3 35 -17 36 -42c2 -24 -5 -48 -22 -72c-41 -65 -118 -101 -231 -110c35 0 78 6 130 18s90 29 115 52s39 46 42 71c8 49 -23 83 -67 87z" />
    <glyph glyph-name="edieresis" unicode="&#xeb;" horiz-adv-x="414" 
d="M300 550c-30 -33 -78 20 -48 47c31 31 79 -16 48 -47zM490 550c-30 -33 -78 20 -48 47c31 31 79 -16 48 -47zM344 463c44 -4 75 -38 67 -87c-3 -25 -17 -48 -42 -71s-63 -40 -115 -52s-95 -18 -130 -18c113 9 190 45 231 110c17 24 24 48 22 72c-1 25 -13 39 -36 42
c-59 9 -123 -45 -192 -160c-19 -32 -35 -67 -46 -106s-14 -75 -9 -110s23 -55 53 -62c78 -17 153 63 177 100l10 14c-4 -8 -8 -17 -33 -52c-13 -17 -26 -32 -40 -45c-27 -25 -73 -51 -117 -51c-52 0 -84 28 -95 85s4 125 45 204c27 51 56 91 88 121c65 60 113 70 162 66z
" />
    <glyph glyph-name="igrave" unicode="&#xec;" horiz-adv-x="298" 
d="M211 628l31 -136l-69 125c-10 23 -8 37 6 41c16 8 29 -6 32 -30zM55 59l133 327c10 23 12 36 5 38c-5 3 -18 -4 -39 -20c-21 -15 -40 -32 -58 -49l-27 -26c73 85 125 128 158 128c28 0 32 -24 13 -71l-134 -327c-9 -19 -10 -30 -3 -33c5 -3 18 4 39 19c21 16 41 33 59 50
l27 26c-73 -85 -126 -128 -159 -128c-37 0 -28 32 -14 66z" />
    <glyph glyph-name="iacute" unicode="&#xed;" horiz-adv-x="298" 
d="M258 512l85 111c12 20 30 27 42 14c11 -11 7 -24 -12 -40zM188 386l-133 -327c-14 -34 -23 -66 14 -66c33 0 86 43 159 128l-27 -26c-18 -17 -38 -34 -59 -50c-21 -15 -34 -22 -39 -19c-7 3 -6 14 3 33l134 327c19 47 15 71 -13 71c-33 0 -85 -43 -158 -128l27 26
c18 17 37 34 58 49c21 16 34 23 39 20c7 -2 5 -15 -5 -38z" />
    <glyph glyph-name="icircumflex" unicode="&#xee;" horiz-adv-x="298" 
d="M148 510l140 121h40l-6 -119l-24 92zM188 386l-133 -327c-14 -34 -23 -66 14 -66c33 0 86 43 159 128l-27 -26c-18 -17 -38 -34 -59 -50c-21 -15 -34 -22 -39 -19c-7 3 -6 14 3 33l134 327c19 47 15 71 -13 71c-33 0 -85 -43 -158 -128l27 26c18 17 37 34 58 49
c21 16 34 23 39 20c7 -2 5 -15 -5 -38z" />
    <glyph glyph-name="idieresis" unicode="&#xef;" horiz-adv-x="298" 
d="M180 550c-30 -33 -78 20 -48 47c31 31 79 -16 48 -47zM370 550c-30 -33 -78 20 -48 47c31 31 79 -16 48 -47zM55 59l133 327c10 23 12 36 5 38c-5 3 -18 -4 -39 -20c-21 -15 -40 -32 -58 -49l-27 -26c73 85 125 128 158 128c28 0 32 -24 13 -71l-134 -327
c-9 -19 -10 -30 -3 -33c5 -3 18 4 39 19c21 16 41 33 59 50l27 26c-73 -85 -126 -128 -159 -128c-37 0 -28 32 -14 66z" />
    <glyph glyph-name="eth" unicode="&#xf0;" horiz-adv-x="437" 
d="M383 543h52l-10 -9h-39c18 -62 26 -132 24 -211c-2 -55 -16 -109 -42 -163c-26 -53 -60 -97 -103 -130c-42 -33 -85 -46 -129 -41c-112 11 -111 144 -81 240c43 133 118 199 186 223c55 19 98 14 129 -13c-2 31 -6 63 -11 95h-68l-7 9h74c-11 57 -29 108 -54 153
c35 -45 62 -96 79 -153zM368 328c7 56 -4 93 -31 112s-55 22 -86 7c-30 -13 -60 -41 -90 -85c-29 -44 -51 -91 -66 -141c-12 -49 -17 -98 -12 -149c7 -49 37 -82 89 -78c47 5 90 45 129 120s62 147 67 214z" />
    <glyph glyph-name="ntilde" unicode="&#xf1;" horiz-adv-x="545" 
d="M281 528c29 51 74 79 114 70c13 -3 23 -12 32 -27s19 -23 30 -24c29 -4 64 17 83 49c-10 -25 -26 -44 -47 -59c-21 -14 -41 -19 -58 -14c-13 3 -25 13 -35 29c-9 16 -21 25 -36 27c-19 3 -54 -14 -83 -51zM384 28c-7 3 -3 23 11 60l76 190c45 109 34 170 -33 181
c-49 8 -97 -13 -144 -64c-14 -15 -46 -55 -95 -122c55 65 100 109 133 131c34 22 63 30 87 24c39 -11 42 -59 8 -143l-81 -200c-25 -57 -20 -85 16 -85c15 0 29 11 46 23c11 8 27 26 35 34s28 31 33 38l30 37l-26 -28c-18 -19 -37 -37 -58 -54c-20 -17 -33 -25 -38 -22z
M232 373c18 51 15 76 -10 76c-31 0 -82 -42 -151 -127l25 26c17 17 36 33 55 49s32 23 37 20c7 -2 5 -15 -4 -39l-146 -378h44z" />
    <glyph glyph-name="ograve" unicode="&#xf2;" horiz-adv-x="439" 
d="M324 628l31 -136l-69 125c-10 23 -8 37 6 41c16 8 29 -6 32 -30zM245 452c57 19 99 15 128 -12s43 -66 41 -116c-2 -55 -16 -109 -42 -163c-26 -53 -60 -97 -103 -130c-42 -33 -85 -47 -129 -42c-112 11 -111 144 -81 240c43 133 118 199 186 223zM255 447
c-29 -13 -58 -41 -86 -84s-50 -91 -65 -142c-13 -51 -18 -97 -14 -148s34 -83 86 -79c47 5 89 45 128 120s61 147 66 214c7 56 -3 93 -30 112c-26 19 -54 22 -85 7z" />
    <glyph glyph-name="oacute" unicode="&#xf3;" horiz-adv-x="439" 
d="M309 512l85 111c12 20 30 27 42 14c11 -11 7 -24 -12 -40zM245 452c57 19 99 15 128 -12s43 -66 41 -116c-2 -55 -16 -109 -42 -163c-26 -53 -60 -97 -103 -130c-42 -33 -85 -47 -129 -42c-112 11 -111 144 -81 240c43 133 118 199 186 223zM255 447
c-29 -13 -58 -41 -86 -84s-50 -91 -65 -142c-13 -51 -18 -97 -14 -148s34 -83 86 -79c47 5 89 45 128 120s61 147 66 214c7 56 -3 93 -30 112c-26 19 -54 22 -85 7z" />
    <glyph glyph-name="ocircumflex" unicode="&#xf4;" horiz-adv-x="439" 
d="M239 510l140 121h40l-6 -119l-24 92zM245 452c57 19 99 15 128 -12s43 -66 41 -116c-2 -55 -16 -109 -42 -163c-26 -53 -60 -97 -103 -130c-42 -33 -85 -47 -129 -42c-112 11 -111 144 -81 240c43 133 118 199 186 223zM255 447c-29 -13 -58 -41 -86 -84
s-50 -91 -65 -142c-13 -51 -18 -97 -14 -148s34 -83 86 -79c47 5 89 45 128 120s61 147 66 214c7 56 -3 93 -30 112c-26 19 -54 22 -85 7z" />
    <glyph glyph-name="otilde" unicode="&#xf5;" horiz-adv-x="439" 
d="M219 528c29 51 74 79 114 70c13 -3 23 -12 32 -27s19 -23 30 -24c29 -4 64 17 83 49c-10 -25 -26 -44 -47 -59c-21 -14 -41 -19 -58 -14c-13 3 -25 13 -35 29c-9 16 -21 25 -36 27c-19 3 -54 -14 -83 -51zM245 452c57 19 99 15 128 -12s43 -66 41 -116
c-2 -55 -16 -109 -42 -163c-26 -53 -60 -97 -103 -130c-42 -33 -85 -47 -129 -42c-112 11 -111 144 -81 240c43 133 118 199 186 223zM255 447c-29 -13 -58 -41 -86 -84s-50 -91 -65 -142c-13 -51 -18 -97 -14 -148s34 -83 86 -79c47 5 89 45 128 120s61 147 66 214
c7 56 -3 93 -30 112c-26 19 -54 22 -85 7z" />
    <glyph glyph-name="odieresis" unicode="&#xf6;" horiz-adv-x="439" 
d="M260 550c-30 -33 -78 20 -48 47c31 31 79 -16 48 -47zM450 550c-30 -33 -78 20 -48 47c31 31 79 -16 48 -47zM245 452c57 19 99 15 128 -12s43 -66 41 -116c-2 -55 -16 -109 -42 -163c-26 -53 -60 -97 -103 -130c-42 -33 -85 -47 -129 -42c-112 11 -111 144 -81 240
c43 133 118 199 186 223zM255 447c-29 -13 -58 -41 -86 -84s-50 -91 -65 -142c-13 -51 -18 -97 -14 -148s34 -83 86 -79c47 5 89 45 128 120s61 147 66 214c7 56 -3 93 -30 112c-26 19 -54 22 -85 7z" />
    <glyph glyph-name="divide" unicode="&#xf7;" horiz-adv-x="515" 
d="M355 383c-28 -28 -72 16 -44 44s72 -16 44 -44zM79 260l4 9h385l-4 -9h-385zM239 102c-28 -28 -72 16 -44 44s72 -16 44 -44z" />
    <glyph glyph-name="oslash" unicode="&#xf8;" horiz-adv-x="442" 
d="M445 451l12 1l-40 -42c13 -24 18 -53 17 -86c-2 -55 -16 -109 -42 -163c-26 -53 -60 -97 -103 -130c-42 -33 -85 -47 -129 -42c-41 3 -69 24 -85 61l-48 -50l-12 2l56 58c-16 45 -13 102 8 169c43 133 118 199 186 223c69 23 118 12 147 -35zM124 221
c-11 -45 -17 -85 -16 -122l280 293c-7 31 -22 50 -47 59s-47 8 -66 -4c-29 -13 -58 -41 -86 -84s-50 -91 -65 -142zM390 328c3 17 3 35 0 54l-281 -296c4 -60 30 -97 87 -92c47 5 89 45 128 120s61 147 66 214z" />
    <glyph glyph-name="ugrave" unicode="&#xf9;" horiz-adv-x="510" 
d="M334 628l31 -136l-69 125c-10 23 -8 37 6 41c16 8 29 -6 32 -30zM179 430c-5 3 -17 -4 -36 -21s-36 -34 -53 -51l-24 -27c4 5 20 26 27 34l31 37c29 29 54 55 76 55c33 0 38 -27 15 -82l-80 -207c-27 -72 -41 -132 6 -142c44 -11 102 29 207 156
c-49 -67 -76 -105 -83 -113c-45 -54 -90 -79 -135 -74c-2 0 -4 0 -7 1c-64 11 -74 71 -29 182c34 91 59 156 76 194c15 35 18 55 9 58zM506 450l-153 -386c-10 -26 -12 -41 -5 -44c5 -2 18 5 38 21c21 17 40 34 58 51l26 27c-51 -61 -89 -99 -112 -114
c-13 -8 -23 -12 -32 -12c-32 0 -38 36 -22 71l156 386h46z" />
    <glyph glyph-name="uacute" unicode="&#xfa;" horiz-adv-x="510" 
d="M310 512l85 111c12 20 30 27 42 14c11 -11 7 -24 -12 -40zM179 430c9 -3 6 -23 -9 -58c-17 -38 -42 -103 -76 -194c-45 -111 -35 -171 29 -182c3 -1 5 -1 7 -1c45 -5 90 20 135 74c7 8 34 46 83 113c-105 -127 -163 -167 -207 -156c-47 10 -33 70 -6 142l80 207
c23 55 18 82 -15 82c-22 0 -47 -26 -76 -55l-31 -37c-7 -8 -23 -29 -27 -34l24 27c17 17 34 34 53 51s31 24 36 21zM353 64l153 386h-46l-156 -386c-16 -35 -10 -71 22 -71c9 0 19 4 32 12c23 15 61 53 112 114l-26 -27c-18 -17 -37 -34 -58 -51c-20 -16 -33 -23 -38 -21
c-7 3 -5 18 5 44z" />
    <glyph glyph-name="ucircumflex" unicode="&#xfb;" horiz-adv-x="510" 
d="M250 510l140 121h40l-6 -119l-24 92zM179 430c9 -3 6 -23 -9 -58c-17 -38 -42 -103 -76 -194c-45 -111 -35 -171 29 -182c3 -1 5 -1 7 -1c45 -5 90 20 135 74c7 8 34 46 83 113c-105 -127 -163 -167 -207 -156c-47 10 -33 70 -6 142l80 207c23 55 18 82 -15 82
c-22 0 -47 -26 -76 -55l-31 -37c-7 -8 -23 -29 -27 -34l24 27c17 17 34 34 53 51s31 24 36 21zM353 64l153 386h-46l-156 -386c-16 -35 -10 -71 22 -71c9 0 19 4 32 12c23 15 61 53 112 114l-26 -27c-18 -17 -37 -34 -58 -51c-20 -16 -33 -23 -38 -21c-7 3 -5 18 5 44z" />
    <glyph glyph-name="udieresis" unicode="&#xfc;" horiz-adv-x="510" 
d="M261 607c44 3 44 -69 0 -67c-19 0 -33 15 -33 34s16 33 33 33zM451 607c44 3 44 -69 0 -67c-19 0 -33 15 -33 34s16 33 33 33zM179 430c-5 3 -17 -4 -36 -21s-36 -34 -53 -51l-24 -27c4 5 20 26 27 34l31 37c29 29 54 55 76 55c33 0 38 -27 15 -82l-80 -207
c-27 -72 -41 -132 6 -142c44 -11 102 29 207 156c-49 -67 -76 -105 -83 -113c-45 -54 -90 -79 -135 -74c-2 0 -4 0 -7 1c-64 11 -74 71 -29 182c34 91 59 156 76 194c15 35 18 55 9 58zM506 450l-153 -386c-10 -26 -12 -41 -5 -44c5 -2 18 5 38 21c21 17 40 34 58 51l26 27
c-51 -61 -89 -99 -112 -114c-13 -8 -23 -12 -32 -12c-32 0 -38 36 -22 71l156 386h46z" />
    <glyph glyph-name="yacute" unicode="&#xfd;" horiz-adv-x="417" 
d="M369 637c11 -11 7 -24 -12 -40l-115 -85l85 111c12 20 30 27 42 14zM393 457c60 -5 42 -122 -62 -268c-96 -139 -199 -250 -308 -333c-44 -33 -82 -51 -114 -56c-35 -4 -57 -1 -68 8c-17 15 -9 44 20 52c5 5 27 -1 31 -2s26 -10 31 -13c29 -11 79 3 127 43l29 25
c29 25 57 52 84 81c11 78 13 156 8 235c-5 71 -11 120 -19 149s-22 44 -42 46c-25 2 -43 -14 -56 -49c13 53 34 81 64 82c72 4 95 -70 102 -226c3 -87 2 -146 -3 -177c35 39 66 78 94 117c35 51 56 85 61 100c21 51 22 90 4 117c-14 20 -21 34 -20 43c1 15 14 30 37 26z
M213 48c-1 0 -2 -1 -2 -2c0 1 1 2 2 2z" />
    <glyph glyph-name="thorn" unicode="&#xfe;" horiz-adv-x="462" 
d="M365 464c50 -2 75 -33 75 -94c1 -61 -20 -125 -63 -194c-77 -127 -159 -190 -246 -187c-16 1 -29 5 -40 13c-21 16 -21 24 -24 33l-69 -171c-15 -37 -20 -59 -15 -64c7 -7 47 -11 76 -14l22 -1h-251c51 1 81 7 92 17c7 6 18 29 34 70l304 749c15 37 20 58 14 64
c-5 7 -45 12 -76 13l-22 2h160l-227 -562c-31 -82 -25 -129 18 -142c27 -7 59 4 96 34s72 71 103 122c69 114 105 261 29 275c-62 14 -142 -85 -167 -125l-11 -16c0 3 81 182 188 178z" />
    <glyph glyph-name="ydieresis" unicode="&#xff;" horiz-adv-x="417" 
d="M162 607c44 3 44 -69 0 -67c-19 0 -33 15 -33 34s16 33 33 33zM352 607c44 3 44 -69 0 -67c-19 0 -33 15 -33 34s16 33 33 33zM393 457c60 -5 42 -122 -62 -268c-96 -139 -199 -250 -308 -333c-44 -33 -82 -51 -114 -56c-35 -4 -57 -1 -68 8c-17 15 -9 44 20 52
c5 5 27 -1 31 -2s26 -10 31 -13c29 -11 79 3 127 43l29 25c29 25 57 52 84 81c11 78 13 156 8 235c-5 71 -11 120 -19 149s-22 44 -42 46c-25 2 -43 -14 -56 -49c13 53 34 81 64 82c72 4 95 -70 102 -226c3 -87 2 -146 -3 -177c35 39 66 78 94 117c35 51 56 85 61 100
c21 51 22 90 4 117c-14 20 -21 34 -20 43c1 15 14 30 37 26zM213 48c-1 0 -2 -1 -2 -2c0 1 1 2 2 2z" />
    <glyph glyph-name="Amacron" unicode="&#x100;" horiz-adv-x="580" 
d="M341 782l197 1l-4 -8h-197zM441 738l25 -669c1 -51 22 -65 69 -68h-210c44 0 90 26 89 82l-6 216h-240l-130 -201c-36 -63 -10 -97 41 -97h-204c21 0 47 9 78 27c31 19 55 42 73 70zM363 601l-189 -293h233l-6 220c-1 56 -3 85 -6 87c-11 7 -21 3 -32 -14z" />
    <glyph glyph-name="amacron" unicode="&#x101;" horiz-adv-x="471" 
d="M281 530l4 7l197 1l-4 -8h-197zM443 433l34 24l-152 -357c-19 -45 -23 -69 -10 -72c18 -5 60 28 126 101l-57 -66c-27 -31 -62 -63 -88 -63c-38 0 -47 34 -19 97l99 230c29 75 24 117 -16 127c-27 7 -60 -3 -97 -32s-72 -67 -105 -116c-77 -110 -119 -266 -43 -277
c37 -5 78 11 107 39c31 28 46 47 59 66c-11 -20 -24 -41 -55 -78s-77 -63 -121 -62c-106 3 -93 155 -7 284c89 133 185 187 258 183c31 -1 52 -16 61 -43zM441 129l1 1z" />
    <glyph glyph-name="Abreve" unicode="&#x102;" horiz-adv-x="580" 
d="M598 877c-29 -48 -88 -87 -139 -87c-53 0 -73 32 -44 87c-9 -41 10 -61 57 -61s89 20 126 61zM441 738l25 -669c1 -51 22 -65 69 -68h-210c44 0 90 26 89 82l-6 216h-240l-130 -201c-36 -63 -10 -97 41 -97h-204c21 0 47 9 78 27c31 19 55 42 73 70zM363 601l-189 -293
h233l-6 220c-1 56 -3 85 -6 87c-11 7 -21 3 -32 -14z" />
    <glyph glyph-name="abreve" unicode="&#x103;" horiz-adv-x="471" 
d="M535 616c-29 -48 -88 -87 -139 -87c-53 0 -73 32 -44 87c-9 -41 10 -61 57 -61s89 20 126 61zM443 433l34 24l-152 -357c-19 -45 -23 -69 -10 -72c18 -5 60 28 126 101l-57 -66c-27 -31 -62 -63 -88 -63c-38 0 -47 34 -19 97l99 230c29 75 24 117 -16 127
c-27 7 -60 -3 -97 -32s-72 -67 -105 -116c-77 -110 -119 -266 -43 -277c37 -5 78 11 107 39c31 28 46 47 59 66c-11 -20 -24 -41 -55 -78s-77 -63 -121 -62c-106 3 -93 155 -7 284c89 133 185 187 258 183c31 -1 52 -16 61 -43zM441 129l1 1z" />
    <glyph glyph-name="Aogonek" unicode="&#x104;" horiz-adv-x="580" 
d="M168 299l-130 -201c-36 -63 -10 -97 41 -97h-204c21 0 47 9 78 27c31 19 55 42 73 70l415 640l25 -669c1 -51 22 -65 69 -68h-210c44 0 90 26 89 82l-6 216h-240zM395 615c-11 7 -21 3 -32 -14l-189 -293h233l-6 220c-1 56 -3 85 -6 87zM384 0h55
c-57 -29 -89 -61 -96 -96c-5 -24 2 -43 21 -56c19 -14 40 -16 65 -5c-44 -32 -127 -19 -129 48c-1 43 27 80 84 109z" />
    <glyph glyph-name="aogonek" unicode="&#x105;" horiz-adv-x="481" 
d="M330 28c18 -5 60 28 126 101l-57 -66c-27 -31 -62 -63 -88 -63h-3c-59 -38 -91 -70 -96 -96c-5 -24 2 -43 21 -56c19 -14 40 -16 65 -5c-43 -31 -129 -19 -129 48c-1 48 47 95 110 127c-7 16 -3 42 13 79l99 230c29 75 24 117 -16 127c-27 7 -60 -3 -97 -32
s-72 -67 -105 -116c-77 -110 -119 -266 -43 -277c37 -5 78 11 107 39c31 28 46 47 59 66c-11 -20 -24 -41 -55 -78s-77 -63 -121 -62c-106 3 -93 155 -7 284c89 133 185 187 258 183c31 -1 52 -16 61 -43l26 15l34 24l-152 -357c-19 -45 -23 -69 -10 -72zM456 129l1 1z" />
    <glyph glyph-name="Cacute" unicode="&#x106;" horiz-adv-x="618" 
d="M516 757l85 111c12 20 30 27 42 14c11 -11 7 -24 -12 -40zM673 613l-40 -91l-1 17c0 23 -11 59 -30 92c-17 35 -60 64 -115 68c-58 5 -113 -15 -166 -59c-53 -43 -96 -101 -131 -172c-26 -53 -43 -110 -50 -171s0 -116 20 -165c21 -49 56 -77 105 -86
c121 -21 221 40 302 182c-32 -67 -71 -121 -126 -169c-53 -47 -126 -69 -203 -57c-95 15 -151 87 -162 178s10 199 59 291c55 101 124 172 192 201s122 37 179 32c69 -6 125 -36 167 -91z" />
    <glyph glyph-name="cacute" unicode="&#x107;" horiz-adv-x="384" 
d="M335 512l85 111c12 20 30 27 42 14c11 -11 7 -24 -12 -40zM313 463c-61 -2 -117 -35 -170 -99c-33 -39 -59 -83 -78 -133s-27 -96 -26 -138c3 -63 44 -103 101 -102c40 1 83 27 107 51c13 13 24 27 35 43c23 33 26 42 30 50l-18 -27c-13 -19 -32 -37 -59 -56
c-26 -18 -53 -27 -81 -27c-44 1 -67 30 -68 87c-1 43 12 97 41 161c29 65 64 114 104 147c30 25 57 38 80 39c29 1 45 -10 46 -34c1 -15 -5 -25 -17 -31c-15 -11 -16 -32 -3 -44c11 -9 35 -8 47 7c10 11 13 28 10 49c-7 32 -34 58 -81 57z" />
    <glyph glyph-name="Cdotaccent" unicode="&#x10a;" horiz-adv-x="618" 
d="M460 825c23 23 61 -12 36 -37c-21 -24 -62 15 -36 37zM673 613l-40 -91l-1 17c0 23 -11 59 -30 92c-17 35 -60 64 -115 68c-58 5 -113 -15 -166 -59c-53 -43 -96 -101 -131 -172c-26 -53 -43 -110 -50 -171s0 -116 20 -165c21 -49 56 -77 105 -86c121 -21 221 40 302 182
c-32 -67 -71 -121 -126 -169c-53 -47 -126 -69 -203 -57c-95 15 -151 87 -162 178s10 199 59 291c55 101 124 172 192 201s122 37 179 32c69 -6 125 -36 167 -91z" />
    <glyph glyph-name="cdotaccent" unicode="&#x10b;" horiz-adv-x="384" 
d="M412 544c-28 -31 -78 19 -46 47c30 30 77 -16 46 -47zM313 463c47 1 74 -25 81 -57c3 -21 0 -38 -10 -49c-12 -15 -36 -16 -47 -7c-13 12 -12 33 3 44c12 6 18 16 17 31c-1 24 -17 35 -46 34c-23 -1 -50 -14 -80 -39c-40 -33 -75 -82 -104 -147
c-29 -64 -42 -118 -41 -161c1 -57 24 -86 68 -87c28 0 55 9 81 27c27 19 46 37 59 56l18 27c-4 -8 -7 -17 -30 -50c-11 -16 -22 -30 -35 -43c-24 -24 -67 -50 -107 -51c-57 -1 -98 39 -101 102c-1 42 7 88 26 138s45 94 78 133c53 64 109 97 170 99z" />
    <glyph glyph-name="Ccaron" unicode="&#x10c;" horiz-adv-x="618" 
d="M499 886l33 -103l152 101l-141 -128h-43zM673 613l-40 -91l-1 17c0 23 -11 59 -30 92c-17 35 -60 64 -115 68c-58 5 -113 -15 -166 -59c-53 -43 -96 -101 -131 -172c-26 -53 -43 -110 -50 -171s0 -116 20 -165c21 -49 56 -77 105 -86c121 -21 221 40 302 182
c-32 -67 -71 -121 -126 -169c-53 -47 -126 -69 -203 -57c-95 15 -151 87 -162 178s10 199 59 291c55 101 124 172 192 201s122 37 179 32c69 -6 125 -36 167 -91z" />
    <glyph glyph-name="ccaron" unicode="&#x10d;" horiz-adv-x="384" 
d="M348 646l33 -103l152 101l-141 -128h-43zM313 463c-61 -2 -117 -35 -170 -99c-33 -39 -59 -83 -78 -133s-27 -96 -26 -138c3 -63 44 -103 101 -102c40 1 83 27 107 51c13 13 24 27 35 43c23 33 26 42 30 50l-18 -27c-13 -19 -32 -37 -59 -56c-26 -18 -53 -27 -81 -27
c-44 1 -67 30 -68 87c-1 43 12 97 41 161c29 65 64 114 104 147c30 25 57 38 80 39c29 1 45 -10 46 -34c1 -15 -5 -25 -17 -31c-15 -11 -16 -32 -3 -44c11 -9 35 -8 47 7c10 11 13 28 10 49c-7 32 -34 58 -81 57z" />
    <glyph glyph-name="Dcaron" unicode="&#x10e;" horiz-adv-x="714" 
d="M634 884l-141 -128h-43l-1 130l33 -103zM578 670c44 -20 81 -62 104 -125c23 -61 17 -155 -23 -256c-27 -69 -66 -125 -115 -169c-99 -88 -213 -120 -354 -120h-276c66 0 109 24 128 73l232 575c13 28 -16 49 -64 52h118c114 2 197 -8 250 -30zM491 128
c48 49 85 108 112 176c27 69 39 133 34 194c-10 111 -65 173 -164 186c-43 6 -86 8 -129 6l-251 -621c-19 -33 -11 -56 46 -56h54c125 0 224 38 298 115z" />
    <glyph glyph-name="dcaron" unicode="&#x10f;" horiz-adv-x="468" 
d="M314 33c5 -3 18 4 37 19c20 16 38 32 55 49l26 25c-69 -84 -120 -126 -152 -126c-25 0 -28 22 -11 65l99 247c31 83 26 131 -16 144c-29 7 -61 -3 -97 -31c-36 -27 -69 -66 -99 -115c-25 -39 -45 -80 -61 -121c-15 -41 -22 -79 -20 -112s17 -52 44 -56
c49 -7 104 29 165 110c-11 -19 -18 -32 -53 -75c-33 -43 -81 -70 -126 -69c-102 -2 -93 164 -8 294c77 124 160 185 249 182c31 -1 54 -14 67 -39l79 196c14 38 19 59 14 64c-5 7 -46 11 -75 14l-22 1h161l-255 -634c-7 -19 -8 -29 -1 -32zM605 629c17 -3 30 -19 27 -38
c-8 -45 -53 -86 -98 -102c32 15 68 51 75 76c-4 -2 -9 -2 -16 -1c-19 3 -30 20 -26 39c3 19 21 30 38 26z" />
    <glyph glyph-name="Dcroat" unicode="&#x110;" horiz-adv-x="714" 
d="M578 670c44 -20 81 -62 104 -125c23 -61 17 -155 -23 -256c-27 -69 -66 -125 -115 -169c-99 -88 -213 -120 -354 -120h-276c66 0 109 24 128 73l113 280h-90l-6 9h100l115 286c13 28 -16 49 -64 52h118c114 2 197 -8 250 -30zM491 128c48 49 85 108 112 176
c27 69 39 133 34 194c-10 111 -65 173 -164 186c-43 6 -86 8 -129 6l-133 -328h103l-8 -9h-98l-115 -284c-19 -33 -11 -56 46 -56h54c125 0 224 38 298 115z" />
    <glyph glyph-name="dslash" unicode="&#x111;" horiz-adv-x="468" 
d="M570 530h-68l-187 -465c-7 -19 -8 -29 -1 -32c5 -3 18 4 37 19c20 16 38 32 55 49l26 25c-69 -84 -120 -126 -152 -126c-25 0 -28 22 -11 65l99 247c31 83 26 131 -16 144c-29 7 -61 -3 -97 -31c-36 -27 -69 -66 -99 -115c-25 -39 -45 -80 -61 -121
c-15 -41 -22 -79 -20 -112s17 -52 44 -56c49 -7 104 29 165 110c-11 -19 -18 -32 -53 -75c-33 -43 -81 -70 -126 -69c-102 -2 -93 164 -8 294c77 124 160 185 249 182c31 -1 54 -14 67 -39l43 106h-83l4 7h82l33 83c14 38 19 59 14 64c-5 7 -46 11 -75 14l-22 1h161
l-65 -161h69z" />
    <glyph glyph-name="Emacron" unicode="&#x112;" horiz-adv-x="662" 
d="M425 782l197 1l-4 -8h-197zM420 688h-77l-127 -317v1h87c56 0 93 7 120 30c13 12 22 21 27 27s12 17 23 34l-87 -221c10 49 9 118 -93 119h-81l-118 -292c-13 -35 -3 -57 28 -57h108c90 0 166 13 229 39c65 27 104 53 140 98l-90 -149h-592c25 0 49 6 74 17
c24 12 40 26 48 42l237 589c9 29 -18 49 -65 52h444l18 -125l-11 19c-4 8 -13 20 -28 36s-30 27 -45 34c-37 16 -93 24 -169 24z" />
    <glyph glyph-name="emacron" unicode="&#x113;" horiz-adv-x="414" 
d="M268 530l4 7l197 1l-4 -8h-197zM344 463c44 -4 75 -38 67 -87c-3 -25 -17 -48 -42 -71s-63 -40 -115 -52s-95 -18 -130 -18c113 9 190 45 231 110c17 24 24 48 22 72c-1 25 -13 39 -36 42c-59 9 -123 -45 -192 -160c-19 -32 -35 -67 -46 -106s-14 -75 -9 -110
s23 -55 53 -62c78 -17 153 63 177 100l10 14c-4 -8 -8 -17 -33 -52c-13 -17 -26 -32 -40 -45c-27 -25 -73 -51 -117 -51c-52 0 -84 28 -95 85s4 125 45 204c27 51 56 91 88 121c65 60 113 70 162 66z" />
    <glyph glyph-name="Edotaccent" unicode="&#x116;" horiz-adv-x="635" 
d="M526 780c-21 -24 -62 15 -36 37c23 23 61 -12 36 -37zM440 688h-77l-127 -317v1h87c56 0 93 7 120 30c13 12 22 21 27 27s12 17 23 34l-87 -221c10 49 9 118 -93 119h-81l-118 -292c-13 -35 -3 -57 28 -57h108c90 0 166 13 229 39c65 27 104 53 140 98l-90 -149h-592
c25 0 49 6 73 17c25 12 41 26 49 42l237 589c9 29 -18 49 -65 52h444l18 -125l-11 19c-4 8 -13 20 -28 36s-30 27 -45 34c-37 16 -93 24 -169 24z" />
    <glyph glyph-name="edotaccent" unicode="&#x117;" horiz-adv-x="414" 
d="M422 544c-28 -31 -78 19 -46 47c30 30 77 -16 46 -47zM344 463c44 -4 75 -38 67 -87c-3 -25 -17 -48 -42 -71s-63 -40 -115 -52s-95 -18 -130 -18c113 9 190 45 231 110c17 24 24 48 22 72c-1 25 -13 39 -36 42c-59 9 -123 -45 -192 -160c-19 -32 -35 -67 -46 -106
s-14 -75 -9 -110s23 -55 53 -62c78 -17 153 63 177 100l10 14c-4 -8 -8 -17 -33 -52c-13 -17 -26 -32 -40 -45c-27 -25 -73 -51 -117 -51c-52 0 -84 28 -95 85s4 125 45 204c27 51 56 91 88 121c65 60 113 70 162 66z" />
    <glyph glyph-name="Eogonek" unicode="&#x118;" horiz-adv-x="662" 
d="M420 688h-77l-127 -317v1h87c56 0 93 7 120 30c13 12 22 21 27 27s12 17 23 34l-87 -221c10 49 9 118 -93 119h-81l-118 -292c-13 -35 -3 -57 28 -57h108c90 0 166 13 229 39c65 27 104 53 140 98l-90 -149h-27c-57 -29 -89 -61 -96 -96c-5 -24 2 -43 21 -56
c19 -14 40 -16 65 -5c-44 -32 -127 -19 -129 48c-1 43 27 80 84 109h-510c25 0 49 6 74 17c24 12 40 26 48 42l237 589c9 29 -18 49 -65 52h444l18 -125l-11 19c-4 8 -13 20 -28 36s-30 27 -45 34c-37 16 -93 24 -169 24z" />
    <glyph glyph-name="eogonek" unicode="&#x119;" horiz-adv-x="414" 
d="M344 463c44 -4 75 -38 67 -87c-3 -25 -17 -48 -42 -71s-63 -40 -115 -52s-95 -18 -130 -18c113 9 190 45 231 110c17 24 24 48 22 72c-1 25 -13 39 -36 42c-59 9 -123 -45 -192 -160c-19 -32 -35 -67 -46 -106s-14 -75 -9 -110s23 -55 53 -62c78 -17 153 63 177 100
l10 14c-4 -7 -7 -16 -30 -48c-11 -16 -23 -30 -36 -43c-25 -25 -68 -52 -108 -56c-43 -26 -68 -54 -74 -84c-5 -24 2 -43 21 -56c19 -14 40 -16 65 -5c-44 -32 -127 -19 -129 48c-1 39 22 73 69 101c-39 13 -61 46 -66 99c-4 53 12 115 48 185c27 51 56 91 88 121
c65 60 113 70 162 66z" />
    <glyph glyph-name="Ecaron" unicode="&#x11a;" horiz-adv-x="662" 
d="M684 884l-141 -128h-43l-1 130l33 -103zM211 700h444l18 -125l-11 19c-4 8 -13 20 -28 36s-30 27 -45 34c-37 16 -93 24 -169 24h-77l-127 -317v1h87c56 0 93 7 120 30c13 12 22 21 27 27s12 17 23 34l-87 -221c10 49 9 118 -93 119h-81l-118 -292c-13 -35 -3 -57 28 -57
h108c90 0 166 13 229 39c65 27 104 53 140 98l-90 -149h-592c25 0 49 6 74 17c24 12 40 26 48 42l237 589c9 29 -18 49 -65 52z" />
    <glyph glyph-name="ecaron" unicode="&#x11b;" horiz-adv-x="414" 
d="M322 646l33 -103l152 101l-141 -128h-43zM344 463c-49 4 -97 -6 -162 -66c-32 -30 -61 -70 -88 -121c-41 -79 -56 -147 -45 -204s43 -85 95 -85c44 0 90 26 117 51c14 13 27 28 40 45c25 35 29 44 33 52l-10 -14c-24 -37 -99 -117 -177 -100c-30 7 -48 27 -53 62
s-2 71 9 110s27 74 46 106c69 115 133 169 192 160c23 -3 35 -17 36 -42c2 -24 -5 -48 -22 -72c-41 -65 -118 -101 -231 -110c35 0 78 6 130 18s90 29 115 52s39 46 42 71c8 49 -23 83 -67 87z" />
    <glyph glyph-name="Gbreve" unicode="&#x11e;" horiz-adv-x="659" 
d="M491 877c-9 -41 10 -61 57 -61s89 20 126 61c-29 -48 -88 -87 -139 -87c-53 0 -73 32 -44 87zM675 621l-36 -96c-3 24 -8 48 -25 89c-17 43 -57 76 -109 84c-133 21 -242 -61 -328 -247c-37 -79 -52 -182 -43 -271c9 -88 59 -158 140 -165c45 -4 87 5 124 26
c37 22 66 47 85 75c19 29 33 58 41 88c10 53 -41 66 -72 64h226l-20 -2c-25 -3 -63 -20 -75 -48c-11 -25 -41 -98 -90 -218l-1 12c-1 17 -15 38 -40 38c-13 0 -91 -55 -178 -51c-112 5 -181 77 -198 170c-16 93 -1 203 42 292c117 254 318 255 404 243
c65 -10 116 -38 153 -83z" />
    <glyph glyph-name="gbreve" unicode="&#x11f;" horiz-adv-x="431" 
d="M328 529c-53 0 -73 32 -44 87c-9 -41 10 -61 57 -61s89 20 126 61c-29 -48 -88 -87 -139 -87zM301 460c79 -7 119 -60 116 -127c-2 -58 -25 -106 -70 -143c-44 -37 -93 -51 -148 -42c-25 3 -48 11 -68 25c-16 -7 -56 -24 -48 -56c2 -13 15 -27 40 -42l89 -52
c35 -19 62 -39 80 -58c25 -24 37 -54 35 -89c-7 -84 -86 -139 -201 -134c-37 1 -72 7 -103 16c-63 19 -115 67 -111 134c2 33 16 61 43 86c26 24 52 40 77 48l38 12c-75 -40 -108 -75 -113 -134c-2 -49 16 -86 54 -112c39 -26 85 -40 138 -42c59 -1 101 18 117 46
c16 27 20 44 21 61c3 51 -29 95 -95 130c-10 5 -22 12 -37 19c-29 15 -39 20 -60 32c-34 21 -50 40 -50 70c1 35 44 58 81 69c-29 25 -41 59 -38 102c4 53 26 98 65 134s89 52 148 47zM376 324c5 81 -26 120 -73 129c-45 9 -84 -5 -116 -40c-31 -35 -50 -77 -57 -128
c-9 -77 16 -120 73 -130c44 -9 83 3 116 36c34 33 53 78 57 133zM475 453c15 0 22 -6 22 -17c0 -9 -9 -18 -22 -18c-11 0 -21 10 -29 10c-12 0 -26 -7 -42 -22c23 31 47 47 71 47z" />
    <glyph glyph-name="Gdotaccent" unicode="&#x120;" horiz-adv-x="659" 
d="M460 825c23 23 61 -12 36 -37c-21 -24 -62 15 -36 37zM675 621l-36 -96c-3 24 -8 48 -25 89c-17 43 -57 76 -109 84c-133 21 -242 -61 -328 -247c-37 -79 -52 -182 -43 -271c9 -88 59 -158 140 -165c45 -4 87 5 124 26c37 22 66 47 85 75c19 29 33 58 41 88
c10 53 -41 66 -72 64h226l-20 -2c-25 -3 -63 -20 -75 -48c-11 -25 -41 -98 -90 -218l-1 12c-1 17 -15 38 -40 38c-13 0 -91 -55 -178 -51c-112 5 -181 77 -198 170c-16 93 -1 203 42 292c117 254 318 255 404 243c65 -10 116 -38 153 -83z" />
    <glyph glyph-name="gdotaccent" unicode="&#x121;" horiz-adv-x="431" 
d="M362 544c-28 -31 -78 19 -46 47c30 30 77 -16 46 -47zM301 460c79 -7 119 -60 116 -127c-2 -58 -25 -106 -70 -143c-44 -37 -93 -51 -148 -42c-25 3 -48 11 -68 25c-16 -7 -56 -24 -48 -56c2 -13 15 -27 40 -42l89 -52c35 -19 62 -39 80 -58c25 -24 37 -54 35 -89
c-7 -84 -86 -139 -201 -134c-37 1 -72 7 -103 16c-63 19 -115 67 -111 134c2 33 16 61 43 86c26 24 52 40 77 48l38 12c-75 -40 -108 -75 -113 -134c-2 -49 16 -86 54 -112c39 -26 85 -40 138 -42c59 -1 101 18 117 46c16 27 20 44 21 61c3 51 -29 95 -95 130
c-10 5 -22 12 -37 19c-29 15 -39 20 -60 32c-34 21 -50 40 -50 70c1 35 44 58 81 69c-29 25 -41 59 -38 102c4 53 26 98 65 134s89 52 148 47zM376 324c5 81 -26 120 -73 129c-45 9 -84 -5 -116 -40c-31 -35 -50 -77 -57 -128c-9 -77 16 -120 73 -130c44 -9 83 3 116 36
c34 33 53 78 57 133zM475 453c15 0 22 -6 22 -17c0 -9 -9 -18 -22 -18c-11 0 -21 10 -29 10c-12 0 -26 -7 -42 -22c23 31 47 47 71 47z" />
    <glyph glyph-name="Gcommaaccent" unicode="&#x122;" horiz-adv-x="659" 
d="M452 268h226s-74 -2 -95 -50l-90 -218c0 4 0 9 -1 14c-1 11 -15 36 -40 36c-13 0 -91 -55 -178 -51c-112 5 -181 77 -198 170c-16 93 -1 203 42 292c117 254 318 255 404 243c65 -10 116 -38 153 -83l-36 -96c-3 24 -8 48 -25 89c-17 43 -57 76 -109 84
c-133 21 -242 -61 -328 -247c-37 -79 -52 -182 -43 -271c9 -88 59 -158 140 -165c45 -4 87 5 124 26c75 44 110 103 126 163c6 23 1 40 -16 49c-17 10 -35 15 -56 15zM259 -39c17 -3 30 -19 27 -38c-8 -45 -53 -86 -98 -102c32 15 68 51 75 76c-4 -2 -9 -2 -16 -1
c-19 3 -30 20 -26 39c3 19 21 30 38 26z" />
    <glyph glyph-name="gcommaaccent" unicode="&#x123;" horiz-adv-x="431" 
d="M301 460c79 -7 119 -60 116 -127c-2 -58 -25 -106 -70 -143c-44 -37 -93 -51 -148 -42c-25 3 -48 11 -68 25c-16 -7 -56 -24 -48 -56c2 -13 15 -27 40 -42l89 -52c35 -19 62 -39 80 -58c25 -24 37 -54 35 -89c-7 -84 -86 -139 -201 -134c-37 1 -72 7 -103 16
c-63 19 -115 67 -111 134c2 33 16 61 43 86c26 24 52 40 77 48l38 12c-75 -40 -108 -75 -113 -134c-2 -49 16 -86 54 -112c39 -26 85 -40 138 -42c59 -1 101 18 117 46c16 27 20 44 21 61c3 51 -29 95 -95 130c-10 5 -22 12 -37 19c-29 15 -39 20 -60 32
c-34 21 -50 40 -50 70c1 35 44 58 81 69c-29 25 -41 59 -38 102c4 53 26 98 65 134s89 52 148 47zM376 324c5 81 -26 120 -73 129c-45 9 -84 -5 -116 -40c-31 -35 -50 -77 -57 -128c-9 -77 16 -120 73 -130c44 -9 83 3 116 36c34 33 53 78 57 133zM475 453
c15 0 22 -6 22 -17c0 -9 -9 -18 -22 -18c-11 0 -21 10 -29 10c-12 0 -26 -7 -42 -22c23 31 47 47 71 47z" />
    <glyph glyph-name="Hbar" unicode="&#x126;" horiz-adv-x="717" 
d="M668 700h229c-61 0 -100 -18 -117 -55l-45 -114h7l-10 -12h-2l-186 -470c-13 -32 16 -46 68 -49h-242c24 0 50 6 77 19c28 13 45 28 51 43l117 293h-374l-122 -306c-12 -32 16 -46 69 -49h-242c26 0 52 6 79 19s43 27 48 43l182 457h-121l10 12h115l47 117
c11 29 -15 49 -63 52h229c-61 0 -100 -18 -115 -55l-46 -114h373l47 117c11 29 -15 51 -63 52zM247 369h373l60 150h-373z" />
    <glyph glyph-name="hbar" unicode="&#x127;" horiz-adv-x="516" 
d="M369 538l-4 -8h-105l-214 -530h-41l207 530h-44l4 7h43l17 45l15 39c9 35 25 53 14 64c-5 7 -45 12 -74 13l-22 2h163l-65 -163zM357 28c5 -3 18 4 39 21s40 35 58 53l27 28l-14 -16l-16 -19c-5 -7 -26 -30 -35 -39c-8 -8 -26 -26 -35 -33c-17 -12 -34 -23 -48 -23
c-21 0 -30 9 -29 28c3 20 7 32 16 57l77 200c19 48 25 70 28 98s-8 41 -35 45c-54 9 -127 -38 -218 -141c23 29 38 48 46 57c8 10 22 25 41 46c20 21 36 35 48 42c25 15 65 31 104 27c71 -8 72 -84 28 -184l-71 -187c-14 -27 -20 -56 -11 -60z" />
    <glyph glyph-name="Imacron" unicode="&#x12a;" horiz-adv-x="304" 
d="M291 775l4 7l197 1l-4 -8h-197zM224 700h231c-62 0 -101 -18 -117 -55l-240 -596c-13 -32 15 -46 67 -49h-244c26 0 52 6 79 17s47 31 58 59l228 567c13 35 -10 54 -62 57z" />
    <glyph glyph-name="imacron" unicode="&#x12b;" horiz-adv-x="298" 
d="M178 530l4 7l197 1l-4 -8h-197zM55 59l133 327c10 23 12 36 5 38c-5 3 -18 -4 -39 -20c-21 -15 -40 -32 -58 -49l-27 -26c73 85 125 128 158 128c28 0 32 -24 13 -71l-134 -327c-9 -19 -10 -30 -3 -33c5 -3 18 4 39 19c21 16 41 33 59 50l27 26
c-73 -85 -126 -128 -159 -128c-37 0 -28 32 -14 66z" />
    <glyph glyph-name="Iogonek" unicode="&#x12e;" horiz-adv-x="304" 
d="M224 700h231c-62 0 -101 -18 -117 -55l-240 -596c-13 -32 15 -46 67 -49h-40c-57 -29 -89 -61 -96 -96c-5 -24 2 -43 21 -56c19 -14 40 -16 65 -5c-44 -32 -127 -19 -129 48c-1 43 27 80 84 109h-149c26 0 52 6 79 17s47 31 58 59l228 567c13 35 -10 54 -62 57z" />
    <glyph glyph-name="iogonek" unicode="&#x12f;" horiz-adv-x="297" 
d="M260 569c23 23 61 -12 36 -37c-21 -24 -62 15 -36 37zM242 457c28 0 32 -24 13 -71l-134 -327c-9 -19 -10 -30 -3 -33c5 -3 18 4 39 19c21 16 41 33 59 50l27 26c-63 -75 -113 -118 -149 -127c-52 -33 -81 -63 -86 -90c-5 -24 2 -43 21 -56c19 -14 40 -16 65 -5
c-44 -32 -127 -19 -129 48c-1 37 41 84 94 115c-3 9 1 26 11 53l133 327c10 23 12 36 5 38c-5 3 -18 -4 -39 -20c-21 -15 -40 -32 -58 -49l-27 -26c73 85 125 128 158 128z" />
    <glyph glyph-name="Idot" unicode="&#x130;" horiz-adv-x="304" 
d="M380 825c23 23 61 -12 36 -37c-21 -24 -62 15 -36 37zM224 700h231c-62 0 -101 -18 -117 -55l-240 -596c-13 -32 15 -46 67 -49h-244c26 0 52 6 79 17s47 31 58 59l228 567c13 35 -10 54 -62 57z" />
    <glyph glyph-name="dotlessi" unicode="&#x131;" horiz-adv-x="298" 
d="M55 59l133 327c10 23 12 36 5 38c-5 3 -18 -4 -39 -20c-21 -15 -40 -32 -58 -49l-27 -26c73 85 125 128 158 128c28 0 32 -24 13 -71l-134 -327c-9 -19 -10 -30 -3 -33c5 -3 18 4 39 19c21 16 41 33 59 50l27 26c-73 -85 -126 -128 -159 -128c-37 0 -28 32 -14 66z" />
    <glyph glyph-name="IJ" unicode="&#x132;" horiz-adv-x="575" 
d="M338 645l-240 -596c-13 -32 15 -46 67 -49h-244c26 0 52 6 79 17s47 31 58 59l228 567c13 35 -10 54 -62 57h231c-62 0 -101 -18 -117 -55zM520 700h210c-62 0 -101 -19 -116 -57l-210 -529c-73 -183 -191 -276 -354 -279c31 0 74 16 133 53c60 36 127 118 170 226
l217 544c9 28 -3 41 -50 42z" />
    <glyph glyph-name="ij" unicode="&#x133;" horiz-adv-x="550" 
d="M289 552c-26 -32 -78 18 -45 46c30 30 75 -16 45 -46zM581 552c-26 -32 -78 18 -45 46c30 30 75 -16 45 -46zM526 395l-197 -485c-39 -95 -110 -135 -215 -122c-24 3 -59 21 -68 37c-15 17 -13 38 0 46c13 12 38 6 43 -15c1 -8 -2 -28 -2 -33c1 -13 9 -22 24 -25
c71 -15 128 29 171 132l186 445c15 35 18 54 10 57c-5 3 -19 -4 -40 -21s-40 -34 -58 -51l-28 -27c72 81 122 123 151 126c34 3 42 -18 23 -64zM55 59l133 327c10 23 12 36 5 38c-5 3 -18 -4 -39 -20c-21 -15 -40 -32 -58 -49l-27 -26c73 85 125 128 158 128
c28 0 32 -24 13 -71l-134 -327c-9 -19 -10 -30 -3 -33c5 -3 18 4 39 19c21 16 41 33 59 50l27 26c-73 -85 -126 -128 -159 -128c-37 0 -28 32 -14 66z" />
    <glyph glyph-name="Kcommaaccent" unicode="&#x136;" horiz-adv-x="626" 
d="M352 645l-240 -596c-13 -32 15 -46 67 -49h-243c51 0 112 20 135 76l231 567c13 35 -11 54 -63 57h230c-62 0 -101 -18 -117 -55zM363 361l99 -194c61 -120 95 -167 120 -167h-88c-16 27 -28 50 -37 67l-131 254c-21 43 -72 30 -89 18l332 262c57 45 67 99 -4 99h201
c-47 -5 -125 -51 -235 -140l-128 -103c-47 -36 -57 -55 -40 -96zM297 -39c17 -3 30 -19 27 -38c-8 -45 -53 -86 -98 -102c32 15 68 51 75 76c-4 -2 -9 -2 -16 -1c-19 3 -30 20 -26 39c3 19 21 30 38 26z" />
    <glyph glyph-name="kcommaaccent" unicode="&#x137;" horiz-adv-x="419" 
d="M292 28c28 -5 59 15 72 34l10 14c-23 -56 -55 -82 -96 -79c-48 3 -76 43 -84 119c-2 16 -4 34 -5 53c-1 40 -3 54 -14 67c-7 9 -15 14 -23 15l-102 -251h-45l246 618c12 32 26 59 19 67c-7 7 -48 12 -79 13l-23 2h166l-180 -444c16 1 53 -1 64 -36c3 -9 5 -30 7 -64
c5 -68 20 -117 67 -128zM427 452c27 -15 16 -42 -3 -46c-4 0 -73 -6 -130 -43c-37 -21 -88 -61 -113 -85l-19 -17c40 47 78 85 115 114c73 61 123 86 150 77zM145 -39c17 -3 30 -19 27 -38c-8 -45 -53 -86 -98 -102c32 15 68 51 75 76c-4 -2 -9 -2 -16 -1
c-19 3 -30 20 -26 39c3 19 21 30 38 26z" />
    <glyph glyph-name="Lacute" unicode="&#x139;" horiz-adv-x="594" 
d="M306 757l85 111c12 20 30 27 42 14c11 -11 7 -24 -12 -40zM104 60l232 583c17 38 57 57 120 57h-230c48 -3 73 -23 64 -52l-235 -578c-19 -45 -69 -70 -124 -70h517l91 167c-37 -51 -81 -88 -132 -111c-62 -27 -124 -42 -187 -43h-56c-53 0 -73 14 -60 47z" />
    <glyph glyph-name="lacute" unicode="&#x13a;" horiz-adv-x="251" 
d="M283 758l85 111c12 20 30 27 42 14c11 -11 7 -24 -12 -40zM77 58l257 642h-161l23 -2c31 -1 71 -6 78 -13c5 -5 -1 -27 -18 -66l-227 -561c-17 -43 -14 -65 9 -65c19 0 43 13 73 40c31 27 59 55 85 86l-27 -25c-18 -17 -37 -34 -58 -50c-20 -15 -33 -22 -38 -19
c-5 2 -3 13 4 33z" />
    <glyph glyph-name="Lcommaaccent" unicode="&#x13b;" horiz-adv-x="594" 
d="M407 56c51 23 95 60 132 111l-91 -167h-517c55 0 105 25 124 70l235 578c9 29 -16 49 -64 52h230c-63 0 -103 -19 -120 -57l-232 -583c-13 -33 7 -47 60 -47h56c63 1 125 16 187 43zM237 -39c17 -3 30 -19 27 -38c-8 -45 -53 -86 -98 -102c32 15 68 51 75 76
c-4 -2 -9 -2 -16 -1c-19 3 -30 20 -26 39c3 19 21 30 38 26z" />
    <glyph glyph-name="lcommaaccent" unicode="&#x13c;" horiz-adv-x="251" 
d="M73 25c5 -3 18 4 38 19c21 16 40 33 58 50l27 25c-26 -31 -54 -59 -85 -86c-30 -27 -54 -40 -73 -40c-23 0 -26 22 -9 65l227 561c17 39 23 61 18 66c-7 7 -47 12 -78 13l-23 2h161l-257 -642c-7 -20 -9 -31 -4 -33zM18 -39c17 -3 30 -19 27 -38c-8 -45 -53 -86 -98 -102
c32 15 68 51 75 76c-4 -2 -9 -2 -16 -1c-19 3 -30 20 -26 39c3 19 21 30 38 26z" />
    <glyph glyph-name="Lcaron" unicode="&#x13d;" horiz-adv-x="594" 
d="M407 56c51 23 95 60 132 111l-91 -167h-517c55 0 105 25 124 70l235 578c9 29 -16 49 -64 52h230c-63 0 -103 -19 -120 -57l-232 -583c-13 -33 7 -47 60 -47h56c63 1 125 16 187 43zM408 603c3 19 21 30 38 26c17 -3 30 -19 27 -38c-8 -45 -53 -86 -98 -102
c32 15 68 51 75 76c-4 -2 -9 -2 -16 -1c-19 3 -30 20 -26 39z" />
    <glyph glyph-name="lcaron" unicode="&#x13e;" horiz-adv-x="251" 
d="M73 25c5 -3 18 4 38 19c21 16 40 33 58 50l27 25c-26 -31 -54 -59 -85 -86c-30 -27 -54 -40 -73 -40c-23 0 -26 22 -9 65l227 561c17 39 23 61 18 66c-7 7 -47 12 -78 13l-23 2h161l-257 -642c-7 -20 -9 -31 -4 -33zM386 629c17 -3 30 -19 27 -38
c-8 -45 -53 -86 -98 -102c32 15 68 51 75 76c-4 -2 -9 -2 -16 -1c-19 3 -30 20 -26 39c3 19 21 30 38 26z" />
    <glyph glyph-name="Ldot" unicode="&#x13f;" horiz-adv-x="594" 
d="M336 643l-232 -583c-13 -33 7 -47 60 -47h56c63 1 125 16 187 43c51 23 95 60 132 111l-91 -167h-517c55 0 105 25 124 70l235 578c9 29 -16 49 -64 52h230c-63 0 -103 -19 -120 -57zM321 385c0 17 14 33 33 33s34 -14 34 -33c2 -44 -70 -44 -67 0z" />
    <glyph glyph-name="ldot" unicode="&#x140;" horiz-adv-x="251" 
d="M334 700l-257 -642c-7 -20 -9 -31 -4 -33c5 -3 18 4 38 19c21 16 40 33 58 50l27 25c-26 -31 -54 -59 -85 -86c-30 -27 -54 -40 -73 -40c-23 0 -26 22 -9 65l227 561c17 39 23 61 18 66c-7 7 -47 12 -78 13l-23 2h161zM289 385c0 17 14 33 33 33s34 -14 34 -33
c2 -44 -70 -44 -67 0z" />
    <glyph glyph-name="Lslash" unicode="&#x141;" horiz-adv-x="578" 
d="M427 56c51 23 95 60 132 111l-91 -167h-517c55 0 105 25 124 70l137 338l-20 -5l-14 3l-97 -25l7 11l98 25l14 -3l17 4l93 230c9 29 -16 49 -64 52h230c-63 0 -103 -19 -120 -57l-84 -210l41 10l-5 -11l-40 -10l-144 -362c-13 -33 7 -47 60 -47h56c63 1 125 16 187 43z
" />
    <glyph glyph-name="lslash" unicode="&#x142;" horiz-adv-x="276" 
d="M221 700h161l-118 -294l97 22l-9 -19l-95 -22l-132 -329c-7 -20 -9 -31 -4 -33c5 -3 18 4 38 19c21 16 40 33 58 50l27 25c-26 -31 -54 -59 -85 -86c-30 -27 -54 -40 -73 -40c-23 0 -26 22 -9 65l129 318l-52 -12l-12 14l71 16l91 225c17 39 23 61 18 66
c-7 7 -47 12 -78 13z" />
    <glyph glyph-name="Nacute" unicode="&#x143;" horiz-adv-x="740" 
d="M516 757l85 111c12 20 30 27 42 14c11 -11 7 -24 -12 -40zM871 700h-200c53 -3 74 -33 49 -104l-177 -429c-17 -40 -23 -44 -30 -42c-5 1 -12 14 -20 37l-163 538h-150c36 -1 60 -11 72 -32c12 -20 13 -42 4 -65l-203 -499c-12 -29 -33 -54 -63 -74
c-31 -20 -59 -30 -86 -30h232c-65 3 -98 44 -74 101l195 481c13 32 22 48 29 48c1 0 3 0 4 -1c3 -2 9 -18 18 -47l176 -582l245 592c29 72 77 108 142 108z" />
    <glyph glyph-name="nacute" unicode="&#x144;" horiz-adv-x="545" 
d="M357 512l85 111c12 20 30 27 42 14c11 -11 7 -24 -12 -40zM384 28c-7 3 -3 23 11 60l76 190c45 109 34 170 -33 181c-49 8 -97 -13 -144 -64c-14 -15 -46 -55 -95 -122c55 65 100 109 133 131c34 22 63 30 87 24c39 -11 42 -59 8 -143l-81 -200c-25 -57 -20 -85 16 -85
c15 0 29 11 46 23c11 8 27 26 35 34s28 31 33 38l30 37l-26 -28c-18 -19 -37 -37 -58 -54c-20 -17 -33 -25 -38 -22zM232 373c18 51 15 76 -10 76c-31 0 -82 -42 -151 -127l25 26c17 17 36 33 55 49s32 23 37 20c7 -2 5 -15 -4 -39l-146 -378h44z" />
    <glyph glyph-name="Ncommaaccent" unicode="&#x145;" horiz-adv-x="740" 
d="M671 700h200c-65 0 -113 -36 -142 -108l-245 -592l-176 582c-9 29 -15 45 -18 47c-1 1 -3 1 -4 1c-7 0 -16 -16 -29 -48l-195 -481c-24 -57 9 -98 74 -101h-232c27 0 55 10 86 30c30 20 51 45 63 74l203 499c9 23 8 45 -4 65c-12 21 -36 31 -72 32h150l163 -538
c8 -23 15 -36 20 -37c7 -2 13 2 30 42l177 429c25 71 4 101 -49 104zM271 -39c17 -3 30 -19 27 -38c-8 -45 -53 -86 -98 -102c32 15 68 51 75 76c-4 -2 -9 -2 -16 -1c-19 3 -30 20 -26 39c3 19 21 30 38 26z" />
    <glyph glyph-name="ncommaaccent" unicode="&#x146;" horiz-adv-x="545" 
d="M384 28c5 -3 18 5 38 22c21 17 40 35 58 54l26 28l-30 -37c-5 -7 -25 -30 -33 -38s-24 -26 -35 -34c-17 -12 -31 -23 -46 -23c-36 0 -41 28 -16 85l81 200c34 84 31 132 -8 143c-24 6 -53 -2 -87 -24c-33 -22 -78 -66 -133 -131c49 67 81 107 95 122c47 51 95 72 144 64
c67 -11 78 -72 33 -181l-76 -190c-14 -37 -18 -57 -11 -60zM222 449c25 0 28 -25 10 -76l-150 -373h-44l146 378c9 24 11 37 4 39c-5 3 -18 -4 -37 -20s-38 -32 -55 -49l-25 -26c69 85 120 127 151 127zM210 -39c17 -3 30 -19 27 -38c-8 -45 -53 -86 -98 -102
c32 15 68 51 75 76c-4 -2 -9 -2 -16 -1c-19 3 -30 20 -26 39c3 19 21 30 38 26z" />
    <glyph glyph-name="Ncaron" unicode="&#x147;" horiz-adv-x="740" 
d="M519 886l33 -103l152 101l-141 -128h-43zM871 700h-200c53 -3 74 -33 49 -104l-177 -429c-17 -40 -23 -44 -30 -42c-5 1 -12 14 -20 37l-163 538h-150c36 -1 60 -11 72 -32c12 -20 13 -42 4 -65l-203 -499c-12 -29 -33 -54 -63 -74c-31 -20 -59 -30 -86 -30h232
c-65 3 -98 44 -74 101l195 481c13 32 22 48 29 48c1 0 3 0 4 -1c3 -2 9 -18 18 -47l176 -582l245 592c29 72 77 108 142 108z" />
    <glyph glyph-name="ncaron" unicode="&#x148;" horiz-adv-x="545" 
d="M393 646l33 -103l152 101l-141 -128h-43zM384 28c-7 3 -3 23 11 60l76 190c45 109 34 170 -33 181c-49 8 -97 -13 -144 -64c-14 -15 -46 -55 -95 -122c55 65 100 109 133 131c34 22 63 30 87 24c39 -11 42 -59 8 -143l-81 -200c-25 -57 -20 -85 16 -85c15 0 29 11 46 23
c11 8 27 26 35 34s28 31 33 38l30 37l-26 -28c-18 -19 -37 -37 -58 -54c-20 -17 -33 -25 -38 -22zM232 373c18 51 15 76 -10 76c-31 0 -82 -42 -151 -127l25 26c17 17 36 33 55 49s32 23 37 20c7 -2 5 -15 -4 -39l-146 -378h44z" />
    <glyph glyph-name="Eng" unicode="&#x14a;" horiz-adv-x="710" 
d="M677 700h200c-65 0 -113 -36 -142 -108l-245 -592l-6 21l-28 -69c-39 -95 -110 -135 -215 -122c-24 3 -59 21 -68 37c-15 17 -13 38 0 46c13 12 38 6 43 -15c1 -8 -2 -28 -2 -33c1 -13 9 -22 24 -25c75 -16 126 32 171 132l51 113l3 6l-149 491c-9 29 -15 45 -18 47
c-1 1 -3 1 -4 1c-7 0 -16 -16 -29 -48l-195 -481c-24 -57 9 -98 74 -101h-232c27 0 55 10 86 30c30 20 51 45 63 74l203 499c9 23 8 45 -4 65c-12 21 -36 31 -72 32h150l163 -538c8 -23 15 -36 20 -37c7 -2 13 2 30 42l177 429c25 71 4 101 -49 104z" />
    <glyph glyph-name="eng" unicode="&#x14b;" horiz-adv-x="499" 
d="M415 446c66 -10 77 -69 32 -176l-75 -185l-54 -133c-21 -53 -54 -91 -81 -106c-13 -8 -27 -13 -42 -16c-29 -5 -40 -3 -56 0c-27 5 -60 22 -68 37c-15 17 -13 38 0 46c13 12 38 6 43 -15c1 -8 -2 -28 -2 -33c1 -13 9 -21 24 -25c61 -16 97 28 141 132l73 173l55 132
c33 83 30 129 -8 139c-23 6 -51 -2 -84 -23s-76 -64 -130 -127c49 65 79 104 92 118c45 49 92 70 140 62zM69 0h-44l146 378c9 24 11 37 4 39c-5 3 -18 -4 -37 -20s-37 -32 -54 -49l-26 -26c69 85 120 127 151 127c25 0 28 -25 10 -76z" />
    <glyph glyph-name="Omacron" unicode="&#x14c;" horiz-adv-x="667" 
d="M388 775l4 7l197 1l-4 -8h-197zM539 693c120 -31 179 -184 94 -408c-44 -114 -108 -197 -193 -250s-171 -62 -260 -29c-41 15 -71 47 -90 96s-26 105 -20 170c7 65 25 128 56 189c101 194 269 270 413 232zM498 689c-69 12 -218 -20 -325 -257c-42 -96 -58 -185 -49 -268
c9 -82 41 -134 94 -155c36 -15 79 -18 132 1c76 26 165 102 221 264c41 121 55 217 40 290s-52 115 -113 125z" />
    <glyph glyph-name="omacron" unicode="&#x14d;" horiz-adv-x="439" 
d="M243 530l4 7l197 1l-4 -8h-197zM245 452c57 19 99 15 128 -12s43 -66 41 -116c-2 -55 -16 -109 -42 -163c-26 -53 -60 -97 -103 -130c-42 -33 -85 -47 -129 -42c-112 11 -111 144 -81 240c43 133 118 199 186 223zM255 447c-29 -13 -58 -41 -86 -84s-50 -91 -65 -142
c-13 -51 -18 -97 -14 -148s34 -83 86 -79c47 5 89 45 128 120s61 147 66 214c7 56 -3 93 -30 112c-26 19 -54 22 -85 7z" />
    <glyph glyph-name="Ohungarumlaut" unicode="&#x150;" horiz-adv-x="667" 
d="M425 771l85 111c12 20 30 27 42 14c11 -11 7 -24 -12 -40zM497 771l85 111c12 20 30 27 42 14c11 -11 7 -24 -12 -40zM539 693c-144 38 -312 -38 -413 -232c-31 -61 -49 -124 -56 -189c-6 -65 1 -121 20 -170s49 -81 90 -96c89 -33 175 -24 260 29s149 136 193 250
c85 224 26 377 -94 408zM498 689c61 -10 98 -52 113 -125s1 -169 -40 -290c-56 -162 -145 -238 -221 -264c-53 -19 -96 -16 -132 -1c-53 21 -85 73 -94 155c-9 83 7 172 49 268c107 237 256 269 325 257z" />
    <glyph glyph-name="ohungarumlaut" unicode="&#x151;" horiz-adv-x="439" 
d="M238 532l85 111c12 20 30 27 42 14c11 -11 7 -24 -12 -40zM339 532l85 111c12 20 30 27 42 14c11 -11 7 -24 -12 -40zM245 452c57 19 99 15 128 -12s43 -66 41 -116c-2 -55 -16 -109 -42 -163c-26 -53 -60 -97 -103 -130c-42 -33 -85 -47 -129 -42
c-112 11 -111 144 -81 240c43 133 118 199 186 223zM255 447c-29 -13 -58 -41 -86 -84s-50 -91 -65 -142c-13 -51 -18 -97 -14 -148s34 -83 86 -79c47 5 89 45 128 120s61 147 66 214c7 56 -3 93 -30 112c-26 19 -54 22 -85 7z" />
    <glyph glyph-name="OE" unicode="&#x152;" horiz-adv-x="1060" 
d="M636 700h461l18 -125l-11 19c-4 8 -13 20 -28 36s-30 27 -45 34c-37 16 -93 24 -169 24h-107l-127 -317v1h97c56 0 93 7 120 30c13 12 22 21 27 27s12 17 23 34l-87 -221c10 49 9 118 -93 119h-91l-118 -292c-13 -35 -3 -57 28 -57h108c90 0 166 13 229 39
c65 27 104 53 140 98l-90 -149h-539c-10 0 -33 -1 -70 -4s-63 -3 -80 0c-79 7 -139 73 -163 160s-18 198 25 287c85 181 201 262 389 262c10 0 31 -1 62 -3c32 -1 55 -2 68 -2h11h12zM216 16c29 -11 57 -15 97 -11c41 4 85 29 118 74c21 29 43 69 52 93c5 12 14 32 25 61
l27 69l27 65c13 29 22 51 28 66l22 59c19 48 24 69 31 101c8 32 5 52 -3 65c-15 24 -63 36 -144 36c-44 0 -89 -10 -154 -43c-64 -32 -132 -109 -177 -217c-83 -195 -77 -373 51 -418z" />
    <glyph glyph-name="oe" unicode="&#x153;" horiz-adv-x="649" 
d="M597 463c44 -4 75 -38 67 -87c-3 -25 -17 -48 -42 -71s-63 -40 -115 -52s-95 -18 -130 -18c113 9 190 45 231 110c17 24 24 48 22 72c-1 25 -13 39 -36 42c-59 9 -123 -45 -192 -160c-19 -32 -35 -67 -46 -106s-14 -75 -9 -110s23 -55 53 -62c79 -17 152 63 178 100l9 14
c-4 -8 -8 -17 -33 -52c-13 -17 -26 -32 -40 -45c-27 -25 -73 -51 -117 -51c-57 0 -93 41 -97 106c-53 -71 -122 -112 -190 -104c-112 11 -111 144 -81 240c43 133 118 199 186 223c54 18 95 15 124 -9s44 -59 45 -106c69 99 148 131 213 126zM146 -6c47 5 89 45 128 120
s61 147 66 214c7 56 -3 93 -30 112c-26 19 -54 22 -85 7c-29 -13 -58 -41 -86 -84s-50 -91 -65 -142c-13 -51 -18 -97 -14 -148s34 -83 86 -79z" />
    <glyph glyph-name="Racute" unicode="&#x154;" horiz-adv-x="621" 
d="M573 882c11 -11 7 -24 -12 -40l-115 -85l85 111c12 20 30 27 42 14zM612 486c-39 -93 -136 -138 -257 -141c21 -13 38 -33 51 -61l66 -148l7 -16c5 -10 7 -16 8 -18l8 -16c9 -19 11 -18 20 -34c9 -15 15 -18 26 -29s22 -18 34 -23h-88c-15 13 -32 42 -52 89l-71 167
c-17 39 -35 65 -54 78s-51 23 -97 29l-121 -295c-16 -40 16 -68 60 -68h-233c64 0 107 29 130 86l221 550c15 36 -6 63 -54 64h225c165 0 214 -112 171 -214zM382 367c80 9 154 55 182 126c31 74 34 197 -158 200l-59 1l-132 -325c69 -7 124 -7 167 -2z" />
    <glyph glyph-name="racute" unicode="&#x155;" horiz-adv-x="390" 
d="M287 512l85 111c12 20 30 27 42 14c11 -11 7 -24 -12 -40zM170 388l-155 -388h46l158 388c11 23 14 41 11 54c-3 11 -12 16 -25 16c-15 0 -38 -13 -67 -40s-57 -55 -84 -86l24 24c17 15 35 31 54 46c20 16 33 24 40 24c12 0 8 -16 -2 -38zM198 325l10 13
c12 16 40 47 63 67c35 30 68 45 99 45c29 0 45 -17 45 -36c0 -20 -15 -35 -38 -30c-7 1 -14 6 -19 15s-16 14 -31 13c-33 -2 -76 -31 -129 -87z" />
    <glyph glyph-name="Rcommaaccent" unicode="&#x156;" horiz-adv-x="621" 
d="M612 486c-39 -93 -136 -138 -257 -141c21 -13 38 -33 51 -61l66 -148l7 -16c5 -10 7 -16 8 -18l8 -16c9 -19 11 -18 20 -34c9 -15 15 -18 26 -29s22 -18 34 -23h-88c-15 13 -32 42 -52 89l-71 167c-17 39 -35 65 -54 78s-51 23 -97 29l-121 -295c-16 -40 16 -68 60 -68
h-233c64 0 107 29 130 86l221 550c15 36 -6 63 -54 64h225c165 0 214 -112 171 -214zM382 367c80 9 154 55 182 126c31 74 34 197 -158 200l-59 1l-132 -325c69 -7 124 -7 167 -2zM259 -39c17 -3 30 -19 27 -38c-8 -45 -53 -86 -98 -102c32 15 68 51 75 76
c-4 -2 -9 -2 -16 -1c-19 3 -30 20 -26 39c3 19 21 30 38 26z" />
    <glyph glyph-name="rcommaaccent" unicode="&#x157;" horiz-adv-x="390" 
d="M230 442c3 -13 0 -31 -11 -54l-158 -388h-46l155 388c10 22 14 38 2 38c-7 0 -20 -8 -40 -24c-19 -15 -37 -31 -54 -46l-24 -24c27 31 55 59 84 86s52 40 67 40c13 0 22 -5 25 -16zM370 450c29 0 45 -17 45 -36c0 -20 -15 -35 -38 -30c-7 1 -14 6 -19 15s-16 14 -31 13
c-33 -2 -76 -31 -129 -87c23 31 47 58 73 80c35 30 68 45 99 45zM-13 -39c17 -3 30 -19 27 -38c-8 -45 -53 -86 -98 -102c32 15 68 51 75 76c-4 -2 -9 -2 -16 -1c-19 3 -30 20 -26 39c3 19 21 30 38 26z" />
    <glyph glyph-name="Rcaron" unicode="&#x158;" horiz-adv-x="621" 
d="M594 884l-141 -128h-43l-1 130l33 -103zM612 486c-39 -93 -136 -138 -257 -141c21 -13 38 -33 51 -61l66 -148l7 -16c5 -10 7 -16 8 -18l8 -16c9 -19 11 -18 20 -34c9 -15 15 -18 26 -29s22 -18 34 -23h-88c-15 13 -32 42 -52 89l-71 167c-17 39 -35 65 -54 78
s-51 23 -97 29l-121 -295c-16 -40 16 -68 60 -68h-233c64 0 107 29 130 86l221 550c15 36 -6 63 -54 64h225c165 0 214 -112 171 -214zM382 367c80 9 154 55 182 126c31 74 34 197 -158 200l-59 1l-132 -325c69 -7 124 -7 167 -2z" />
    <glyph glyph-name="rcaron" unicode="&#x159;" horiz-adv-x="390" 
d="M290 646l33 -103l152 101l-141 -128h-43zM170 388l-155 -388h46l158 388c11 23 14 41 11 54c-3 11 -12 16 -25 16c-15 0 -38 -13 -67 -40s-57 -55 -84 -86l24 24c17 15 35 31 54 46c20 16 33 24 40 24c12 0 8 -16 -2 -38zM198 325l10 13c12 16 40 47 63 67
c35 30 68 45 99 45c29 0 45 -17 45 -36c0 -20 -15 -35 -38 -30c-7 1 -14 6 -19 15s-16 14 -31 13c-33 -2 -76 -31 -129 -87z" />
    <glyph glyph-name="Sacute" unicode="&#x15a;" horiz-adv-x="534" 
d="M436 757l85 111c12 20 30 27 42 14c11 -11 7 -24 -12 -40zM573 644l-31 -80c-8 76 -46 120 -113 133c-59 11 -105 2 -140 -29c-34 -31 -48 -72 -43 -124c4 -37 22 -68 41 -88c9 -10 28 -28 55 -54l21 -20l27 -26l25 -27c25 -28 29 -39 45 -68c22 -40 22 -77 10 -125
c-16 -48 -44 -84 -84 -108c-39 -24 -81 -37 -125 -38c-89 -2 -162 26 -221 85c-17 16 -29 31 -36 46l42 99l1 -14c1 -17 13 -58 34 -91c47 -77 115 -115 206 -114c50 1 87 21 112 61c25 41 32 84 20 131c-13 48 -53 104 -122 168c-43 41 -74 76 -91 107s-19 68 -8 109
c22 83 88 126 198 130c52 2 97 -8 136 -30c18 -9 32 -20 41 -33z" />
    <glyph glyph-name="sacute" unicode="&#x15b;" horiz-adv-x="392" 
d="M287 512l85 111c12 20 30 27 42 14c11 -11 7 -24 -12 -40zM263 464c-73 -4 -127 -54 -124 -115c3 -21 7 -35 15 -54c3 -7 13 -24 17 -32c5 -7 19 -31 26 -42c33 -52 51 -92 52 -121c1 -30 -10 -56 -34 -79c-23 -23 -52 -32 -87 -28c-30 3 -52 16 -67 38s-17 44 -7 67
c3 8 9 14 18 17c10 4 16 10 18 19c5 15 -8 29 -27 29c-28 -1 -47 -29 -44 -66c0 -60 42 -108 122 -109c44 -1 81 11 111 34s45 55 44 96c0 25 -11 54 -22 71c-9 17 -32 51 -41 67l-18 30l-18 31c-5 11 -14 35 -14 55c-1 21 6 40 22 59c17 19 36 28 59 29c45 1 73 -21 73 -48
c0 -9 -8 -23 -8 -32c-1 -13 10 -25 26 -25c17 0 26 19 25 36c-1 23 -14 42 -37 55s-50 19 -80 18z" />
    <glyph glyph-name="Scedilla" unicode="&#x15e;" horiz-adv-x="591" 
d="M588 644l-31 -80c-8 76 -46 120 -113 133c-59 11 -105 2 -140 -29c-34 -31 -48 -72 -43 -124c4 -37 22 -68 41 -88c9 -10 28 -28 55 -54l21 -20l27 -26l25 -27c25 -28 29 -39 45 -68c22 -40 22 -77 10 -125c-16 -48 -44 -84 -84 -108c-39 -24 -81 -37 -125 -38
c-89 -2 -162 26 -221 85c-17 16 -29 31 -36 46l42 99l1 -14c1 -17 13 -58 34 -91c47 -77 115 -115 206 -114c50 1 87 21 112 61c25 41 32 84 20 131c-13 48 -53 104 -122 168c-43 41 -74 76 -91 107s-19 68 -8 109c22 83 88 126 198 130c52 2 97 -8 136 -30
c18 -9 32 -20 41 -33zM256 -2l-65 -51c25 -2 61 -19 31 -61c-32 -48 -83 -66 -116 -63c-16 1 -30 5 -42 12c22 -36 127 -35 186 48c29 36 23 71 -36 76l54 43z" />
    <glyph glyph-name="scedilla" unicode="&#x15f;" horiz-adv-x="392" 
d="M380 391c1 -17 -8 -36 -25 -36c-16 0 -27 12 -26 25c0 9 8 23 8 32c0 27 -28 49 -73 48c-23 -1 -42 -10 -59 -29c-16 -19 -23 -38 -22 -59c0 -20 9 -44 14 -55l18 -31l18 -30c9 -16 32 -50 41 -67c11 -17 22 -46 22 -71c1 -64 -42 -110 -106 -125l-43 -34
c59 -5 65 -40 36 -76c-59 -83 -164 -84 -186 -48c12 -7 26 -11 42 -12c33 -3 84 15 116 63c30 42 -6 59 -31 61l56 44c-12 -2 -25 -3 -39 -3c-80 1 -122 49 -122 109c-3 37 16 65 44 66c19 0 32 -14 27 -29c-2 -9 -8 -15 -18 -19c-9 -3 -15 -9 -18 -17c-10 -23 -8 -45 7 -67
s37 -35 67 -38c35 -4 64 5 87 28c24 23 35 49 34 79c-1 29 -19 69 -52 121c-7 11 -21 35 -26 42c-4 8 -14 25 -17 32c-8 19 -12 33 -15 54c-3 61 51 111 124 115c30 1 57 -5 80 -18s36 -32 37 -55z" />
    <glyph glyph-name="Scaron" unicode="&#x160;" horiz-adv-x="534" 
d="M399 886l33 -103l152 101l-141 -128h-43zM578 644l-31 -80c-8 76 -46 120 -113 133c-59 11 -105 2 -140 -29c-34 -31 -48 -72 -43 -124c4 -37 22 -68 41 -88c9 -10 28 -28 55 -54l21 -20l27 -26l25 -27c25 -28 29 -39 45 -68c22 -40 22 -77 10 -125
c-16 -48 -44 -84 -84 -108c-39 -24 -81 -37 -125 -38c-89 -2 -162 26 -221 85c-17 16 -29 31 -36 46l42 99l1 -14c1 -17 13 -58 34 -91c47 -77 115 -115 206 -114c50 1 87 21 112 61c25 41 32 84 20 131c-13 48 -53 104 -122 168c-43 41 -74 76 -91 107s-19 68 -8 109
c22 83 88 126 198 130c52 2 97 -8 136 -30c18 -9 32 -20 41 -33z" />
    <glyph glyph-name="scaron" unicode="&#x161;" horiz-adv-x="392" 
d="M286 646l33 -103l152 101l-141 -128h-43zM263 464c-73 -4 -127 -54 -124 -115c3 -21 7 -35 15 -54c3 -7 13 -24 17 -32c5 -7 19 -31 26 -42c33 -52 51 -92 52 -121c1 -30 -10 -56 -34 -79c-23 -23 -52 -32 -87 -28c-30 3 -52 16 -67 38s-17 44 -7 67c3 8 9 14 18 17
c10 4 16 10 18 19c5 15 -8 29 -27 29c-28 -1 -47 -29 -44 -66c0 -60 42 -108 122 -109c44 -1 81 11 111 34s45 55 44 96c0 25 -11 54 -22 71c-9 17 -32 51 -41 67l-18 30l-18 31c-5 11 -14 35 -14 55c-1 21 6 40 22 59c17 19 36 28 59 29c45 1 73 -21 73 -48
c0 -9 -8 -23 -8 -32c-1 -13 10 -25 26 -25c17 0 26 19 25 36c-1 23 -14 42 -37 55s-50 19 -80 18z" />
    <glyph glyph-name="uni0162" unicode="&#x162;" horiz-adv-x="673" 
d="M86 565l66 135h571l-21 -123s-3 66 -59 94c-19 10 -37 16 -54 18c-16 3 -41 4 -74 4h-51l-247 -614c-20 -48 22 -76 75 -79h-119l-51 -41c59 -5 65 -40 36 -76c-59 -83 -164 -84 -186 -48c12 -7 26 -11 42 -12c33 -3 84 15 116 63c30 42 -6 59 -31 61l65 51l6 2h-130
c30 0 97 12 129 87l243 606h-57h-38c-37 0 -79 -12 -126 -35c-33 -16 -74 -53 -91 -76z" />
    <glyph glyph-name="uni0163" unicode="&#x163;" horiz-adv-x="286" 
d="M310 441h-68l-150 -381c-9 -22 -9 -34 -2 -37c5 -3 18 4 37 20c20 16 38 33 55 50l26 26l-21 -26c-11 -13 -19 -24 -26 -31c-21 -26 -54 -59 -78 -66l-46 -37c59 -5 65 -40 36 -76c-59 -83 -164 -84 -186 -48c12 -7 26 -11 43 -12c32 -3 83 15 115 63c30 42 -6 59 -31 61
l59 46h-6c-32 0 -43 33 -28 65l154 383h-35l-7 9h45l43 107l67 47l-61 -154h74z" />
    <glyph glyph-name="Tcaron" unicode="&#x164;" horiz-adv-x="673" 
d="M432 886l33 -103l152 101l-141 -128h-43zM723 700h-571l-66 -135l14 17c17 23 58 60 91 76c47 23 89 35 126 35h38h57l-243 -606c-32 -75 -99 -87 -129 -87h252c-53 3 -95 31 -75 79l247 614h51c33 0 58 -1 74 -4c17 -2 35 -8 54 -18c56 -28 59 -94 59 -94z" />
    <glyph glyph-name="tcaron" unicode="&#x165;" horiz-adv-x="286" 
d="M388 629c17 -3 30 -19 27 -38c-8 -45 -53 -86 -98 -102c32 15 68 51 75 76c-4 -2 -9 -2 -16 -1c-19 3 -30 20 -26 39c3 19 21 30 38 26zM239 557l67 47l-61 -154h74l-9 -9h-68l-150 -381c-9 -22 -9 -34 -2 -37c5 -3 18 4 37 20c20 16 38 33 55 50l26 26l-23 -30
c-13 -17 -23 -29 -30 -36l-28 -28c-23 -23 -41 -32 -60 -32c-32 0 -43 33 -28 65l154 383h-35l-7 9h45z" />
    <glyph glyph-name="Tbar" unicode="&#x166;" horiz-adv-x="673" 
d="M358 775l4 7l197 1l-4 -8h-197zM152 700h571l-21 -123s-3 66 -59 94c-19 10 -37 16 -54 18c-16 3 -41 4 -74 4h-51l-247 -614c-20 -48 22 -76 75 -79h-252c30 0 97 12 129 87l243 606h-57h-38c-37 0 -79 -12 -126 -35c-33 -16 -74 -53 -91 -76l-14 -17z" />
    <glyph glyph-name="tbar" unicode="&#x167;" horiz-adv-x="286" 
d="M369 538l-4 -8h-88l-32 -80h74l-9 -9h-68l-150 -381c-9 -22 -9 -34 -2 -37c5 -3 18 4 37 20c20 16 38 33 55 50l26 26l-23 -30c-13 -17 -23 -29 -30 -36l-28 -28c-23 -23 -41 -32 -60 -32c-32 0 -43 33 -28 65l154 383h-35l-7 9h45l32 80h-60l4 7h59l8 20l67 47l-26 -66
h89z" />
    <glyph glyph-name="Umacron" unicode="&#x16a;" horiz-adv-x="680" 
d="M388 775l4 7l197 1l-4 -8h-197zM642 700h211c-34 0 -63 -9 -87 -26c-23 -17 -46 -53 -68 -106l-141 -350c-59 -146 -154 -219 -285 -219c-81 0 -139 44 -162 104c-23 59 -6 156 49 289l100 239c17 41 -3 66 -52 69h214c-57 0 -96 -26 -117 -77l-122 -301
c-43 -105 -45 -186 -17 -230c28 -43 67 -63 118 -68c105 -9 202 47 262 195l159 389c20 48 20 87 -62 92z" />
    <glyph glyph-name="umacron" unicode="&#x16b;" horiz-adv-x="510" 
d="M280 530l4 7l197 1l-4 -8h-197zM179 430c-5 3 -17 -4 -36 -21s-36 -34 -53 -51l-24 -27c4 5 20 26 27 34l31 37c29 29 54 55 76 55c33 0 38 -27 15 -82l-80 -207c-27 -72 -41 -132 6 -142c44 -11 102 29 207 156c-49 -67 -76 -105 -83 -113c-45 -54 -90 -79 -135 -74
c-2 0 -4 0 -7 1c-64 11 -74 71 -29 182c34 91 59 156 76 194c15 35 18 55 9 58zM506 450l-153 -386c-10 -26 -12 -41 -5 -44c5 -2 18 5 38 21c21 17 40 34 58 51l26 27c-51 -61 -89 -99 -112 -114c-13 -8 -23 -12 -32 -12c-32 0 -38 36 -22 71l156 386h46z" />
    <glyph glyph-name="Uring" unicode="&#x16e;" horiz-adv-x="680" 
d="M554 763c-35 0 -63 28 -63 63c0 36 28 65 63 65c36 0 65 -28 65 -65c0 -35 -29 -63 -65 -63zM555 777c27 0 51 24 51 51c0 28 -24 51 -51 51c-28 0 -51 -23 -51 -51c0 -27 23 -51 51 -51zM642 700h211c-34 0 -63 -9 -87 -26c-23 -17 -46 -53 -68 -106l-141 -350
c-59 -146 -154 -219 -285 -219c-81 0 -139 44 -162 104c-23 59 -6 156 49 289l100 239c17 41 -3 66 -52 69h214c-57 0 -96 -26 -117 -77l-122 -301c-43 -105 -45 -186 -17 -230c28 -43 67 -63 118 -68c105 -9 202 47 262 195l159 389c20 48 20 87 -62 92z" />
    <glyph glyph-name="uring" unicode="&#x16f;" horiz-adv-x="510" 
d="M364 509c-35 0 -63 28 -63 63c0 36 28 65 63 65c36 0 65 -28 65 -65c0 -35 -29 -63 -65 -63zM365 523c27 0 51 24 51 51c0 28 -24 51 -51 51c-28 0 -51 -23 -51 -51c0 -27 23 -51 51 -51zM179 430c-5 3 -17 -4 -36 -21s-36 -34 -53 -51l-24 -27c4 5 20 26 27 34l31 37
c29 29 54 55 76 55c33 0 38 -27 15 -82l-80 -207c-27 -72 -41 -132 6 -142c44 -11 102 29 207 156c-49 -67 -76 -105 -83 -113c-45 -54 -90 -79 -135 -74c-2 0 -4 0 -7 1c-64 11 -74 71 -29 182c34 91 59 156 76 194c15 35 18 55 9 58zM506 450l-153 -386
c-10 -26 -12 -41 -5 -44c5 -2 18 5 38 21c21 17 40 34 58 51l26 27c-51 -61 -89 -99 -112 -114c-13 -8 -23 -12 -32 -12c-32 0 -38 36 -22 71l156 386h46z" />
    <glyph glyph-name="Uhungarumlaut" unicode="&#x170;" horiz-adv-x="680" 
d="M425 771l85 111c12 20 30 27 42 14c11 -11 7 -24 -12 -40zM497 771l85 111c12 20 30 27 42 14c11 -11 7 -24 -12 -40zM853 700h-211c82 -5 82 -44 62 -92l-159 -389c-60 -148 -157 -204 -262 -195c-51 5 -90 25 -118 68c-28 44 -26 125 17 230l122 301
c21 51 60 77 117 77h-214c49 -3 69 -28 52 -69l-100 -239c-55 -133 -72 -230 -49 -289c23 -60 81 -104 162 -104c131 0 226 73 285 219l141 350c22 53 45 89 68 106c24 17 53 26 87 26z" />
    <glyph glyph-name="uhungarumlaut" unicode="&#x171;" horiz-adv-x="510" 
d="M263 532l85 111c12 20 30 27 42 14c11 -11 7 -24 -12 -40zM364 532l85 111c12 20 30 27 42 14c11 -11 7 -24 -12 -40zM179 430c9 -3 6 -23 -9 -58c-17 -38 -42 -103 -76 -194c-45 -111 -35 -171 29 -182c3 -1 5 -1 7 -1c45 -5 90 20 135 74c7 8 34 46 83 113
c-105 -127 -163 -167 -207 -156c-47 10 -33 70 -6 142l80 207c23 55 18 82 -15 82c-22 0 -47 -26 -76 -55l-31 -37c-7 -8 -23 -29 -27 -34l24 27c17 17 34 34 53 51s31 24 36 21zM353 64l153 386h-46l-156 -386c-16 -35 -10 -71 22 -71c9 0 19 4 32 12c23 15 61 53 112 114
l-26 -27c-18 -17 -37 -34 -58 -51c-20 -16 -33 -23 -38 -21c-7 3 -5 18 5 44z" />
    <glyph glyph-name="Uogonek" unicode="&#x172;" horiz-adv-x="680" 
d="M642 700h211c-34 0 -63 -9 -87 -26c-23 -17 -46 -53 -68 -106l-141 -350c-59 -146 -154 -219 -285 -219h-13c-57 -29 -88 -60 -95 -95c-5 -24 2 -43 21 -56c19 -14 40 -16 65 -5c-44 -32 -127 -19 -129 48c-1 43 27 80 84 109h46c-71 7 -121 48 -141 103
c-23 59 -6 156 49 289l100 239c17 41 -3 66 -52 69h214c-57 0 -96 -26 -117 -77l-122 -301c-43 -105 -45 -186 -17 -230c28 -43 67 -63 118 -68c105 -9 202 47 262 195l159 389c20 48 20 87 -62 92z" />
    <glyph glyph-name="uogonek" unicode="&#x173;" horiz-adv-x="510" 
d="M177 0c-57 -29 -89 -61 -96 -96c-5 -24 2 -43 21 -56c19 -14 40 -16 65 -5c-44 -32 -127 -19 -129 48c-1 42 25 77 79 106c-59 14 -67 74 -23 181c34 91 59 156 76 194c15 35 18 55 9 58c-5 3 -17 -4 -36 -21s-36 -34 -53 -51l-24 -27c4 5 20 26 27 34l31 37
c29 29 54 55 76 55c33 0 38 -27 15 -82l-80 -207c-27 -72 -41 -132 6 -142c44 -11 102 29 207 156c-5 -7 -15 -20 -28 -39l-28 -40l-26 -33c-31 -38 -53 -55 -89 -70zM348 20c5 -2 18 5 38 21c21 17 40 34 58 51l26 27c-51 -61 -89 -99 -112 -114c-13 -8 -23 -12 -32 -12
c-32 0 -38 36 -22 71l156 386h46l-153 -386c-10 -26 -12 -41 -5 -44z" />
    <glyph glyph-name="Wcircumflex" unicode="&#x174;" horiz-adv-x="894" 
d="M626 877l-6 -119l-24 92l-150 -94l140 121h40zM854 700h200c-21 0 -47 -9 -78 -28c-31 -18 -55 -41 -73 -69l-415 -640l-18 487l-316 -487l-25 669c-1 51 -22 65 -69 68h208c-44 0 -90 -26 -89 -82l14 -394c0 -13 1 -47 1 -66c2 -31 3 -62 15 -64c10 -3 24 10 42 39
l218 338l-6 161c-1 51 -22 65 -69 68h207c-22 0 -43 -7 -62 -20s-28 -34 -27 -62l18 -445c0 -13 1 -40 1 -51c3 -19 3 -31 14 -33c14 -3 35 31 45 51l299 463c36 63 14 97 -35 97z" />
    <glyph glyph-name="wcircumflex" unicode="&#x175;" horiz-adv-x="628" 
d="M289 510l140 121h40l-6 -119l-24 92zM605 457c-20 3 -34 -6 -37 -21c-2 -12 3 -27 15 -46c19 -35 19 -77 1 -127c-15 -38 -41 -81 -79 -128s-73 -81 -105 -100c14 84 9 168 -15 253c23 47 35 81 36 102s-1 37 -7 48c-6 12 -17 16 -34 13c-45 -9 -65 -42 -59 -100
c1 -13 11 -49 28 -108c-32 -63 -94 -145 -178 -204c9 51 15 111 19 182c8 163 -14 240 -83 237c-30 1 -43 -20 -52 -40c-3 -5 -5 -21 -6 -26c-1 -4 -4 -20 -4 -23c16 47 30 59 54 54c35 -7 50 -76 43 -206c-4 -77 -13 -152 -27 -224l21 13c15 9 34 22 58 41s46 39 65 60
c35 36 69 86 81 107c7 11 10 18 11 21c11 -52 12 -109 8 -145c-1 -17 -4 -35 -7 -52c-5 -33 -9 -40 -10 -45c31 11 66 34 105 69s74 77 104 125c94 153 103 268 54 270zM405 390c0 -38 -17 -82 -21 -94l-2 -3l-4 12c-5 16 -13 43 -14 59c-3 39 -1 62 6 71c4 4 8 6 13 6
c14 -1 21 -18 22 -51z" />
    <glyph glyph-name="Ycircumflex" unicode="&#x176;" horiz-adv-x="509" 
d="M306 756l140 121h40l-6 -119l-24 92zM644 700h-185c27 0 45 -9 55 -28c10 -18 3 -43 -21 -74l-169 -196c-12 -15 -23 -21 -34 -20c-7 1 -12 9 -16 24l-48 222c-8 39 7 67 51 72h-185c33 0 73 -21 85 -69l52 -238c7 -31 6 -57 -2 -77l-93 -238c-10 -26 -27 -46 -50 -59
s-44 -19 -63 -19h217c-41 4 -71 31 -55 74l95 239c12 29 26 54 43 73l175 203c59 69 109 106 148 111z" />
    <glyph glyph-name="ycircumflex" unicode="&#x177;" horiz-adv-x="417" 
d="M386 631l-6 -119l-24 92l-150 -94l140 121h40zM393 457c60 -5 42 -122 -62 -268c-96 -139 -199 -250 -308 -333c-44 -33 -82 -51 -114 -56c-35 -4 -57 -1 -68 8c-17 15 -9 44 20 52c5 5 27 -1 31 -2s26 -10 31 -13c29 -11 79 3 127 43l29 25c29 25 57 52 84 81
c11 78 13 156 8 235c-5 71 -11 120 -19 149s-22 44 -42 46c-25 2 -43 -14 -56 -49c13 53 34 81 64 82c72 4 95 -70 102 -226c3 -87 2 -146 -3 -177c35 39 66 78 94 117c35 51 56 85 61 100c21 51 22 90 4 117c-14 20 -21 34 -20 43c1 15 14 30 37 26zM213 48
c-1 0 -2 -1 -2 -2c0 1 1 2 2 2z" />
    <glyph glyph-name="Ydieresis" unicode="&#x178;" horiz-adv-x="509" 
d="M313 869c44 3 44 -69 0 -67c-19 0 -33 15 -33 34s16 33 33 33zM503 869c44 3 44 -69 0 -67c-19 0 -33 15 -33 34s16 33 33 33zM459 700h185c-39 -5 -89 -42 -148 -111l-175 -203c-17 -19 -31 -44 -43 -73l-95 -239c-16 -43 14 -70 55 -74h-217c19 0 40 6 63 19
s40 33 50 59l93 238c8 20 9 46 2 77l-52 238c-12 48 -52 69 -85 69h185c-44 -5 -59 -33 -51 -72l48 -222c4 -15 9 -23 16 -24c11 -1 22 5 34 20l169 196c24 31 31 56 21 74c-10 19 -28 28 -55 28z" />
    <glyph glyph-name="Zacute" unicode="&#x179;" horiz-adv-x="623" 
d="M466 757l85 111c12 20 30 27 42 14c11 -11 7 -24 -12 -40zM164 9c-31 1 -39 2 -54 10c-15 9 -5 27 23 58l580 623h-452l-70 -142c24 37 61 69 111 95c52 27 116 40 192 40h103c29 0 33 -12 12 -35l-616 -658h513l77 147c-26 -38 -66 -69 -120 -94
c-66 -29 -133 -44 -200 -44h-99z" />
    <glyph glyph-name="zacute" unicode="&#x17a;" horiz-adv-x="370" 
d="M247 512l85 111c12 20 30 27 42 14c11 -11 7 -24 -12 -40zM103 384l11 18c16 25 51 55 84 55c18 0 37 -5 56 -15c20 -10 37 -15 50 -15c17 1 37 4 58 9c22 6 35 12 38 17l-17 -35c-11 -23 -32 -54 -61 -91s-62 -70 -99 -99c-23 -19 -51 -39 -82 -61s-55 -40 -72 -54
c-17 -13 -31 -28 -44 -44l7 4c11 5 33 12 53 11c24 -1 49 -10 76 -25s50 -24 68 -25c43 -3 75 9 96 36l-11 -20c-13 -25 -51 -58 -88 -58c-25 0 -54 8 -85 24s-57 24 -79 25c-35 1 -67 -10 -97 -33l11 16c13 21 48 62 80 90c3 3 38 28 103 75c65 48 109 85 130 111
c35 39 59 72 71 99l-12 -5c-16 -8 -44 -13 -81 -9c-14 3 -30 9 -48 19s-32 15 -42 16c-31 3 -56 -9 -74 -36z" />
    <glyph glyph-name="Zdotaccent" unicode="&#x17b;" horiz-adv-x="623" 
d="M400 825c23 23 61 -12 36 -37c-21 -24 -62 15 -36 37zM164 9h99c67 0 134 15 200 44c54 25 94 56 120 94l-77 -147h-513l616 658c21 23 17 35 -12 35h-103c-76 0 -140 -13 -192 -40c-50 -26 -87 -58 -111 -95l70 142h452l-580 -623c-28 -31 -38 -49 -23 -58
c15 -8 23 -9 54 -10z" />
    <glyph glyph-name="zdotaccent" unicode="&#x17c;" horiz-adv-x="370" 
d="M307 544c-12 -12 -34 -12 -47 0c-12 13 -12 35 0 47c31 31 78 -16 47 -47zM103 384l11 18c16 25 51 55 84 55c18 0 37 -5 56 -15c20 -10 37 -15 50 -15c17 1 37 4 58 9c22 6 35 12 38 17l-17 -35c-11 -23 -32 -54 -61 -91s-62 -70 -99 -99c-23 -19 -51 -39 -82 -61
s-55 -40 -72 -54c-17 -13 -31 -28 -44 -44l7 4c11 5 33 12 53 11c24 -1 49 -10 76 -25s50 -24 68 -25c43 -3 75 9 96 36l-11 -20c-13 -25 -51 -58 -88 -58c-25 0 -54 8 -85 24s-57 24 -79 25c-35 1 -67 -10 -97 -33l11 16c13 21 48 62 80 90c3 3 38 28 103 75
c65 48 109 85 130 111c35 39 59 72 71 99l-12 -5c-16 -8 -44 -13 -81 -9c-14 3 -30 9 -48 19s-32 15 -42 16c-31 3 -56 -9 -74 -36z" />
    <glyph glyph-name="Zcaron" unicode="&#x17d;" horiz-adv-x="623" 
d="M472 886l33 -103l152 101l-141 -128h-43zM164 9c-31 1 -39 2 -54 10c-15 9 -5 27 23 58l580 623h-452l-70 -142c24 37 61 69 111 95c52 27 116 40 192 40h103c29 0 33 -12 12 -35l-616 -658h513l77 147c-26 -38 -66 -69 -120 -94c-66 -29 -133 -44 -200 -44h-99z" />
    <glyph glyph-name="zcaron" unicode="&#x17e;" horiz-adv-x="370" 
d="M251 646l33 -103l152 101l-141 -128h-43zM103 384l11 18c16 25 51 55 84 55c18 0 37 -5 56 -15c20 -10 37 -15 50 -15c17 1 37 4 58 9c22 6 35 12 38 17l-17 -35c-11 -23 -32 -54 -61 -91s-62 -70 -99 -99c-23 -19 -51 -39 -82 -61s-55 -40 -72 -54
c-17 -13 -31 -28 -44 -44l7 4c11 5 33 12 53 11c24 -1 49 -10 76 -25s50 -24 68 -25c43 -3 75 9 96 36l-11 -20c-13 -25 -51 -58 -88 -58c-25 0 -54 8 -85 24s-57 24 -79 25c-35 1 -67 -10 -97 -33l11 16c13 21 48 62 80 90c3 3 38 28 103 75c65 48 109 85 130 111
c35 39 59 72 71 99l-12 -5c-16 -8 -44 -13 -81 -9c-14 3 -30 9 -48 19s-32 15 -42 16c-31 3 -56 -9 -74 -36z" />
    <glyph glyph-name="Scommaaccent" unicode="&#x218;" horiz-adv-x="534" 
d="M537 677c16 -8 32 -21 37 -28l4 -5l-31 -80c-8 76 -46 120 -113 133c-59 11 -105 2 -140 -29c-34 -31 -48 -72 -43 -124c2 -19 7 -36 15 -51s17 -27 26 -37s28 -28 55 -54l21 -20l27 -26l25 -27c13 -14 21 -25 26 -34c9 -16 30 -50 34 -74c4 -23 4 -56 -5 -85
c-16 -48 -44 -84 -84 -108c-39 -24 -81 -37 -125 -38c-89 -2 -162 26 -221 85c-15 15 -28 32 -33 40l-3 6l42 99c-1 -32 11 -67 35 -105c47 -77 115 -115 206 -114c50 1 87 21 112 61c25 41 32 84 20 131c-13 48 -53 104 -122 168c-43 41 -74 76 -91 107s-19 68 -8 109
c22 83 88 126 198 130c52 2 97 -8 136 -30zM259 -39c17 -3 30 -19 27 -38c-8 -45 -53 -86 -98 -102c32 15 68 51 75 76c-4 -2 -9 -2 -16 -1c-19 3 -30 20 -26 39c3 19 21 30 38 26z" />
    <glyph glyph-name="scommaaccent" unicode="&#x219;" horiz-adv-x="392" 
d="M380 391c1 -17 -8 -36 -25 -36c-16 0 -27 12 -26 25c0 9 8 23 8 32c0 27 -28 49 -73 48c-23 -1 -42 -10 -59 -29c-16 -19 -23 -38 -22 -59c0 -20 9 -44 14 -55l18 -31l18 -30c9 -16 32 -50 41 -67c11 -17 22 -46 22 -71c1 -41 -14 -73 -44 -96s-67 -35 -111 -34
c-80 1 -122 49 -122 109c-3 37 16 65 44 66c19 0 32 -14 27 -29c-2 -9 -8 -15 -18 -19c-9 -3 -15 -9 -18 -17c-10 -23 -8 -45 7 -67s37 -35 67 -38c35 -4 64 5 87 28c24 23 35 49 34 79c-1 29 -19 69 -52 121c-7 11 -21 35 -26 42c-4 8 -14 25 -17 32c-8 19 -12 33 -15 54
c-3 61 51 111 124 115c30 1 57 -5 80 -18s36 -32 37 -55zM112 -39c17 -3 30 -19 27 -38c-8 -45 -53 -86 -98 -102c32 15 68 51 75 76c-4 -2 -9 -2 -16 -1c-19 3 -30 20 -26 39c3 19 21 30 38 26z" />
    <glyph glyph-name="uni021A" unicode="&#x21a;" horiz-adv-x="673" 
d="M86 565l66 135h571l-21 -123s-3 66 -59 94c-19 10 -37 16 -54 18c-16 3 -41 4 -74 4h-51l-247 -614c-20 -48 22 -76 75 -79h-252c30 0 97 12 129 87l243 606h-57h-38c-37 0 -79 -12 -126 -35c-33 -16 -74 -53 -91 -76zM136 -39c17 -3 30 -19 27 -38
c-8 -45 -53 -86 -98 -102c32 15 68 51 75 76c-4 -2 -9 -2 -16 -1c-19 3 -30 20 -26 39c3 19 21 30 38 26z" />
    <glyph glyph-name="uni021B" unicode="&#x21b;" horiz-adv-x="286" 
d="M310 441h-68l-150 -381c-9 -22 -9 -34 -2 -37c5 -3 18 4 37 20c20 16 38 33 55 50l26 26l-23 -30c-13 -17 -23 -29 -30 -36l-28 -28c-23 -23 -41 -32 -60 -32c-32 0 -43 33 -28 65l154 383h-35l-7 9h45l43 107l67 47l-61 -154h74zM21 -39c17 -3 30 -19 27 -38
c-8 -45 -53 -86 -98 -102c32 15 68 51 75 76c-4 -2 -9 -2 -16 -1c-19 3 -30 20 -26 39c3 19 21 30 38 26z" />
    <glyph glyph-name="circumflex" unicode="&#x2c6;" 
d="M158 510l140 121h40l-6 -119l-24 92z" />
    <glyph glyph-name="caron" unicode="&#x2c7;" 
d="M190 646l33 -103l152 101l-141 -128h-43z" />
    <glyph glyph-name="breve" unicode="&#x2d8;" 
d="M211 616c-9 -41 10 -61 57 -61s89 20 126 61c-29 -48 -88 -87 -139 -87c-53 0 -73 32 -44 87z" />
    <glyph glyph-name="dotaccent" unicode="&#x2d9;" 
d="M186 569c23 23 61 -12 36 -37c-21 -24 -62 15 -36 37z" />
    <glyph glyph-name="ring" unicode="&#x2da;" 
d="M205 509c-33 0 -63 28 -63 63c0 36 28 65 63 65c36 0 65 -28 65 -65c0 -35 -29 -63 -65 -63zM206 523c27 0 51 24 51 51c0 28 -24 51 -51 51c-28 0 -51 -23 -51 -51c0 -27 23 -51 51 -51z" />
    <glyph glyph-name="ogonek" unicode="&#x2db;" 
d="M5 0h55c-57 -29 -89 -61 -96 -96c-5 -24 2 -43 21 -56c19 -14 40 -16 65 -5c-44 -32 -127 -19 -129 48c-1 43 27 80 84 109z" />
    <glyph glyph-name="tilde" unicode="&#x2dc;" 
d="M154 528c29 51 74 79 114 70c13 -3 23 -12 32 -27s19 -23 30 -24c29 -4 64 17 83 49c-10 -25 -26 -44 -47 -59c-21 -14 -41 -19 -58 -14c-13 3 -25 13 -35 29c-9 16 -21 25 -36 27c-19 3 -54 -14 -83 -51z" />
    <glyph glyph-name="hungarumlaut" unicode="&#x2dd;" 
d="M152 512l85 111c12 20 30 27 42 14c11 -11 7 -24 -12 -40zM224 512l85 111c12 20 30 27 42 14c11 -11 7 -24 -12 -40z" />
    <glyph glyph-name="Wgrave" unicode="&#x1e80;" horiz-adv-x="894" 
d="M492 862l31 -136l-69 125c-10 23 -8 37 6 41c16 8 29 -6 32 -30zM854 700h200c-21 0 -47 -9 -78 -28c-31 -18 -55 -41 -73 -69l-415 -640l-18 487l-316 -487l-25 669c-1 51 -22 65 -69 68h208c-44 0 -90 -26 -89 -82l14 -394c0 -13 1 -47 1 -66c2 -31 3 -62 15 -64
c10 -3 24 10 42 39l218 338l-6 161c-1 51 -22 65 -69 68h207c-22 0 -43 -7 -62 -20s-28 -34 -27 -62l18 -445c0 -13 1 -40 1 -51c3 -19 3 -31 14 -33c14 -3 35 31 45 51l299 463c36 63 14 97 -35 97z" />
    <glyph glyph-name="wgrave" unicode="&#x1e81;" horiz-adv-x="628" 
d="M317 628l31 -136l-69 125c-10 23 -8 37 6 41c16 8 29 -6 32 -30zM605 457c49 -2 40 -117 -54 -270c-30 -48 -65 -90 -104 -125s-74 -58 -105 -69c1 5 5 12 10 45c3 17 6 35 7 52c4 36 3 93 -8 145c-1 -3 -4 -10 -11 -21c-12 -21 -46 -71 -81 -107
c-19 -21 -41 -41 -65 -60s-43 -32 -58 -41l-21 -13c14 72 23 147 27 224c7 130 -8 199 -43 206c-24 5 -38 -7 -54 -54c0 3 3 19 4 23c1 5 3 21 6 26c9 20 22 41 52 40c69 3 91 -74 83 -237c-4 -71 -10 -131 -19 -182c84 59 146 141 178 204c-17 59 -27 95 -28 108
c-6 58 14 91 59 100c17 3 28 -1 34 -13c6 -11 8 -27 7 -48s-13 -55 -36 -102c24 -85 29 -169 15 -253c32 19 67 53 105 100s64 90 79 128c18 50 18 92 -1 127c-12 19 -17 34 -15 46c3 15 17 24 37 21zM405 390c-1 33 -8 50 -22 51c-5 0 -9 -2 -13 -6c-7 -9 -9 -32 -6 -71
c1 -16 9 -43 14 -59l4 -12l2 3c4 12 21 56 21 94z" />
    <glyph glyph-name="Wacute" unicode="&#x1e82;" horiz-adv-x="894" 
d="M623 882c11 -11 7 -24 -12 -40l-115 -85l85 111c12 20 30 27 42 14zM854 700h200c-21 0 -47 -9 -78 -28c-31 -18 -55 -41 -73 -69l-415 -640l-18 487l-316 -487l-25 669c-1 51 -22 65 -69 68h208c-44 0 -90 -26 -89 -82l14 -394c0 -13 1 -47 1 -66c2 -31 3 -62 15 -64
c10 -3 24 10 42 39l218 338l-6 161c-1 51 -22 65 -69 68h207c-22 0 -43 -7 -62 -20s-28 -34 -27 -62l18 -445c0 -13 1 -40 1 -51c3 -19 3 -31 14 -33c14 -3 35 31 45 51l299 463c36 63 14 97 -35 97z" />
    <glyph glyph-name="wacute" unicode="&#x1e83;" horiz-adv-x="628" 
d="M372 512l85 111c12 20 30 27 42 14c11 -11 7 -24 -12 -40zM605 457c-20 3 -34 -6 -37 -21c-2 -12 3 -27 15 -46c19 -35 19 -77 1 -127c-15 -38 -41 -81 -79 -128s-73 -81 -105 -100c14 84 9 168 -15 253c23 47 35 81 36 102s-1 37 -7 48c-6 12 -17 16 -34 13
c-45 -9 -65 -42 -59 -100c1 -13 11 -49 28 -108c-32 -63 -94 -145 -178 -204c9 51 15 111 19 182c8 163 -14 240 -83 237c-30 1 -43 -20 -52 -40c-3 -5 -5 -21 -6 -26c-1 -4 -4 -20 -4 -23c16 47 30 59 54 54c35 -7 50 -76 43 -206c-4 -77 -13 -152 -27 -224l21 13
c15 9 34 22 58 41s46 39 65 60c35 36 69 86 81 107c7 11 10 18 11 21c11 -52 12 -109 8 -145c-1 -17 -4 -35 -7 -52c-5 -33 -9 -40 -10 -45c31 11 66 34 105 69s74 77 104 125c94 153 103 268 54 270zM405 390c0 -38 -17 -82 -21 -94l-2 -3l-4 12c-5 16 -13 43 -14 59
c-3 39 -1 62 6 71c4 4 8 6 13 6c14 -1 21 -18 22 -51z" />
    <glyph glyph-name="Wdieresis" unicode="&#x1e84;" horiz-adv-x="894" 
d="M425 869c44 3 44 -69 0 -67c-19 0 -33 15 -33 34s16 33 33 33zM615 869c44 3 44 -69 0 -67c-19 0 -33 15 -33 34s16 33 33 33zM854 700h200c-21 0 -47 -9 -78 -28c-31 -18 -55 -41 -73 -69l-415 -640l-18 487l-316 -487l-25 669c-1 51 -22 65 -69 68h208
c-44 0 -90 -26 -89 -82l14 -394c0 -13 1 -47 1 -66c2 -31 3 -62 15 -64c10 -3 24 10 42 39l218 338l-6 161c-1 51 -22 65 -69 68h207c-22 0 -43 -7 -62 -20s-28 -34 -27 -62l18 -445c0 -13 1 -40 1 -51c3 -19 3 -31 14 -33c14 -3 35 31 45 51l299 463c36 63 14 97 -35 97z
" />
    <glyph glyph-name="wdieresis" unicode="&#x1e85;" horiz-adv-x="628" 
d="M261 607c44 3 44 -69 0 -67c-19 0 -33 15 -33 34s16 33 33 33zM451 607c44 3 44 -69 0 -67c-19 0 -33 15 -33 34s16 33 33 33zM605 457c49 -2 40 -117 -54 -270c-30 -48 -65 -90 -104 -125s-74 -58 -105 -69c1 5 5 12 10 45c3 17 6 35 7 52c4 36 3 93 -8 145
c-1 -3 -4 -10 -11 -21c-12 -21 -46 -71 -81 -107c-19 -21 -41 -41 -65 -60s-43 -32 -58 -41l-21 -13c14 72 23 147 27 224c7 130 -8 199 -43 206c-24 5 -38 -7 -54 -54c0 3 3 19 4 23c1 5 3 21 6 26c9 20 22 41 52 40c69 3 91 -74 83 -237c-4 -71 -10 -131 -19 -182
c84 59 146 141 178 204c-17 59 -27 95 -28 108c-6 58 14 91 59 100c17 3 28 -1 34 -13c6 -11 8 -27 7 -48s-13 -55 -36 -102c24 -85 29 -169 15 -253c32 19 67 53 105 100s64 90 79 128c18 50 18 92 -1 127c-12 19 -17 34 -15 46c3 15 17 24 37 21zM405 390
c-1 33 -8 50 -22 51c-5 0 -9 -2 -13 -6c-7 -9 -9 -32 -6 -71c1 -16 9 -43 14 -59l4 -12l2 3c4 12 21 56 21 94z" />
    <glyph glyph-name="uni1EA0" unicode="&#x1ea0;" horiz-adv-x="580" 
d="M535 1h-210c44 0 90 26 89 82l-6 216h-240l-130 -201c-36 -63 -10 -97 41 -97h-204c21 0 47 9 78 27c31 19 55 42 73 70l415 640l25 -669c1 -51 22 -65 69 -68zM363 601l-189 -293h233l-6 220c-1 56 -3 85 -6 87c-11 7 -21 3 -32 -14zM152 -88c28 31 78 -19 46 -47
c-30 -30 -77 16 -46 47z" />
    <glyph glyph-name="uni1EA1" unicode="&#x1ea1;" horiz-adv-x="471" 
d="M315 28c18 -5 60 28 126 101l-57 -66c-27 -31 -62 -63 -88 -63c-38 0 -47 34 -19 97l99 230c29 75 24 117 -16 127c-27 7 -60 -3 -97 -32s-72 -67 -105 -116c-77 -110 -119 -266 -43 -277c37 -5 78 11 107 39c31 28 46 47 59 66c-11 -20 -24 -41 -55 -78
s-77 -63 -121 -62c-106 3 -93 155 -7 284c89 133 185 187 258 183c31 -1 52 -16 61 -43l26 15l34 24l-152 -357c-19 -45 -23 -69 -10 -72zM441 129l1 1zM82 -88c28 31 78 -19 46 -47c-30 -30 -77 16 -46 47z" />
    <glyph glyph-name="uni1EB8" unicode="&#x1eb8;" horiz-adv-x="662" 
d="M420 688h-77l-127 -317v1h87c56 0 93 7 120 30c13 12 22 21 27 27s12 17 23 34l-87 -221c10 49 9 118 -93 119h-81l-118 -292c-13 -35 -3 -57 28 -57h108c90 0 166 13 229 39c65 27 104 53 140 98l-90 -149h-592c25 0 49 6 74 17c24 12 40 26 48 42l237 589
c9 29 -18 49 -65 52h444l18 -125l-11 19c-4 8 -13 20 -28 36s-30 27 -45 34c-37 16 -93 24 -169 24zM192 -88c28 31 78 -19 46 -47c-30 -30 -77 16 -46 47z" />
    <glyph glyph-name="uni1EB9" unicode="&#x1eb9;" horiz-adv-x="414" 
d="M344 463c44 -4 75 -38 67 -87c-3 -25 -17 -48 -42 -71s-63 -40 -115 -52s-95 -18 -130 -18c113 9 190 45 231 110c17 24 24 48 22 72c-1 25 -13 39 -36 42c-59 9 -123 -45 -192 -160c-19 -32 -35 -67 -46 -106s-14 -75 -9 -110s23 -55 53 -62c78 -17 153 63 177 100
l10 14c-4 -8 -8 -17 -33 -52c-13 -17 -26 -32 -40 -45c-27 -25 -73 -51 -117 -51c-52 0 -84 28 -95 85s4 125 45 204c27 51 56 91 88 121c65 60 113 70 162 66zM118 -135c-30 -30 -77 16 -46 47c28 31 78 -19 46 -47z" />
    <glyph glyph-name="uni1ECA" unicode="&#x1eca;" horiz-adv-x="304" 
d="M224 700h231c-62 0 -101 -18 -117 -55l-240 -596c-13 -32 15 -46 67 -49h-244c26 0 52 6 79 17s47 31 58 59l228 567c13 35 -10 54 -62 57zM33 -135c-28 -32 -77 16 -46 47c12 12 34 12 46 0c13 -13 13 -35 0 -47z" />
    <glyph glyph-name="uni1ECB" unicode="&#x1ecb;" horiz-adv-x="297" 
d="M289 552c-26 -32 -78 18 -45 46c30 30 75 -16 45 -46zM55 59l133 327c10 23 12 36 5 38c-5 3 -18 -4 -39 -20c-21 -15 -40 -32 -58 -49l-27 -26c73 85 125 128 158 128c28 0 32 -24 13 -71l-134 -327c-9 -19 -10 -30 -3 -33c5 -3 18 4 39 19c21 16 41 33 59 50l27 26
c-73 -85 -126 -128 -159 -128c-37 0 -28 32 -14 66zM46 -135c-30 -30 -77 16 -46 47c28 31 78 -19 46 -47z" />
    <glyph glyph-name="Ygrave" unicode="&#x1ef2;" horiz-adv-x="509" 
d="M364 862l31 -136l-69 125c-10 23 -8 37 6 41c16 8 29 -6 32 -30zM459 700h185c-39 -5 -89 -42 -148 -111l-175 -203c-17 -19 -31 -44 -43 -73l-95 -239c-16 -43 14 -70 55 -74h-217c19 0 40 6 63 19s40 33 50 59l93 238c8 20 9 46 2 77l-52 238c-12 48 -52 69 -85 69h185
c-44 -5 -59 -33 -51 -72l48 -222c4 -15 9 -23 16 -24c11 -1 22 5 34 20l169 196c24 31 31 56 21 74c-10 19 -28 28 -55 28z" />
    <glyph glyph-name="ygrave" unicode="&#x1ef3;" horiz-adv-x="417" 
d="M206 628l31 -136l-69 125c-10 23 -8 37 6 41c16 8 29 -6 32 -30zM393 457c60 -5 42 -122 -62 -268c-96 -139 -199 -250 -308 -333c-44 -33 -82 -51 -114 -56c-35 -4 -57 -1 -68 8c-17 15 -9 44 20 52c5 5 27 -1 31 -2s26 -10 31 -13c29 -11 79 3 127 43l29 25
c29 25 57 52 84 81c11 78 13 156 8 235c-5 71 -11 120 -19 149s-22 44 -42 46c-25 2 -43 -14 -56 -49c13 53 34 81 64 82c72 4 95 -70 102 -226c3 -87 2 -146 -3 -177c35 39 66 78 94 117c35 51 56 85 61 100c21 51 22 90 4 117c-14 20 -21 34 -20 43c1 15 14 30 37 26z
M213 48c-1 0 -2 -1 -2 -2c0 1 1 2 2 2z" />
    <glyph glyph-name="uni1EF4" unicode="&#x1ef4;" horiz-adv-x="509" 
d="M459 700h185c-39 -5 -89 -42 -148 -111l-175 -203c-17 -19 -31 -44 -43 -73l-95 -239c-16 -43 14 -70 55 -74h-217c19 0 40 6 63 19s40 33 50 59l93 238c8 20 9 46 2 77l-52 238c-12 48 -52 69 -85 69h185c-44 -5 -59 -33 -51 -72l48 -222c4 -15 9 -23 16 -24
c11 -1 22 5 34 20l169 196c24 31 31 56 21 74c-10 19 -28 28 -55 28zM109 -135c-12 -13 -34 -13 -47 0c-12 12 -12 34 0 47c13 12 35 12 47 0c13 -13 13 -35 0 -47z" />
    <glyph glyph-name="uni1EF5" unicode="&#x1ef5;" horiz-adv-x="417" 
d="M393 457c60 -5 42 -122 -62 -268c-96 -139 -199 -250 -308 -333c-44 -33 -82 -51 -114 -56c-35 -4 -57 -1 -68 8c-17 15 -9 44 20 52c5 5 27 -1 31 -2s26 -10 31 -13c29 -11 79 3 127 43l29 25c29 25 57 52 84 81c11 78 13 156 8 235c-5 71 -11 120 -19 149
s-22 44 -42 46c-25 2 -43 -14 -56 -49c13 53 34 81 64 82c72 4 95 -70 102 -226c3 -87 2 -146 -3 -177c35 39 66 78 94 117c35 51 56 85 61 100c21 51 22 90 4 117c-14 20 -21 34 -20 43c1 15 14 30 37 26zM213 48c-1 0 -2 -1 -2 -2c0 1 1 2 2 2zM89 -158
c28 31 78 -19 46 -47c-30 -30 -77 16 -46 47z" />
    <glyph glyph-name="uni1EF9" unicode="&#x1ef9;" horiz-adv-x="440" 
d="M184 593c-21 0 -53 -16 -62 -59c0 53 46 85 90 82c15 -2 33 -13 53 -33c21 -19 37 -29 50 -29c37 0 62 23 62 59c7 -43 -25 -85 -72 -85c-19 0 -40 11 -61 32c-21 22 -41 33 -60 33zM335 450h130c-17 -5 -32 -15 -45 -32c-8 -8 -17 -24 -28 -48l-154 -380l-68 -166
c-12 -29 -31 -41 -56 -38c-21 3 -33 22 -28 41c5 15 17 23 34 22c11 -1 24 -15 31 -15c10 0 19 10 28 29l56 133l-179 411c-15 25 -39 41 -54 42l-10 1h143c0 1 -43 -4 -31 -42l117 -277c11 -25 23 -38 34 -38c18 0 29 33 39 53l87 217l4 12c16 42 -1 67 -50 75z" />
    <glyph glyph-name="endash" unicode="&#x2013;" horiz-adv-x="587" 
d="M55 260v9h477v-9h-477z" />
    <glyph glyph-name="emdash" unicode="&#x2014;" horiz-adv-x="715" 
d="M55 260v9h605v-9h-605z" />
    <glyph glyph-name="quoteleft" unicode="&#x2018;" horiz-adv-x="99" 
d="M138 617c19 -3 30 -20 26 -39c-3 -19 -21 -30 -38 -26c-17 3 -30 19 -27 38c8 45 53 86 98 102c-32 -15 -68 -51 -75 -76c4 2 9 2 16 1z" />
    <glyph glyph-name="quoteright" unicode="&#x2019;" horiz-adv-x="90" 
d="M142 629c17 -3 30 -19 27 -38c-8 -45 -53 -86 -98 -102c32 15 68 51 75 76c-4 -2 -9 -2 -16 -1c-19 3 -30 20 -26 39c3 19 21 30 38 26z" />
    <glyph glyph-name="quotesinglbase" unicode="&#x201a;" horiz-adv-x="69" 
d="M2 61c17 -3 30 -19 27 -38c-8 -45 -53 -86 -98 -102c32 15 68 51 75 76c-4 -2 -9 -2 -16 -1c-19 3 -30 20 -26 39c3 19 21 30 38 26z" />
    <glyph glyph-name="quotedblleft" unicode="&#x201c;" horiz-adv-x="191" 
d="M130 617c19 -3 30 -20 26 -39c-3 -19 -21 -30 -38 -26c-17 3 -30 19 -27 38c8 45 53 86 98 102c-32 -15 -68 -51 -75 -76c4 2 9 2 16 1zM224 617c19 -3 30 -20 26 -39c-3 -19 -21 -30 -38 -26c-17 3 -30 19 -27 38c8 45 53 86 98 102c-32 -15 -68 -51 -75 -76
c4 2 9 2 16 1z" />
    <glyph glyph-name="quotedblright" unicode="&#x201d;" horiz-adv-x="181" 
d="M144 629c17 -3 30 -19 27 -38c-8 -45 -53 -86 -98 -102c32 15 68 51 75 76c-4 -2 -9 -2 -16 -1c-19 3 -30 20 -26 39c3 19 21 30 38 26zM225 629c17 -3 30 -19 27 -38c-8 -45 -53 -86 -98 -102c32 15 68 51 75 76c-4 -2 -9 -2 -16 -1c-19 3 -30 20 -26 39
c3 19 21 30 38 26z" />
    <glyph glyph-name="quotedblbase" unicode="&#x201e;" horiz-adv-x="153" 
d="M-8 61c17 -3 30 -19 27 -38c-8 -45 -53 -86 -98 -102c32 15 68 51 75 76c-4 -2 -9 -2 -16 -1c-19 3 -30 20 -26 39c3 19 21 30 38 26zM76 61c17 -3 30 -19 27 -38c-8 -45 -53 -86 -98 -102c32 15 68 51 75 76c-4 -2 -9 -2 -16 -1c-19 3 -30 20 -26 39c3 19 21 30 38 26z
" />
    <glyph glyph-name="dagger" unicode="&#x2020;" horiz-adv-x="372" 
d="M270 579h168l-2 -6h-168l-254 -629h-6l254 629h-168l2 6h168l92 228h6z" />
    <glyph glyph-name="daggerdbl" unicode="&#x2021;" horiz-adv-x="462" 
d="M508 579l-2 -6h-168l-147 -364h168l-3 -6h-168l-104 -259h-6l104 259h-168l3 6h168l147 364h-168l2 6h168l92 228h6l-92 -228h168z" />
    <glyph glyph-name="bullet" unicode="&#x2022;" horiz-adv-x="248" 
d="M158 270c-28 -31 -78 19 -46 47c30 30 77 -16 46 -47z" />
    <glyph glyph-name="ellipsis" unicode="&#x2026;" horiz-adv-x="398" 
d="M109 6c-12 -12 -34 -12 -47 0c-12 13 -12 35 0 47c31 31 78 -16 47 -47zM210 6c-28 -31 -78 19 -46 47c30 30 77 -16 46 -47zM307 6c-12 -12 -34 -12 -47 0c-12 13 -12 35 0 47c31 31 78 -16 47 -47z" />
    <glyph glyph-name="perthousand" unicode="&#x2030;" horiz-adv-x="824" 
d="M284 692c67 23 104 -17 104 -76c-1 -54 -19 -102 -54 -144s-72 -61 -113 -56c-65 8 -69 84 -50 143c25 77 73 118 113 133zM-39 0h19l740 701h-17zM287 687c-35 -15 -66 -70 -85 -133c-8 -31 -11 -57 -10 -88c3 -31 19 -49 50 -46c28 3 53 27 74 70c22 44 35 87 38 128
c7 68 -30 86 -67 69zM402 276c67 23 104 -17 104 -76c-1 -54 -19 -102 -54 -144s-72 -61 -113 -56c-65 8 -69 84 -50 143c25 77 73 118 113 133zM682 276c67 23 104 -17 104 -76c-1 -54 -19 -102 -54 -144s-72 -61 -113 -56c-65 8 -69 84 -50 143c25 77 73 118 113 133z
M405 271c-35 -15 -66 -70 -85 -133c-8 -31 -11 -57 -10 -88c3 -31 19 -49 50 -46c28 3 53 27 74 70c22 44 35 87 38 128c7 68 -30 86 -67 69zM685 271c-35 -15 -66 -70 -85 -133c-8 -31 -11 -57 -10 -88c3 -31 19 -49 50 -46c28 3 53 27 74 70c22 44 35 87 38 128
c7 68 -30 86 -67 69z" />
    <glyph glyph-name="guilsinglleft" unicode="&#x2039;" horiz-adv-x="229" 
d="M143 136l-87 142l175 151l-150 -155z" />
    <glyph glyph-name="guilsinglright" unicode="&#x203a;" horiz-adv-x="249" 
d="M113 417l87 -142l-175 -151l150 155z" />
    <glyph glyph-name="Euro" unicode="&#x20ac;" horiz-adv-x="597" 
d="M446 682c143 68 295 9 247 -110c-13 -31 -31 -46 -55 -45c-27 0 -27 35 -7 63c29 47 28 80 -3 99c-29 19 -71 19 -124 1c-19 -7 -38 -15 -55 -25c-49 -29 -94 -69 -133 -122s-71 -105 -96 -158h261l-13 -9h-361l-7 9h61c16 36 35 70 56 103c22 33 53 67 94 104
s86 67 135 90zM490 172c21 1 30 -13 18 -45c-11 -29 -39 -58 -83 -86c-43 -28 -80 -44 -111 -49c-72 -9 -124 -2 -156 22c-69 53 -80 137 -28 292h-51l-8 9h381l-12 -9h-251c-29 -84 -43 -154 -36 -215c8 -60 50 -96 123 -95c40 1 75 13 106 36s50 49 56 78
c3 31 24 61 52 62z" />
    <glyph glyph-name="trademark" unicode="&#x2122;" horiz-adv-x="629" 
d="M492 473l191 225h44c-17 0 -30 -10 -38 -29l-97 -242c-8 -21 9 -27 21 -27h-83c20 0 34 9 41 27l87 215c5 13 5 20 2 20c-1 0 -7 -6 -20 -19l-204 -242l-25 251c-1 9 -4 12 -10 7c-5 -3 -9 -10 -13 -21l-76 -187c-22 -50 18 -51 18 -51h-76c3 -2 35 4 55 51l76 186
c20 48 2 59 -5 61l-3 1h54l24 -228c2 -25 14 -24 37 2zM255 694l-108 -267c-8 -21 9 -27 21 -27h-85c21 0 36 9 43 27l108 267h-27c-34 0 -61 -7 -82 -21c-15 -11 -28 -25 -33 -32l-3 -5l34 62h240l-16 -62l1 2c0 5 2 18 -6 35c-9 14 -30 21 -63 21h-24z" />
    <glyph glyph-name="partialdiff" unicode="&#x2202;" horiz-adv-x="621" 
d="M217 -8c-78 -4 -200 19 -168 180c13 66 46 125 98 177c53 53 114 87 183 102c93 19 157 11 193 -25c19 151 -39 235 -175 252c229 -11 270 -177 194 -406c-28 -83 -72 -149 -132 -199s-124 -77 -193 -81zM336 444c-61 -13 -112 -44 -153 -94c-40 -49 -67 -99 -80 -150
c-19 -73 -14 -126 14 -158c29 -31 69 -45 120 -41c63 6 116 34 161 83s76 108 93 175s12 119 -14 154s-73 46 -141 31z" />
    <glyph glyph-name="emptyset" unicode="&#x2205;" horiz-adv-x="502" 
d="M463 449h21l-51 -54c9 -21 14 -45 14 -74c-2 -87 -31 -165 -88 -234c-56 -69 -117 -99 -184 -92c-37 4 -63 20 -78 49l-42 -43h-20l55 57c-17 45 -16 102 4 171c20 63 47 111 82 146s69 59 102 71c69 23 118 11 147 -37zM145 221c-12 -49 -18 -90 -17 -123l264 277
c-9 74 -68 83 -109 62c-28 -12 -54 -38 -79 -79c-24 -40 -44 -86 -59 -137zM392 325c1 15 2 25 2 30l-265 -277c6 -55 33 -81 81 -76c45 5 86 44 121 115s56 141 61 208z" />
    <glyph glyph-name="product" unicode="&#x220f;" horiz-adv-x="722" 
d="M-93 -216l390 965h522l-389 -963h-14l384 950h-494l-385 -951z" />
    <glyph glyph-name="summation" unicode="&#x2211;" horiz-adv-x="542" 
d="M343 -85h-453l6 16l468 440l-129 395l7 17h471l-7 -16h-451l133 -394l-472 -443h433z" />
    <glyph glyph-name="minus" unicode="&#x2212;" horiz-adv-x="495" 
d="M116 351l4 9h345l-4 -9h-345z" />
    <glyph glyph-name="radical" unicode="&#x221a;" horiz-adv-x="575" 
d="M712 699l-593 -903l-10 340h-60l6 14h73l7 -307l560 857z" />
    <glyph glyph-name="infinity" unicode="&#x221e;" horiz-adv-x="743" 
d="M443 377c59 55 121 80 187 75c100 -6 92 -112 36 -189c-46 -66 -107 -98 -182 -96c-67 1 -91 40 -96 107c-22 -24 -53 -48 -92 -73s-76 -36 -112 -34c-92 4 -101 82 -68 157c18 39 44 69 79 91s71 32 106 30c24 -1 43 -10 58 -26c29 -32 33 -59 34 -94c3 3 26 30 50 52z
M432 325l-33 -38c3 -61 34 -93 91 -94c31 -1 63 6 98 23s64 43 85 76c37 59 38 103 2 131c-34 25 -78 24 -131 -4c-23 -12 -42 -25 -59 -40c-17 -14 -34 -32 -53 -54zM189 193c59 -3 115 41 194 122c-11 63 -42 95 -93 98c-32 3 -65 -6 -100 -25c-34 -19 -58 -45 -73 -77
c-23 -51 -11 -114 72 -118z" />
    <glyph glyph-name="integral" unicode="&#x222b;" horiz-adv-x="468" 
d="M594 798c36 -8 57 -33 44 -66c-7 -15 -22 -28 -38 -28c-21 0 -23 23 -10 46c13 27 -4 43 -35 44c-60 1 -96 -41 -136 -140l-84 -207h1l-207 -511c-21 -53 -53 -94 -94 -121c-41 -28 -83 -37 -125 -27c-36 8 -58 33 -45 66c7 15 23 28 39 28c21 0 22 -23 9 -46
c-13 -27 6 -43 35 -44c60 -1 96 41 136 140l84 207h-1l207 511c21 54 53 95 94 122s83 36 126 26z" />
    <glyph glyph-name="approxequal" unicode="&#x2248;" horiz-adv-x="398" 
d="M97 328c25 48 68 75 109 72c16 -1 34 -10 53 -27s35 -26 47 -28c35 -5 73 19 85 51c-9 -40 -47 -77 -94 -73c-20 1 -39 11 -58 29s-38 27 -59 27c-28 0 -56 -17 -83 -51zM74 254c27 48 69 75 110 72c17 -1 34 -10 53 -27c19 -16 34 -25 46 -28c35 -8 73 18 86 51
c-9 -41 -42 -77 -95 -73c-20 1 -39 11 -58 29s-38 27 -58 27c-29 0 -57 -17 -84 -51z" />
    <glyph glyph-name="notequal" unicode="&#x2260;" horiz-adv-x="557" 
d="M542 435l-4 -9h-146l-160 -151h245l-3 -9h-251l-91 -86l-12 2l90 84h-123l3 9h129l161 151h-229l4 9h235l70 66l12 1l-71 -67h141z" />
    <glyph glyph-name="lessequal" unicode="&#x2264;" horiz-adv-x="487" 
d="M403 209l-290 142l408 151v-11l-380 -141l262 -129v-12zM52 162l-4 -9h345l4 9h-345z" />
    <glyph glyph-name="greaterequal" unicode="&#x2265;" horiz-adv-x="525" 
d="M200 493l290 -142l-408 -151v11l380 141l-262 129v12zM414 162l-5 -9h-345l5 9h345z" />
    <glyph glyph-name="zero.osf" horiz-adv-x="544" 
d="M188 5c67 4 131 30 190 77c60 47 101 107 124 179c25 80 17 137 -22 170c-39 34 -99 42 -180 24c-69 -15 -129 -48 -181 -99c-51 -51 -83 -109 -96 -174c-15 -75 4 -127 43 -150c40 -23 79 -30 122 -27zM458 267c-16 -67 -46 -124 -91 -173c-44 -48 -97 -75 -159 -80
c-92 -8 -166 40 -131 195c13 50 39 99 78 148s89 79 150 92c133 28 185 -50 153 -182z" />
    <glyph glyph-name="one.osf" horiz-adv-x="257" 
d="M100 385l141 91l-66 -161l-22 -56l-43 -107l-42 -104c-19 -49 36 -48 43 -48h-167c41 0 69 16 82 49l85 210l23 57c43 105 24 98 -34 69z" />
    <glyph glyph-name="two.osf" horiz-adv-x="445" 
d="M304 459c121 23 134 -61 109 -121c-15 -36 -41 -70 -78 -101s-98 -76 -185 -135c-43 -29 -65 -47 -66 -52c-1 -4 5 -7 18 -8c7 -1 19 -1 38 -2h180l-148 -148l13 15c33 38 49 62 50 72c1 9 -6 15 -21 18c-10 2 -25 3 -44 3h-226c83 37 163 82 240 136c37 26 66 47 85 62
c39 31 85 84 104 140c21 69 -19 104 -94 92c-52 -9 -110 -45 -135 -70l-18 -18c4 5 9 12 34 36c34 32 85 70 144 81z" />
    <glyph glyph-name="three.osf" horiz-adv-x="528" 
d="M291 465c141 11 156 -93 144 -156c-7 -37 -27 -71 -58 -102s-64 -54 -101 -67c38 -13 62 -43 73 -92s8 -93 -11 -133c-61 -143 -180 -211 -328 -171c-76 20 -116 82 -120 185c7 -31 21 -63 42 -94s49 -51 84 -59c49 -11 98 -7 148 14c51 21 89 59 114 115
c25 57 26 109 1 154c-25 46 -63 67 -114 64l7 1c27 7 51 15 98 38c47 24 89 66 110 117c16 40 15 77 -4 111s-52 50 -100 48c-25 -1 -49 -6 -72 -15c-22 -9 -39 -17 -51 -26l-60 -48c68 71 119 109 198 116z" />
    <glyph glyph-name="four.osf" 
d="M526 44l-57 -43h-108l-57 -141l-73 -44l75 185h-357l639 558l-209 -515h147zM60 43l264 1l169 386c15 39 2 35 -26 10l-404 -355c-23 -21 -40 -42 -3 -42z" />
    <glyph glyph-name="five.osf" horiz-adv-x="532" 
d="M382 356l-89 -143c-13 -22 -19 -34 -16 -37c2 -2 9 0 20 6c64 35 124 54 180 55c60 1 106 -18 137 -57c32 -39 35 -91 9 -155c-29 -69 -84 -127 -165 -172c-46 -25 -104 -50 -173 -74s-126 -42 -173 -53l-69 -17c44 15 78 26 102 35s57 21 100 38s78 33 105 48
s55 32 86 53c63 40 103 90 126 143c9 27 12 52 11 77c-3 51 -49 92 -121 92c-43 0 -83 -7 -122 -21c-39 -13 -67 -27 -84 -40l-25 -20l214 347h317l-50 -46h-238c-43 0 -55 -14 -82 -59z" />
    <glyph glyph-name="six.osf" horiz-adv-x="504" 
d="M326 593c117 88 228 132 332 132c-21 -3 -44 -8 -70 -15c-25 -7 -62 -24 -109 -49s-92 -56 -133 -94c-67 -63 -115 -117 -145 -160c5 7 58 28 116 28c50 -1 93 -23 128 -65c36 -41 46 -96 30 -163c-17 -70 -50 -125 -99 -166c-49 -40 -105 -61 -168 -62
c-52 -1 -95 18 -130 57c-34 39 -46 92 -37 158c21 139 116 272 285 399zM420 213c21 128 -22 210 -115 209c-60 -1 -113 -34 -145 -82c-31 -48 -49 -94 -60 -142c-15 -69 -9 -122 17 -160s64 -55 113 -50s91 28 124 70c34 43 56 94 66 155z" />
    <glyph glyph-name="seven.osf" horiz-adv-x="437" 
d="M125 458h436c-83 -75 -169 -164 -260 -267c-21 -23 -40 -46 -57 -67c-33 -41 -66 -94 -85 -119c-9 -13 -20 -32 -33 -57l-26 -48l-27 -54c-14 -30 -22 -47 -24 -50c-14 -29 -32 -44 -54 -47c-16 -2 -25 4 -27 17c-1 7 1 15 6 24c61 119 181 271 360 455
c83 85 129 137 136 155c6 13 0 21 -18 23c-4 1 -27 1 -68 1h-126c-57 0 -99 -5 -128 -16s-57 -35 -85 -73z" />
    <glyph glyph-name="eight.osf" horiz-adv-x="556" 
d="M419 355c17 -13 31 -30 43 -50c25 -39 42 -101 14 -164c-26 -63 -73 -109 -141 -139c-67 -29 -140 -32 -217 -8c-43 13 -73 39 -91 80c-17 41 -15 86 6 133c24 48 61 85 113 112c26 13 48 23 67 30s43 16 74 25c-36 19 -122 95 -82 198c15 37 38 68 69 91
c64 47 133 57 205 49c46 -5 79 -25 98 -60c20 -35 20 -73 1 -114c-11 -23 -28 -44 -43 -60c-15 -15 -42 -32 -58 -41c-15 -8 -47 -22 -59 -27l-29 -10l-23 -8c1 -1 31 -21 53 -37zM246 578c-20 -73 31 -140 110 -181c45 19 80 38 105 57c25 20 47 47 65 82
c19 37 22 74 9 110s-39 56 -78 59c-114 10 -184 -32 -211 -127zM298 367c-47 -16 -76 -28 -117 -53s-73 -62 -93 -109c-21 -44 -23 -87 -8 -128c16 -41 47 -67 94 -77c79 -16 144 -5 196 34s77 92 74 159c-1 38 -17 72 -48 101c-30 30 -63 54 -98 73z" />
    <glyph glyph-name="nine.osf" horiz-adv-x="490" 
d="M154 -166c-47 -35 -97 -63 -151 -84c-53 -21 -92 -34 -116 -38c-25 -4 -43 -6 -54 -6c31 4 75 18 132 43c56 25 116 63 180 115c55 45 102 96 141 153c-3 -4 -16 -9 -39 -14s-47 -8 -73 -7c-55 1 -99 25 -131 71c-31 46 -40 102 -27 168c13 69 45 122 95 160
s107 57 172 57c51 0 93 -18 124 -55c31 -36 42 -86 33 -150c-9 -61 -26 -112 -66 -184c-40 -71 -116 -150 -220 -229zM70 222c-11 -63 -5 -115 16 -155c21 -39 55 -59 100 -58c128 0 184 141 202 224c29 137 -28 217 -127 210c-49 -3 -91 -26 -125 -68
c-34 -41 -56 -92 -66 -153z" />
    <glyph glyph-name="ampersand.001" horiz-adv-x="744" 
d="M789 485c33 0 58 -14 58 -42c0 -17 -11 -31 -28 -31c-13 0 -24 6 -35 18s-24 18 -41 18c-23 0 -45 -9 -64 -20c-17 -11 -41 -38 -56 -55c-7 -8 -16 -21 -27 -38l-25 -40l-28 -45l-27 -46c31 -43 55 -83 70 -119c24 -55 36 -107 36 -158c0 -80 -25 -150 -75 -211
c-55 -67 -113 -98 -204 -98c-19 0 -33 1 -43 2c-83 8 -128 81 -138 110l-5 11c3 -5 4 -11 23 -31c26 -28 69 -59 140 -59c80 0 144 31 193 94s74 136 74 220c0 67 -26 143 -79 226c-51 -84 -86 -138 -105 -161c-49 -61 -105 -93 -168 -96h-12c-48 0 -89 15 -124 44
s-52 70 -52 124c0 23 4 45 13 67c19 44 39 72 83 112c23 20 42 36 58 48l66 48c29 20 50 35 63 45c-49 61 -74 116 -74 166c0 43 13 78 39 107s58 43 97 43c64 0 108 -39 109 -108c1 -64 -40 -115 -105 -172c-8 -7 -26 -20 -53 -41l139 -168c8 -9 26 -34 29 -38l30 49l33 53
l27 44c19 29 43 63 72 85c34 29 73 43 116 43zM271 588c0 -53 13 -94 64 -162l35 28c71 60 99 108 98 173c-1 45 -34 79 -78 82c-29 2 -57 -9 -82 -34c-25 -24 -37 -53 -37 -87zM244 -29c53 0 101 24 145 72c23 24 42 47 58 70s35 51 56 86c-7 12 -15 24 -24 36
c-24 35 -49 66 -65 85c-7 9 -19 24 -36 43l-41 50c-49 -35 -80 -58 -92 -68c-97 -76 -150 -141 -150 -229c0 -81 54 -145 149 -145z" />
    </font>
</defs>
</svg>
