<?xml version="1.0" standalone="no"?>
<!DOCTYPE svg PUBLIC "-//W3C//DTD SVG 1.1//EN" "http://www.w3.org/Graphics/SVG/1.1/DTD/svg11.dtd" >
<svg xmlns="http://www.w3.org/2000/svg" xmlns:xlink="http://www.w3.org/1999/xlink" version="1.1">
<metadata>
Created by FontForge 20170924 at Sat Apr 21 17:15:24 2018
 By www-data
Copyright \(c\) 2017 by Rakel Tomas. All rights reserved.
</metadata>
<defs>
<font id="SilkSerif-ExtraLight" horiz-adv-x="522" >
  <font-face 
    font-family="Silk Serif"
    font-weight="250"
    font-stretch="normal"
    units-per-em="1000"
    panose-1="0 0 3 0 0 0 0 0 0 0"
    ascent="731"
    descent="-269"
    x-height="450"
    cap-height="700"
    bbox="-82 -597 1148 902"
    underline-thickness="50"
    underline-position="-100"
    unicode-range="U+0020-2265"
  />
<missing-glyph horiz-adv-x="458" 
d="M85 700h290v-915h-290v915zM305 609v30h-151v-30h59v-34h-60v-31h152v31h-61v34h61zM244 457v64h-91v-95h152v31h-61zM183 490h30v-33h-30v33zM305 371v30h-152v-30h60v-34h-60v-30h91v64h61zM305 254v92h-30v-60h-122v-32h152zM305 131v103h-92v-51h31v21h31v-43h-92v73
h-30v-103h152zM305 -27v103h-152v-103h152zM183 46h92v-43h-92v43zM305 -79v31h-152v-31h64l-64 -43v-30h152v30h-94l64 43h30z" />
    <glyph glyph-name=".notdef" horiz-adv-x="458" 
d="M85 700h290v-915h-290v915zM305 609v30h-151v-30h59v-34h-60v-31h152v31h-61v34h61zM244 457v64h-91v-95h152v31h-61zM183 490h30v-33h-30v33zM305 371v30h-152v-30h60v-34h-60v-30h91v64h61zM305 254v92h-30v-60h-122v-32h152zM305 131v103h-92v-51h31v21h31v-43h-92v73
h-30v-103h152zM305 -27v103h-152v-103h152zM183 46h92v-43h-92v43zM305 -79v31h-152v-31h64l-64 -43v-30h152v30h-94l64 43h30z" />
    <glyph glyph-name="NULL" horiz-adv-x="0" 
 />
    <glyph glyph-name="CR" horiz-adv-x="333" 
 />
    <glyph glyph-name="space" unicode=" " horiz-adv-x="280" 
 />
    <glyph glyph-name="exclam" unicode="!" horiz-adv-x="197" 
d="M98 124c0 74 -4 164 -12 271c-7 107 -11 185 -11 233s8 72 24 72c21 0 28 -39 24 -118c-2 -39 -5 -80 -9 -124l-11 -161c-3 -63 -5 -120 -5 -173zM120 6c31 31 -16 77 -46 47c-32 -28 18 -78 46 -47z" />
    <glyph glyph-name="quotedbl" unicode="&#x22;" horiz-adv-x="215" 
d="M89 685l-15 -117l-18 120c-3 17 4 31 16 31c15 1 20 -14 17 -34zM159 685l-15 -117l-18 120c-3 17 4 31 16 31c15 1 20 -14 17 -34z" />
    <glyph glyph-name="numbersign" unicode="#" horiz-adv-x="612" 
d="M607 451l-3 -9h-139l-58 -198h140l-3 -10h-140l-71 -244h-14l72 244h-197l-71 -244h-14l72 244h-156l3 10h156l58 199h-156l3 9h156l73 249h13l-73 -249l197 -1l73 250h13l-73 -250h139zM197 244h197l58 198l-197 1z" />
    <glyph glyph-name="dollar" unicode="$" horiz-adv-x="564" 
d="M334 692v-302c127 -20 180 -99 176 -202c-3 -49 -21 -90 -54 -123s-74 -53 -122 -62v-35h-9v369c-9 2 -24 4 -44 7l-23 3v-379h-8v32h-2c-43 6 -85 25 -128 56c-47 33 -69 84 -67 153c0 36 18 74 55 74c33 0 43 -33 31 -54c-3 -6 -11 -14 -24 -23c-12 -9 -19 -19 -20 -30
c-11 -73 44 -135 128 -160c7 -3 16 -5 27 -6v339c-109 23 -155 97 -151 184c8 88 62 145 151 164v32h8v-327c16 -4 34 -7 53 -9c3 0 7 -1 14 -2v338h9v-27c85 -7 136 -47 151 -118c8 -35 -4 -71 -33 -71c-27 0 -45 19 -42 40c0 5 4 13 13 25s13 25 12 38
c-3 30 -24 52 -63 67c-14 4 -27 7 -38 9zM196 670c-31 -19 -52 -46 -63 -82c-10 -35 -5 -71 14 -107c20 -35 54 -61 103 -76v285c-24 -6 -42 -13 -54 -20zM477 149c5 97 -43 159 -143 185v-323c79 15 140 67 143 138z" />
    <glyph glyph-name="percent" unicode="%" horiz-adv-x="646" 
d="M188 425c-44 -2 -126 11 -146 110c-16 80 27 150 104 170c92 21 164 -22 173 -121c9 -89 -48 -154 -131 -159zM291 587c-12 83 -65 130 -142 114c-72 -18 -92 -99 -80 -149c13 -89 70 -126 130 -121c37 3 64 19 79 49s20 66 13 107zM95 0h-19l459 701h17zM468 -5
c-44 -2 -126 11 -146 110c-16 80 27 150 104 170c92 21 164 -22 173 -121c9 -89 -48 -154 -131 -159zM571 157c-12 83 -65 130 -142 114c-72 -18 -92 -99 -80 -149c13 -89 70 -126 130 -121c37 3 64 19 79 49s20 66 13 107z" />
    <glyph glyph-name="ampersand" unicode="&#x26;" horiz-adv-x="772" 
d="M650 35c49 -4 95 29 107 80c-2 -27 -12 -54 -31 -79c-18 -25 -43 -37 -76 -38c-51 -1 -89 17 -115 54l-79 112c-24 -32 -42 -55 -54 -70c-11 -15 -27 -32 -48 -51c-41 -39 -80 -52 -131 -52c-43 0 -81 13 -113 39c-31 27 -47 65 -47 114c0 28 11 57 19 77
c9 21 41 53 53 66c6 7 18 17 36 30l37 27c6 5 20 14 42 29l39 27l-8 11c-35 49 -56 82 -64 101c-9 23 -14 48 -15 75c-1 83 62 130 147 133c35 1 66 -9 91 -30c26 -21 39 -50 39 -85c0 -55 -30 -104 -91 -146c-8 -6 -29 -21 -63 -44l152 -210l49 66c81 109 91 157 23 178
h173c-19 0 -41 -8 -66 -25c-16 -11 -31 -25 -46 -44s-33 -44 -54 -76s-40 -59 -56 -80l-19 -25l55 -76c25 -35 44 -58 56 -67c16 -12 35 -19 58 -21zM240 590c1 -26 6 -50 17 -71s29 -50 56 -87l7 -10l44 35c60 52 84 88 81 156c-3 53 -32 102 -95 102
c-67 0 -111 -40 -110 -125zM242 32c60 0 129 47 208 140l-157 222c-15 -10 -29 -21 -42 -32c-31 -25 -55 -45 -72 -61c-33 -31 -68 -85 -68 -140c0 -75 46 -129 131 -129z" />
    <glyph glyph-name="quotesingle" unicode="'" horiz-adv-x="145" 
d="M89 685l-15 -117l-18 120c-3 17 4 31 16 31c15 1 20 -14 17 -34z" />
    <glyph glyph-name="parenleft" unicode="(" horiz-adv-x="258" 
d="M204 -180l14 -20c-11 7 -35 30 -71 83c-18 27 -35 57 -50 90c-31 67 -57 172 -57 277c0 112 27 221 59 288c50 105 112 168 118 164l-16 -18c-6 -8 -17 -26 -33 -55s-30 -59 -43 -91c-25 -64 -49 -176 -49 -288c0 -104 22 -211 50 -279c28 -69 58 -126 78 -151z" />
    <glyph glyph-name="parenright" unicode=")" horiz-adv-x="258" 
d="M25 -200l15 20c19 25 49 82 77 151c28 68 50 175 50 279c0 112 -24 224 -49 288c-13 32 -27 62 -43 91s-27 47 -34 55c-6 8 -11 14 -15 18c5 4 69 -59 117 -164c33 -67 60 -176 60 -288c0 -105 -26 -210 -57 -277c-15 -33 -32 -63 -50 -90c-36 -53 -60 -76 -71 -83z" />
    <glyph glyph-name="asterisk" unicode="*" horiz-adv-x="355" 
d="M193 655l-15 -87l-18 90c-3 17 4 31 16 31c15 1 20 -14 17 -34zM105 617l73 -49l-89 22c-19 3 -28 15 -23 27c7 13 24 12 39 0zM264 589l-86 -21l75 52c17 11 29 10 35 -3c5 -13 -5 -25 -24 -28zM109 514l69 54l-47 -79c-9 -15 -24 -20 -33 -13c-11 11 -8 23 11 38z
M222 492l-44 76l71 -57c15 -13 18 -25 8 -35c-11 -8 -26 -1 -35 16z" />
    <glyph glyph-name="plus" unicode="+" horiz-adv-x="537" 
d="M273 357h209v-9h-209v-209h-9v209h-209v9h209v209h9v-209z" />
    <glyph glyph-name="comma" unicode="," horiz-adv-x="178" 
d="M106 62c17 -9 22 -32 17 -69s-21 -65 -47 -82c24 20 39 65 32 97c-5 -3 -11 -6 -18 -7c-19 -3 -35 11 -36 30c-1 17 10 33 29 36c8 1 16 -1 23 -5z" />
    <glyph glyph-name="hyphen" unicode="-" horiz-adv-x="385" 
d="M55 260v9h275v-9h-275z" />
    <glyph glyph-name="period" unicode="." horiz-adv-x="177" 
d="M109 6c-12 -12 -34 -12 -47 0c-12 13 -12 35 0 47c31 31 78 -16 47 -47z" />
    <glyph glyph-name="slash" unicode="/" horiz-adv-x="358" 
d="M48 -10h-13l276 711h12z" />
    <glyph glyph-name="zero" unicode="0" horiz-adv-x="661" 
d="M343 709c88 1 157 -44 196 -116c40 -72 58 -156 58 -247c-1 -93 -26 -176 -76 -248c-49 -72 -111 -108 -185 -107c-91 0 -166 50 -209 123s-64 159 -63 243c1 101 28 185 80 251s118 100 199 101zM554 333c-1 101 -20 185 -59 252c-38 67 -87 103 -148 108
c-71 6 -129 -22 -173 -83c-43 -61 -65 -140 -65 -236s21 -179 63 -250c43 -71 96 -109 160 -116c75 -8 138 34 171 99c35 67 51 146 51 226z" />
    <glyph glyph-name="one" unicode="1" horiz-adv-x="256" 
d="M148 497v-448c0 -23 12 -38 29 -43c19 -5 25 -6 34 -6h-167c7 0 62 0 62 49v458v57c0 85 -35 71 -74 49l117 101c0 -73 -1 -126 -1 -161v-56z" />
    <glyph glyph-name="two" unicode="2" horiz-adv-x="516" 
d="M206 41h90h49c21 1 57 4 72 11c26 12 47 30 59 71l-30 -123h-408c61 52 129 121 202 208l30 35l30 35l25 33c12 16 20 28 24 36c9 17 28 53 33 78c7 25 12 60 11 96c-1 52 -21 93 -60 123c-39 31 -82 41 -129 32c-89 -17 -146 -98 -158 -130l-6 -12c3 8 5 19 25 56
c10 19 21 36 34 51c27 31 75 62 128 69c69 8 122 -7 159 -46s56 -84 56 -137c0 -17 -1 -34 -4 -49c-5 -29 -26 -68 -38 -91c-6 -11 -17 -27 -34 -48l-38 -47c-9 -11 -25 -30 -49 -57l-52 -60c-57 -65 -86 -105 -88 -118c-1 -7 3 -12 14 -14c7 -1 24 -2 53 -2z" />
    <glyph glyph-name="three" unicode="3" horiz-adv-x="528" 
d="M356 391c88 -21 139 -93 139 -188c0 -71 -27 -127 -81 -169c-53 -42 -120 -56 -199 -42c-84 15 -140 71 -169 167c23 -39 43 -67 59 -82c35 -33 81 -51 138 -54c55 -3 101 10 138 39s57 73 58 131c2 61 -15 107 -52 138c-36 32 -80 46 -133 42l10 2c17 5 31 10 58 27
c36 23 72 66 78 137c3 40 -9 75 -35 104s-63 43 -111 41c-75 -3 -116 -28 -163 -85c39 69 95 106 168 112c62 5 109 -7 140 -38c31 -30 48 -66 50 -108c4 -80 -27 -138 -93 -174z" />
    <glyph glyph-name="four" unicode="4" horiz-adv-x="600" 
d="M582 204l-39 -43h-121v-141l-42 -44v185h-346l388 558v-515h160zM117 203l263 1v386c0 36 -10 39 -30 10l-247 -355c-20 -28 -15 -42 14 -42z" />
    <glyph glyph-name="five" unicode="5" horiz-adv-x="532" 
d="M121 596l-31 -143c-5 -21 -5 -34 -1 -37c3 -2 9 0 17 6c50 35 103 54 158 55c117 3 201 -68 201 -197c0 -63 -25 -119 -74 -168c-31 -31 -76 -61 -134 -88s-108 -46 -151 -58l-63 -17c243 80 366 187 369 322c1 43 -12 81 -38 114s-65 50 -118 50c-43 0 -81 -7 -114 -21
c-33 -13 -55 -27 -66 -40l-18 -20l74 347h297l-32 -46h-218c-23 0 -35 -3 -43 -16c-8 -12 -10 -19 -15 -43z" />
    <glyph glyph-name="six" unicode="6" horiz-adv-x="584" 
d="M198 610c78 83 165 124 260 124c-27 -3 -57 -10 -105 -31c-48 -20 -101 -64 -140 -123c-41 -64 -68 -124 -81 -180c31 26 67 44 107 53c73 19 138 11 194 -24s88 -92 96 -173c7 -74 -10 -137 -53 -188c-42 -51 -97 -77 -166 -78c-51 0 -88 6 -137 29
c-48 24 -87 79 -107 159c-19 81 -11 282 132 432zM327 0c58 3 100 29 125 80s34 111 26 178s-34 118 -78 155s-97 47 -158 31c-37 -10 -67 -29 -89 -58c-44 -56 -51 -122 -40 -193c25 -160 136 -198 214 -193z" />
    <glyph glyph-name="seven" unicode="7" horiz-adv-x="536" 
d="M65 702h436c-53 -75 -103 -164 -152 -267c-37 -78 -62 -146 -77 -203s-25 -121 -31 -192c-3 -29 -12 -44 -29 -47c-13 -2 -21 5 -26 20c-2 6 -3 13 -2 21c13 119 71 271 176 455c49 86 73 138 74 156c0 13 -11 21 -32 23c-7 1 -21 1 -40 0h-24h-126
c-57 0 -97 -5 -122 -16s-43 -35 -55 -73z" />
    <glyph glyph-name="eight" unicode="8" horiz-adv-x="554" 
d="M311 392l73 -36c37 -18 69 -44 94 -78c25 -33 36 -72 32 -116c-3 -59 -33 -106 -90 -140c-57 -33 -121 -45 -192 -35c-59 8 -106 31 -140 70c-33 39 -46 84 -37 136c7 48 32 86 73 115s68 43 119 64c-28 12 -57 30 -93 61c-35 32 -58 81 -55 133c3 51 26 89 69 116
s93 38 149 34c53 -3 94 -20 124 -51c31 -31 45 -67 42 -109c-3 -64 -59 -119 -168 -164zM134 572c1 -85 60 -130 165 -175c85 41 131 93 137 156c3 40 -8 76 -34 107s-62 48 -109 49c-97 3 -160 -41 -159 -137zM254 367c-85 -33 -144 -80 -156 -175c-6 -52 7 -97 39 -135
c33 -38 79 -58 138 -61c79 -4 135 16 168 60s39 97 16 160c-12 32 -36 62 -72 83c-17 11 -33 20 -46 27s-30 15 -50 24c-19 9 -32 14 -37 17z" />
    <glyph glyph-name="nine" unicode="9" horiz-adv-x="550" 
d="M364 102c-79 -85 -167 -128 -263 -128c27 4 57 12 105 33c48 23 103 66 143 125c39 58 67 120 84 186c-32 -25 -68 -43 -108 -54c-71 -19 -134 -11 -189 23c-55 35 -86 92 -94 172c-7 71 11 132 53 181c42 50 96 77 162 80c95 5 204 -26 238 -185c11 -51 13 -100 1 -180
c-11 -79 -56 -172 -132 -253zM239 711c-55 -7 -95 -34 -119 -83s-32 -106 -25 -172c8 -65 33 -116 76 -152c43 -35 95 -45 155 -30c125 32 134 164 122 247c-11 75 -36 127 -75 156s-83 40 -134 34z" />
    <glyph glyph-name="colon" unicode=":" horiz-adv-x="197" 
d="M120 400c-28 -31 -78 19 -46 47c30 30 77 -16 46 -47zM120 6c-28 -31 -78 19 -46 47c30 30 77 -16 46 -47z" />
    <glyph glyph-name="semicolon" unicode=";" horiz-adv-x="180" 
d="M120 400c-28 -31 -78 19 -46 47c30 30 77 -16 46 -47zM122 62c17 -9 22 -32 17 -69s-21 -65 -47 -82c24 20 39 65 32 97c-5 -3 -11 -6 -18 -7c-19 -3 -35 11 -36 30c-1 17 10 33 29 36c8 1 16 -1 23 -5z" />
    <glyph glyph-name="less" unicode="&#x3c;" horiz-adv-x="397" 
d="M-20 355l347 142v-10l-320 -132l320 -140v-11z" />
    <glyph glyph-name="equal" unicode="=" horiz-adv-x="497" 
d="M55 426v9h387v-9h-387zM55 266v9h387v-9h-387z" />
    <glyph glyph-name="greater" unicode="&#x3e;" horiz-adv-x="457" 
d="M55 497l347 -142l-347 -151v11l320 140l-320 132v10z" />
    <glyph glyph-name="question" unicode="?" horiz-adv-x="408" 
d="M185 124c-5 37 -2 77 11 119s29 78 47 109c19 31 36 66 51 103s22 70 21 98c-5 84 -60 140 -133 137c-52 -1 -98 -29 -97 -73c0 -5 3 -15 9 -29c6 -13 9 -23 10 -30c3 -25 -13 -44 -37 -44c-20 0 -32 21 -32 46c0 30 13 60 38 90c25 31 61 48 108 52c52 5 96 -8 131 -39
c35 -30 53 -70 52 -120c-2 -76 -67 -161 -117 -241c-35 -55 -62 -121 -62 -178zM209 6c31 31 -16 78 -47 47c-12 -12 -12 -34 0 -47c13 -12 35 -12 47 0z" />
    <glyph glyph-name="at" unicode="@" horiz-adv-x="704" 
d="M376 132l72 192c10 27 15 51 15 70c0 33 -14 49 -41 49c-21 0 -46 -12 -74 -35s-52 -52 -71 -87c-30 -54 -45 -105 -45 -153c0 -35 12 -53 36 -55c22 -3 44 3 65 20c22 17 38 35 49 53l17 28c0 -3 -5 -14 -16 -34s-28 -41 -51 -64s-46 -34 -71 -34c-45 0 -70 34 -70 86
c0 42 11 84 34 127c57 106 126 157 205 152c24 -1 41 -13 52 -34l43 34l-105 -307c-11 -19 -7 -45 18 -44c52 3 97 24 135 65c39 41 58 96 58 165c5 102 -95 226 -231 225c-101 -1 -187 -45 -238 -110s-78 -143 -78 -222c0 -77 23 -138 70 -182s108 -66 183 -65
c111 1 205 52 282 154c-63 -103 -164 -177 -307 -178c-84 -1 -149 25 -194 77c-45 53 -68 116 -68 191c-5 183 144 356 345 355c73 1 134 -20 183 -64c49 -43 72 -100 69 -171c-3 -83 -37 -154 -82 -195c-45 -40 -95 -63 -140 -64c-40 -1 -58 23 -49 55z" />
    <glyph glyph-name="A" unicode="A" horiz-adv-x="601" 
d="M297 703l221 -616c9 -23 19 -42 31 -57c25 -28 38 -29 51 -30h-184c2 0 75 2 51 75l-78 222l-235 -1l-69 -190c-25 -61 -10 -101 61 -106h-174c45 3 80 43 107 118l215 594zM272 591c-7 0 -18 -20 -32 -59l-82 -227l228 1l-84 243c-10 28 -20 42 -30 42zM603 0h-3h3z" />
    <glyph glyph-name="B" unicode="B" horiz-adv-x="574" 
d="M341 364c45 0 85 -9 126 -34c41 -24 68 -76 68 -148c0 -64 -26 -112 -59 -137c-17 -13 -38 -23 -63 -30c-49 -13 -86 -16 -141 -16l-249 1c9 0 18 1 28 2c20 4 52 25 52 60v579c-3 60 -76 58 -80 59l231 2c155 0 230 -49 230 -168c0 -95 -51 -162 -143 -170zM153 693
v-329h106c146 0 180 97 178 176c-3 150 -131 157 -284 153zM484 178c1 119 -81 177 -228 177h-103v-284c-1 -36 17 -50 37 -58c7 -3 30 -5 37 -6h40c63 -1 106 5 149 28c43 24 67 72 68 143z" />
    <glyph glyph-name="C" unicode="C" horiz-adv-x="679" 
d="M97 357c3 -94 35 -171 94 -230c60 -59 132 -88 217 -88c147 0 210 92 232 130l6 15c-3 -9 -5 -20 -32 -60c-13 -20 -27 -38 -43 -54c-32 -31 -92 -64 -159 -69c-115 -9 -214 31 -274 98c-60 68 -96 155 -97 244c-1 113 36 208 99 265c64 59 143 91 234 98
c37 2 71 1 104 -4c55 -8 108 -30 128 -43l15 -10v-107c-1 5 -4 11 -21 35c-21 33 -63 76 -136 102c-83 29 -161 21 -232 -24c-87 -55 -140 -161 -135 -298z" />
    <glyph glyph-name="D" unicode="D" horiz-adv-x="653" 
d="M610 381c4 -95 -18 -183 -65 -258s-133 -123 -242 -123h-71h-211c11 0 21 1 40 8c20 7 33 26 33 54v570c0 31 -13 52 -33 59c-19 8 -28 9 -40 9h228c124 1 214 -22 270 -68s86 -130 91 -251zM251 11h54c60 2 109 20 148 53c79 67 107 172 104 313c-3 105 -30 184 -67 228
c-18 23 -41 41 -69 54c-56 27 -104 33 -172 33c-41 0 -76 -1 -105 -3v-614c0 -53 26 -64 107 -64z" />
    <glyph glyph-name="E" unicode="E" horiz-adv-x="595" 
d="M479 61c37 25 67 58 75 74l7 12l-41 -147h-493c11 0 21 1 40 8c20 7 33 26 33 54v576c0 18 -6 32 -18 42c-23 21 -39 20 -55 20h454l35 -124c-19 34 -42 60 -70 77c-18 11 -31 19 -40 22c-16 7 -70 16 -167 16h-89v-322h82c86 3 111 45 116 64l1 7v-148s-9 68 -117 68
h-82v-281c0 -64 34 -70 62 -70h97c29 0 54 3 77 8c23 6 40 12 51 18s25 15 42 26z" />
    <glyph glyph-name="F" unicode="F" horiz-adv-x="535" 
d="M24 700h454l35 -124c-19 34 -42 60 -70 77c-18 11 -31 19 -40 22c-16 7 -70 16 -167 16h-89v-71v-56v-195h90c76 3 104 49 107 69l2 8v-165s-11 79 -109 79h-90v-298c0 -18 6 -32 17 -43c24 -20 40 -19 57 -19h-197c11 0 21 1 40 8c20 7 33 26 33 54v18v52v489v17
c0 18 -6 32 -18 42c-23 21 -39 20 -55 20z" />
    <glyph glyph-name="G" unicode="G" horiz-adv-x="722" 
d="M518 288h177l-18 -4c-13 -4 -44 -29 -44 -65v-223c-9 43 -38 73 -70 78c-2 -1 -7 -6 -14 -14c-15 -16 -21 -22 -42 -37c-28 -19 -67 -34 -124 -34c-71 0 -133 16 -184 48c-103 65 -149 172 -149 304c0 79 20 148 60 207c80 117 213 170 356 153c65 -8 129 -35 153 -52
l18 -13l-3 -121c-3 5 -5 12 -24 39c-22 37 -66 80 -128 108c-91 37 -172 33 -245 -10c-84 -51 -136 -157 -133 -304c2 -100 29 -179 82 -238c53 -58 119 -89 198 -93c63 -3 112 11 149 43c41 34 62 84 62 151v6c0 37 -33 62 -58 67z" />
    <glyph glyph-name="H" unicode="H" horiz-adv-x="670" 
d="M580 638v-576c0 -18 6 -32 17 -43c24 -20 40 -19 57 -19h-196c11 0 66 2 72 52v309h-393v-299c0 -18 6 -32 17 -43c24 -20 40 -19 57 -19h-196c11 0 66 2 72 52v586c0 18 -6 32 -18 42c-23 21 -39 20 -55 20h197c-9 0 -17 -1 -26 -2c-17 -3 -48 -24 -48 -60v-268h393v268
c0 18 -6 32 -18 42c-23 21 -39 20 -55 20h197c-9 0 -17 -1 -26 -2c-17 -3 -48 -24 -48 -60z" />
    <glyph glyph-name="I" unicode="I" horiz-adv-x="269" 
d="M159 638v-576c0 -18 6 -32 17 -43c24 -20 40 -19 57 -19h-197c11 0 21 1 40 8c20 7 33 26 33 54v576c0 18 -6 32 -18 42c-23 21 -39 20 -55 20h197c-9 0 -17 -1 -26 -2c-17 -3 -48 -24 -48 -60z" />
    <glyph glyph-name="J" unicode="J" horiz-adv-x="361" 
d="M221 144v494c0 18 -6 32 -18 42c-23 21 -39 20 -55 20h197c-9 0 -17 -1 -26 -2c-17 -3 -48 -24 -48 -60v-480c0 -107 -43 -160 -128 -160c-29 0 -56 6 -81 18c-25 13 -37 32 -38 57c0 15 11 29 27 29c21 0 31 -21 28 -46c-3 -31 25 -52 60 -52c59 0 82 39 82 140z" />
    <glyph glyph-name="K" unicode="K" horiz-adv-x="592" 
d="M140 638v-576c0 -18 6 -32 17 -43c24 -20 40 -19 57 -19h-197c11 0 21 1 40 8c20 7 33 26 33 54v576c0 18 -6 32 -18 42c-23 21 -39 20 -55 20h197c-9 0 -17 -1 -26 -2c-17 -3 -48 -24 -48 -60zM264 374l227 -286c36 -44 80 -76 103 -84l16 -5l-116 2
c-22 19 -45 43 -68 73l-202 261c-19 17 -43 6 -62 -11l-15 -14l237 285c37 41 26 95 -25 104h189h-2c-7 0 -49 -9 -102 -54c-11 -9 -30 -31 -59 -64c-28 -33 -54 -64 -77 -93l-34 -44c-25 -25 -30 -41 -10 -70z" />
    <glyph glyph-name="L" unicode="L" horiz-adv-x="538" 
d="M214 9h67c134 0 214 41 241 124l-30 -133h-473c11 0 21 1 40 8c20 7 33 26 33 54v576c0 18 -6 32 -18 42c-23 21 -39 20 -55 20h197c-9 0 -17 -1 -26 -2c-17 -3 -48 -24 -48 -60v-559c0 -52 21 -70 72 -70z" />
    <glyph glyph-name="M" unicode="M" horiz-adv-x="884" 
d="M794 630v-568c0 -18 6 -32 17 -43c24 -20 40 -19 57 -19h-196c11 0 21 1 40 8c20 7 33 26 33 54v506c0 43 -6 47 -14 47c-3 0 -6 -2 -9 -6c-4 -7 -15 -32 -19 -39l-250 -569l-298 591c-10 20 -20 25 -29 16c-7 -7 -11 -24 -11 -50v-440c0 -44 15 -78 30 -93
c27 -24 56 -26 58 -25h-178c4 0 81 2 81 120v437c0 126 -60 143 -74 143l-2 1h128l273 -536c29 -58 58 -56 85 5l234 530h104c-5 0 -60 -2 -60 -70z" />
    <glyph glyph-name="N" unicode="N" horiz-adv-x="692" 
d="M571 221v374c0 44 -15 76 -38 88c-21 13 -36 16 -51 17h183c-15 -1 -26 -4 -49 -17c-21 -12 -36 -44 -36 -88v-595h-1l-13 19l-410 590c-11 15 -20 15 -27 0c-4 -8 -6 -21 -6 -38v-466c0 -59 38 -94 67 -101l22 -4h-186c5 0 10 0 30 8c27 12 58 39 58 99v458
c0 120 -68 135 -83 135l-3 1h127l366 -521c15 -22 28 -32 38 -30c13 0 12 42 12 71z" />
    <glyph glyph-name="O" unicode="O" horiz-adv-x="790" 
d="M410 708c115 0 206 -49 254 -122c49 -73 73 -158 70 -245c-3 -105 -37 -190 -103 -255c-65 -65 -148 -97 -248 -97c-119 0 -214 50 -266 123c-52 75 -77 159 -76 244c1 108 37 193 108 256s158 95 261 96zM681 329c1 99 -24 183 -75 250c-50 67 -115 104 -195 111
c-95 9 -171 -16 -229 -73s-87 -139 -87 -246c0 -95 27 -178 82 -249s122 -109 201 -116c99 -9 174 18 225 79s77 143 78 244z" />
    <glyph glyph-name="P" unicode="P" horiz-adv-x="517" 
d="M461 609c21 -46 26 -91 15 -136c-10 -44 -30 -78 -61 -102c-65 -49 -152 -61 -263 -38c183 -20 281 44 282 181c1 71 -19 119 -58 144c-39 26 -96 38 -171 36c-27 0 -51 -1 -71 -3v-629c0 -18 6 -32 17 -43c24 -20 40 -19 57 -19h-197c11 0 21 1 40 8c20 7 33 26 33 54
v576c0 18 -6 32 -18 42c-23 21 -39 20 -55 20c91 1 155 2 193 2c73 0 130 -6 169 -19c39 -12 69 -37 88 -74z" />
    <glyph glyph-name="Q" unicode="Q" horiz-adv-x="781" 
d="M424 708c115 0 206 -49 254 -122c49 -73 73 -158 70 -245c-3 -105 -37 -190 -103 -255c-65 -65 -148 -97 -248 -97c-119 0 -214 50 -266 123c-52 75 -77 159 -76 244c1 108 37 193 108 256s158 95 261 96zM695 329c1 99 -24 183 -75 250c-50 67 -115 104 -195 111
c-95 9 -171 -16 -229 -73s-87 -139 -87 -246c0 -95 27 -178 82 -249s122 -109 201 -116c99 -9 174 18 225 79s77 143 78 244zM289 -24c74 1 149 -98 215 -116c63 -21 136 -1 179 52c-33 -65 -87 -97 -160 -95c-51 1 -99 31 -130 62s-80 65 -128 70c-47 6 -94 -5 -141 -34
c51 49 93 65 165 61z" />
    <glyph glyph-name="R" unicode="R" horiz-adv-x="549" 
d="M385 262l114 -189c21 -33 56 -60 76 -67l15 -6h-96c-19 18 -42 49 -68 94l-101 167c-52 83 -107 79 -197 79v-278c0 -18 6 -32 17 -43c24 -20 40 -19 57 -19h-197c11 0 21 1 40 8c20 7 33 26 33 54v576c0 18 -6 32 -18 42c-23 21 -39 20 -55 20c25 0 61 0 110 1
s85 2 107 1c133 -1 201 -20 237 -88c15 -29 21 -59 19 -92c-3 -59 -32 -115 -75 -144c-29 -20 -63 -32 -101 -36c28 -8 56 -35 83 -80zM128 349h96c124 1 199 68 202 172c3 162 -127 179 -298 172v-344z" />
    <glyph glyph-name="S" unicode="S" horiz-adv-x="551" 
d="M479 657l2 -110c-9 25 -31 55 -66 88c-69 69 -187 76 -244 37c-40 -28 -61 -78 -56 -129c9 -77 67 -126 175 -147c173 -32 238 -94 235 -209c-3 -138 -113 -200 -226 -198c-101 0 -183 26 -245 79l-3 158c33 -120 125 -195 233 -215c56 -10 105 -4 146 19
c42 23 63 63 63 118c1 45 -16 83 -49 116s-93 58 -182 77c-72 15 -121 38 -147 69c-25 31 -38 69 -38 114c-1 52 20 96 61 131s94 53 158 53c65 0 133 -22 162 -38z" />
    <glyph glyph-name="T" unicode="T" horiz-adv-x="636" 
d="M37 700h562l21 -147c-5 29 -21 58 -49 86c-36 36 -81 52 -169 52h-55v-629c0 -18 6 -32 17 -43c24 -20 40 -19 57 -19h-197c11 0 21 1 40 8c20 7 33 26 33 54v629h-63c-88 0 -133 -16 -169 -52c-25 -25 -42 -58 -46 -74l-3 -12z" />
    <glyph glyph-name="U" unicode="U" horiz-adv-x="636" 
d="M553 283v320c0 40 -15 69 -36 81c-20 12 -33 15 -46 16h169c-12 -1 -23 -4 -44 -16c-20 -12 -34 -41 -34 -81v-320c0 -11 0 -22 -1 -31c0 -17 -6 -67 -17 -100c-11 -32 -35 -78 -67 -105s-85 -48 -149 -48c-51 0 -94 13 -125 29c-31 17 -55 52 -71 77
c-7 13 -14 30 -19 51l-12 52c-3 14 -5 33 -6 57s-2 42 -2 53v52v16v232c0 23 -6 41 -17 54c-23 28 -41 28 -56 28h197c-13 0 -74 -6 -74 -82v-301c0 -192 65 -288 195 -288c143 0 215 85 215 254z" />
    <glyph glyph-name="V" unicode="V" horiz-adv-x="716" 
d="M524 700h187c-52 -8 -89 -38 -121 -121l-231 -590l-263 646c-20 41 -49 62 -86 65h207c1 0 -89 -1 -55 -85l190 -472c8 -19 17 -28 28 -28c7 0 14 5 19 15c6 11 18 38 35 82l142 365c31 87 12 120 -52 123zM5 700h5h-5z" />
    <glyph glyph-name="W" unicode="W" horiz-adv-x="1106" 
d="M884 700h197c-45 -3 -90 -46 -121 -121l-235 -590l-175 421l-175 -421l-269 646c-20 41 -49 62 -86 65h62h145c1 0 -88 -5 -54 -89l194 -468c6 -13 15 -28 28 -28c12 0 20 -1 48 67l100 244l-87 209c-20 41 -49 62 -86 65h62h145c1 0 -88 -5 -54 -89l194 -468
c6 -13 15 -28 28 -28c12 0 22 15 45 71l156 391c29 73 9 118 -62 123zM15 700h5h-5zM365 700h5h-5z" />
    <glyph glyph-name="X" unicode="X" horiz-adv-x="612" 
d="M650 0h-220c17 0 33 5 47 16c15 11 17 26 7 43c-1 3 -63 95 -186 277l-151 -217c-48 -63 -43 -106 34 -119h-198c47 11 104 54 144 110l166 234c-115 171 -182 270 -203 295c-32 40 -73 61 -98 61l203 -1c-48 -5 -56 -39 -28 -80l156 -233l129 187c49 73 39 115 -30 127
h174c-39 -9 -77 -42 -114 -99l-153 -223c78 -117 135 -199 171 -246c65 -87 115 -131 150 -132z" />
    <glyph glyph-name="Y" unicode="Y" horiz-adv-x="539" 
d="M-35 700h-1h1zM395 700c64 -11 75 -54 32 -127l-115 -207c-11 -19 -24 -21 -35 -4l-147 257c-25 43 -13 76 34 80l-199 1c28 0 72 -18 97 -61l170 -298c14 -24 21 -48 21 -72l-1 -210c-1 -21 -10 -36 -29 -45c-18 -9 -34 -14 -49 -14h199c-15 1 -31 6 -48 15
c-16 10 -24 26 -24 48v205c0 37 10 73 30 110l124 223c30 55 68 88 114 99h-174z" />
    <glyph glyph-name="Z" unicode="Z" horiz-adv-x="616" 
d="M183 8h60c111 3 194 25 248 67c32 27 66 73 79 101l11 20l-48 -196h-508l433 633c27 39 7 58 -58 58h-57c-100 0 -174 -18 -221 -55c-28 -21 -56 -62 -68 -86l-9 -17l41 167h479c-11 -14 -84 -121 -219 -322l-220 -326c-20 -30 -14 -44 57 -44z" />
    <glyph glyph-name="bracketleft" unicode="[" horiz-adv-x="264" 
d="M50 701l164 -1l-150 -12v-856l150 -11l-164 -2v882z" />
    <glyph glyph-name="backslash" unicode="\" horiz-adv-x="329" 
d="M297 -10h-13l-275 711h12z" />
    <glyph glyph-name="bracketright" unicode="]" horiz-adv-x="264" 
d="M35 700l164 1v-882l-164 2l150 11v856z" />
    <glyph glyph-name="asciicircum" unicode="^" horiz-adv-x="383" 
d="M196 616l142 -257l-143 225l-150 -215z" />
    <glyph glyph-name="underscore" unicode="_" horiz-adv-x="487" 
d="M45 2v9h397v-9h-397z" />
    <glyph glyph-name="grave" unicode="`" horiz-adv-x="222" 
d="M-15 623l85 -111l-115 85c-19 16 -23 29 -12 40c12 13 30 6 42 -14z" />
    <glyph glyph-name="a" unicode="a" horiz-adv-x="466" 
d="M347 79v188c-71 -20 -112 -34 -165 -61c-53 -25 -83 -58 -86 -97c-4 -49 32 -94 100 -93c43 1 92 21 147 61c-17 -17 -31 -30 -44 -40c-24 -20 -81 -47 -134 -47c-41 0 -71 12 -90 35c-19 24 -28 50 -25 79c0 45 36 79 75 100c24 15 74 30 102 38c15 5 35 10 61 17l59 17
v56c0 96 -55 132 -124 119c-28 -5 -53 -16 -75 -33c-21 -17 -32 -34 -32 -53c0 -11 10 -28 10 -39c1 -21 -13 -35 -32 -35c-17 0 -33 11 -32 38s17 54 50 79c33 26 70 43 111 51c111 23 167 -23 167 -138v-258c0 -59 51 -47 71 -2c-16 -43 -33 -64 -66 -64
c-37 0 -48 25 -48 82z" />
    <glyph glyph-name="b" unicode="b" horiz-adv-x="528" 
d="M121 713v-534c0 -69 21 -119 62 -150c42 -31 89 -38 140 -22c83 27 122 104 118 232c-2 63 -19 112 -52 146c-33 35 -73 52 -120 51c-57 -1 -113 -37 -142 -81c9 19 21 36 46 61c25 27 64 46 107 47c58 1 106 -17 145 -54s58 -96 57 -175c-1 -65 -21 -122 -62 -171
s-96 -74 -165 -74c-41 0 -76 10 -105 29l-42 33l-30 -67v623c0 36 -18 49 -33 46z" />
    <glyph glyph-name="c" unicode="c" horiz-adv-x="496" 
d="M88 202c16 -107 90 -169 185 -174c79 -4 154 25 195 100c-28 -80 -102 -137 -195 -137c-63 0 -117 20 -162 60c-45 41 -68 96 -69 167c-1 56 13 104 42 145c59 81 150 112 243 100c29 -4 55 -15 78 -32s35 -37 35 -61s-16 -38 -35 -37c-27 1 -41 27 -33 51
c11 41 -33 70 -86 73c-65 3 -117 -20 -156 -70s-53 -112 -42 -185z" />
    <glyph glyph-name="d" unicode="d" horiz-adv-x="514" 
d="M401 94c-35 -61 -76 -102 -149 -103c-60 -1 -111 19 -154 61s-64 101 -65 176c-1 72 22 129 67 171c45 43 98 65 158 66c59 2 108 -18 148 -61v203c0 35 -18 49 -33 46l76 60v-628c0 -40 26 -35 33 -35l-76 -60v266c0 136 -69 198 -161 199c-45 1 -85 -16 -120 -51
s-51 -88 -50 -160c1 -75 21 -132 59 -171c39 -39 82 -57 131 -56c56 1 101 27 136 77z" />
    <glyph glyph-name="e" unicode="e" horiz-adv-x="499" 
d="M269 30c87 -6 149 27 186 98c-11 -38 -35 -70 -71 -97c-35 -27 -76 -40 -121 -40c-57 0 -108 21 -152 64c-43 43 -66 99 -67 170c-2 93 35 162 112 209c35 21 74 32 119 32c53 -1 96 -20 129 -58s49 -88 48 -149h-362c0 -65 16 -118 48 -161c33 -42 76 -65 131 -68z
M160 426c-43 -31 -67 -84 -70 -158c115 0 188 1 219 3c47 3 77 14 89 33c13 20 18 71 -31 118c-27 25 -61 37 -102 37c-41 1 -76 -10 -105 -33z" />
    <glyph glyph-name="f" unicode="f" horiz-adv-x="276" 
d="M266 708c39 -8 71 -33 71 -66c0 -15 -11 -28 -27 -28c-21 0 -31 21 -28 46c3 27 -24 45 -53 46c-60 1 -79 -42 -79 -142v-114h124l-9 -9h-115v-392c0 -23 12 -38 29 -43c19 -5 25 -6 34 -6h-168c9 0 16 1 33 6s29 20 29 43v392h-52l-12 9h64v110c0 108 66 168 159 148z
" />
    <glyph glyph-name="g" unicode="g" horiz-adv-x="481" 
d="M462 466c19 0 28 -13 25 -26c-4 -13 -18 -21 -38 -10c-18 13 -37 12 -56 -5c24 27 47 41 69 41zM292 41c93 0 142 -14 171 -69c35 -63 1 -131 -27 -163c-55 -59 -123 -75 -220 -71c-119 5 -180 65 -180 141c0 44 23 86 42 102l15 12c-83 -125 27 -229 172 -235
c57 -2 105 11 143 40c39 29 54 64 45 107c-11 61 -69 91 -175 90c-119 -1 -180 12 -193 65c-12 43 28 76 68 93c-1 0 -4 1 -5 2c-52 24 -88 85 -85 150c2 63 39 111 110 143c52 21 122 19 167 -8c31 -17 53 -44 66 -83s13 -75 1 -109c-15 -45 -50 -78 -105 -97
c-46 -16 -92 -17 -138 -2c-34 -25 -54 -42 -37 -74c9 -16 26 -27 55 -31l35 -3c8 -1 22 -1 42 -1c20 1 31 1 33 1zM114 255c17 -45 43 -75 78 -90s71 -17 108 -8c39 11 63 37 73 79c11 43 7 83 -10 120c-18 45 -45 75 -81 89s-71 13 -106 -3c-67 -25 -91 -102 -62 -187z" />
    <glyph glyph-name="h" unicode="h" horiz-adv-x="536" 
d="M141 713v-664c0 -23 12 -38 29 -43c19 -5 25 -6 34 -6h-168c7 0 62 0 62 49v569c0 40 -26 35 -33 35zM446 266v-217c0 -23 12 -38 29 -43c19 -5 25 -6 34 -6h-168c9 0 16 1 33 6s29 20 29 43v222v13c0 17 0 30 -1 39c0 17 -1 49 -8 62c-10 24 -25 42 -60 48
c-49 8 -122 -28 -182 -77c27 30 59 56 95 78c37 22 73 31 108 28c20 -1 36 -8 48 -15c18 -13 29 -26 35 -51c4 -19 7 -23 7 -48c1 -12 1 -21 1 -26v-56z" />
    <glyph glyph-name="i" unicode="i" horiz-adv-x="249" 
d="M122 542c-43 0 -43 66 0 66c41 0 41 -66 0 -66zM147 467v-418c0 -33 21 -49 63 -49h-168c7 0 62 0 62 49v307c0 36 -10 54 -30 54z" />
    <glyph glyph-name="j" unicode="j" horiz-adv-x="237" 
d="M120 542c-43 0 -43 66 0 66c41 0 41 -66 0 -66zM105 -66v422c0 35 -10 53 -30 54l73 57v-519c0 -128 -64 -179 -159 -158c-39 8 -71 33 -71 66c0 15 11 28 27 28c21 0 31 -21 28 -46c-3 -27 22 -43 53 -44c61 -1 79 33 79 140z" />
    <glyph glyph-name="k" unicode="k" horiz-adv-x="419" 
d="M136 713l-1 -664c0 -23 12 -38 29 -43c19 -5 25 -6 34 -6h-168c7 0 62 0 62 49v558c0 40 -21 50 -32 46zM432 0h-121c16 4 17 22 0 43c-7 10 -31 39 -71 87c-39 49 -64 79 -74 90c-11 13 -20 16 -28 11l130 137c40 47 20 79 -28 82h148c-21 0 -65 -35 -131 -105l-52 -56
c-13 -14 -14 -28 -4 -41l73 -91c43 -52 73 -88 91 -108c23 -27 47 -44 59 -47z" />
    <glyph glyph-name="l" unicode="l" horiz-adv-x="236" 
d="M138 713v-664c0 -23 12 -38 29 -43c19 -5 25 -6 34 -6h-168c9 0 16 1 33 6s29 20 29 43v558c0 42 -25 48 -33 46z" />
    <glyph glyph-name="m" unicode="m" horiz-adv-x="831" 
d="M142 467v-418c0 -23 12 -38 29 -43c19 -5 25 -6 34 -6h-168c9 0 16 1 33 6s29 20 29 43v313c0 42 -26 45 -33 45zM439 266v-217c0 -23 12 -38 29 -43c19 -5 25 -6 34 -6h-169c9 0 16 1 33 6s29 20 29 43v222v13c0 17 0 30 -1 39c0 17 -1 49 -8 62c-10 24 -25 42 -60 48
c-49 8 -122 -28 -182 -77c27 30 59 56 95 78c37 22 73 31 108 28c36 -3 61 -22 73 -39c6 -8 10 -21 13 -40s5 -33 5 -43c1 -10 1 -27 1 -52v-22zM738 266v-217c0 -23 12 -38 29 -43c19 -5 25 -6 34 -6h-169c7 0 62 0 62 49v222v13c0 17 0 30 -1 39c0 17 -1 49 -8 62
c-10 24 -25 42 -60 48c-49 8 -122 -28 -182 -77c27 30 59 56 95 78c37 22 73 31 108 28c36 -3 61 -22 73 -39c6 -8 10 -21 13 -40s5 -33 5 -43c1 -10 1 -27 1 -52v-22z" />
    <glyph glyph-name="n" unicode="n" 
d="M137 466v-417c0 -23 12 -38 29 -43c19 -5 25 -6 34 -6h-168c7 0 62 0 62 49v312c0 40 -29 45 -35 44zM436 266v-217c0 -23 12 -38 29 -43c19 -5 25 -6 34 -6h-169c7 0 62 0 62 49v222v13c0 17 0 30 -1 39c0 17 -1 49 -8 62c-10 24 -25 42 -60 48c-49 8 -122 -28 -182 -77
c27 30 59 56 95 78c37 22 73 31 108 28c36 -3 61 -22 73 -39c6 -8 10 -21 13 -40s5 -33 5 -43c1 -10 1 -27 1 -52v-22z" />
    <glyph glyph-name="o" unicode="o" 
d="M288 -8c-32 -1 -61 2 -104 15c-59 20 -118 64 -139 159c-15 67 -7 127 23 180c30 54 76 90 137 107c72 20 136 13 192 -20s89 -89 99 -168c9 -74 -7 -138 -50 -191c-42 -53 -95 -80 -158 -82zM448 275c-11 62 -40 110 -87 144c-46 35 -99 43 -160 25
c-35 -10 -62 -29 -83 -57c-40 -55 -43 -123 -31 -195c13 -65 40 -112 81 -143c41 -30 86 -44 136 -43c126 3 169 128 144 269z" />
    <glyph glyph-name="p" unicode="p" horiz-adv-x="539" 
d="M299 462c56 1 102 -18 139 -59c37 -40 56 -96 55 -168c-1 -73 -21 -131 -62 -174s-88 -65 -143 -66c-63 -2 -116 20 -159 66v-227c0 -23 12 -38 29 -43c19 -5 25 -6 34 -6h-168c7 0 62 0 62 49v529c0 41 -25 47 -33 45l76 59v-94v-2v-163c0 -70 18 -122 53 -155
s77 -48 125 -46c80 3 142 75 145 215c1 69 -14 122 -47 159s-72 55 -119 54c-59 -1 -108 -30 -148 -89c8 19 19 36 43 65c25 29 69 50 118 51z" />
    <glyph glyph-name="q" unicode="q" horiz-adv-x="509" 
d="M447 460v-626c0 -23 12 -38 29 -43c19 -5 25 -6 34 -6h-167c9 0 16 1 33 6s29 20 29 43v401c0 149 -69 221 -172 217c-43 -1 -80 -21 -110 -60c-29 -38 -43 -91 -40 -158c3 -71 21 -125 54 -161c34 -35 72 -54 115 -56c75 -4 128 39 145 79c-4 -18 -20 -40 -47 -65
s-65 -37 -112 -37c-51 0 -97 20 -136 61s-59 95 -62 163c-3 72 17 130 58 175s93 68 155 69c67 2 118 -20 155 -65z" />
    <glyph glyph-name="r" unicode="r" horiz-adv-x="370" 
d="M134 372v-323c0 -23 12 -38 29 -43c19 -5 25 -6 34 -6h-168c9 0 16 1 33 6s29 20 29 43v13v300c0 41 -29 45 -33 45l76 60v-72v-23zM301 459c59 -3 50 -69 11 -71c-22 -5 -36 20 -42 27c-12 14 -60 21 -131 -56c45 69 99 102 162 100z" />
    <glyph glyph-name="s" unicode="s" horiz-adv-x="414" 
d="M355 422v-74c-36 73 -100 112 -167 107c-51 -3 -81 -26 -91 -69c-8 -34 -6 -98 119 -121c123 -23 166 -63 166 -134c0 -39 -15 -73 -44 -100s-69 -41 -120 -41c-72 0 -132 21 -152 38l-15 12l-2 115c1 -5 4 -14 9 -27c11 -25 40 -69 76 -92c73 -49 212 -45 216 52
c4 64 -31 105 -144 129c-103 21 -139 55 -140 118c-1 37 13 68 41 93c28 26 67 39 116 38c55 1 99 -14 132 -44z" />
    <glyph glyph-name="t" unicode="t" horiz-adv-x="335" 
d="M201 24c63 -7 104 34 125 81c-24 -79 -71 -116 -142 -112c-49 2 -69 30 -83 62c-4 9 -7 22 -9 38l-3 38v40v10v261h-46l-12 9h58v117l44 60c0 -55 0 -114 -1 -177h131l-9 -9h-122v-266c0 -55 1 -72 9 -104c9 -32 28 -44 60 -48z" />
    <glyph glyph-name="u" unicode="u" horiz-adv-x="509" 
d="M186 19c25 -4 55 1 90 16c36 15 68 35 97 59c-27 -29 -59 -54 -98 -76c-38 -22 -75 -31 -110 -28c-38 4 -62 19 -74 46c-8 21 -12 29 -15 60c-1 15 -1 27 -1 34v38v16v217c0 23 -11 38 -30 43c-17 5 -24 6 -33 6h107v-49v-222v-43c1 -16 3 -53 8 -66c8 -23 25 -49 59 -51
zM380 61v340c0 49 -55 49 -62 49h105v-364c0 -40 26 -35 33 -35l-76 -60v70z" />
    <glyph glyph-name="v" unicode="v" horiz-adv-x="453" 
d="M328 450h130c-17 -5 -32 -15 -45 -32c-8 -8 -17 -24 -28 -48l-154 -380l-182 417c-15 25 -40 41 -53 42l-11 1h143c0 1 -43 -4 -31 -42l117 -277c11 -25 23 -38 34 -38c18 0 29 33 39 53l87 217l4 12c16 42 -1 67 -50 75z" />
    <glyph glyph-name="w" unicode="w" horiz-adv-x="697" 
d="M557 450h147c-23 -5 -41 -16 -55 -33c-9 -10 -18 -26 -27 -49l-149 -378l-134 313l-119 -313l-179 416c-15 27 -39 42 -52 43l-10 1h143s-46 -4 -29 -45l119 -289c7 -14 15 -21 24 -21c11 0 23 19 38 56l61 161l-40 94c-15 27 -39 42 -52 43l-10 1h140
c-4 1 -41 -6 -30 -41l116 -281c10 -25 21 -37 33 -37c10 0 22 19 37 58l82 212l4 12c15 40 -5 68 -58 77z" />
    <glyph glyph-name="x" unicode="x" horiz-adv-x="461" 
d="M468 0h-157c29 0 51 22 27 61l-120 157l-86 -119c-23 -32 -31 -55 -25 -70c5 -14 22 -24 51 -29h-148c17 3 35 13 54 30c17 14 39 41 68 80l82 113l-124 163c-29 39 -57 60 -68 63l-9 2h151c-18 -1 -30 -5 -35 -14c-7 -11 -1 -28 16 -51l97 -126l74 92c25 31 35 55 30 71
c-4 13 -23 27 -43 28h132c-12 -2 -28 -11 -47 -28c-17 -13 -38 -37 -64 -72l-78 -96l167 -217c18 -21 36 -33 55 -38z" />
    <glyph glyph-name="y" unicode="y" horiz-adv-x="440" 
d="M335 450h130c-17 -5 -32 -15 -45 -32c-8 -8 -17 -24 -28 -48l-154 -380l-68 -166c-12 -29 -31 -41 -56 -38c-21 3 -33 22 -28 41c5 15 17 23 34 22c11 -1 24 -15 31 -15c10 0 19 10 28 29l56 133l-179 411c-15 25 -39 41 -54 42l-10 1h143c0 1 -43 -4 -31 -42l117 -277
c11 -25 23 -38 34 -38c18 0 29 33 39 53l87 217l4 12c16 42 -1 67 -50 75z" />
    <glyph glyph-name="z" unicode="z" horiz-adv-x="474" 
d="M162 7l89 -1c49 1 86 9 113 24c24 12 48 46 57 67l7 16l-18 -113h-358l278 412c17 23 14 32 -21 32h-95c-39 0 -54 -2 -74 -10c-16 -7 -11 -5 -30 -16s-39 -33 -48 -46l-6 -11l28 90h333c-33 -45 -87 -122 -160 -231c-73 -108 -113 -168 -119 -181c-12 -20 -8 -32 24 -32
z" />
    <glyph glyph-name="braceleft" unicode="{" horiz-adv-x="292" 
d="M289 709c-70 6 -114 -23 -133 -87c-15 -61 -11 -132 0 -185s5 -114 -31 -157c34 -37 46 -92 36 -164c-1 -11 -4 -30 -8 -55l-8 -61c-3 -33 -3 -82 8 -117c26 -73 83 -68 142 -64c-145 -29 -191 41 -174 202l4 38c3 18 4 30 5 37l3 29c3 27 2 33 1 52c0 19 -4 31 -9 43
c-11 27 -32 46 -65 57c20 5 37 16 51 35c16 20 22 57 19 110c0 1 -2 18 -6 49s-6 59 -5 83c2 147 105 168 170 155z" />
    <glyph glyph-name="bar" unicode="|" horiz-adv-x="136" 
d="M65 -56v863h6v-863h-6z" />
    <glyph glyph-name="braceright" unicode="}" horiz-adv-x="292" 
d="M-12 709c65 13 168 -8 170 -155c1 -24 -1 -52 -5 -83s-6 -48 -6 -49c-3 -53 3 -90 19 -110c14 -19 31 -30 51 -35c-33 -11 -54 -30 -65 -57c-5 -12 -9 -24 -10 -43c0 -19 0 -25 1 -52l3 -29l5 -37c3 -17 4 -30 5 -38c17 -161 -29 -231 -174 -202c59 -4 116 -9 142 64
c11 35 11 84 7 117c-1 16 -4 36 -8 61l-7 55c-10 72 2 127 36 164c-36 43 -42 104 -31 157s15 124 0 185c-19 64 -63 93 -133 87z" />
    <glyph glyph-name="asciitilde" unicode="~" horiz-adv-x="378" 
d="M55 288c7 48 39 75 80 72c16 -1 37 -11 63 -29c27 -17 46 -26 59 -26c39 0 65 20 65 51c7 -36 -25 -73 -65 -73c-21 0 -44 9 -70 28s-49 28 -69 28s-48 -14 -63 -51z" />
    <glyph glyph-name="exclamdown" unicode="&#xa1;" horiz-adv-x="197" 
d="M135 693c13 -12 13 -34 0 -47c-12 -12 -34 -12 -47 0c-12 13 -12 35 0 47c13 13 35 13 47 0zM113 576c0 -74 -4 -165 -12 -272c-7 -107 -11 -184 -11 -232s8 -72 24 -72c21 0 28 40 24 117c-2 39 -5 81 -9 125l-11 160c-3 63 -5 121 -5 174z" />
    <glyph glyph-name="cent" unicode="&#xa2;" horiz-adv-x="450" 
d="M288 88c79 -4 154 25 195 100c-28 -80 -102 -137 -195 -137c-7 0 -13 0 -17 1v-55h-10v55c-57 6 -105 29 -144 68c-39 40 -59 93 -60 158c-1 67 18 122 57 165s88 70 147 79v59h10v-58c23 3 47 3 71 0c29 -4 55 -15 78 -32s35 -37 35 -61s-16 -38 -35 -37
c-27 1 -41 27 -33 51c11 41 -33 70 -86 73c-7 1 -17 0 -30 -1v-426c8 -1 14 -2 17 -2zM103 262c13 -96 75 -156 158 -171v424c-55 -8 -97 -36 -127 -84c-30 -47 -40 -104 -31 -169z" />
    <glyph glyph-name="sterling" unicode="&#xa3;" horiz-adv-x="547" 
d="M495 614c-21 0 -31 21 -28 46c3 27 -22 43 -53 44c-29 1 -53 -16 -72 -49c-17 -33 -24 -51 -36 -91c-31 -99 -62 -191 -93 -275h126l-9 -9h-120l-40 -103l-28 -71c46 10 87 4 122 -17l36 -25c29 -21 47 -32 76 -37c60 -11 96 4 107 45c7 27 -2 40 -29 40
c-13 0 -24 12 -27 27c-1 17 5 27 20 31c19 5 33 -1 42 -19c9 -14 12 -32 9 -55c-7 -64 -45 -108 -121 -105c-123 4 -101 106 -238 106c-17 -40 -27 -61 -28 -63c-13 -22 -29 -33 -48 -33s-31 7 -36 20c-5 14 -3 26 4 35c12 21 43 37 94 47c22 68 40 127 55 177h-61l-12 9h76
c3 9 11 41 26 97c15 57 31 115 48 174c32 109 103 168 194 148c39 -8 71 -33 71 -66c0 -15 -11 -28 -27 -28zM82 33c15 7 28 28 41 63c-29 -3 -66 -25 -67 -48c-1 -12 13 -22 26 -15z" />
    <glyph glyph-name="currency" unicode="&#xa4;" horiz-adv-x="456" 
d="M353 219l54 -52l-16 -17l-53 54c-32 -29 -70 -43 -113 -43s-80 14 -112 42l-53 -53l-16 17l52 53c-28 31 -42 68 -42 110c0 43 14 80 43 112l-54 53l17 17l53 -55c32 28 69 42 112 42s80 -14 112 -42l53 55l17 -17l-55 -54c29 -32 43 -69 43 -111s-14 -79 -42 -111z
M370 330c0 42 -14 78 -43 107c-28 29 -62 44 -103 44s-75 -15 -104 -44c-28 -29 -42 -65 -42 -107c0 -43 14 -79 42 -108c29 -29 63 -44 104 -44s75 15 103 44c29 29 43 65 43 108z" />
    <glyph glyph-name="yen" unicode="&#xa5;" horiz-adv-x="677" 
d="M481 700h161c-42 -10 -78 -43 -107 -99l-115 -222h146l-9 -9h-391l-12 9h127l-143 237c-29 48 -68 77 -88 81l-15 3h193c-29 0 -76 -28 -38 -86l146 -235h70l21 38c17 33 51 100 82 156c31 54 29 117 -28 127zM327 300h-161l-12 9h412l-9 -9h-164c-3 -8 -5 -24 -5 -49
v-189c0 -18 6 -32 17 -43c24 -20 40 -19 57 -19h-199c11 0 21 1 40 8c20 7 33 26 33 54v189c0 15 -3 31 -9 49z" />
    <glyph glyph-name="brokenbar" unicode="&#xa6;" horiz-adv-x="136" 
d="M65 409v273h6v-273h-6zM65 9v273h6v-273h-6z" />
    <glyph glyph-name="section" unicode="&#xa7;" horiz-adv-x="485" 
d="M420 344c0 -39 -14 -71 -43 -98c23 -25 35 -58 35 -97c0 -41 -16 -74 -47 -101s-68 -40 -112 -40c-59 0 -105 15 -138 44c-33 30 -50 61 -50 92c0 27 13 49 37 49c25 0 42 -23 38 -46c-7 -36 3 -66 30 -91c57 -61 210 -50 208 56c1 52 -21 124 -149 136
c-109 11 -152 58 -149 133c1 40 16 73 45 100c-27 23 -39 54 -38 95c1 39 17 73 48 101c31 29 72 42 123 41c38 -1 70 -13 97 -37c27 -23 41 -50 41 -80c0 -27 -11 -40 -32 -40c-23 0 -34 26 -27 54c6 25 -3 46 -28 64c-25 19 -54 27 -87 26c-56 -1 -97 -37 -106 -82
c-9 -44 4 -115 134 -124c111 -8 170 -71 170 -155zM242 304c55 -4 97 -20 127 -49c10 13 16 31 17 52c0 53 -20 125 -149 136c-43 4 -77 15 -104 32c-13 -14 -21 -30 -24 -48c-9 -42 3 -114 133 -123z" />
    <glyph glyph-name="dieresis" unicode="&#xa8;" horiz-adv-x="600" 
d="M112 550c-30 -33 -78 20 -48 47c31 31 79 -16 48 -47zM302 550c-30 -33 -78 20 -48 47c31 31 79 -16 48 -47z" />
    <glyph glyph-name="copyright" unicode="&#xa9;" horiz-adv-x="750" 
d="M601 10c-63 -63 -140 -95 -229 -95s-166 32 -230 95c-63 64 -95 141 -95 230s32 166 95 229c64 63 141 95 230 95s166 -32 229 -95c64 -63 96 -140 96 -229s-32 -166 -96 -230zM373 -75c87 0 162 31 223 92c62 62 93 137 93 224s-31 161 -93 222c-61 62 -136 93 -223 93
s-162 -31 -223 -92s-92 -136 -92 -223s31 -162 92 -224c62 -61 136 -92 223 -92zM197 212c16 -107 90 -169 185 -174c79 -4 154 25 195 100c-28 -80 -102 -137 -195 -137c-63 0 -117 20 -162 60c-45 41 -68 96 -69 167c-1 56 13 104 42 145c59 81 150 112 243 100
c29 -4 55 -15 78 -32s35 -37 35 -61s-16 -38 -35 -37c-27 1 -41 27 -33 51c11 41 -33 70 -86 73c-65 3 -117 -20 -156 -70s-53 -112 -42 -185z" />
    <glyph glyph-name="guillemotleft" unicode="&#xab;" horiz-adv-x="333" 
d="M-8 275l167 142l-142 -143l132 -150zM96 275l167 142l-142 -143l132 -150z" />
    <glyph glyph-name="logicalnot" unicode="&#xac;" horiz-adv-x="395" 
d="M25 310v7h345v-110h-7v103h-338z" />
    <glyph glyph-name="registered" unicode="&#xae;" horiz-adv-x="747" 
d="M142 469c64 63 141 95 230 95s166 -32 229 -95c64 -63 96 -140 96 -229s-32 -166 -96 -230c-63 -63 -140 -95 -229 -95s-166 32 -230 95c-63 64 -95 141 -95 230s32 166 95 229zM373 -75c87 0 162 31 223 92c62 62 93 137 93 224s-31 161 -93 222c-61 62 -136 93 -223 93
s-162 -31 -223 -92s-92 -136 -92 -223s31 -162 92 -224c62 -61 136 -92 223 -92zM450 196l70 -117c13 -21 35 -38 48 -43l9 -3h-60c-12 11 -26 31 -42 59l-62 103c-15 24 -30 39 -54 44c-23 5 -33 5 -68 5v-172c0 -37 37 -39 45 -39h-122c31 0 46 13 46 39v356
c0 26 -15 39 -46 39c13 0 36 0 67 1s54 1 68 0c83 -1 125 -11 146 -54c9 -17 13 -36 12 -57c-2 -40 -17 -70 -46 -90c-19 -11 -40 -19 -63 -22c18 -5 35 -22 52 -49zM291 249h59c76 1 124 43 125 107c1 92 -61 111 -184 106v-213z" />
    <glyph glyph-name="overscore" unicode="&#xaf;" horiz-adv-x="457" 
d="M135 580v7l197 1v-8h-197z" />
    <glyph glyph-name="degree" unicode="&#xb0;" horiz-adv-x="204" 
d="M242 509c-35 0 -63 28 -63 63c0 36 28 65 63 65c36 0 65 -28 65 -65c0 -35 -29 -63 -65 -63zM243 523c27 0 51 24 51 51c0 28 -24 51 -51 51c-28 0 -51 -23 -51 -51c0 -27 23 -51 51 -51z" />
    <glyph glyph-name="plusminus" unicode="&#xb1;" horiz-adv-x="537" 
d="M273 570v-213h209v-9h-209v-165h-9v165h-209v9h209v213h9zM482 132h-427v9h427v-9z" />
    <glyph glyph-name="acute" unicode="&#xb4;" horiz-adv-x="600" 
d="M137 512l85 111c12 20 30 27 42 14c11 -11 7 -24 -12 -40z" />
    <glyph glyph-name="middot" unicode="&#xb7;" horiz-adv-x="197" 
d="M65 385c0 17 14 33 33 33s34 -14 34 -33c2 -44 -70 -44 -67 0z" />
    <glyph glyph-name="cedilla" unicode="&#xb8;" horiz-adv-x="269" 
d="M117 -55l36 55h9l-28 -43c61 -5 86 -36 81 -76c-10 -80 -118 -83 -160 -48c39 -17 122 -23 128 51c4 37 -31 58 -66 61z" />
    <glyph glyph-name="guillemotright" unicode="&#xbb;" horiz-adv-x="333" 
d="M55 417l167 -142l-157 -151l132 150zM159 417l167 -142l-157 -151l132 150z" />
    <glyph glyph-name="questiondown" unicode="&#xbf;" horiz-adv-x="439" 
d="M224 506c31 31 77 -16 47 -46c-28 -32 -78 18 -47 46zM249 389c5 -37 1 -77 -12 -119s-28 -79 -47 -110c-18 -31 -35 -65 -50 -102s-22 -70 -21 -98c5 -84 60 -140 133 -137c52 1 98 29 97 73c0 5 -3 15 -9 29c-6 13 -9 23 -10 30c-3 25 13 44 37 44c20 0 32 -21 32 -46
c0 -30 -13 -60 -38 -90c-25 -31 -61 -48 -108 -52c-52 -5 -96 8 -131 39c-35 30 -53 70 -52 120c2 76 67 161 117 241c35 55 62 121 62 178z" />
    <glyph glyph-name="Agrave" unicode="&#xc0;" horiz-adv-x="601" 
d="M363 747l-115 85c-19 16 -23 29 -12 40c12 13 30 6 42 -14zM297 703l221 -616c9 -23 19 -42 31 -57c25 -28 38 -29 51 -30h-184c2 0 75 2 51 75l-78 222l-235 -1l-69 -190c-25 -61 -10 -101 61 -106h-174c45 3 80 43 107 118l215 594zM272 591c-7 0 -18 -20 -32 -59
l-82 -227l228 1l-84 243c-10 28 -20 42 -30 42zM603 0h-3h3z" />
    <glyph glyph-name="Aacute" unicode="&#xc1;" horiz-adv-x="601" 
d="M374 884c11 -11 7 -24 -12 -40l-115 -85l85 111c12 20 30 27 42 14zM297 703l221 -616c9 -23 19 -42 31 -57c25 -28 38 -29 51 -30h-184c2 0 75 2 51 75l-78 222l-235 -1l-69 -190c-25 -61 -10 -101 61 -106h-174c45 3 80 43 107 118l215 594zM272 591
c-7 0 -18 -20 -32 -59l-82 -227l228 1l-84 243c-10 28 -20 42 -30 42zM603 0h-3h3z" />
    <glyph glyph-name="Acircumflex" unicode="&#xc2;" horiz-adv-x="601" 
d="M339 880l71 -134l-95 109l-105 -111l82 136h47zM297 703l221 -616c9 -23 19 -42 31 -57c25 -28 38 -29 51 -30h-184c2 0 75 2 51 75l-78 222l-235 -1l-69 -190c-25 -61 -10 -101 61 -106h-174c45 3 80 43 107 118l215 594zM272 591c-7 0 -18 -20 -32 -59l-82 -227l228 1
l-84 243c-10 28 -20 42 -30 42zM603 0h-3h3z" />
    <glyph glyph-name="Atilde" unicode="&#xc3;" horiz-adv-x="601" 
d="M220 826c-21 0 -53 -16 -62 -59c0 53 46 85 90 82c15 -2 33 -13 53 -33c21 -19 37 -29 50 -29c37 0 62 23 62 59c7 -43 -25 -85 -72 -85c-19 0 -40 11 -61 32c-21 22 -41 33 -60 33zM297 703l221 -616c9 -23 19 -42 31 -57c25 -28 38 -29 51 -30h-184c2 0 75 2 51 75
l-78 222l-235 -1l-69 -190c-25 -61 -10 -101 61 -106h-174c45 3 80 43 107 118l215 594zM272 591c-7 0 -18 -20 -32 -59l-82 -227l228 1l-84 243c-10 28 -20 42 -30 42zM603 0h-3h3z" />
    <glyph glyph-name="Adieresis" unicode="&#xc4;" horiz-adv-x="601" 
d="M195 845c44 3 44 -69 0 -67c-19 0 -33 15 -33 34s16 33 33 33zM385 845c44 3 44 -69 0 -67c-19 0 -33 15 -33 34s16 33 33 33zM297 703l221 -616c9 -23 19 -42 31 -57c25 -28 38 -29 51 -30h-184c2 0 75 2 51 75l-78 222l-235 -1l-69 -190c-25 -61 -10 -101 61 -106h-174
c45 3 80 43 107 118l215 594zM272 591c-7 0 -18 -20 -32 -59l-82 -227l228 1l-84 243c-10 28 -20 42 -30 42zM603 0h-3h3z" />
    <glyph glyph-name="Aring" unicode="&#xc5;" horiz-adv-x="601" 
d="M289 765c-33 0 -63 28 -63 63c0 36 28 65 63 65c36 0 65 -28 65 -65c0 -35 -29 -63 -65 -63zM290 881c-28 0 -51 -23 -51 -51c0 -27 23 -51 51 -51c27 0 51 24 51 51c0 28 -24 51 -51 51zM297 703l221 -616c9 -23 19 -42 31 -57c25 -28 38 -29 51 -30h-184
c2 0 75 2 51 75l-78 222l-235 -1l-69 -190c-25 -61 -10 -101 61 -106h-174c45 3 80 43 107 118l215 594zM272 591c-7 0 -18 -20 -32 -59l-82 -227l228 1l-84 243c-10 28 -20 42 -30 42zM603 0h-3h3z" />
    <glyph glyph-name="AE" unicode="&#xc6;" horiz-adv-x="845" 
d="M808 135l7 12l-41 -147h-461c5 0 60 2 60 77v232h-180l-95 -189c-37 -76 -27 -109 32 -120h-166c42 0 79 31 110 94l299 606h362l35 -124c-19 34 -42 60 -70 77c-18 11 -31 19 -39 22c-15 7 -64 16 -149 16h-89v-322h72c94 3 120 48 122 65l1 7v-154s0 73 -123 73h-72
v-281c0 -65 24 -70 52 -70h88c29 0 54 3 77 8c23 6 40 12 51 18s25 15 42 26c37 25 67 58 75 74zM297 525l-100 -207h176v255c0 16 4 50 -10 50c-13 0 -35 -33 -66 -98z" />
    <glyph glyph-name="Ccedilla" unicode="&#xc7;" horiz-adv-x="679" 
d="M412 1c-20 -1 -35 -2 -44 -1l-28 -43c61 -5 86 -36 81 -76c-10 -80 -118 -83 -160 -48c39 -17 122 -23 128 51c4 37 -31 58 -66 61l36 55h3c-65 3 -123 21 -173 56c-99 71 -145 175 -148 287c-1 113 36 208 99 265c64 59 143 91 234 98c37 2 71 1 104 -4
c55 -8 108 -30 128 -43l15 -10v-107c-1 5 -4 11 -21 35c-21 33 -63 76 -136 102c-83 29 -161 21 -232 -24c-87 -55 -140 -161 -135 -298c3 -94 35 -171 94 -230c60 -59 132 -88 217 -88c147 0 210 92 232 130l6 15c-3 -9 -5 -20 -32 -60c-13 -20 -27 -38 -43 -54
c-32 -31 -92 -64 -159 -69z" />
    <glyph glyph-name="Egrave" unicode="&#xc8;" horiz-adv-x="595" 
d="M343 747l-115 85c-19 16 -23 29 -12 40c12 13 30 6 42 -14zM479 61c37 25 67 58 75 74l7 12l-41 -147h-493c11 0 21 1 40 8c20 7 33 26 33 54v576c0 18 -6 32 -18 42c-23 21 -39 20 -55 20h454l35 -124c-19 34 -42 60 -70 77c-18 11 -31 19 -40 22c-16 7 -70 16 -167 16
h-89v-322h82c86 3 111 45 116 64l1 7v-148s-9 68 -117 68h-82v-281c0 -64 34 -70 62 -70h97c29 0 54 3 77 8c23 6 40 12 51 18s25 15 42 26z" />
    <glyph glyph-name="Eacute" unicode="&#xc9;" horiz-adv-x="595" 
d="M384 884c11 -11 7 -24 -12 -40l-115 -85l85 111c12 20 30 27 42 14zM479 61c37 25 67 58 75 74l7 12l-41 -147h-493c11 0 21 1 40 8c20 7 33 26 33 54v576c0 18 -6 32 -18 42c-23 21 -39 20 -55 20h454l35 -124c-19 34 -42 60 -70 77c-18 11 -31 19 -40 22
c-16 7 -70 16 -167 16h-89v-322h82c86 3 111 45 116 64l1 7v-148s-9 68 -117 68h-82v-281c0 -64 34 -70 62 -70h97c29 0 54 3 77 8c23 6 40 12 51 18s25 15 42 26z" />
    <glyph glyph-name="Ecircumflex" unicode="&#xca;" horiz-adv-x="595" 
d="M336 880l71 -134l-95 109l-105 -111l82 136h47zM479 61c37 25 67 58 75 74l7 12l-41 -147h-493c11 0 21 1 40 8c20 7 33 26 33 54v576c0 18 -6 32 -18 42c-23 21 -39 20 -55 20h454l35 -124c-19 34 -42 60 -70 77c-18 11 -31 19 -40 22c-16 7 -70 16 -167 16h-89v-322h82
c86 3 111 45 116 64l1 7v-148s-9 68 -117 68h-82v-281c0 -64 34 -70 62 -70h97c29 0 54 3 77 8c23 6 40 12 51 18s25 15 42 26z" />
    <glyph glyph-name="Edieresis" unicode="&#xcb;" horiz-adv-x="595" 
d="M195 845c44 3 44 -69 0 -67c-19 0 -33 15 -33 34s16 33 33 33zM385 845c44 3 44 -69 0 -67c-19 0 -33 15 -33 34s16 33 33 33zM479 61c37 25 67 58 75 74l7 12l-41 -147h-493c11 0 21 1 40 8c20 7 33 26 33 54v576c0 18 -6 32 -18 42c-23 21 -39 20 -55 20h454l35 -124
c-19 34 -42 60 -70 77c-18 11 -31 19 -40 22c-16 7 -70 16 -167 16h-89v-322h82c86 3 111 45 116 64l1 7v-148s-9 68 -117 68h-82v-281c0 -64 34 -70 62 -70h97c29 0 54 3 77 8c23 6 40 12 51 18s25 15 42 26z" />
    <glyph glyph-name="Igrave" unicode="&#xcc;" horiz-adv-x="269" 
d="M184 747l-115 85c-19 16 -23 29 -12 40c12 13 30 6 42 -14zM159 638v-576c0 -18 6 -32 17 -43c24 -20 40 -19 57 -19h-197c11 0 21 1 40 8c20 7 33 26 33 54v576c0 18 -6 32 -18 42c-23 21 -39 20 -55 20h197c-9 0 -17 -1 -26 -2c-17 -3 -48 -24 -48 -60z" />
    <glyph glyph-name="Iacute" unicode="&#xcd;" horiz-adv-x="269" 
d="M204 884c11 -11 7 -24 -12 -40l-115 -85l85 111c12 20 30 27 42 14zM159 638v-576c0 -18 6 -32 17 -43c24 -20 40 -19 57 -19h-197c11 0 21 1 40 8c20 7 33 26 33 54v576c0 18 -6 32 -18 42c-23 21 -39 20 -55 20h197c-9 0 -17 -1 -26 -2c-17 -3 -48 -24 -48 -60z" />
    <glyph glyph-name="Icircumflex" unicode="&#xce;" horiz-adv-x="269" 
d="M173 880l71 -134l-95 109l-105 -111l82 136h47zM159 638v-576c0 -18 6 -32 17 -43c24 -20 40 -19 57 -19h-197c11 0 21 1 40 8c20 7 33 26 33 54v576c0 18 -6 32 -18 42c-23 21 -39 20 -55 20h197c-9 0 -17 -1 -26 -2c-17 -3 -48 -24 -48 -60z" />
    <glyph glyph-name="Idieresis" unicode="&#xcf;" horiz-adv-x="269" 
d="M39 845c44 3 44 -69 0 -67c-19 0 -33 15 -33 34s16 33 33 33zM229 845c44 3 44 -69 0 -67c-19 0 -33 15 -33 34s16 33 33 33zM159 638v-576c0 -18 6 -32 17 -43c24 -20 40 -19 57 -19h-197c11 0 21 1 40 8c20 7 33 26 33 54v576c0 18 -6 32 -18 42c-23 21 -39 20 -55 20
h197c-9 0 -17 -1 -26 -2c-17 -3 -48 -24 -48 -60z" />
    <glyph glyph-name="Eth" unicode="&#xd0;" horiz-adv-x="653" 
d="M625 381c4 -95 -18 -183 -65 -258s-133 -123 -242 -123h-71h-211c11 0 21 1 40 8c20 7 33 26 33 54v290h-66l-12 9h78v271c0 31 -13 52 -33 59c-19 8 -28 9 -40 9h228c124 1 214 -22 270 -68s86 -130 91 -251zM266 11h54c60 2 109 20 148 53c79 67 107 172 104 313
c-3 105 -30 184 -67 228c-18 23 -41 41 -69 54c-56 27 -104 33 -172 33c-41 0 -76 -1 -105 -3v-328h104l-9 -9h-95v-277c0 -53 26 -64 107 -64z" />
    <glyph glyph-name="Ntilde" unicode="&#xd1;" horiz-adv-x="692" 
d="M290 826c-21 0 -53 -16 -62 -59c0 53 46 85 90 82c15 -2 33 -13 53 -33c21 -19 37 -29 50 -29c37 0 62 23 62 59c7 -43 -25 -85 -72 -85c-19 0 -40 11 -61 32c-21 22 -41 33 -60 33zM571 221v374c0 44 -15 76 -38 88c-21 13 -36 16 -51 17h183c-15 -1 -26 -4 -49 -17
c-21 -12 -36 -44 -36 -88v-595h-1l-13 19l-410 590c-11 15 -20 15 -27 0c-4 -8 -6 -21 -6 -38v-466c0 -59 38 -94 67 -101l22 -4h-186c5 0 10 0 30 8c27 12 58 39 58 99v458c0 120 -68 135 -83 135l-3 1h127l366 -521c15 -22 28 -32 38 -30c13 0 12 42 12 71z" />
    <glyph glyph-name="Ograve" unicode="&#xd2;" horiz-adv-x="790" 
d="M375 858l85 -111l-115 85c-19 16 -23 29 -12 40c12 13 30 6 42 -14zM410 708c115 0 206 -49 254 -122c49 -73 73 -158 70 -245c-3 -105 -37 -190 -103 -255c-65 -65 -148 -97 -248 -97c-119 0 -214 50 -266 123c-52 75 -77 159 -76 244c1 108 37 193 108 256
s158 95 261 96zM681 329c1 99 -24 183 -75 250c-50 67 -115 104 -195 111c-95 9 -171 -16 -229 -73s-87 -139 -87 -246c0 -95 27 -178 82 -249s122 -109 201 -116c99 -9 174 18 225 79s77 143 78 244z" />
    <glyph glyph-name="Oacute" unicode="&#xd3;" horiz-adv-x="790" 
d="M347 759l85 111c12 20 30 27 42 14c11 -11 7 -24 -12 -40zM410 708c-103 -1 -190 -33 -261 -96s-107 -148 -108 -256c-1 -85 24 -169 76 -244c52 -73 147 -123 266 -123c100 0 183 32 248 97c66 65 100 150 103 255c3 87 -21 172 -70 245c-48 73 -139 122 -254 122z
M681 329c-1 -101 -27 -183 -78 -244s-126 -88 -225 -79c-79 7 -146 45 -201 116s-82 154 -82 249c0 107 29 189 87 246s134 82 229 73c80 -7 145 -44 195 -111c51 -67 76 -151 75 -250z" />
    <glyph glyph-name="Ocircumflex" unicode="&#xd4;" horiz-adv-x="790" 
d="M304 744l82 136h47l71 -134l-95 109zM410 708c-103 -1 -190 -33 -261 -96s-107 -148 -108 -256c-1 -85 24 -169 76 -244c52 -73 147 -123 266 -123c100 0 183 32 248 97c66 65 100 150 103 255c3 87 -21 172 -70 245c-48 73 -139 122 -254 122zM681 329
c-1 -101 -27 -183 -78 -244s-126 -88 -225 -79c-79 7 -146 45 -201 116s-82 154 -82 249c0 107 29 189 87 246s134 82 229 73c80 -7 145 -44 195 -111c51 -67 76 -151 75 -250z" />
    <glyph glyph-name="Otilde" unicode="&#xd5;" horiz-adv-x="790" 
d="M264 767c0 53 46 85 90 82c15 -2 33 -13 53 -33c21 -19 37 -29 50 -29c37 0 62 23 62 59c7 -43 -25 -85 -72 -85c-19 0 -40 11 -61 32c-21 22 -41 33 -60 33c-21 0 -53 -16 -62 -59zM410 708c-103 -1 -190 -33 -261 -96s-107 -148 -108 -256c-1 -85 24 -169 76 -244
c52 -73 147 -123 266 -123c100 0 183 32 248 97c66 65 100 150 103 255c3 87 -21 172 -70 245c-48 73 -139 122 -254 122zM681 329c-1 -101 -27 -183 -78 -244s-126 -88 -225 -79c-79 7 -146 45 -201 116s-82 154 -82 249c0 107 29 189 87 246s134 82 229 73
c80 -7 145 -44 195 -111c51 -67 76 -151 75 -250z" />
    <glyph glyph-name="Odieresis" unicode="&#xd6;" horiz-adv-x="790" 
d="M305 845c44 3 44 -69 0 -67c-19 0 -33 15 -33 34s16 33 33 33zM495 845c44 3 44 -69 0 -67c-19 0 -33 15 -33 34s16 33 33 33zM410 708c115 0 206 -49 254 -122c49 -73 73 -158 70 -245c-3 -105 -37 -190 -103 -255c-65 -65 -148 -97 -248 -97c-119 0 -214 50 -266 123
c-52 75 -77 159 -76 244c1 108 37 193 108 256s158 95 261 96zM681 329c1 99 -24 183 -75 250c-50 67 -115 104 -195 111c-95 9 -171 -16 -229 -73s-87 -139 -87 -246c0 -95 27 -178 82 -249s122 -109 201 -116c99 -9 174 18 225 79s77 143 78 244z" />
    <glyph glyph-name="multiply" unicode="&#xd7;" horiz-adv-x="419" 
d="M357 500l7 -7l-147 -147l147 -148l-7 -7l-147 148l-148 -148l-7 7l148 148l-148 147l7 7l148 -147z" />
    <glyph glyph-name="Oslash" unicode="&#xd8;" horiz-adv-x="790" 
d="M688 701l-62 -71c76 -71 111 -181 108 -289c-3 -105 -37 -190 -103 -255c-65 -65 -148 -97 -248 -97c-96 0 -174 29 -234 88l-66 -77h-16l74 85c-68 71 -101 174 -100 271c1 108 37 193 108 256s158 95 261 96c85 0 154 -24 208 -71l55 64h15zM95 371
c0 -95 27 -177 80 -246l412 477c-47 53 -106 82 -176 88c-95 9 -171 -16 -229 -73s-87 -139 -87 -246zM681 329c1 108 -27 196 -86 264l-413 -478c55 -67 120 -103 196 -109c99 -9 174 18 225 79s77 143 78 244z" />
    <glyph glyph-name="Ugrave" unicode="&#xd9;" horiz-adv-x="636" 
d="M402 747l-115 85c-19 16 -23 29 -12 40c12 13 30 6 42 -14zM553 283v320c0 40 -15 69 -36 81c-20 12 -33 15 -46 16h169c-12 -1 -23 -4 -44 -16c-20 -12 -34 -41 -34 -81v-320c0 -11 0 -22 -1 -31c0 -17 -6 -67 -17 -100c-11 -32 -35 -78 -67 -105s-85 -48 -149 -48
c-51 0 -94 13 -125 29c-31 17 -55 52 -71 77c-7 13 -14 30 -19 51l-12 52c-3 14 -5 33 -6 57s-2 42 -2 53v52v16v232c0 23 -6 41 -17 54c-23 28 -41 28 -56 28h197c-13 0 -74 -6 -74 -82v-301c0 -192 65 -288 195 -288c143 0 215 85 215 254z" />
    <glyph glyph-name="Uacute" unicode="&#xda;" horiz-adv-x="636" 
d="M434 884c11 -11 7 -24 -12 -40l-115 -85l85 111c12 20 30 27 42 14zM553 283v320c0 40 -15 69 -36 81c-20 12 -33 15 -46 16h169c-12 -1 -23 -4 -44 -16c-20 -12 -34 -41 -34 -81v-320c0 -11 0 -22 -1 -31c0 -17 -6 -67 -17 -100c-11 -32 -35 -78 -67 -105
s-85 -48 -149 -48c-51 0 -94 13 -125 29c-31 17 -55 52 -71 77c-7 13 -14 30 -19 51l-12 52c-3 14 -5 33 -6 57s-2 42 -2 53v52v16v232c0 23 -6 41 -17 54c-23 28 -41 28 -56 28h197c-13 0 -74 -6 -74 -82v-301c0 -192 65 -288 195 -288c143 0 215 85 215 254z" />
    <glyph glyph-name="Ucircumflex" unicode="&#xdb;" horiz-adv-x="636" 
d="M356 880l71 -134l-95 109l-105 -111l82 136h47zM553 283v320c0 40 -15 69 -36 81c-20 12 -33 15 -46 16h169c-12 -1 -23 -4 -44 -16c-20 -12 -34 -41 -34 -81v-320c0 -11 0 -22 -1 -31c0 -17 -6 -67 -17 -100c-11 -32 -35 -78 -67 -105s-85 -48 -149 -48
c-51 0 -94 13 -125 29c-31 17 -55 52 -71 77c-7 13 -14 30 -19 51l-12 52c-3 14 -5 33 -6 57s-2 42 -2 53v52v16v232c0 23 -6 41 -17 54c-23 28 -41 28 -56 28h197c-13 0 -74 -6 -74 -82v-301c0 -192 65 -288 195 -288c143 0 215 85 215 254z" />
    <glyph glyph-name="Udieresis" unicode="&#xdc;" horiz-adv-x="636" 
d="M278 788c-30 -33 -78 20 -48 47c31 31 79 -16 48 -47zM468 788c-30 -33 -78 20 -48 47c31 31 79 -16 48 -47zM553 283v320c0 40 -15 69 -36 81c-20 12 -33 15 -46 16h169c-12 -1 -23 -4 -44 -16c-20 -12 -34 -41 -34 -81v-320c0 -11 0 -22 -1 -31c0 -17 -6 -67 -17 -100
c-11 -32 -35 -78 -67 -105s-85 -48 -149 -48c-51 0 -94 13 -125 29c-31 17 -55 52 -71 77c-7 13 -14 30 -19 51l-12 52c-3 14 -5 33 -6 57s-2 42 -2 53v52v16v232c0 23 -6 41 -17 54c-23 28 -41 28 -56 28h197c-13 0 -74 -6 -74 -82v-301c0 -192 65 -288 195 -288
c143 0 215 85 215 254z" />
    <glyph glyph-name="Yacute" unicode="&#xdd;" horiz-adv-x="539" 
d="M374 884c11 -11 7 -24 -12 -40l-115 -85l85 111c12 20 30 27 42 14zM-35 700h-1h1zM395 700h174c-46 -11 -84 -44 -114 -99l-124 -223c-20 -37 -30 -73 -30 -110v-205c0 -22 8 -38 24 -48c17 -9 33 -14 48 -15h-199c15 0 31 5 49 14c19 9 28 24 29 45l1 210
c0 24 -7 48 -21 72l-170 298c-25 43 -69 61 -97 61l199 -1c-47 -4 -59 -37 -34 -80l147 -257c11 -17 24 -15 35 4l115 207c43 73 32 116 -32 127z" />
    <glyph glyph-name="Thorn" unicode="&#xde;" horiz-adv-x="512" 
d="M447 473c17 -45 20 -90 9 -133s-32 -75 -61 -96c-53 -40 -138 -53 -217 -30c116 -16 237 21 237 168c0 136 -73 188 -222 179c-10 0 -26 -1 -47 -4v-495c0 -18 6 -32 17 -43c24 -20 40 -19 57 -19h-196c11 0 21 1 40 8c20 7 33 26 33 54v576c0 18 -6 32 -18 42
c-23 21 -39 20 -55 20h196c-9 0 -17 -1 -26 -2c-17 -3 -48 -24 -48 -60v-74c10 1 26 3 47 4c133 11 217 -10 254 -95z" />
    <glyph glyph-name="germandbls" unicode="&#xdf;" horiz-adv-x="509" 
d="M464 161c1 -46 -12 -86 -38 -119s-63 -49 -111 -49c-71 0 -114 29 -114 69c0 21 13 31 28 31c5 0 9 -1 13 -4c9 -7 14 -20 14 -40c0 -31 33 -50 76 -47c56 3 95 44 96 120c2 85 -44 144 -138 175c-49 17 -72 43 -68 79c8 66 111 56 126 193c3 22 3 43 -1 62
c-8 39 -42 76 -101 76c-63 0 -95 -48 -95 -143v-515c0 -33 21 -49 63 -49h-169c9 0 16 1 33 6s29 20 29 43v511c0 112 52 155 156 152c118 -3 143 -104 127 -163c-16 -61 -57 -105 -92 -122c-35 -16 -67 -33 -70 -49c-1 -12 3 -22 16 -27c15 -6 45 -12 68 -17
c100 -28 151 -86 152 -173z" />
    <glyph glyph-name="agrave" unicode="&#xe0;" horiz-adv-x="466" 
d="M217 623l85 -111l-115 85c-19 16 -23 29 -12 40c12 13 30 6 42 -14zM347 79v188c-71 -20 -112 -34 -165 -61c-53 -25 -83 -58 -86 -97c-4 -49 32 -94 100 -93c43 1 92 21 147 61c-17 -17 -31 -30 -44 -40c-24 -20 -81 -47 -134 -47c-41 0 -71 12 -90 35
c-19 24 -28 50 -25 79c0 45 36 79 75 100c24 15 74 30 102 38c15 5 35 10 61 17l59 17v56c0 96 -55 132 -124 119c-28 -5 -53 -16 -75 -33c-21 -17 -32 -34 -32 -53c0 -11 10 -28 10 -39c1 -21 -13 -35 -32 -35c-17 0 -33 11 -32 38s17 54 50 79c33 26 70 43 111 51
c111 23 167 -23 167 -138v-258c0 -59 51 -47 71 -2c-16 -43 -33 -64 -66 -64c-37 0 -48 25 -48 82z" />
    <glyph glyph-name="aacute" unicode="&#xe1;" horiz-adv-x="466" 
d="M185 512l85 111c12 20 30 27 42 14c11 -11 7 -24 -12 -40zM347 79c0 -57 11 -82 48 -82c33 0 50 21 66 64c-20 -45 -71 -57 -71 2v258c0 115 -56 161 -167 138c-41 -8 -78 -25 -111 -51c-33 -25 -49 -52 -50 -79s15 -38 32 -38c19 0 33 14 32 35c0 11 -10 28 -10 39
c0 19 11 36 32 53c22 17 47 28 75 33c69 13 124 -23 124 -119v-56l-59 -17c-26 -7 -46 -12 -61 -17c-28 -8 -78 -23 -102 -38c-39 -21 -75 -55 -75 -100c-3 -29 6 -55 25 -79c19 -23 49 -35 90 -35c53 0 110 27 134 47c13 10 27 23 44 40c-55 -40 -104 -60 -147 -61
c-68 -1 -104 44 -100 93c3 39 33 72 86 97c53 27 94 41 165 61v-188z" />
    <glyph glyph-name="acircumflex" unicode="&#xe2;" horiz-adv-x="466" 
d="M142 494l82 136h47l71 -134l-95 109zM347 79c0 -57 11 -82 48 -82c33 0 50 21 66 64c-20 -45 -71 -57 -71 2v258c0 115 -56 161 -167 138c-41 -8 -78 -25 -111 -51c-33 -25 -49 -52 -50 -79s15 -38 32 -38c19 0 33 14 32 35c0 11 -10 28 -10 39c0 19 11 36 32 53
c22 17 47 28 75 33c69 13 124 -23 124 -119v-56l-59 -17c-26 -7 -46 -12 -61 -17c-28 -8 -78 -23 -102 -38c-39 -21 -75 -55 -75 -100c-3 -29 6 -55 25 -79c19 -23 49 -35 90 -35c53 0 110 27 134 47c13 10 27 23 44 40c-55 -40 -104 -60 -147 -61c-68 -1 -104 44 -100 93
c3 39 33 72 86 97c53 27 94 41 165 61v-188z" />
    <glyph glyph-name="atilde" unicode="&#xe3;" horiz-adv-x="466" 
d="M108 534c0 53 46 85 90 82c15 -2 33 -13 53 -33c21 -19 37 -29 50 -29c37 0 62 23 62 59c7 -43 -25 -85 -72 -85c-19 0 -40 11 -61 32c-21 22 -41 33 -60 33c-21 0 -53 -16 -62 -59zM347 79c0 -57 11 -82 48 -82c33 0 50 21 66 64c-20 -45 -71 -57 -71 2v258
c0 115 -56 161 -167 138c-41 -8 -78 -25 -111 -51c-33 -25 -49 -52 -50 -79s15 -38 32 -38c19 0 33 14 32 35c0 11 -10 28 -10 39c0 19 11 36 32 53c22 17 47 28 75 33c69 13 124 -23 124 -119v-56l-59 -17c-26 -7 -46 -12 -61 -17c-28 -8 -78 -23 -102 -38
c-39 -21 -75 -55 -75 -100c-3 -29 6 -55 25 -79c19 -23 49 -35 90 -35c53 0 110 27 134 47c13 10 27 23 44 40c-55 -40 -104 -60 -147 -61c-68 -1 -104 44 -100 93c3 39 33 72 86 97c53 27 94 41 165 61v-188z" />
    <glyph glyph-name="adieresis" unicode="&#xe4;" horiz-adv-x="466" 
d="M172 550c-30 -33 -78 20 -48 47c31 31 79 -16 48 -47zM362 550c-30 -33 -78 20 -48 47c31 31 79 -16 48 -47zM347 79v188c-71 -20 -112 -34 -165 -61c-53 -25 -83 -58 -86 -97c-4 -49 32 -94 100 -93c43 1 92 21 147 61c-17 -17 -31 -30 -44 -40
c-24 -20 -81 -47 -134 -47c-41 0 -71 12 -90 35c-19 24 -28 50 -25 79c0 45 36 79 75 100c24 15 74 30 102 38c15 5 35 10 61 17l59 17v56c0 96 -55 132 -124 119c-28 -5 -53 -16 -75 -33c-21 -17 -32 -34 -32 -53c0 -11 10 -28 10 -39c1 -21 -13 -35 -32 -35
c-17 0 -33 11 -32 38s17 54 50 79c33 26 70 43 111 51c111 23 167 -23 167 -138v-258c0 -59 51 -47 71 -2c-16 -43 -33 -64 -66 -64c-37 0 -48 25 -48 82z" />
    <glyph glyph-name="aring" unicode="&#xe5;" horiz-adv-x="466" 
d="M240 509c-35 0 -63 28 -63 63c0 36 28 65 63 65c36 0 65 -28 65 -65c0 -35 -29 -63 -65 -63zM241 523c27 0 51 24 51 51c0 28 -24 51 -51 51c-28 0 -51 -23 -51 -51c0 -27 23 -51 51 -51zM347 79v188c-71 -20 -112 -34 -165 -61c-53 -25 -83 -58 -86 -97
c-4 -49 32 -94 100 -93c43 1 92 21 147 61c-17 -17 -31 -30 -44 -40c-24 -20 -81 -47 -134 -47c-41 0 -71 12 -90 35c-19 24 -28 50 -25 79c0 45 36 79 75 100c24 15 74 30 102 38c15 5 35 10 61 17l59 17v56c0 96 -55 132 -124 119c-28 -5 -53 -16 -75 -33
c-21 -17 -32 -34 -32 -53c0 -11 10 -28 10 -39c1 -21 -13 -35 -32 -35c-17 0 -33 11 -32 38s17 54 50 79c33 26 70 43 111 51c111 23 167 -23 167 -138v-258c0 -59 51 -47 71 -2c-16 -43 -33 -64 -66 -64c-37 0 -48 25 -48 82z" />
    <glyph glyph-name="ae" unicode="&#xe6;" horiz-adv-x="778" 
d="M366 91c-63 -72 -121 -99 -188 -99c-39 0 -70 12 -91 35s-31 49 -30 77c1 18 5 34 14 49c19 29 39 45 83 62c22 9 41 16 58 21l68 19c29 8 52 14 67 19v55c0 47 -12 80 -35 98c-23 19 -50 26 -80 23c-29 -3 -54 -13 -77 -29c-23 -15 -34 -33 -34 -53c0 -11 10 -29 10 -40
c1 -21 -14 -36 -31 -36c-21 0 -31 13 -30 39c1 24 20 51 57 81c30 25 67 40 110 47c71 11 136 -18 153 -91c18 25 39 46 63 61c33 21 69 31 108 31c49 -1 89 -20 120 -58c31 -37 46 -86 45 -147h-334c-3 -59 9 -111 38 -155c29 -43 71 -67 125 -70c83 -5 141 27 174 96
c-21 -76 -94 -135 -179 -135c-72 0 -144 44 -173 108c-13 27 -21 52 -25 73c-3 22 -5 53 -5 94l-45 -15l-49 -16c-9 -3 -23 -9 -42 -17c-37 -16 -48 -26 -71 -45s-30 -41 -30 -66c0 -49 27 -90 91 -91c60 -1 105 19 165 75zM393 265c105 0 171 1 200 3c43 3 71 13 83 31
c11 18 17 71 -30 118c-23 24 -54 36 -92 36c-37 1 -70 -10 -97 -32c-44 -37 -61 -79 -64 -156z" />
    <glyph glyph-name="ccedilla" unicode="&#xe7;" horiz-adv-x="496" 
d="M273 -9h-3l-22 -34c61 -5 86 -36 81 -76c-10 -80 -118 -83 -160 -48c39 -17 122 -23 128 51c4 37 -31 58 -66 61l30 46c-60 3 -111 24 -154 64s-64 94 -65 163c-1 56 13 104 42 145c59 81 150 112 243 100c29 -4 55 -15 78 -32s35 -37 35 -61s-16 -38 -35 -37
c-27 1 -41 27 -33 51c11 41 -33 70 -86 73c-65 3 -117 -20 -156 -70s-53 -112 -42 -185c16 -107 90 -169 185 -174c79 -4 154 25 195 100c-28 -80 -102 -137 -195 -137z" />
    <glyph glyph-name="egrave" unicode="&#xe8;" horiz-adv-x="499" 
d="M218 623l85 -111l-115 85c-19 16 -23 29 -12 40c12 13 30 6 42 -14zM269 30c87 -6 149 27 186 98c-11 -38 -35 -70 -71 -97c-35 -27 -76 -40 -121 -40c-57 0 -108 21 -152 64c-43 43 -66 99 -67 170c-2 93 35 162 112 209c35 21 74 32 119 32c53 -1 96 -20 129 -58
s49 -88 48 -149h-362c0 -65 16 -118 48 -161c33 -42 76 -65 131 -68zM160 426c-43 -31 -67 -84 -70 -158c115 0 188 1 219 3c47 3 77 14 89 33c13 20 18 71 -31 118c-27 25 -61 37 -102 37c-41 1 -76 -10 -105 -33z" />
    <glyph glyph-name="eacute" unicode="&#xe9;" horiz-adv-x="499" 
d="M217 512l85 111c12 20 30 27 42 14c11 -11 7 -24 -12 -40zM269 30c-55 3 -98 26 -131 68c-32 43 -48 96 -48 161h362c1 61 -15 111 -48 149s-76 57 -129 58c-45 0 -84 -11 -119 -32c-77 -47 -114 -116 -112 -209c1 -71 24 -127 67 -170c44 -43 95 -64 152 -64
c45 0 86 13 121 40c36 27 60 59 71 97c-37 -71 -99 -104 -186 -98zM160 426c29 23 64 34 105 33c41 0 75 -12 102 -37c49 -47 44 -98 31 -118c-12 -19 -42 -30 -89 -33c-31 -2 -104 -3 -219 -3c3 74 27 127 70 158z" />
    <glyph glyph-name="ecircumflex" unicode="&#xea;" horiz-adv-x="499" 
d="M159 494l82 136h47l71 -134l-95 109zM269 30c-55 3 -98 26 -131 68c-32 43 -48 96 -48 161h362c1 61 -15 111 -48 149s-76 57 -129 58c-45 0 -84 -11 -119 -32c-77 -47 -114 -116 -112 -209c1 -71 24 -127 67 -170c44 -43 95 -64 152 -64c45 0 86 13 121 40
c36 27 60 59 71 97c-37 -71 -99 -104 -186 -98zM160 426c29 23 64 34 105 33c41 0 75 -12 102 -37c49 -47 44 -98 31 -118c-12 -19 -42 -30 -89 -33c-31 -2 -104 -3 -219 -3c3 74 27 127 70 158z" />
    <glyph glyph-name="edieresis" unicode="&#xeb;" horiz-adv-x="499" 
d="M192 550c-30 -33 -78 20 -48 47c31 31 79 -16 48 -47zM382 550c-30 -33 -78 20 -48 47c31 31 79 -16 48 -47zM269 30c87 -6 149 27 186 98c-11 -38 -35 -70 -71 -97c-35 -27 -76 -40 -121 -40c-57 0 -108 21 -152 64c-43 43 -66 99 -67 170c-2 93 35 162 112 209
c35 21 74 32 119 32c53 -1 96 -20 129 -58s49 -88 48 -149h-362c0 -65 16 -118 48 -161c33 -42 76 -65 131 -68zM160 426c-43 -31 -67 -84 -70 -158c115 0 188 1 219 3c47 3 77 14 89 33c13 20 18 71 -31 118c-27 25 -61 37 -102 37c-41 1 -76 -10 -105 -33z" />
    <glyph glyph-name="igrave" unicode="&#xec;" horiz-adv-x="257" 
d="M197 512l-115 85c-19 16 -23 29 -12 40c12 13 30 6 42 -14zM151 467v-418c0 -33 21 -49 63 -49h-168c7 0 62 0 62 49v307c0 36 -10 54 -30 54z" />
    <glyph glyph-name="iacute" unicode="&#xed;" horiz-adv-x="257" 
d="M181 637c11 -11 7 -24 -12 -40l-115 -85l85 111c12 20 30 27 42 14zM151 467v-418c0 -33 21 -49 63 -49h-168c7 0 62 0 62 49v307c0 36 -10 54 -30 54z" />
    <glyph glyph-name="icircumflex" unicode="&#xee;" horiz-adv-x="257" 
d="M167 630l71 -134l-95 109l-105 -111l82 136h47zM151 467v-418c0 -33 21 -49 63 -49h-168c7 0 62 0 62 49v307c0 36 -10 54 -30 54z" />
    <glyph glyph-name="idieresis" unicode="&#xef;" horiz-adv-x="257" 
d="M58 597c33 -27 -19 -80 -48 -47c-30 30 18 79 48 47zM200 597c31 31 79 -16 48 -47c-30 -33 -78 20 -48 47zM151 467v-418c0 -33 21 -49 63 -49h-168c7 0 62 0 62 49v307c0 36 -10 54 -30 54z" />
    <glyph glyph-name="eth" unicode="&#xf0;" horiz-adv-x="528" 
d="M480 276c6 -83 -11 -150 -51 -200c-39 -50 -93 -77 -161 -81c-43 -3 -86 4 -135 27c-48 24 -89 78 -105 154c-13 66 -4 125 27 177c32 53 79 87 142 102c79 19 145 9 198 -28c-11 47 -32 96 -63 148l-109 -62l-15 2l119 67c-39 63 -79 108 -122 134
c50 -23 98 -63 145 -121l60 34l-3 -12l-52 -29c75 -95 116 -199 125 -312zM284 4c61 5 104 33 129 82c25 50 32 109 21 176s-36 119 -77 154c-40 36 -91 47 -153 33c-39 -9 -69 -28 -91 -59c-44 -60 -50 -125 -41 -186c11 -73 36 -126 77 -158s86 -46 135 -42z" />
    <glyph glyph-name="ntilde" unicode="&#xf1;" 
d="M208 593c-21 0 -53 -16 -62 -59c0 53 46 85 90 82c15 -2 33 -13 53 -33c21 -19 37 -29 50 -29c37 0 62 23 62 59c7 -43 -25 -85 -72 -85c-19 0 -40 11 -61 32c-21 22 -41 33 -60 33zM137 466v-417c0 -23 12 -38 29 -43c19 -5 25 -6 34 -6h-168c7 0 62 0 62 49v312
c0 40 -29 45 -35 44zM436 266v-217c0 -23 12 -38 29 -43c19 -5 25 -6 34 -6h-169c7 0 62 0 62 49v222v13c0 17 0 30 -1 39c0 17 -1 49 -8 62c-10 24 -25 42 -60 48c-49 8 -122 -28 -182 -77c27 30 59 56 95 78c37 22 73 31 108 28c36 -3 61 -22 73 -39c6 -8 10 -21 13 -40
s5 -33 5 -43c1 -10 1 -27 1 -52v-22z" />
    <glyph glyph-name="ograve" unicode="&#xf2;" 
d="M224 623l85 -111l-115 85c-19 16 -23 29 -12 40c12 13 30 6 42 -14zM288 -8c-32 -1 -61 2 -104 15c-59 20 -118 64 -139 159c-15 67 -7 127 23 180c30 54 76 90 137 107c72 20 136 13 192 -20s89 -89 99 -168c9 -74 -7 -138 -50 -191c-42 -53 -95 -80 -158 -82zM448 275
c-11 62 -40 110 -87 144c-46 35 -99 43 -160 25c-35 -10 -62 -29 -83 -57c-40 -55 -43 -123 -31 -195c13 -65 40 -112 81 -143c41 -30 86 -44 136 -43c126 3 169 128 144 269z" />
    <glyph glyph-name="oacute" unicode="&#xf3;" 
d="M217 512l85 111c12 20 30 27 42 14c11 -11 7 -24 -12 -40zM288 -8c63 2 116 29 158 82c43 53 59 117 50 191c-10 79 -43 135 -99 168s-120 40 -192 20c-61 -17 -107 -53 -137 -107c-30 -53 -38 -113 -23 -180c21 -95 80 -139 139 -159c43 -13 72 -16 104 -15zM448 275
c25 -141 -18 -266 -144 -269c-50 -1 -95 13 -136 43c-41 31 -68 78 -81 143c-12 72 -9 140 31 195c21 28 48 47 83 57c61 18 114 10 160 -25c47 -34 76 -82 87 -144z" />
    <glyph glyph-name="ocircumflex" unicode="&#xf4;" 
d="M170 494l82 136h47l71 -134l-95 109zM288 -8c63 2 116 29 158 82c43 53 59 117 50 191c-10 79 -43 135 -99 168s-120 40 -192 20c-61 -17 -107 -53 -137 -107c-30 -53 -38 -113 -23 -180c21 -95 80 -139 139 -159c43 -13 72 -16 104 -15zM448 275
c25 -141 -18 -266 -144 -269c-50 -1 -95 13 -136 43c-41 31 -68 78 -81 143c-12 72 -9 140 31 195c21 28 48 47 83 57c61 18 114 10 160 -25c47 -34 76 -82 87 -144z" />
    <glyph glyph-name="otilde" unicode="&#xf5;" 
d="M142 534c0 53 46 85 90 82c15 -2 33 -13 53 -33c21 -19 37 -29 50 -29c37 0 62 23 62 59c7 -43 -25 -85 -72 -85c-19 0 -40 11 -61 32c-21 22 -41 33 -60 33c-21 0 -53 -16 -62 -59zM288 -8c63 2 116 29 158 82c43 53 59 117 50 191c-10 79 -43 135 -99 168
s-120 40 -192 20c-61 -17 -107 -53 -137 -107c-30 -53 -38 -113 -23 -180c21 -95 80 -139 139 -159c43 -13 72 -16 104 -15zM448 275c25 -141 -18 -266 -144 -269c-50 -1 -95 13 -136 43c-41 31 -68 78 -81 143c-12 72 -9 140 31 195c21 28 48 47 83 57
c61 18 114 10 160 -25c47 -34 76 -82 87 -144z" />
    <glyph glyph-name="odieresis" unicode="&#xf6;" 
d="M179 607c44 3 44 -69 0 -67c-19 0 -33 15 -33 34s16 33 33 33zM369 607c44 3 44 -69 0 -67c-19 0 -33 15 -33 34s16 33 33 33zM288 -8c-32 -1 -61 2 -104 15c-59 20 -118 64 -139 159c-15 67 -7 127 23 180c30 54 76 90 137 107c72 20 136 13 192 -20s89 -89 99 -168
c9 -74 -7 -138 -50 -191c-42 -53 -95 -80 -158 -82zM448 275c-11 62 -40 110 -87 144c-46 35 -99 43 -160 25c-35 -10 -62 -29 -83 -57c-40 -55 -43 -123 -31 -195c13 -65 40 -112 81 -143c41 -30 86 -44 136 -43c126 3 169 128 144 269z" />
    <glyph glyph-name="divide" unicode="&#xf7;" horiz-adv-x="495" 
d="M248 372c-19 0 -33 16 -33 33s16 32 33 32c41 0 41 -65 0 -65zM55 260v9h385v-9h-385zM248 92c-19 0 -33 16 -33 33s16 32 33 32c41 0 41 -65 0 -65z" />
    <glyph glyph-name="oslash" unicode="&#xf8;" 
d="M496 265c9 -74 -7 -138 -50 -191c-42 -53 -95 -80 -158 -82c-75 -2 -135 17 -179 58l-45 -50h-13l51 57c-28 28 -47 64 -57 109c-15 67 -7 127 23 180c30 54 76 90 137 107c88 25 161 12 219 -39l33 37h12l-39 -43c36 -34 58 -82 66 -143zM87 192c9 -41 23 -76 44 -104
l267 297c-48 57 -114 80 -197 59c-35 -10 -62 -29 -83 -57c-40 -55 -43 -123 -31 -195zM304 6c126 3 169 128 144 269c-7 38 -22 72 -45 103l-266 -297c41 -51 96 -76 167 -75z" />
    <glyph glyph-name="ugrave" unicode="&#xf9;" horiz-adv-x="509" 
d="M296 512l-115 85c-19 16 -23 29 -12 40c12 13 30 6 42 -14zM186 19c25 -4 55 1 90 16c36 15 68 35 97 59c-27 -29 -59 -54 -98 -76c-38 -22 -75 -31 -110 -28c-38 4 -62 19 -74 46c-8 21 -12 29 -15 60c-1 15 -1 27 -1 34v38v16v217c0 23 -11 38 -30 43
c-17 5 -24 6 -33 6h107v-49v-222v-43c1 -16 3 -53 8 -66c8 -23 25 -49 59 -51zM380 61v340c0 49 -55 49 -62 49h105v-364c0 -40 26 -35 33 -35l-76 -60v70z" />
    <glyph glyph-name="uacute" unicode="&#xfa;" horiz-adv-x="509" 
d="M338 637c11 -11 7 -24 -12 -40l-115 -85l85 111c12 20 30 27 42 14zM186 19c25 -4 55 1 90 16c36 15 68 35 97 59c-27 -29 -59 -54 -98 -76c-38 -22 -75 -31 -110 -28c-38 4 -62 19 -74 46c-8 21 -12 29 -15 60c-1 15 -1 27 -1 34v38v16v217c0 23 -11 38 -30 43
c-17 5 -24 6 -33 6h107v-49v-222v-43c1 -16 3 -53 8 -66c8 -23 25 -49 59 -51zM380 61v340c0 49 -55 49 -62 49h105v-364c0 -40 26 -35 33 -35l-76 -60v70z" />
    <glyph glyph-name="ucircumflex" unicode="&#xfb;" horiz-adv-x="509" 
d="M293 630l71 -134l-95 109l-105 -111l82 136h47zM186 19c25 -4 55 1 90 16c36 15 68 35 97 59c-27 -29 -59 -54 -98 -76c-38 -22 -75 -31 -110 -28c-38 4 -62 19 -74 46c-8 21 -12 29 -15 60c-1 15 -1 27 -1 34v38v16v217c0 23 -11 38 -30 43c-17 5 -24 6 -33 6h107v-49
v-222v-43c1 -16 3 -53 8 -66c8 -23 25 -49 59 -51zM380 61v340c0 49 -55 49 -62 49h105v-364c0 -40 26 -35 33 -35l-76 -60v70z" />
    <glyph glyph-name="udieresis" unicode="&#xfc;" horiz-adv-x="509" 
d="M174 550c-30 -33 -78 20 -48 47c31 31 79 -16 48 -47zM364 550c-30 -33 -78 20 -48 47c31 31 79 -16 48 -47zM186 19c25 -4 55 1 90 16c36 15 68 35 97 59c-27 -29 -59 -54 -98 -76c-38 -22 -75 -31 -110 -28c-38 4 -62 19 -74 46c-8 21 -12 29 -15 60c-1 15 -1 27 -1 34
v38v16v217c0 23 -11 38 -30 43c-17 5 -24 6 -33 6h107v-49v-222v-43c1 -16 3 -53 8 -66c8 -23 25 -49 59 -51zM380 61v340c0 49 -55 49 -62 49h105v-364c0 -40 26 -35 33 -35l-76 -60v70z" />
    <glyph glyph-name="yacute" unicode="&#xfd;" horiz-adv-x="440" 
d="M338 637c11 -11 7 -24 -12 -40l-115 -85l85 111c12 20 30 27 42 14zM335 450h130c-17 -5 -32 -15 -45 -32c-8 -8 -17 -24 -28 -48l-154 -380l-68 -166c-12 -29 -31 -41 -56 -38c-21 3 -33 22 -28 41c5 15 17 23 34 22c11 -1 24 -15 31 -15c10 0 19 10 28 29l56 133
l-179 411c-15 25 -39 41 -54 42l-10 1h143c0 1 -43 -4 -31 -42l117 -277c11 -25 23 -38 34 -38c18 0 29 33 39 53l87 217l4 12c16 42 -1 67 -50 75z" />
    <glyph glyph-name="thorn" unicode="&#xfe;" horiz-adv-x="535" 
d="M485 235c1 -68 -20 -125 -61 -171s-91 -70 -150 -71c-63 -2 -116 19 -157 63v-222c0 -23 12 -38 29 -43c19 -5 25 -6 34 -6h-169c9 0 16 1 33 6s29 20 29 43v770c0 55 -28 49 -33 49l77 60v-95v-418c0 -153 89 -197 169 -195c96 4 163 69 160 214c-1 76 -19 131 -54 165
c-34 35 -74 51 -120 50c-75 -3 -125 -58 -141 -81l-6 -9c3 7 5 14 25 39c27 34 69 74 136 78c113 7 198 -71 199 -226z" />
    <glyph glyph-name="ydieresis" unicode="&#xff;" horiz-adv-x="440" 
d="M149 607c44 3 44 -69 0 -67c-19 0 -33 15 -33 34s16 33 33 33zM339 607c44 3 44 -69 0 -67c-19 0 -33 15 -33 34s16 33 33 33zM335 450h130c-17 -5 -32 -15 -45 -32c-8 -8 -17 -24 -28 -48l-154 -380l-68 -166c-12 -29 -31 -41 -56 -38c-21 3 -33 22 -28 41
c5 15 17 23 34 22c11 -1 24 -15 31 -15c10 0 19 10 28 29l56 133l-179 411c-15 25 -39 41 -54 42l-10 1h143c0 1 -43 -4 -31 -42l117 -277c11 -25 23 -38 34 -38c18 0 29 33 39 53l87 217l4 12c16 42 -1 67 -50 75z" />
    <glyph glyph-name="Amacron" unicode="&#x100;" horiz-adv-x="601" 
d="M195 796l197 1v-8h-197v7zM297 703l221 -616c9 -23 19 -42 31 -57c25 -28 38 -29 51 -30h-184c2 0 75 2 51 75l-78 222l-235 -1l-69 -190c-25 -61 -10 -101 61 -106h-174c45 3 80 43 107 118l215 594zM272 591c-7 0 -18 -20 -32 -59l-82 -227l228 1l-84 243
c-10 28 -20 42 -30 42zM603 0h-3h3z" />
    <glyph glyph-name="amacron" unicode="&#x101;" horiz-adv-x="466" 
d="M145 540v7l197 1v-8h-197zM347 79v188c-71 -20 -112 -34 -165 -61c-53 -25 -83 -58 -86 -97c-4 -49 32 -94 100 -93c43 1 92 21 147 61c-17 -17 -31 -30 -44 -40c-24 -20 -81 -47 -134 -47c-41 0 -71 12 -90 35c-19 24 -28 50 -25 79c0 45 36 79 75 100
c24 15 74 30 102 38c15 5 35 10 61 17l59 17v56c0 96 -55 132 -124 119c-28 -5 -53 -16 -75 -33c-21 -17 -32 -34 -32 -53c0 -11 10 -28 10 -39c1 -21 -13 -35 -32 -35c-17 0 -33 11 -32 38s17 54 50 79c33 26 70 43 111 51c111 23 167 -23 167 -138v-258
c0 -59 51 -47 71 -2c-16 -43 -33 -64 -66 -64c-37 0 -48 25 -48 82z" />
    <glyph glyph-name="Abreve" unicode="&#x102;" horiz-adv-x="601" 
d="M293 782c-60 0 -100 43 -101 100c18 -46 51 -69 99 -69c51 0 85 23 100 69c-1 -52 -39 -100 -98 -100zM297 703l221 -616c9 -23 19 -42 31 -57c25 -28 38 -29 51 -30h-184c2 0 75 2 51 75l-78 222l-235 -1l-69 -190c-25 -61 -10 -101 61 -106h-174c45 3 80 43 107 118
l215 594zM272 591c-7 0 -18 -20 -32 -59l-82 -227l228 1l-84 243c-10 28 -20 42 -30 42zM603 0h-3h3z" />
    <glyph glyph-name="abreve" unicode="&#x103;" horiz-adv-x="466" 
d="M244 572c51 0 85 23 100 69c-1 -52 -39 -100 -98 -100c-60 0 -100 43 -101 100c18 -46 51 -69 99 -69zM347 79c0 -57 11 -82 48 -82c33 0 50 21 66 64c-20 -45 -71 -57 -71 2v258c0 115 -56 161 -167 138c-41 -8 -78 -25 -111 -51c-33 -25 -49 -52 -50 -79s15 -38 32 -38
c19 0 33 14 32 35c0 11 -10 28 -10 39c0 19 11 36 32 53c22 17 47 28 75 33c69 13 124 -23 124 -119v-56l-59 -17c-26 -7 -46 -12 -61 -17c-28 -8 -78 -23 -102 -38c-39 -21 -75 -55 -75 -100c-3 -29 6 -55 25 -79c19 -23 49 -35 90 -35c53 0 110 27 134 47
c13 10 27 23 44 40c-55 -40 -104 -60 -147 -61c-68 -1 -104 44 -100 93c3 39 33 72 86 97c53 27 94 41 165 61v-188z" />
    <glyph glyph-name="Aogonek" unicode="&#x104;" horiz-adv-x="601" 
d="M600 0h-53c-40 -20 -73 -65 -68 -106c9 -66 67 -68 108 -51c-42 -35 -134 -26 -145 48c-7 39 10 76 50 109h-76c2 0 75 2 51 75l-78 222l-235 -1l-69 -190c-25 -61 -10 -101 61 -106h-174c45 3 80 43 107 118l215 594l3 -9l221 -616c9 -23 19 -42 31 -57
c25 -28 38 -29 51 -30zM272 591c-7 0 -18 -20 -32 -59l-82 -227l228 1l-84 243c-10 28 -20 42 -30 42zM603 0h-3h3z" />
    <glyph glyph-name="aogonek" unicode="&#x105;" horiz-adv-x="466" 
d="M390 321v-258c0 -59 51 -47 71 -2c-16 -43 -33 -64 -66 -64c-37 0 -48 25 -48 82v188c-71 -20 -112 -34 -165 -61c-53 -25 -83 -58 -86 -97c-4 -49 32 -94 100 -93c43 1 92 21 147 61c-43 -41 -82 -67 -119 -78c-40 -21 -70 -65 -65 -105c9 -66 67 -68 108 -51
c-42 -35 -134 -26 -145 48c-5 36 8 69 39 99c-39 1 -68 13 -87 36c-19 24 -27 50 -24 78c0 45 36 79 75 100c24 15 74 30 102 38c15 5 35 10 61 17l59 17v56c0 96 -55 132 -124 119c-28 -5 -53 -16 -75 -33c-21 -17 -32 -34 -32 -53c0 -11 10 -28 10 -39
c1 -21 -13 -35 -32 -35c-17 0 -33 11 -32 38s17 54 50 79c33 26 70 43 111 51c111 23 167 -23 167 -138z" />
    <glyph glyph-name="Cacute" unicode="&#x106;" horiz-adv-x="679" 
d="M347 759l85 111c12 20 30 27 42 14c11 -11 7 -24 -12 -40zM97 357c-5 137 48 243 135 298c71 45 149 53 232 24c73 -26 115 -69 136 -102c17 -24 20 -30 21 -35v107l-15 10c-20 13 -73 35 -128 43c-33 5 -67 6 -104 4c-91 -7 -170 -39 -234 -98
c-63 -57 -100 -152 -99 -265c1 -89 37 -176 97 -244c60 -67 159 -107 274 -98c67 5 127 38 159 69c16 16 30 34 43 54c27 40 29 51 32 60l-6 -15c-22 -38 -85 -130 -232 -130c-85 0 -157 29 -217 88c-59 59 -91 136 -94 230z" />
    <glyph glyph-name="cacute" unicode="&#x107;" horiz-adv-x="496" 
d="M235 512l85 111c12 20 30 27 42 14c11 -11 7 -24 -12 -40zM88 202c-11 73 3 135 42 185s91 73 156 70c53 -3 97 -32 86 -73c-8 -24 6 -50 33 -51c19 -1 35 13 35 37s-12 44 -35 61s-49 28 -78 32c-93 12 -184 -19 -243 -100c-29 -41 -43 -89 -42 -145
c1 -71 24 -126 69 -167c45 -40 99 -60 162 -60c93 0 167 57 195 137c-41 -75 -116 -104 -195 -100c-95 5 -169 67 -185 174z" />
    <glyph glyph-name="Cdotaccent" unicode="&#x10a;" horiz-adv-x="679" 
d="M392 774c-43 0 -43 66 0 66c41 0 41 -66 0 -66zM97 357c3 -94 35 -171 94 -230c60 -59 132 -88 217 -88c147 0 210 92 232 130l6 15c-3 -9 -5 -20 -32 -60c-13 -20 -27 -38 -43 -54c-32 -31 -92 -64 -159 -69c-115 -9 -214 31 -274 98c-60 68 -96 155 -97 244
c-1 113 36 208 99 265c64 59 143 91 234 98c37 2 71 1 104 -4c55 -8 108 -30 128 -43l15 -10v-107c-1 5 -4 11 -21 35c-21 33 -63 76 -136 102c-83 29 -161 21 -232 -24c-87 -55 -140 -161 -135 -298z" />
    <glyph glyph-name="cdotaccent" unicode="&#x10b;" horiz-adv-x="496" 
d="M304 548c-30 -30 -76 16 -46 46s76 -16 46 -46zM88 202c16 -107 90 -169 185 -174c79 -4 154 25 195 100c-28 -80 -102 -137 -195 -137c-63 0 -117 20 -162 60c-45 41 -68 96 -69 167c-1 56 13 104 42 145c59 81 150 112 243 100c29 -4 55 -15 78 -32s35 -37 35 -61
s-16 -38 -35 -37c-27 1 -41 27 -33 51c11 41 -33 70 -86 73c-65 3 -117 -20 -156 -70s-53 -112 -42 -185z" />
    <glyph glyph-name="Ccaron" unicode="&#x10c;" horiz-adv-x="679" 
d="M249 902l105 -111l95 109l-71 -134h-47zM97 357c-5 137 48 243 135 298c71 45 149 53 232 24c73 -26 115 -69 136 -102c17 -24 20 -30 21 -35v107l-15 10c-20 13 -73 35 -128 43c-33 5 -67 6 -104 4c-91 -7 -170 -39 -234 -98c-63 -57 -100 -152 -99 -265
c1 -89 37 -176 97 -244c60 -67 159 -107 274 -98c67 5 127 38 159 69c16 16 30 34 43 54c27 40 29 51 32 60l-6 -15c-22 -38 -85 -130 -232 -130c-85 0 -157 29 -217 88c-59 59 -91 136 -94 230z" />
    <glyph glyph-name="ccaron" unicode="&#x10d;" horiz-adv-x="496" 
d="M157 652l105 -111l95 109l-71 -134h-47zM88 202c-11 73 3 135 42 185s91 73 156 70c53 -3 97 -32 86 -73c-8 -24 6 -50 33 -51c19 -1 35 13 35 37s-12 44 -35 61s-49 28 -78 32c-93 12 -184 -19 -243 -100c-29 -41 -43 -89 -42 -145c1 -71 24 -126 69 -167
c45 -40 99 -60 162 -60c93 0 167 57 195 137c-41 -75 -116 -104 -195 -100c-95 5 -169 67 -185 174z" />
    <glyph glyph-name="Dcaron" unicode="&#x10e;" horiz-adv-x="653" 
d="M436 900l-71 -134h-47l-82 136l105 -111zM610 381c4 -95 -18 -183 -65 -258s-133 -123 -242 -123h-71h-211c11 0 21 1 40 8c20 7 33 26 33 54v570c0 31 -13 52 -33 59c-19 8 -28 9 -40 9h228c124 1 214 -22 270 -68s86 -130 91 -251zM251 11h54c60 2 109 20 148 53
c79 67 107 172 104 313c-3 105 -30 184 -67 228c-18 23 -41 41 -69 54c-56 27 -104 33 -172 33c-41 0 -76 -1 -105 -3v-614c0 -53 26 -64 107 -64z" />
    <glyph glyph-name="dcaron" unicode="&#x10f;" horiz-adv-x="514" 
d="M449 713v-628c0 -40 26 -35 33 -35l-76 -60v266c0 136 -69 198 -161 199c-45 1 -85 -16 -120 -51s-51 -88 -50 -160c1 -75 21 -132 59 -171c39 -39 82 -57 131 -56c56 1 101 27 136 77c-35 -61 -76 -102 -149 -103c-60 -1 -111 19 -154 61s-64 101 -65 176
c-1 72 22 129 67 171c45 43 98 65 158 66c59 2 108 -18 148 -61v203c0 35 -18 49 -33 46zM543 690c17 -9 22 -32 17 -69s-21 -65 -47 -82c24 20 39 65 32 97c-5 -3 -11 -6 -18 -7c-19 -3 -35 11 -36 30c-1 17 10 33 29 36c8 1 16 -1 23 -5z" />
    <glyph glyph-name="Dcroat" unicode="&#x110;" horiz-adv-x="653" 
d="M610 381c4 -95 -18 -183 -65 -258s-133 -123 -242 -123h-71h-211c11 0 21 1 40 8c20 7 33 26 33 54v290h-51l-12 9h63v271c0 31 -13 52 -33 59c-19 8 -28 9 -40 9h228c124 1 214 -22 270 -68s86 -130 91 -251zM251 11h54c60 2 109 20 148 53c79 67 107 172 104 313
c-3 105 -30 184 -67 228c-18 23 -41 41 -69 54c-56 27 -104 33 -172 33c-41 0 -76 -1 -105 -3v-328h119l-9 -9h-110v-277c0 -53 26 -64 107 -64z" />
    <glyph glyph-name="dslash" unicode="&#x111;" horiz-adv-x="514" 
d="M502 548v-8h-53v-455c0 -40 26 -35 33 -35l-76 -60v266c0 136 -69 198 -161 199c-45 1 -85 -16 -120 -51s-51 -88 -50 -160c1 -75 21 -132 59 -171c39 -39 82 -57 131 -56c56 1 101 27 136 77c-35 -61 -76 -102 -149 -103c-60 -1 -111 19 -154 61s-64 101 -65 176
c-1 72 22 129 67 171c45 43 98 65 158 66c59 2 108 -18 148 -61v136h-101v7l101 1v59c0 35 -18 49 -33 46l76 60v-165h53z" />
    <glyph glyph-name="Emacron" unicode="&#x112;" horiz-adv-x="595" 
d="M171 796l197 1v-8h-197v7zM479 61c37 25 67 58 75 74l7 12l-41 -147h-493c11 0 21 1 40 8c20 7 33 26 33 54v576c0 18 -6 32 -18 42c-23 21 -39 20 -55 20h454l35 -124c-19 34 -42 60 -70 77c-18 11 -31 19 -40 22c-16 7 -70 16 -167 16h-89v-322h82c86 3 111 45 116 64
l1 7v-148s-9 68 -117 68h-82v-281c0 -64 34 -70 62 -70h97c29 0 54 3 77 8c23 6 40 12 51 18s25 15 42 26z" />
    <glyph glyph-name="emacron" unicode="&#x113;" horiz-adv-x="499" 
d="M165 540v7l197 1v-8h-197zM269 30c87 -6 149 27 186 98c-11 -38 -35 -70 -71 -97c-35 -27 -76 -40 -121 -40c-57 0 -108 21 -152 64c-43 43 -66 99 -67 170c-2 93 35 162 112 209c35 21 74 32 119 32c53 -1 96 -20 129 -58s49 -88 48 -149h-362c0 -65 16 -118 48 -161
c33 -42 76 -65 131 -68zM160 426c-43 -31 -67 -84 -70 -158c115 0 188 1 219 3c47 3 77 14 89 33c13 20 18 71 -31 118c-27 25 -61 37 -102 37c-41 1 -76 -10 -105 -33z" />
    <glyph glyph-name="Edotaccent" unicode="&#x116;" horiz-adv-x="595" 
d="M302 774c-43 0 -43 66 0 66c41 0 41 -66 0 -66zM479 61c37 25 67 58 75 74l7 12l-41 -147h-493c11 0 21 1 40 8c20 7 33 26 33 54v576c0 18 -6 32 -18 42c-23 21 -39 20 -55 20h454l35 -124c-19 34 -42 60 -70 77c-18 11 -31 19 -40 22c-16 7 -70 16 -167 16h-89v-322h82
c86 3 111 45 116 64l1 7v-148s-9 68 -117 68h-82v-281c0 -64 34 -70 62 -70h97c29 0 54 3 77 8c23 6 40 12 51 18s25 15 42 26z" />
    <glyph glyph-name="edotaccent" unicode="&#x117;" horiz-adv-x="499" 
d="M294 548c-30 -30 -76 16 -46 46s76 -16 46 -46zM269 30c87 -6 149 27 186 98c-11 -38 -35 -70 -71 -97c-35 -27 -76 -40 -121 -40c-57 0 -108 21 -152 64c-43 43 -66 99 -67 170c-2 93 35 162 112 209c35 21 74 32 119 32c53 -1 96 -20 129 -58s49 -88 48 -149h-362
c0 -65 16 -118 48 -161c33 -42 76 -65 131 -68zM160 426c-43 -31 -67 -84 -70 -158c115 0 188 1 219 3c47 3 77 14 89 33c13 20 18 71 -31 118c-27 25 -61 37 -102 37c-41 1 -76 -10 -105 -33z" />
    <glyph glyph-name="Eogonek" unicode="&#x118;" horiz-adv-x="595" 
d="M560 -157c-42 -35 -134 -26 -145 48c-7 39 10 76 50 109h-438c11 0 21 1 40 8c20 7 33 26 33 54v576c0 18 -6 32 -18 42c-23 21 -39 20 -55 20h454l35 -124c-19 34 -42 60 -70 77c-18 11 -31 19 -40 22c-16 7 -70 16 -167 16h-89v-322h82c86 3 111 45 116 64l1 7v-148
s-9 68 -117 68h-82v-281c0 -64 34 -70 62 -70h97c29 0 54 3 77 8c23 6 40 12 51 18s25 15 42 26c37 25 67 58 75 74l7 12l-41 -147c-40 -20 -73 -65 -68 -106c9 -66 67 -68 108 -51z" />
    <glyph glyph-name="eogonek" unicode="&#x119;" horiz-adv-x="499" 
d="M321 -1c-40 -20 -72 -65 -67 -105c9 -66 67 -68 108 -51c-42 -35 -134 -26 -145 48c-7 35 7 69 40 100c-56 1 -105 23 -148 66c-42 43 -64 99 -65 168c-2 93 35 162 112 209c35 21 74 32 119 32c53 -1 96 -20 129 -58s49 -88 48 -149h-362c0 -65 16 -118 48 -161
c33 -42 76 -65 131 -68c87 -6 149 27 186 98c-17 -57 -69 -109 -134 -129zM160 426c-43 -31 -67 -84 -70 -158c115 0 188 1 219 3c47 3 77 14 89 33c13 20 18 71 -31 118c-27 25 -61 37 -102 37c-41 1 -76 -10 -105 -33z" />
    <glyph glyph-name="Ecaron" unicode="&#x11a;" horiz-adv-x="595" 
d="M407 900l-71 -134h-47l-82 136l105 -111zM479 61c37 25 67 58 75 74l7 12l-41 -147h-493c11 0 21 1 40 8c20 7 33 26 33 54v576c0 18 -6 32 -18 42c-23 21 -39 20 -55 20h454l35 -124c-19 34 -42 60 -70 77c-18 11 -31 19 -40 22c-16 7 -70 16 -167 16h-89v-322h82
c86 3 111 45 116 64l1 7v-148s-9 68 -117 68h-82v-281c0 -64 34 -70 62 -70h97c29 0 54 3 77 8c23 6 40 12 51 18s25 15 42 26z" />
    <glyph glyph-name="ecaron" unicode="&#x11b;" horiz-adv-x="499" 
d="M159 652l105 -111l95 109l-71 -134h-47zM269 30c-55 3 -98 26 -131 68c-32 43 -48 96 -48 161h362c1 61 -15 111 -48 149s-76 57 -129 58c-45 0 -84 -11 -119 -32c-77 -47 -114 -116 -112 -209c1 -71 24 -127 67 -170c44 -43 95 -64 152 -64c45 0 86 13 121 40
c36 27 60 59 71 97c-37 -71 -99 -104 -186 -98zM160 426c29 23 64 34 105 33c41 0 75 -12 102 -37c49 -47 44 -98 31 -118c-12 -19 -42 -30 -89 -33c-31 -2 -104 -3 -219 -3c3 74 27 127 70 158z" />
    <glyph glyph-name="Gbreve" unicode="&#x11e;" horiz-adv-x="722" 
d="M391 813c51 0 85 23 100 69c-1 -52 -39 -100 -98 -100c-60 0 -100 43 -101 100c18 -46 51 -69 99 -69zM695 288h-177l19 -4c25 -5 58 -30 58 -67v-6c0 -67 -21 -117 -62 -151c-37 -32 -86 -46 -149 -43c-79 4 -145 35 -198 93c-53 59 -80 138 -82 238
c-3 147 49 253 133 304c73 43 154 47 245 10c62 -28 106 -71 128 -108c19 -27 21 -34 24 -39l3 121l-18 13c-24 17 -88 44 -153 52c-143 17 -276 -36 -356 -153c-40 -59 -60 -128 -60 -207c0 -132 46 -239 149 -304c51 -32 113 -48 184 -48c57 0 96 15 124 34
c21 15 27 21 42 37c7 8 12 13 14 14c32 -5 61 -35 70 -78v223c0 36 31 61 44 65z" />
    <glyph glyph-name="gbreve" unicode="&#x11f;" horiz-adv-x="481" 
d="M238 541c-60 0 -100 43 -101 100c18 -46 51 -69 99 -69c51 0 85 23 100 69c-1 -52 -39 -100 -98 -100zM462 466c19 0 28 -13 25 -26c-4 -13 -18 -21 -38 -10c-18 13 -37 12 -56 -5c24 27 47 41 69 41zM292 41c93 0 142 -14 171 -69c35 -63 1 -131 -27 -163
c-55 -59 -123 -75 -220 -71c-119 5 -180 65 -180 141c0 44 23 86 42 102l15 12c-83 -125 27 -229 172 -235c57 -2 105 11 143 40c39 29 54 64 45 107c-11 61 -69 91 -175 90c-119 -1 -180 12 -193 65c-12 43 28 76 68 93c-1 0 -4 1 -5 2c-52 24 -88 85 -85 150
c2 63 39 111 110 143c52 21 122 19 167 -8c31 -17 53 -44 66 -83s13 -75 1 -109c-15 -45 -50 -78 -105 -97c-46 -16 -92 -17 -138 -2c-34 -25 -54 -42 -37 -74c9 -16 26 -27 55 -31l35 -3c8 -1 22 -1 42 -1c20 1 31 1 33 1zM114 255c17 -45 43 -75 78 -90s71 -17 108 -8
c39 11 63 37 73 79c11 43 7 83 -10 120c-18 45 -45 75 -81 89s-71 13 -106 -3c-67 -25 -91 -102 -62 -187z" />
    <glyph glyph-name="Gdotaccent" unicode="&#x120;" horiz-adv-x="722" 
d="M382 774c-43 0 -43 66 0 66c41 0 41 -66 0 -66zM518 288h177l-18 -4c-13 -4 -44 -29 -44 -65v-223c-9 43 -38 73 -70 78c-2 -1 -7 -6 -14 -14c-15 -16 -21 -22 -42 -37c-28 -19 -67 -34 -124 -34c-71 0 -133 16 -184 48c-103 65 -149 172 -149 304c0 79 20 148 60 207
c80 117 213 170 356 153c65 -8 129 -35 153 -52l18 -13l-3 -121c-3 5 -5 12 -24 39c-22 37 -66 80 -128 108c-91 37 -172 33 -245 -10c-84 -51 -136 -157 -133 -304c2 -100 29 -179 82 -238c53 -58 119 -89 198 -93c63 -3 112 11 149 43c41 34 62 84 62 151v6
c0 37 -33 62 -58 67z" />
    <glyph glyph-name="gdotaccent" unicode="&#x121;" horiz-adv-x="481" 
d="M274 548c-30 -30 -76 16 -46 46s76 -16 46 -46zM462 466c19 0 28 -13 25 -26c-4 -13 -18 -21 -38 -10c-18 13 -37 12 -56 -5c24 27 47 41 69 41zM292 41c93 0 142 -14 171 -69c35 -63 1 -131 -27 -163c-55 -59 -123 -75 -220 -71c-119 5 -180 65 -180 141
c0 44 23 86 42 102l15 12c-83 -125 27 -229 172 -235c57 -2 105 11 143 40c39 29 54 64 45 107c-11 61 -69 91 -175 90c-119 -1 -180 12 -193 65c-12 43 28 76 68 93c-1 0 -4 1 -5 2c-52 24 -88 85 -85 150c2 63 39 111 110 143c52 21 122 19 167 -8c31 -17 53 -44 66 -83
s13 -75 1 -109c-15 -45 -50 -78 -105 -97c-46 -16 -92 -17 -138 -2c-34 -25 -54 -42 -37 -74c9 -16 26 -27 55 -31l35 -3c8 -1 22 -1 42 -1c20 1 31 1 33 1zM114 255c17 -45 43 -75 78 -90s71 -17 108 -8c39 11 63 37 73 79c11 43 7 83 -10 120c-18 45 -45 75 -81 89
s-71 13 -106 -3c-67 -25 -91 -102 -62 -187z" />
    <glyph glyph-name="Gcommaaccent" unicode="&#x122;" horiz-adv-x="722" 
d="M537 284l-19 4h177l-18 -4c-13 -4 -44 -29 -44 -65v-223c-9 43 -38 73 -70 78c-2 -1 -7 -6 -14 -14c-15 -16 -21 -22 -42 -37c-28 -19 -67 -34 -124 -34c-71 0 -133 16 -184 48c-103 65 -149 172 -149 304c0 79 20 148 60 207c80 117 213 170 356 153
c65 -8 129 -35 153 -52l18 -13l-3 -121c-3 5 -5 12 -24 39c-22 37 -66 80 -128 108c-91 37 -172 33 -245 -10c-84 -51 -136 -157 -133 -304c2 -100 29 -179 82 -238c53 -58 119 -89 198 -93c63 -3 112 11 149 43c41 34 62 84 62 151v6c0 37 -33 62 -58 67zM393 -79
c17 -9 22 -32 17 -69s-21 -65 -47 -82c24 20 39 65 32 97c-5 -3 -11 -6 -18 -7c-19 -3 -35 11 -36 30c-1 17 10 33 29 36c8 1 16 -1 23 -5z" />
    <glyph glyph-name="gcommaaccent" unicode="&#x123;" horiz-adv-x="481" 
d="M462 466c19 0 28 -13 25 -26c-4 -13 -18 -21 -38 -10c-18 13 -37 12 -56 -5c24 27 47 41 69 41zM292 41c93 0 142 -14 171 -69c35 -63 1 -131 -27 -163c-55 -59 -123 -75 -220 -71c-119 5 -180 65 -180 141c0 44 23 86 42 102l15 12c-83 -125 27 -229 172 -235
c57 -2 105 11 143 40c39 29 54 64 45 107c-11 61 -69 91 -175 90c-119 -1 -180 12 -193 65c-12 43 28 76 68 93c-1 0 -4 1 -5 2c-52 24 -88 85 -85 150c2 63 39 111 110 143c52 21 122 19 167 -8c31 -17 53 -44 66 -83s13 -75 1 -109c-15 -45 -50 -78 -105 -97
c-46 -16 -92 -17 -138 -2c-34 -25 -54 -42 -37 -74c9 -16 26 -27 55 -31l35 -3c8 -1 22 -1 42 -1c20 1 31 1 33 1zM114 255c17 -45 43 -75 78 -90s71 -17 108 -8c39 11 63 37 73 79c11 43 7 83 -10 120c-18 45 -45 75 -81 89s-71 13 -106 -3c-67 -25 -91 -102 -62 -187z
M267 -446c17 -9 22 -32 17 -69s-21 -65 -47 -82c24 20 39 65 32 97c-5 -3 -11 -6 -18 -7c-19 -3 -35 11 -36 30c-1 17 10 33 29 36c8 1 16 -1 23 -5z" />
    <glyph glyph-name="Hbar" unicode="&#x126;" horiz-adv-x="677" 
d="M584 536v-474c0 -18 6 -32 17 -43c24 -20 40 -19 57 -19h-196c11 0 66 2 72 52v309h-393v-299c0 -18 6 -32 17 -43c24 -20 40 -19 57 -19h-196c11 0 66 2 72 52v484h-66l-12 9h78v93c0 18 -6 32 -18 42c-23 21 -39 20 -55 20h197c-9 0 -17 -1 -26 -2
c-17 -3 -48 -24 -48 -60v-93h393v93c0 18 -6 32 -18 42c-23 21 -39 20 -55 20h197c-9 0 -17 -1 -26 -2c-17 -3 -48 -24 -48 -60v-93h78l-9 -9h-69zM141 536v-166h393v166h-393z" />
    <glyph glyph-name="hbar" unicode="&#x127;" horiz-adv-x="536" 
d="M141 536v-487c0 -23 12 -38 29 -43c19 -5 25 -6 34 -6h-168c7 0 62 0 62 49v487h-47l-12 9h59v73c0 40 -26 35 -33 35l76 60v-168h130l-9 -9h-121zM446 266v-217c0 -23 12 -38 29 -43c19 -5 25 -6 34 -6h-168c9 0 16 1 33 6s29 20 29 43v222v13c0 17 0 30 -1 39
c0 17 -1 49 -8 62c-10 24 -25 42 -60 48c-49 8 -122 -28 -182 -77c27 30 59 56 95 78c37 22 73 31 108 28c20 -1 36 -8 48 -15c18 -13 29 -26 35 -51c4 -19 7 -23 7 -48c1 -12 1 -21 1 -26v-56z" />
    <glyph glyph-name="Imacron" unicode="&#x12a;" horiz-adv-x="269" 
d="M36 796l197 1v-8h-197v7zM159 638v-576c0 -18 6 -32 17 -43c24 -20 40 -19 57 -19h-197c11 0 21 1 40 8c20 7 33 26 33 54v576c0 18 -6 32 -18 42c-23 21 -39 20 -55 20h197c-9 0 -17 -1 -26 -2c-17 -3 -48 -24 -48 -60z" />
    <glyph glyph-name="imacron" unicode="&#x12b;" horiz-adv-x="257" 
d="M35 540v7l197 1v-8h-197zM151 467v-418c0 -33 21 -49 63 -49h-168c7 0 62 0 62 49v307c0 36 -10 54 -30 54z" />
    <glyph glyph-name="Iogonek" unicode="&#x12e;" horiz-adv-x="269" 
d="M233 0h-54c-40 -20 -73 -65 -68 -106c9 -66 67 -68 108 -51c-42 -35 -134 -26 -145 48c-7 39 10 76 50 109h-88c11 0 21 1 40 8c20 7 33 26 33 54v576c0 18 -6 32 -18 42c-23 21 -39 20 -55 20h197c-9 0 -17 -1 -26 -2c-17 -3 -48 -24 -48 -60v-576c0 -18 6 -32 17 -43
c24 -20 40 -19 57 -19z" />
    <glyph glyph-name="iogonek" unicode="&#x12f;" horiz-adv-x="257" 
d="M147 552c-26 -32 -78 18 -45 46c30 30 75 -16 45 -46zM223 -157c-42 -35 -134 -26 -145 48c-7 39 10 76 50 109h-82c7 0 62 0 62 49v307c0 36 -10 54 -30 54l73 57v-418c0 -33 21 -49 63 -49h-31c-40 -20 -73 -65 -68 -106c9 -66 67 -68 108 -51z" />
    <glyph glyph-name="Idot" unicode="&#x130;" horiz-adv-x="269" 
d="M134 774c-43 0 -43 66 0 66c41 0 41 -66 0 -66zM159 638v-576c0 -18 6 -32 17 -43c24 -20 40 -19 57 -19h-197c11 0 21 1 40 8c20 7 33 26 33 54v576c0 18 -6 32 -18 42c-23 21 -39 20 -55 20h197c-9 0 -17 -1 -26 -2c-17 -3 -48 -24 -48 -60z" />
    <glyph glyph-name="dotlessi" unicode="&#x131;" horiz-adv-x="257" 
d="M151 467v-418c0 -33 21 -49 63 -49h-168c7 0 62 0 62 49v307c0 36 -10 54 -30 54z" />
    <glyph glyph-name="IJ" unicode="&#x132;" horiz-adv-x="630" 
d="M159 638v-576c0 -18 6 -32 17 -43c24 -20 40 -19 57 -19h-197c11 0 21 1 40 8c20 7 33 26 33 54v576c0 18 -6 32 -18 42c-23 21 -39 20 -55 20h197c-9 0 -17 -1 -26 -2c-17 -3 -48 -24 -48 -60zM490 144v494c0 18 -6 32 -18 42c-23 21 -39 20 -55 20h197
c-9 0 -17 -1 -26 -2c-17 -3 -48 -24 -48 -60v-480c0 -107 -43 -160 -128 -160c-29 0 -56 6 -81 18c-25 13 -37 32 -38 57c0 15 11 29 27 29c21 0 31 -21 28 -46c-3 -31 25 -52 60 -52c59 0 82 39 82 140z" />
    <glyph glyph-name="ij" unicode="&#x133;" horiz-adv-x="486" 
d="M122 542c-43 0 -43 66 0 66c41 0 41 -66 0 -66zM391 552c-26 -32 -78 18 -45 46c30 30 75 -16 45 -46zM210 0h-168c7 0 62 0 62 49v307c0 36 -10 54 -30 54l73 57v-418c0 -33 21 -49 63 -49zM354 -66v422c0 35 -10 53 -30 54l73 57v-519c0 -128 -64 -179 -159 -158
c-39 8 -71 33 -71 66c0 15 11 28 27 28c21 0 31 -21 28 -46c-3 -27 22 -43 53 -44c61 -1 79 33 79 140z" />
    <glyph glyph-name="Kcommaaccent" unicode="&#x136;" horiz-adv-x="592" 
d="M140 638v-576c0 -18 6 -32 17 -43c24 -20 40 -19 57 -19h-197c11 0 21 1 40 8c20 7 33 26 33 54v576c0 18 -6 32 -18 42c-23 21 -39 20 -55 20h197c-9 0 -17 -1 -26 -2c-17 -3 -48 -24 -48 -60zM264 374l227 -286c36 -44 80 -76 103 -84l16 -5l-116 2
c-22 19 -45 43 -68 73l-202 261c-19 17 -43 6 -62 -11l-15 -14l237 285c37 41 26 95 -25 104h189h-2c-7 0 -49 -9 -102 -54c-11 -9 -30 -31 -59 -64c-28 -33 -54 -64 -77 -93l-34 -44c-25 -25 -30 -41 -10 -70zM328 -79c17 -9 22 -32 17 -69s-21 -65 -47 -82
c24 20 39 65 32 97c-5 -3 -11 -6 -18 -7c-19 -3 -35 11 -36 30c-1 17 10 33 29 36c8 1 16 -1 23 -5z" />
    <glyph glyph-name="kcommaaccent" unicode="&#x137;" horiz-adv-x="419" 
d="M198 0h-168c7 0 62 0 62 49v558c0 40 -21 50 -32 46l76 60l-1 -664c0 -23 12 -38 29 -43c19 -5 25 -6 34 -6zM432 0h-121c16 4 17 22 0 43c-7 10 -31 39 -71 87c-39 49 -64 79 -74 90c-11 13 -20 16 -28 11l130 137c40 47 20 79 -28 82h148c-21 0 -65 -35 -131 -105
l-52 -56c-13 -14 -14 -28 -4 -41l73 -91c43 -52 73 -88 91 -108c23 -27 47 -44 59 -47zM242 -79c17 -9 22 -32 17 -69s-21 -65 -47 -82c24 20 39 65 32 97c-5 -3 -11 -6 -18 -7c-19 -3 -35 11 -36 30c-1 17 10 33 29 36c8 1 16 -1 23 -5z" />
    <glyph glyph-name="Lacute" unicode="&#x139;" horiz-adv-x="538" 
d="M224 884c11 -11 7 -24 -12 -40l-115 -85l85 111c12 20 30 27 42 14zM214 9h67c134 0 214 41 241 124l-30 -133h-473c11 0 21 1 40 8c20 7 33 26 33 54v576c0 18 -6 32 -18 42c-23 21 -39 20 -55 20h197c-9 0 -17 -1 -26 -2c-17 -3 -48 -24 -48 -60v-559
c0 -52 21 -70 72 -70z" />
    <glyph glyph-name="lacute" unicode="&#x13a;" horiz-adv-x="236" 
d="M172 887c11 -11 7 -24 -12 -40l-115 -85l85 111c12 20 30 27 42 14zM138 713v-664c0 -23 12 -38 29 -43c19 -5 25 -6 34 -6h-168c9 0 16 1 33 6s29 20 29 43v558c0 42 -25 48 -33 46z" />
    <glyph glyph-name="Lcommaaccent" unicode="&#x13b;" horiz-adv-x="538" 
d="M214 9h67c134 0 214 41 241 124l-30 -133h-473c11 0 21 1 40 8c20 7 33 26 33 54v576c0 18 -6 32 -18 42c-23 21 -39 20 -55 20h197c-9 0 -17 -1 -26 -2c-17 -3 -48 -24 -48 -60v-559c0 -52 21 -70 72 -70zM301 -79c17 -9 22 -32 17 -69s-21 -65 -47 -82
c24 20 39 65 32 97c-5 -3 -11 -6 -18 -7c-19 -3 -35 11 -36 30c-1 17 10 33 29 36c8 1 16 -1 23 -5z" />
    <glyph glyph-name="lcommaaccent" unicode="&#x13c;" horiz-adv-x="236" 
d="M138 713v-664c0 -23 12 -38 29 -43c19 -5 25 -6 34 -6h-168c9 0 16 1 33 6s29 20 29 43v558c0 42 -25 48 -33 46zM150 -79c17 -9 22 -32 17 -69s-21 -65 -47 -82c24 20 39 65 32 97c-5 -3 -11 -6 -18 -7c-19 -3 -35 11 -36 30c-1 17 10 33 29 36c8 1 16 -1 23 -5z" />
    <glyph glyph-name="Lcaron" unicode="&#x13d;" horiz-adv-x="538" 
d="M214 9h67c134 0 214 41 241 124l-30 -133h-473c11 0 21 1 40 8c20 7 33 26 33 54v576c0 18 -6 32 -18 42c-23 21 -39 20 -55 20h197c-9 0 -17 -1 -26 -2c-17 -3 -48 -24 -48 -60v-559c0 -52 21 -70 72 -70zM200 659c-1 17 10 33 29 36c8 1 16 -1 23 -5
c17 -9 22 -32 17 -69s-21 -65 -47 -82c24 20 39 65 32 97c-5 -3 -11 -6 -18 -7c-19 -3 -35 11 -36 30z" />
    <glyph glyph-name="lcaron" unicode="&#x13e;" horiz-adv-x="236" 
d="M138 713v-664c0 -23 12 -38 29 -43c19 -5 25 -6 34 -6h-168c9 0 16 1 33 6s29 20 29 43v558c0 42 -25 48 -33 46zM222 690c17 -9 22 -32 17 -69s-21 -65 -47 -82c24 20 39 65 32 97c-5 -3 -11 -6 -18 -7c-19 -3 -35 11 -36 30c-1 17 10 33 29 36c8 1 16 -1 23 -5z" />
    <glyph glyph-name="Ldot" unicode="&#x13f;" horiz-adv-x="538" 
d="M214 9h67c134 0 214 41 241 124l-30 -133h-473c11 0 21 1 40 8c20 7 33 26 33 54v576c0 18 -6 32 -18 42c-23 21 -39 20 -55 20h197c-9 0 -17 -1 -26 -2c-17 -3 -48 -24 -48 -60v-559c0 -52 21 -70 72 -70zM279 385c0 17 14 33 33 33s34 -14 34 -33c2 -44 -70 -44 -67 0z
" />
    <glyph glyph-name="ldot" unicode="&#x140;" horiz-adv-x="273" 
d="M138 713v-664c0 -23 12 -38 29 -43c19 -5 25 -6 34 -6h-168c9 0 16 1 33 6s29 20 29 43v558c0 42 -25 48 -33 46zM169 385c0 17 14 33 33 33s34 -14 34 -33c2 -44 -70 -44 -67 0z" />
    <glyph glyph-name="Lslash" unicode="&#x141;" horiz-adv-x="538" 
d="M214 9h67c134 0 214 41 241 124l-30 -133h-473c11 0 21 1 40 8c20 7 33 26 33 54v336l-63 -24l-16 4l79 30v230c0 18 -6 32 -18 42c-23 21 -39 20 -55 20h197c-9 0 -17 -1 -26 -2c-17 -3 -48 -24 -48 -60v-211l80 31l-5 -12l-75 -29v-338c0 -52 21 -70 72 -70z" />
    <glyph glyph-name="lslash" unicode="&#x142;" horiz-adv-x="236" 
d="M138 713v-287l84 32l-5 -12l-79 -30v-367c0 -23 12 -38 29 -43c19 -5 25 -6 34 -6h-168c9 0 16 1 33 6s29 20 29 43v350l-66 -25l-16 4l82 31v198c0 42 -25 48 -33 46z" />
    <glyph glyph-name="Nacute" unicode="&#x143;" horiz-adv-x="692" 
d="M424 884c11 -11 7 -24 -12 -40l-115 -85l85 111c12 20 30 27 42 14zM571 221v374c0 44 -15 76 -38 88c-21 13 -36 16 -51 17h183c-15 -1 -26 -4 -49 -17c-21 -12 -36 -44 -36 -88v-595h-1l-13 19l-410 590c-11 15 -20 15 -27 0c-4 -8 -6 -21 -6 -38v-466
c0 -59 38 -94 67 -101l22 -4h-186c5 0 10 0 30 8c27 12 58 39 58 99v458c0 120 -68 135 -83 135l-3 1h127l366 -521c15 -22 28 -32 38 -30c13 0 12 42 12 71z" />
    <glyph glyph-name="nacute" unicode="&#x144;" 
d="M346 637c11 -11 7 -24 -12 -40l-115 -85l85 111c12 20 30 27 42 14zM137 466v-417c0 -23 12 -38 29 -43c19 -5 25 -6 34 -6h-168c7 0 62 0 62 49v312c0 40 -29 45 -35 44zM436 266v-217c0 -23 12 -38 29 -43c19 -5 25 -6 34 -6h-169c7 0 62 0 62 49v222v13
c0 17 0 30 -1 39c0 17 -1 49 -8 62c-10 24 -25 42 -60 48c-49 8 -122 -28 -182 -77c27 30 59 56 95 78c37 22 73 31 108 28c36 -3 61 -22 73 -39c6 -8 10 -21 13 -40s5 -33 5 -43c1 -10 1 -27 1 -52v-22z" />
    <glyph glyph-name="Ncommaaccent" unicode="&#x145;" horiz-adv-x="692" 
d="M571 221v374c0 44 -15 76 -38 88c-21 13 -36 16 -51 17h183c-15 -1 -26 -4 -49 -17c-21 -12 -36 -44 -36 -88v-595h-1l-13 19l-410 590c-11 15 -20 15 -27 0c-4 -8 -6 -21 -6 -38v-466c0 -59 38 -94 67 -101l22 -4h-186c5 0 10 0 30 8c27 12 58 39 58 99v458
c0 120 -68 135 -83 135l-3 1h127l366 -521c15 -22 28 -32 38 -30c13 0 12 42 12 71zM378 -79c17 -9 22 -32 17 -69s-21 -65 -47 -82c24 20 39 65 32 97c-5 -3 -11 -6 -18 -7c-19 -3 -35 11 -36 30c-1 17 10 33 29 36c8 1 16 -1 23 -5z" />
    <glyph glyph-name="ncommaaccent" unicode="&#x146;" 
d="M137 466v-417c0 -23 12 -38 29 -43c19 -5 25 -6 34 -6h-168c7 0 62 0 62 49v312c0 40 -29 45 -35 44zM436 266v-217c0 -23 12 -38 29 -43c19 -5 25 -6 34 -6h-169c7 0 62 0 62 49v222v13c0 17 0 30 -1 39c0 17 -1 49 -8 62c-10 24 -25 42 -60 48c-49 8 -122 -28 -182 -77
c27 30 59 56 95 78c37 22 73 31 108 28c36 -3 61 -22 73 -39c6 -8 10 -21 13 -40s5 -33 5 -43c1 -10 1 -27 1 -52v-22zM293 -79c17 -9 22 -32 17 -69s-21 -65 -47 -82c24 20 39 65 32 97c-5 -3 -11 -6 -18 -7c-19 -3 -35 11 -36 30c-1 17 10 33 29 36c8 1 16 -1 23 -5z" />
    <glyph glyph-name="Ncaron" unicode="&#x147;" horiz-adv-x="692" 
d="M455 900l-71 -134h-47l-82 136l105 -111zM571 221v374c0 44 -15 76 -38 88c-21 13 -36 16 -51 17h183c-15 -1 -26 -4 -49 -17c-21 -12 -36 -44 -36 -88v-595h-1l-13 19l-410 590c-11 15 -20 15 -27 0c-4 -8 -6 -21 -6 -38v-466c0 -59 38 -94 67 -101l22 -4h-186
c5 0 10 0 30 8c27 12 58 39 58 99v458c0 120 -68 135 -83 135l-3 1h127l366 -521c15 -22 28 -32 38 -30c13 0 12 42 12 71z" />
    <glyph glyph-name="ncaron" unicode="&#x148;" 
d="M370 650l-71 -134h-47l-82 136l105 -111zM137 466v-417c0 -23 12 -38 29 -43c19 -5 25 -6 34 -6h-168c7 0 62 0 62 49v312c0 40 -29 45 -35 44zM436 266v-217c0 -23 12 -38 29 -43c19 -5 25 -6 34 -6h-169c7 0 62 0 62 49v222v13c0 17 0 30 -1 39c0 17 -1 49 -8 62
c-10 24 -25 42 -60 48c-49 8 -122 -28 -182 -77c27 30 59 56 95 78c37 22 73 31 108 28c36 -3 61 -22 73 -39c6 -8 10 -21 13 -40s5 -33 5 -43c1 -10 1 -27 1 -52v-22z" />
    <glyph glyph-name="Eng" unicode="&#x14a;" horiz-adv-x="692" 
d="M571 221v374c0 44 -15 76 -38 88c-21 13 -36 16 -51 17h183c-15 -1 -26 -4 -49 -17c-21 -12 -36 -44 -36 -88v-647c0 -128 -64 -179 -159 -158c-39 8 -71 33 -71 66c0 15 11 28 27 28c21 0 31 -21 28 -46c-3 -27 22 -43 53 -44c61 -1 79 33 79 140v72
c0 34 -12 69 -35 105l-346 498c-11 15 -20 15 -27 0c-4 -8 -6 -21 -6 -38v-466c0 -59 38 -94 67 -101l22 -4h-186c5 0 10 0 30 8c27 12 58 39 58 99v458c0 120 -68 135 -83 135l-3 1h127l366 -521c15 -22 28 -32 38 -30c13 0 12 42 12 71z" />
    <glyph glyph-name="eng" unicode="&#x14b;" 
d="M200 0h-168c7 0 62 0 62 49v312c0 40 -29 45 -35 44l78 61v-417c0 -23 12 -38 29 -43c19 -5 25 -6 34 -6zM344 462c36 -3 61 -22 73 -39c6 -8 10 -21 13 -40s5 -33 5 -43c1 -10 1 -27 1 -52v-22v-321c0 -117 -45 -160 -121 -160c-29 0 -56 6 -81 19c-25 12 -37 31 -38 56
c0 15 11 29 27 29c21 0 31 -21 28 -46c-3 -31 25 -52 60 -52c59 0 81 39 81 140v340v13c0 17 0 30 -1 39c0 17 -1 49 -8 62c-10 24 -25 42 -60 48c-49 8 -122 -28 -182 -77c27 30 59 56 95 78c37 22 73 31 108 28z" />
    <glyph glyph-name="Omacron" unicode="&#x14c;" horiz-adv-x="790" 
d="M292 748v7l197 1v-8h-197zM410 708c115 0 206 -49 254 -122c49 -73 73 -158 70 -245c-3 -105 -37 -190 -103 -255c-65 -65 -148 -97 -248 -97c-119 0 -214 50 -266 123c-52 75 -77 159 -76 244c1 108 37 193 108 256s158 95 261 96zM681 329c1 99 -24 183 -75 250
c-50 67 -115 104 -195 111c-95 9 -171 -16 -229 -73s-87 -139 -87 -246c0 -95 27 -178 82 -249s122 -109 201 -116c99 -9 174 18 225 79s77 143 78 244z" />
    <glyph glyph-name="omacron" unicode="&#x14d;" 
d="M165 540v7l197 1v-8h-197zM288 -8c-32 -1 -61 2 -104 15c-59 20 -118 64 -139 159c-15 67 -7 127 23 180c30 54 76 90 137 107c72 20 136 13 192 -20s89 -89 99 -168c9 -74 -7 -138 -50 -191c-42 -53 -95 -80 -158 -82zM448 275c-11 62 -40 110 -87 144
c-46 35 -99 43 -160 25c-35 -10 -62 -29 -83 -57c-40 -55 -43 -123 -31 -195c13 -65 40 -112 81 -143c41 -30 86 -44 136 -43c126 3 169 128 144 269z" />
    <glyph glyph-name="Ohungarumlaut" unicode="&#x150;" horiz-adv-x="790" 
d="M295 766l85 111c12 20 30 27 42 14c11 -11 7 -24 -12 -40zM417 766l85 111c12 20 30 27 42 14c11 -11 7 -24 -12 -40zM410 708c-103 -1 -190 -33 -261 -96s-107 -148 -108 -256c-1 -85 24 -169 76 -244c52 -73 147 -123 266 -123c100 0 183 32 248 97
c66 65 100 150 103 255c3 87 -21 172 -70 245c-48 73 -139 122 -254 122zM681 329c-1 -101 -27 -183 -78 -244s-126 -88 -225 -79c-79 7 -146 45 -201 116s-82 154 -82 249c0 107 29 189 87 246s134 82 229 73c80 -7 145 -44 195 -111c51 -67 76 -151 75 -250z" />
    <glyph glyph-name="ohungarumlaut" unicode="&#x151;" 
d="M173 512l85 111c12 20 30 27 42 14c11 -11 7 -24 -12 -40zM274 512l85 111c12 20 30 27 42 14c11 -11 7 -24 -12 -40zM288 -8c63 2 116 29 158 82c43 53 59 117 50 191c-10 79 -43 135 -99 168s-120 40 -192 20c-61 -17 -107 -53 -137 -107c-30 -53 -38 -113 -23 -180
c21 -95 80 -139 139 -159c43 -13 72 -16 104 -15zM448 275c25 -141 -18 -266 -144 -269c-50 -1 -95 13 -136 43c-41 31 -68 78 -81 143c-12 72 -9 140 31 195c21 28 48 47 83 57c61 18 114 10 160 -25c47 -34 76 -82 87 -144z" />
    <glyph glyph-name="OE" unicode="&#x152;" horiz-adv-x="1182" 
d="M1066 61c37 25 67 58 76 74l6 12l-41 -147h-409c-17 0 -44 -2 -79 -5c-35 -4 -60 -6 -76 -6c-232 0 -333 205 -327 367c1 105 35 191 102 256s151 98 252 98c27 0 58 -2 93 -5s60 -5 74 -5h331l35 -124c-19 34 -42 60 -70 77c-18 11 -31 19 -40 22c-16 7 -70 16 -167 16
h-89v-322h82c85 3 112 45 115 64l2 7v-148s-9 68 -117 68h-82v-281c0 -64 34 -70 62 -70h97c29 0 54 3 77 8c23 6 40 12 51 18s25 15 42 26zM687 91v1v516c0 29 -16 52 -31 63c-7 5 -18 10 -32 13l-27 6c-4 1 -11 1 -22 2c-94 9 -169 -16 -224 -73s-83 -140 -83 -247
c0 -97 25 -180 76 -251c51 -70 115 -108 194 -115c99 -9 148 19 149 85z" />
    <glyph glyph-name="oe" unicode="&#x153;" horiz-adv-x="873" 
d="M643 30c87 -6 149 27 186 98c-11 -38 -35 -70 -71 -97c-35 -27 -76 -40 -121 -40c-83 0 -162 50 -198 134c-35 -79 -108 -130 -189 -133c-32 -1 -61 2 -104 15c-59 20 -118 64 -139 159c-15 67 -7 127 23 180c30 54 76 90 137 107c60 17 115 15 165 -6
c51 -20 87 -57 108 -111c19 41 49 73 90 98c35 21 74 32 119 32c53 -1 96 -20 129 -58s49 -88 48 -149h-362c0 -14 1 -31 3 -50c7 -51 27 -93 59 -126s71 -50 117 -53zM266 6c126 3 169 128 144 269c-11 62 -40 110 -87 144c-46 35 -99 43 -160 25c-35 -10 -62 -29 -83 -57
c-40 -55 -43 -123 -31 -195c13 -65 40 -112 81 -143c41 -30 86 -44 136 -43zM534 426c-43 -36 -67 -89 -70 -158c115 0 188 1 219 3c47 3 77 14 89 33c11 16 18 71 -31 118c-27 25 -61 37 -101 37c-40 1 -75 -10 -106 -33z" />
    <glyph glyph-name="Racute" unicode="&#x154;" horiz-adv-x="549" 
d="M314 884c11 -11 7 -24 -12 -40l-115 -85l85 111c12 20 30 27 42 14zM385 262l114 -189c21 -33 56 -60 76 -67l15 -6h-96c-19 18 -42 49 -68 94l-101 167c-52 83 -107 79 -197 79v-278c0 -18 6 -32 17 -43c24 -20 40 -19 57 -19h-197c11 0 21 1 40 8c20 7 33 26 33 54v576
c0 18 -6 32 -18 42c-23 21 -39 20 -55 20c25 0 61 0 110 1s85 2 107 1c133 -1 201 -20 237 -88c15 -29 21 -59 19 -92c-3 -59 -32 -115 -75 -144c-29 -20 -63 -32 -101 -36c28 -8 56 -35 83 -80zM128 349h96c124 1 199 68 202 172c3 162 -127 179 -298 172v-344z" />
    <glyph glyph-name="racute" unicode="&#x155;" horiz-adv-x="370" 
d="M297 637c11 -11 7 -24 -12 -40l-115 -85l85 111c12 20 30 27 42 14zM134 372v-323c0 -23 12 -38 29 -43c19 -5 25 -6 34 -6h-168c9 0 16 1 33 6s29 20 29 43v13v300c0 41 -29 45 -33 45l76 60v-72v-23zM301 459c59 -3 50 -69 11 -71c-22 -5 -36 20 -42 27
c-12 14 -60 21 -131 -56c45 69 99 102 162 100z" />
    <glyph glyph-name="Rcommaaccent" unicode="&#x156;" horiz-adv-x="549" 
d="M385 262l114 -189c21 -33 56 -60 76 -67l15 -6h-96c-19 18 -42 49 -68 94l-101 167c-52 83 -107 79 -197 79v-278c0 -18 6 -32 17 -43c24 -20 40 -19 57 -19h-197c11 0 21 1 40 8c20 7 33 26 33 54v576c0 18 -6 32 -18 42c-23 21 -39 20 -55 20c25 0 61 0 110 1
s85 2 107 1c133 -1 201 -20 237 -88c15 -29 21 -59 19 -92c-3 -59 -32 -115 -75 -144c-29 -20 -63 -32 -101 -36c28 -8 56 -35 83 -80zM128 349h96c124 1 199 68 202 172c3 162 -127 179 -298 172v-344zM307 -79c17 -9 22 -32 17 -69s-21 -65 -47 -82c24 20 39 65 32 97
c-5 -3 -11 -6 -18 -7c-19 -3 -35 11 -36 30c-1 17 10 33 29 36c8 1 16 -1 23 -5z" />
    <glyph glyph-name="rcommaaccent" unicode="&#x157;" horiz-adv-x="370" 
d="M134 372v-323c0 -23 12 -38 29 -43c19 -5 25 -6 34 -6h-168c9 0 16 1 33 6s29 20 29 43v13v300c0 41 -29 45 -33 45l76 60v-72v-23zM301 459c59 -3 50 -69 11 -71c-22 -5 -36 20 -42 27c-12 14 -60 21 -131 -56c45 69 99 102 162 100zM217 -79c17 -9 22 -32 17 -69
s-21 -65 -47 -82c24 20 39 65 32 97c-5 -3 -11 -6 -18 -7c-19 -3 -35 11 -36 30c-1 17 10 33 29 36c8 1 16 -1 23 -5z" />
    <glyph glyph-name="Rcaron" unicode="&#x158;" horiz-adv-x="549" 
d="M384 900l-71 -134h-47l-82 136l105 -111zM385 262l114 -189c21 -33 56 -60 76 -67l15 -6h-96c-19 18 -42 49 -68 94l-101 167c-52 83 -107 79 -197 79v-278c0 -18 6 -32 17 -43c24 -20 40 -19 57 -19h-197c11 0 21 1 40 8c20 7 33 26 33 54v576c0 18 -6 32 -18 42
c-23 21 -39 20 -55 20c25 0 61 0 110 1s85 2 107 1c133 -1 201 -20 237 -88c15 -29 21 -59 19 -92c-3 -59 -32 -115 -75 -144c-29 -20 -63 -32 -101 -36c28 -8 56 -35 83 -80zM128 349h96c124 1 199 68 202 172c3 162 -127 179 -298 172v-344z" />
    <glyph glyph-name="rcaron" unicode="&#x159;" horiz-adv-x="370" 
d="M294 650l-71 -134h-47l-82 136l105 -111zM134 372v-323c0 -23 12 -38 29 -43c19 -5 25 -6 34 -6h-168c9 0 16 1 33 6s29 20 29 43v13v300c0 41 -29 45 -33 45l76 60v-72v-23zM301 459c59 -3 50 -69 11 -71c-22 -5 -36 20 -42 27c-12 14 -60 21 -131 -56
c45 69 99 102 162 100z" />
    <glyph glyph-name="Sacute" unicode="&#x15a;" horiz-adv-x="551" 
d="M237 759l85 111c12 20 30 27 42 14c11 -11 7 -24 -12 -40zM481 547l-2 110l-21 13c-29 16 -97 38 -162 38c-64 0 -117 -18 -158 -53s-62 -79 -61 -131c0 -45 13 -83 38 -114c26 -31 75 -54 147 -69c89 -19 149 -44 182 -77s50 -71 49 -116c0 -55 -21 -95 -63 -118
c-41 -23 -90 -29 -146 -19c-108 20 -200 95 -233 215l3 -158c62 -53 144 -79 245 -79c113 -2 223 60 226 198c3 115 -62 177 -235 209c-108 21 -166 70 -175 147c-5 51 16 101 56 129c57 39 175 32 244 -37c35 -33 57 -63 66 -88z" />
    <glyph glyph-name="sacute" unicode="&#x15b;" horiz-adv-x="414" 
d="M165 512l85 111c12 20 30 27 42 14c11 -11 7 -24 -12 -40zM355 348v74c-33 30 -77 45 -132 44c-49 1 -88 -12 -116 -38c-28 -25 -42 -56 -41 -93c1 -63 37 -97 140 -118c113 -24 148 -65 144 -129c-4 -97 -143 -101 -216 -52c-36 23 -65 67 -76 92c-5 13 -8 22 -9 27
l2 -115l15 -12c20 -17 80 -38 152 -38c51 0 91 14 120 41s44 61 44 100c0 71 -43 111 -166 134c-125 23 -127 87 -119 121c10 43 40 66 91 69c67 5 131 -34 167 -107z" />
    <glyph glyph-name="Scedilla" unicode="&#x15e;" horiz-adv-x="551" 
d="M290 396c173 -32 238 -94 235 -209c-3 -138 -113 -200 -226 -198h-2l-21 -32c61 -5 86 -36 81 -76c-10 -80 -118 -83 -160 -48c39 -17 122 -23 128 51c4 37 -31 58 -66 61l29 44c-96 2 -174 28 -234 79l-3 158c33 -120 125 -195 233 -215c56 -10 105 -4 146 19
c42 23 63 63 63 118c1 45 -16 83 -49 116s-93 58 -182 77c-72 15 -121 38 -147 69c-25 31 -38 69 -38 114c-1 52 20 96 61 131s94 53 158 53c65 0 133 -22 162 -38l21 -13l2 -110c-9 25 -31 55 -66 88c-69 69 -187 76 -244 37c-40 -28 -61 -78 -56 -129
c9 -77 67 -126 175 -147z" />
    <glyph glyph-name="scedilla" unicode="&#x15f;" horiz-adv-x="414" 
d="M382 131c0 -75 -58 -136 -153 -141l-22 -33c61 -5 86 -36 81 -76c-10 -80 -118 -83 -160 -48c39 -17 122 -23 128 51c4 37 -31 58 -66 61l29 45h-1c-72 0 -132 21 -152 38l-15 12l-2 115c1 -5 4 -14 9 -27c11 -25 40 -69 76 -92c73 -49 212 -45 216 52
c4 64 -31 105 -144 129c-103 21 -139 55 -140 118c-1 37 13 68 41 93c28 26 67 39 116 38c55 1 99 -14 132 -44v-74c-36 73 -100 112 -167 107c-51 -3 -81 -26 -91 -69c-8 -34 -6 -98 119 -121c123 -23 166 -63 166 -134z" />
    <glyph glyph-name="Scaron" unicode="&#x160;" horiz-adv-x="551" 
d="M185 902l105 -111l95 109l-71 -134h-47zM481 547l-2 110l-21 13c-29 16 -97 38 -162 38c-64 0 -117 -18 -158 -53s-62 -79 -61 -131c0 -45 13 -83 38 -114c26 -31 75 -54 147 -69c89 -19 149 -44 182 -77s50 -71 49 -116c0 -55 -21 -95 -63 -118
c-41 -23 -90 -29 -146 -19c-108 20 -200 95 -233 215l3 -158c62 -53 144 -79 245 -79c113 -2 223 60 226 198c3 115 -62 177 -235 209c-108 21 -166 70 -175 147c-5 51 16 101 56 129c57 39 175 32 244 -37c35 -33 57 -63 66 -88z" />
    <glyph glyph-name="scaron" unicode="&#x161;" horiz-adv-x="414" 
d="M116 652l105 -111l95 109l-71 -134h-47zM355 348v74c-33 30 -77 45 -132 44c-49 1 -88 -12 -116 -38c-28 -25 -42 -56 -41 -93c1 -63 37 -97 140 -118c113 -24 148 -65 144 -129c-4 -97 -143 -101 -216 -52c-36 23 -65 67 -76 92c-5 13 -8 22 -9 27l2 -115l15 -12
c20 -17 80 -38 152 -38c51 0 91 14 120 41s44 61 44 100c0 71 -43 111 -166 134c-125 23 -127 87 -119 121c10 43 40 66 91 69c67 5 131 -34 167 -107z" />
    <glyph glyph-name="uni0162" unicode="&#x162;" horiz-adv-x="636" 
d="M37 700h562l21 -147c-5 29 -21 58 -49 86c-36 36 -81 52 -169 52h-55v-629c0 -18 6 -32 17 -43c24 -20 40 -19 57 -19h-75l-28 -43c61 -5 86 -36 81 -76c-10 -80 -118 -83 -160 -48c39 -17 122 -23 128 51c4 37 -31 58 -66 61l36 55h-113c11 0 21 1 40 8
c20 7 33 26 33 54v629h-63c-88 0 -133 -16 -169 -52c-25 -25 -42 -58 -46 -74l-3 -12z" />
    <glyph glyph-name="uni0163" unicode="&#x163;" horiz-adv-x="335" 
d="M326 105c-24 -76 -69 -113 -135 -112l-23 -36c61 -5 86 -36 81 -76c-10 -80 -118 -83 -160 -48c39 -17 122 -23 128 51c4 37 -31 58 -66 61l31 48c-47 0 -70 33 -82 62c-4 9 -7 22 -8 38l-3 38v39v11v261h-46l-12 9h58v117l44 60c0 -55 0 -114 -1 -177h131l-9 -9h-122
v-266c0 -55 1 -72 9 -104c9 -32 28 -44 60 -48c63 -7 104 34 125 81z" />
    <glyph glyph-name="Tcaron" unicode="&#x164;" horiz-adv-x="636" 
d="M427 900l-71 -134h-47l-82 136l105 -111zM37 700h562l21 -147c-5 29 -21 58 -49 86c-36 36 -81 52 -169 52h-55v-629c0 -18 6 -32 17 -43c24 -20 40 -19 57 -19h-197c11 0 21 1 40 8c20 7 33 26 33 54v629h-63c-88 0 -133 -16 -169 -52c-25 -25 -42 -58 -46 -74l-3 -12z
" />
    <glyph glyph-name="tcaron" unicode="&#x165;" horiz-adv-x="335" 
d="M216 629c-19 -3 -35 11 -36 30c-1 17 10 33 29 36c8 1 16 -1 23 -5c17 -9 22 -32 17 -69s-21 -65 -47 -82c24 20 39 65 32 97c-5 -3 -11 -6 -18 -7zM201 24c63 -7 104 34 125 81c-24 -79 -71 -116 -142 -112c-49 2 -69 30 -83 62c-4 9 -7 22 -9 38l-3 38v40v10v261h-46
l-12 9h58v117l44 60c0 -55 0 -114 -1 -177h131l-9 -9h-122v-266c0 -55 1 -72 9 -104c9 -32 28 -44 60 -48z" />
    <glyph glyph-name="Tbar" unicode="&#x166;" horiz-adv-x="636" 
d="M221 796l197 1v-8h-197v7zM37 700h562l21 -147c-5 29 -21 58 -49 86c-36 36 -81 52 -169 52h-55v-629c0 -18 6 -32 17 -43c24 -20 40 -19 57 -19h-197c11 0 21 1 40 8c20 7 33 26 33 54v629h-63c-88 0 -133 -16 -169 -52c-25 -25 -42 -58 -46 -74l-3 -12z" />
    <glyph glyph-name="tbar" unicode="&#x167;" horiz-adv-x="335" 
d="M45 667l197 1v-8h-197v7zM201 24c63 -7 104 34 125 81c-24 -79 -71 -116 -142 -112c-49 2 -69 30 -83 62c-4 9 -7 22 -9 38l-3 38v40v10v261h-46l-12 9h58v117l44 60c0 -55 0 -114 -1 -177h131l-9 -9h-122v-266c0 -55 1 -72 9 -104c9 -32 28 -44 60 -48z" />
    <glyph glyph-name="Umacron" unicode="&#x16a;" horiz-adv-x="636" 
d="M249 796l197 1v-8h-197v7zM553 283v320c0 40 -15 69 -36 81c-20 12 -33 15 -46 16h169c-12 -1 -23 -4 -44 -16c-20 -12 -34 -41 -34 -81v-320c0 -11 0 -22 -1 -31c0 -17 -6 -67 -17 -100c-11 -32 -35 -78 -67 -105s-85 -48 -149 -48c-51 0 -94 13 -125 29
c-31 17 -55 52 -71 77c-7 13 -14 30 -19 51l-12 52c-3 14 -5 33 -6 57s-2 42 -2 53v52v16v232c0 23 -6 41 -17 54c-23 28 -41 28 -56 28h197c-13 0 -74 -6 -74 -82v-301c0 -192 65 -288 195 -288c143 0 215 85 215 254z" />
    <glyph glyph-name="umacron" unicode="&#x16b;" horiz-adv-x="509" 
d="M145 547l197 1v-8h-197v7zM186 19c25 -4 55 1 90 16c36 15 68 35 97 59c-27 -29 -59 -54 -98 -76c-38 -22 -75 -31 -110 -28c-38 4 -62 19 -74 46c-8 21 -12 29 -15 60c-1 15 -1 27 -1 34v38v16v217c0 23 -11 38 -30 43c-17 5 -24 6 -33 6h107v-49v-222v-43
c1 -16 3 -53 8 -66c8 -23 25 -49 59 -51zM380 61v340c0 49 -55 49 -62 49h105v-364c0 -40 26 -35 33 -35l-76 -60v70z" />
    <glyph glyph-name="Uring" unicode="&#x16e;" horiz-adv-x="636" 
d="M347 765c-33 0 -63 28 -63 63c0 36 28 65 63 65c36 0 65 -28 65 -65c0 -35 -29 -63 -65 -63zM348 881c-28 0 -51 -23 -51 -51c0 -27 23 -51 51 -51c27 0 51 24 51 51c0 28 -24 51 -51 51zM553 283v320c0 40 -15 69 -36 81c-20 12 -33 15 -46 16h169
c-12 -1 -23 -4 -44 -16c-20 -12 -34 -41 -34 -81v-320c0 -11 0 -22 -1 -31c0 -17 -6 -67 -17 -100c-11 -32 -35 -78 -67 -105s-85 -48 -149 -48c-51 0 -94 13 -125 29c-31 17 -55 52 -71 77c-7 13 -14 30 -19 51l-12 52c-3 14 -5 33 -6 57s-2 42 -2 53v52v16v232
c0 23 -6 41 -17 54c-23 28 -41 28 -56 28h197c-13 0 -74 -6 -74 -82v-301c0 -192 65 -288 195 -288c143 0 215 85 215 254z" />
    <glyph glyph-name="uring" unicode="&#x16f;" horiz-adv-x="509" 
d="M241 509c-33 0 -63 28 -63 63c0 36 28 65 63 65c36 0 65 -28 65 -65c0 -35 -29 -63 -65 -63zM242 625c-28 0 -51 -23 -51 -51c0 -27 23 -51 51 -51c27 0 51 24 51 51c0 28 -24 51 -51 51zM186 19c25 -4 55 1 90 16c36 15 68 35 97 59c-27 -29 -59 -54 -98 -76
c-38 -22 -75 -31 -110 -28c-38 4 -62 19 -74 46c-8 21 -12 29 -15 60c-1 15 -1 27 -1 34v38v16v217c0 23 -11 38 -30 43c-17 5 -24 6 -33 6h107v-49v-222v-43c1 -16 3 -53 8 -66c8 -23 25 -49 59 -51zM380 61v340c0 49 -55 49 -62 49h105v-364c0 -40 26 -35 33 -35l-76 -60
v70z" />
    <glyph glyph-name="Uhungarumlaut" unicode="&#x170;" horiz-adv-x="636" 
d="M382 891c11 -11 7 -24 -12 -40l-115 -85l85 111c12 20 30 27 42 14zM492 851l-115 -85l85 111c12 20 30 27 42 14c11 -11 7 -24 -12 -40zM553 283v320c0 40 -15 69 -36 81c-20 12 -33 15 -46 16h169c-12 -1 -23 -4 -44 -16c-20 -12 -34 -41 -34 -81v-320
c0 -11 0 -22 -1 -31c0 -17 -6 -67 -17 -100c-11 -32 -35 -78 -67 -105s-85 -48 -149 -48c-51 0 -94 13 -125 29c-31 17 -55 52 -71 77c-7 13 -14 30 -19 51l-12 52c-3 14 -5 33 -6 57s-2 42 -2 53v52v16v232c0 23 -6 41 -17 54c-23 28 -41 28 -56 28h197
c-13 0 -74 -6 -74 -82v-301c0 -192 65 -288 195 -288c143 0 215 85 215 254z" />
    <glyph glyph-name="uhungarumlaut" unicode="&#x171;" horiz-adv-x="509" 
d="M280 637c11 -11 7 -24 -12 -40l-115 -85l85 111c12 20 30 27 42 14zM369 597l-115 -85l85 111c12 20 30 27 42 14c11 -11 7 -24 -12 -40zM186 19c25 -4 55 1 90 16c36 15 68 35 97 59c-27 -29 -59 -54 -98 -76c-38 -22 -75 -31 -110 -28c-38 4 -62 19 -74 46
c-8 21 -12 29 -15 60c-1 15 -1 27 -1 34v38v16v217c0 23 -11 38 -30 43c-17 5 -24 6 -33 6h107v-49v-222v-43c1 -16 3 -53 8 -66c8 -23 25 -49 59 -51zM380 61v340c0 49 -55 49 -62 49h105v-364c0 -40 26 -35 33 -35l-76 -60v70z" />
    <glyph glyph-name="Uogonek" unicode="&#x172;" horiz-adv-x="636" 
d="M553 283v320c0 40 -15 69 -36 81c-20 12 -33 15 -46 16h169c-12 -1 -23 -4 -44 -16c-20 -12 -34 -41 -34 -81v-320c0 -13 0 -24 -1 -35l-6 -52c-3 -24 -10 -46 -19 -65c-25 -57 -79 -127 -183 -131h5c-40 -20 -73 -65 -68 -106c9 -66 67 -68 108 -51
c-42 -35 -134 -26 -145 48c-7 39 10 76 50 109c-45 4 -84 19 -112 36c-27 17 -48 53 -63 78c-13 25 -23 75 -28 100c-2 13 -4 32 -5 55s-2 40 -2 51v50v16v232c0 23 -6 41 -17 54c-23 28 -41 28 -56 28h197c-13 0 -74 -6 -74 -82v-301c0 -192 65 -288 195 -288
c143 0 215 85 215 254z" />
    <glyph glyph-name="uogonek" unicode="&#x173;" horiz-adv-x="509" 
d="M186 19c25 -4 55 1 90 16c36 15 68 35 97 59c-41 -45 -87 -77 -138 -94c-40 -20 -73 -65 -68 -106c9 -66 67 -68 108 -51c-42 -35 -134 -26 -145 48c-5 36 8 69 39 99h-4c-38 4 -62 19 -74 46c-8 21 -12 29 -15 60c-1 15 -1 27 -1 34v38v16v217c0 23 -11 38 -30 43
c-17 5 -24 6 -33 6h107v-49v-222v-43c1 -16 3 -53 8 -66c8 -23 25 -49 59 -51zM380 61v340c0 49 -55 49 -62 49h105v-364c0 -40 26 -35 33 -35l-76 -60v70z" />
    <glyph glyph-name="Wcircumflex" unicode="&#x174;" horiz-adv-x="1106" 
d="M591 880l71 -134l-95 109l-105 -111l82 136h47zM884 700h197c-45 -3 -90 -46 -121 -121l-235 -590l-175 421l-175 -421l-269 646c-20 41 -49 62 -86 65h62h145c1 0 -88 -5 -54 -89l194 -468c6 -13 15 -28 28 -28c12 0 20 -1 48 67l100 244l-87 209c-20 41 -49 62 -86 65
h62h145c1 0 -88 -5 -54 -89l194 -468c6 -13 15 -28 28 -28c12 0 22 15 45 71l156 391c29 73 9 118 -62 123zM15 700h5h-5zM365 700h5h-5z" />
    <glyph glyph-name="wcircumflex" unicode="&#x175;" horiz-adv-x="697" 
d="M387 630l71 -134l-95 109l-105 -111l82 136h47zM557 450h147c-23 -5 -41 -16 -55 -33c-9 -10 -18 -26 -27 -49l-149 -378l-134 313l-119 -313l-179 416c-15 27 -39 42 -52 43l-10 1h143s-46 -4 -29 -45l119 -289c7 -14 15 -21 24 -21c11 0 23 19 38 56l61 161l-40 94
c-15 27 -39 42 -52 43l-10 1h140c-4 1 -41 -6 -30 -41l116 -281c10 -25 21 -37 33 -37c10 0 22 19 37 58l82 212l4 12c15 40 -5 68 -58 77z" />
    <glyph glyph-name="Ycircumflex" unicode="&#x176;" horiz-adv-x="539" 
d="M308 880l71 -134l-95 109l-105 -111l82 136h47zM-35 700h-1h1zM395 700h174c-46 -11 -84 -44 -114 -99l-124 -223c-20 -37 -30 -73 -30 -110v-205c0 -22 8 -38 24 -48c17 -9 33 -14 48 -15h-199c15 0 31 5 49 14c19 9 28 24 29 45l1 210c0 24 -7 48 -21 72l-170 298
c-25 43 -69 61 -97 61l199 -1c-47 -4 -59 -37 -34 -80l147 -257c11 -17 24 -15 35 4l115 207c43 73 32 116 -32 127z" />
    <glyph glyph-name="ycircumflex" unicode="&#x177;" horiz-adv-x="440" 
d="M258 630l71 -134l-95 109l-105 -111l82 136h47zM335 450h130c-17 -5 -32 -15 -45 -32c-8 -8 -17 -24 -28 -48l-154 -380l-68 -166c-12 -29 -31 -41 -56 -38c-21 3 -33 22 -28 41c5 15 17 23 34 22c11 -1 24 -15 31 -15c10 0 19 10 28 29l56 133l-179 411
c-15 25 -39 41 -54 42l-10 1h143c0 1 -43 -4 -31 -42l117 -277c11 -25 23 -38 34 -38c18 0 29 33 39 53l87 217l4 12c16 42 -1 67 -50 75z" />
    <glyph glyph-name="Ydieresis" unicode="&#x178;" horiz-adv-x="539" 
d="M191 857c44 3 44 -69 0 -67c-19 0 -33 15 -33 34s16 33 33 33zM381 857c44 3 44 -69 0 -67c-19 0 -33 15 -33 34s16 33 33 33zM-35 700h-1h1zM395 700h174c-46 -11 -84 -44 -114 -99l-124 -223c-20 -37 -30 -73 -30 -110v-205c0 -22 8 -38 24 -48c17 -9 33 -14 48 -15
h-199c15 0 31 5 49 14c19 9 28 24 29 45l1 210c0 24 -7 48 -21 72l-170 298c-25 43 -69 61 -97 61l199 -1c-47 -4 -59 -37 -34 -80l147 -257c11 -17 24 -15 35 4l115 207c43 73 32 116 -32 127z" />
    <glyph glyph-name="Zacute" unicode="&#x179;" horiz-adv-x="616" 
d="M257 759l85 111c12 20 30 27 42 14c11 -11 7 -24 -12 -40zM183 8c-71 0 -77 14 -57 44l220 326c135 201 208 308 219 322h-479l-41 -167l9 17c12 24 40 65 68 86c47 37 121 55 221 55h57c65 0 85 -19 58 -58l-433 -633h508l48 196l-11 -20c-13 -28 -47 -74 -79 -101
c-54 -42 -137 -64 -248 -67h-60z" />
    <glyph glyph-name="zacute" unicode="&#x17a;" horiz-adv-x="474" 
d="M210 512l85 111c12 20 30 27 42 14c11 -11 7 -24 -12 -40zM251 6l-89 1c-32 0 -36 12 -24 32c6 13 46 73 119 181c73 109 127 186 160 231h-333l-28 -90l6 11c9 13 29 35 48 46s14 9 30 16c20 8 35 10 74 10h95c35 0 38 -9 21 -32l-278 -412h358l18 113l-7 -16
c-9 -21 -33 -55 -57 -67c-27 -15 -64 -23 -113 -24z" />
    <glyph glyph-name="Zdotaccent" unicode="&#x17b;" horiz-adv-x="616" 
d="M332 774c-43 0 -43 66 0 66c41 0 41 -66 0 -66zM183 8h60c111 3 194 25 248 67c32 27 66 73 79 101l11 20l-48 -196h-508l433 633c27 39 7 58 -58 58h-57c-100 0 -174 -18 -221 -55c-28 -21 -56 -62 -68 -86l-9 -17l41 167h479c-11 -14 -84 -121 -219 -322l-220 -326
c-20 -30 -14 -44 57 -44z" />
    <glyph glyph-name="zdotaccent" unicode="&#x17c;" horiz-adv-x="474" 
d="M274 548c-30 -30 -76 16 -46 46s76 -16 46 -46zM162 7l89 -1c49 1 86 9 113 24c24 12 48 46 57 67l7 16l-18 -113h-358l278 412c17 23 14 32 -21 32h-95c-39 0 -54 -2 -74 -10c-16 -7 -11 -5 -30 -16s-39 -33 -48 -46l-6 -11l28 90h333c-33 -45 -87 -122 -160 -231
c-73 -108 -113 -168 -119 -181c-12 -20 -8 -32 24 -32z" />
    <glyph glyph-name="Zcaron" unicode="&#x17d;" horiz-adv-x="616" 
d="M217 902l105 -111l95 109l-71 -134h-47zM183 8c-71 0 -77 14 -57 44l220 326c135 201 208 308 219 322h-479l-41 -167l9 17c12 24 40 65 68 86c47 37 121 55 221 55h57c65 0 85 -19 58 -58l-433 -633h508l48 196l-11 -20c-13 -28 -47 -74 -79 -101
c-54 -42 -137 -64 -248 -67h-60z" />
    <glyph glyph-name="zcaron" unicode="&#x17e;" horiz-adv-x="474" 
d="M146 652l105 -111l95 109l-71 -134h-47zM251 6l-89 1c-32 0 -36 12 -24 32c6 13 46 73 119 181c73 109 127 186 160 231h-333l-28 -90l6 11c9 13 29 35 48 46s14 9 30 16c20 8 35 10 74 10h95c35 0 38 -9 21 -32l-278 -412h358l18 113l-7 -16c-9 -21 -33 -55 -57 -67
c-27 -15 -64 -23 -113 -24z" />
    <glyph glyph-name="Scommaaccent" unicode="&#x218;" horiz-adv-x="551" 
d="M290 396c173 -32 238 -94 235 -209c-3 -138 -113 -200 -226 -198c-101 0 -183 26 -245 79l-3 158c33 -120 125 -195 233 -215c56 -10 105 -4 146 19c42 23 63 63 63 118c1 45 -16 83 -49 116s-93 58 -182 77c-72 15 -121 38 -147 69c-25 31 -38 69 -38 114
c-1 52 20 96 61 131s94 53 158 53c65 0 133 -22 162 -38l21 -13l2 -110c-9 25 -31 55 -66 88c-69 69 -187 76 -244 37c-40 -28 -61 -78 -56 -129c9 -77 67 -126 175 -147zM308 -79c17 -9 22 -32 17 -69s-21 -65 -47 -82c24 20 39 65 32 97c-5 -3 -11 -6 -18 -7
c-19 -3 -35 11 -36 30c-1 17 10 33 29 36c8 1 16 -1 23 -5z" />
    <glyph glyph-name="scommaaccent" unicode="&#x219;" horiz-adv-x="414" 
d="M216 265c123 -23 166 -63 166 -134c0 -39 -15 -73 -44 -100s-69 -41 -120 -41c-72 0 -132 21 -152 38l-15 12l-2 115c1 -5 4 -14 9 -27c11 -25 40 -69 76 -92c73 -49 212 -45 216 52c4 64 -31 105 -144 129c-103 21 -139 55 -140 118c-1 37 13 68 41 93
c28 26 67 39 116 38c55 1 99 -14 132 -44v-74c-36 73 -100 112 -167 107c-51 -3 -81 -26 -91 -69c-8 -34 -6 -98 119 -121zM239 -79c17 -9 22 -32 17 -69s-21 -65 -47 -82c24 20 39 65 32 97c-5 -3 -11 -6 -18 -7c-19 -3 -35 11 -36 30c-1 17 10 33 29 36c8 1 16 -1 23 -5z
" />
    <glyph glyph-name="uni021A" unicode="&#x21a;" horiz-adv-x="636" 
d="M37 700h562l21 -147c-5 29 -21 58 -49 86c-36 36 -81 52 -169 52h-55v-629c0 -18 6 -32 17 -43c24 -20 40 -19 57 -19h-197c11 0 21 1 40 8c20 7 33 26 33 54v629h-63c-88 0 -133 -16 -169 -52c-25 -25 -42 -58 -46 -74l-3 -12zM350 -79c17 -9 22 -32 17 -69
s-21 -65 -47 -82c24 20 39 65 32 97c-5 -3 -11 -6 -18 -7c-19 -3 -35 11 -36 30c-1 17 10 33 29 36c8 1 16 -1 23 -5z" />
    <glyph glyph-name="uni021B" unicode="&#x21b;" horiz-adv-x="335" 
d="M201 24c63 -7 104 34 125 81c-24 -79 -71 -116 -142 -112c-49 2 -69 30 -83 62c-4 9 -7 22 -9 38l-3 38v40v10v261h-46l-12 9h58v117l44 60c0 -55 0 -114 -1 -177h131l-9 -9h-122v-266c0 -55 1 -72 9 -104c9 -32 28 -44 60 -48zM200 -79c17 -9 22 -32 17 -69
s-21 -65 -47 -82c24 20 39 65 32 97c-5 -3 -11 -6 -18 -7c-19 -3 -35 11 -36 30c-1 17 10 33 29 36c8 1 16 -1 23 -5z" />
    <glyph glyph-name="circumflex" unicode="&#x2c6;" horiz-adv-x="269" 
d="M44 544l82 136h47l71 -134l-95 109z" />
    <glyph glyph-name="caron" unicode="&#x2c7;" horiz-adv-x="269" 
d="M44 702l105 -111l95 109l-71 -134h-47z" />
    <glyph glyph-name="breve" unicode="&#x2d8;" horiz-adv-x="266" 
d="M131 572c51 0 85 23 100 69c-1 -52 -39 -100 -98 -100c-60 0 -100 43 -101 100c18 -46 51 -69 99 -69z" />
    <glyph glyph-name="dotaccent" unicode="&#x2d9;" horiz-adv-x="177" 
d="M92 542c-43 0 -43 66 0 66c41 0 41 -66 0 -66z" />
    <glyph glyph-name="ring" unicode="&#x2da;" horiz-adv-x="600" 
d="M197 509c-33 0 -63 28 -63 63c0 36 28 65 63 65c36 0 65 -28 65 -65c0 -35 -29 -63 -65 -63zM198 523c27 0 51 24 51 51c0 28 -24 51 -51 51c-28 0 -51 -23 -51 -51c0 -27 23 -51 51 -51z" />
    <glyph glyph-name="ogonek" unicode="&#x2db;" horiz-adv-x="269" 
d="M124 0h55c-40 -20 -73 -65 -68 -106c9 -66 67 -68 108 -51c-42 -35 -134 -26 -145 48c-7 39 10 76 50 109z" />
    <glyph glyph-name="tilde" unicode="&#x2dc;" horiz-adv-x="330" 
d="M38 534c0 53 46 85 90 82c15 -2 33 -13 53 -33c21 -19 37 -29 50 -29c37 0 62 23 62 59c7 -43 -25 -85 -72 -85c-19 0 -40 11 -61 32c-21 22 -41 33 -60 33c-21 0 -53 -16 -62 -59z" />
    <glyph glyph-name="hungarumlaut" unicode="&#x2dd;" horiz-adv-x="294" 
d="M123 512l85 111c12 20 30 27 42 14c11 -11 7 -24 -12 -40zM224 512l85 111c12 20 30 27 42 14c11 -11 7 -24 -12 -40z" />
    <glyph glyph-name="Wgrave" unicode="&#x1e80;" horiz-adv-x="1106" 
d="M570 747l-115 85c-19 16 -23 29 -12 40c12 13 30 6 42 -14zM884 700h197c-45 -3 -90 -46 -121 -121l-235 -590l-175 421l-175 -421l-269 646c-20 41 -49 62 -86 65h62h145c1 0 -88 -5 -54 -89l194 -468c6 -13 15 -28 28 -28c12 0 20 -1 48 67l100 244l-87 209
c-20 41 -49 62 -86 65h62h145c1 0 -88 -5 -54 -89l194 -468c6 -13 15 -28 28 -28c12 0 22 15 45 71l156 391c29 73 9 118 -62 123zM15 700h5h-5zM365 700h5h-5z" />
    <glyph glyph-name="wgrave" unicode="&#x1e81;" horiz-adv-x="697" 
d="M331 512l-115 85c-19 16 -23 29 -12 40c12 13 30 6 42 -14zM557 450h147c-23 -5 -41 -16 -55 -33c-9 -10 -18 -26 -27 -49l-149 -378l-134 313l-119 -313l-179 416c-15 27 -39 42 -52 43l-10 1h143s-46 -4 -29 -45l119 -289c7 -14 15 -21 24 -21c11 0 23 19 38 56l61 161
l-40 94c-15 27 -39 42 -52 43l-10 1h140c-4 1 -41 -6 -30 -41l116 -281c10 -25 21 -37 33 -37c10 0 22 19 37 58l82 212l4 12c15 40 -5 68 -58 77z" />
    <glyph glyph-name="Wacute" unicode="&#x1e82;" horiz-adv-x="1106" 
d="M614 884c11 -11 7 -24 -12 -40l-115 -85l85 111c12 20 30 27 42 14zM884 700h197c-45 -3 -90 -46 -121 -121l-235 -590l-175 421l-175 -421l-269 646c-20 41 -49 62 -86 65h62h145c1 0 -88 -5 -54 -89l194 -468c6 -13 15 -28 28 -28c12 0 20 -1 48 67l100 244l-87 209
c-20 41 -49 62 -86 65h62h145c1 0 -88 -5 -54 -89l194 -468c6 -13 15 -28 28 -28c12 0 22 15 45 71l156 391c29 73 9 118 -62 123zM15 700h5h-5zM365 700h5h-5z" />
    <glyph glyph-name="wacute" unicode="&#x1e83;" horiz-adv-x="697" 
d="M411 637c11 -11 7 -24 -12 -40l-115 -85l85 111c12 20 30 27 42 14zM557 450h147c-23 -5 -41 -16 -55 -33c-9 -10 -18 -26 -27 -49l-149 -378l-134 313l-119 -313l-179 416c-15 27 -39 42 -52 43l-10 1h143s-46 -4 -29 -45l119 -289c7 -14 15 -21 24 -21
c11 0 23 19 38 56l61 161l-40 94c-15 27 -39 42 -52 43l-10 1h140c-4 1 -41 -6 -30 -41l116 -281c10 -25 21 -37 33 -37c10 0 22 19 37 58l82 212l4 12c15 40 -5 68 -58 77z" />
    <glyph glyph-name="Wdieresis" unicode="&#x1e84;" horiz-adv-x="1106" 
d="M365 845c44 3 44 -69 0 -67c-19 0 -33 15 -33 34s16 33 33 33zM555 845c44 3 44 -69 0 -67c-19 0 -33 15 -33 34s16 33 33 33zM884 700h197c-45 -3 -90 -46 -121 -121l-235 -590l-175 421l-175 -421l-269 646c-20 41 -49 62 -86 65h62h145c1 0 -88 -5 -54 -89l194 -468
c6 -13 15 -28 28 -28c12 0 20 -1 48 67l100 244l-87 209c-20 41 -49 62 -86 65h62h145c1 0 -88 -5 -54 -89l194 -468c6 -13 15 -28 28 -28c12 0 22 15 45 71l156 391c29 73 9 118 -62 123zM15 700h5h-5zM365 700h5h-5z" />
    <glyph glyph-name="wdieresis" unicode="&#x1e85;" horiz-adv-x="697" 
d="M235 607c44 3 44 -69 0 -67c-19 0 -33 15 -33 34s16 33 33 33zM425 607c44 3 44 -69 0 -67c-19 0 -33 15 -33 34s16 33 33 33zM557 450h147c-23 -5 -41 -16 -55 -33c-9 -10 -18 -26 -27 -49l-149 -378l-134 313l-119 -313l-179 416c-15 27 -39 42 -52 43l-10 1h143
s-46 -4 -29 -45l119 -289c7 -14 15 -21 24 -21c11 0 23 19 38 56l61 161l-40 94c-15 27 -39 42 -52 43l-10 1h140c-4 1 -41 -6 -30 -41l116 -281c10 -25 21 -37 33 -37c10 0 22 19 37 58l82 212l4 12c15 40 -5 68 -58 77z" />
    <glyph glyph-name="uni1EA0" unicode="&#x1ea0;" horiz-adv-x="601" 
d="M297 703l221 -616c9 -23 19 -42 31 -57c25 -28 38 -29 51 -30h-184c2 0 75 2 51 75l-78 222l-235 -1l-69 -190c-25 -61 -10 -101 61 -106h-174c45 3 80 43 107 118l215 594zM272 591c-7 0 -18 -20 -32 -59l-82 -227l228 1l-84 243c-10 28 -20 42 -30 42zM603 0h-3h3z
M252 -88c28 31 78 -19 46 -47c-30 -30 -77 16 -46 47z" />
    <glyph glyph-name="uni1EA1" unicode="&#x1ea1;" horiz-adv-x="466" 
d="M347 79v188c-71 -20 -112 -34 -165 -61c-53 -25 -83 -58 -86 -97c-4 -49 32 -94 100 -93c43 1 92 21 147 61c-17 -17 -31 -30 -44 -40c-24 -20 -81 -47 -134 -47c-41 0 -71 12 -90 35c-19 24 -28 50 -25 79c0 45 36 79 75 100c24 15 74 30 102 38c15 5 35 10 61 17l59 17
v56c0 96 -55 132 -124 119c-28 -5 -53 -16 -75 -33c-21 -17 -32 -34 -32 -53c0 -11 10 -28 10 -39c1 -21 -13 -35 -32 -35c-17 0 -33 11 -32 38s17 54 50 79c33 26 70 43 111 51c111 23 167 -23 167 -138v-258c0 -59 51 -47 71 -2c-16 -43 -33 -64 -66 -64
c-37 0 -48 25 -48 82zM258 -135c-30 -30 -77 16 -46 47c28 31 78 -19 46 -47z" />
    <glyph glyph-name="uni1EB8" unicode="&#x1eb8;" horiz-adv-x="595" 
d="M479 61c37 25 67 58 75 74l7 12l-41 -147h-493c11 0 21 1 40 8c20 7 33 26 33 54v576c0 18 -6 32 -18 42c-23 21 -39 20 -55 20h454l35 -124c-19 34 -42 60 -70 77c-18 11 -31 19 -40 22c-16 7 -70 16 -167 16h-89v-322h82c86 3 111 45 116 64l1 7v-148s-9 68 -117 68
h-82v-281c0 -64 34 -70 62 -70h97c29 0 54 3 77 8c23 6 40 12 51 18s25 15 42 26zM292 -88c28 31 78 -19 46 -47c-30 -30 -77 16 -46 47z" />
    <glyph glyph-name="uni1EB9" unicode="&#x1eb9;" horiz-adv-x="499" 
d="M269 30c87 -6 149 27 186 98c-11 -38 -35 -70 -71 -97c-35 -27 -76 -40 -121 -40c-57 0 -108 21 -152 64c-43 43 -66 99 -67 170c-2 93 35 162 112 209c35 21 74 32 119 32c53 -1 96 -20 129 -58s49 -88 48 -149h-362c0 -65 16 -118 48 -161c33 -42 76 -65 131 -68z
M160 426c-43 -31 -67 -84 -70 -158c115 0 188 1 219 3c47 3 77 14 89 33c13 20 18 71 -31 118c-27 25 -61 37 -102 37c-41 1 -76 -10 -105 -33zM288 -135c-30 -30 -77 16 -46 47c28 31 78 -19 46 -47z" />
    <glyph glyph-name="uni1ECA" unicode="&#x1eca;" horiz-adv-x="269" 
d="M159 638v-576c0 -18 6 -32 17 -43c24 -20 40 -19 57 -19h-197c11 0 21 1 40 8c20 7 33 26 33 54v576c0 18 -6 32 -18 42c-23 21 -39 20 -55 20h197c-9 0 -17 -1 -26 -2c-17 -3 -48 -24 -48 -60zM112 -88c28 31 78 -19 46 -47c-30 -30 -77 16 -46 47z" />
    <glyph glyph-name="uni1ECB" unicode="&#x1ecb;" horiz-adv-x="249" 
d="M122 542c-43 0 -43 66 0 66c41 0 41 -66 0 -66zM147 467v-418c0 -33 21 -49 63 -49h-168c7 0 62 0 62 49v307c0 36 -10 54 -30 54zM102 -88c13 12 35 12 47 0c13 -13 13 -35 0 -47c-12 -13 -34 -13 -47 0c-12 12 -12 34 0 47z" />
    <glyph glyph-name="Ygrave" unicode="&#x1ef2;" horiz-adv-x="539" 
d="M332 747l-115 85c-19 16 -23 29 -12 40c12 13 30 6 42 -14zM-35 700h-1h1zM395 700h174c-46 -11 -84 -44 -114 -99l-124 -223c-20 -37 -30 -73 -30 -110v-205c0 -22 8 -38 24 -48c17 -9 33 -14 48 -15h-199c15 0 31 5 49 14c19 9 28 24 29 45l1 210c0 24 -7 48 -21 72
l-170 298c-25 43 -69 61 -97 61l199 -1c-47 -4 -59 -37 -34 -80l147 -257c11 -17 24 -15 35 4l115 207c43 73 32 116 -32 127z" />
    <glyph glyph-name="ygrave" unicode="&#x1ef3;" horiz-adv-x="440" 
d="M292 512l-115 85c-19 16 -23 29 -12 40c12 13 30 6 42 -14zM335 450h130c-17 -5 -32 -15 -45 -32c-8 -8 -17 -24 -28 -48l-154 -380l-68 -166c-12 -29 -31 -41 -56 -38c-21 3 -33 22 -28 41c5 15 17 23 34 22c11 -1 24 -15 31 -15c10 0 19 10 28 29l56 133l-179 411
c-15 25 -39 41 -54 42l-10 1h143c0 1 -43 -4 -31 -42l117 -277c11 -25 23 -38 34 -38c18 0 29 33 39 53l87 217l4 12c16 42 -1 67 -50 75z" />
    <glyph glyph-name="uni1EF4" unicode="&#x1ef4;" horiz-adv-x="539" 
d="M-35 700h-1h1zM395 700c64 -11 75 -54 32 -127l-115 -207c-11 -19 -24 -21 -35 -4l-147 257c-25 43 -13 76 34 80l-199 1c28 0 72 -18 97 -61l170 -298c14 -24 21 -48 21 -72l-1 -210c-1 -21 -10 -36 -29 -45c-18 -9 -34 -14 -49 -14h199c-15 1 -31 6 -48 15
c-16 10 -24 26 -24 48v205c0 37 10 73 30 110l124 223c30 55 68 88 114 99h-174zM254 -88c-12 -13 -12 -35 0 -47c13 -13 35 -13 47 0c13 12 13 34 0 47c-12 12 -34 12 -47 0z" />
    <glyph glyph-name="uni1EF5" unicode="&#x1ef5;" horiz-adv-x="440" 
d="M335 450h130c-17 -5 -32 -15 -45 -32c-8 -8 -17 -24 -28 -48l-154 -380l-68 -166c-12 -29 -31 -41 -56 -38c-21 3 -33 22 -28 41c5 15 17 23 34 22c11 -1 24 -15 31 -15c10 0 19 10 28 29l56 133l-179 411c-15 25 -39 41 -54 42l-10 1h143c0 1 -43 -4 -31 -42l117 -277
c11 -25 23 -38 34 -38c18 0 29 33 39 53l87 217l4 12c16 42 -1 67 -50 75zM208 -276c31 31 77 -16 47 -46c-28 -32 -78 18 -47 46z" />
    <glyph glyph-name="uni1EF9" unicode="&#x1ef9;" horiz-adv-x="440" 
d="M184 593c-21 0 -53 -16 -62 -59c0 53 46 85 90 82c15 -2 33 -13 53 -33c21 -19 37 -29 50 -29c37 0 62 23 62 59c7 -43 -25 -85 -72 -85c-19 0 -40 11 -61 32c-21 22 -41 33 -60 33zM335 450h130c-17 -5 -32 -15 -45 -32c-8 -8 -17 -24 -28 -48l-154 -380l-68 -166
c-12 -29 -31 -41 -56 -38c-21 3 -33 22 -28 41c5 15 17 23 34 22c11 -1 24 -15 31 -15c10 0 19 10 28 29l56 133l-179 411c-15 25 -39 41 -54 42l-10 1h143c0 1 -43 -4 -31 -42l117 -277c11 -25 23 -38 34 -38c18 0 29 33 39 53l87 217l4 12c16 42 -1 67 -50 75z" />
    <glyph glyph-name="endash" unicode="&#x2013;" horiz-adv-x="587" 
d="M55 260v9h477v-9h-477z" />
    <glyph glyph-name="emdash" unicode="&#x2014;" horiz-adv-x="715" 
d="M55 260v9h605v-9h-605z" />
    <glyph glyph-name="quoteleft" unicode="&#x2018;" horiz-adv-x="180" 
d="M110 582c1 -17 -10 -33 -29 -36c-8 -1 -16 1 -23 5c-17 9 -22 32 -17 69s21 65 47 82c-24 -20 -39 -65 -32 -97c5 3 11 6 18 7c19 3 35 -11 36 -30z" />
    <glyph glyph-name="quoteright" unicode="&#x2019;" horiz-adv-x="180" 
d="M122 690c17 -9 22 -32 17 -69s-21 -65 -47 -82c24 20 39 65 32 97c-5 -3 -11 -6 -18 -7c-19 -3 -35 11 -36 30c-1 17 10 33 29 36c8 1 16 -1 23 -5z" />
    <glyph glyph-name="quotesinglbase" unicode="&#x201a;" horiz-adv-x="180" 
d="M122 62c17 -9 22 -32 17 -69s-21 -65 -47 -82c24 20 39 65 32 97c-5 -3 -11 -6 -18 -7c-19 -3 -35 11 -36 30c-1 17 10 33 29 36c8 1 16 -1 23 -5z" />
    <glyph glyph-name="quotedblleft" unicode="&#x201c;" horiz-adv-x="272" 
d="M74 612c19 3 35 -11 36 -30c1 -17 -10 -33 -29 -36c-8 -1 -16 1 -23 5c-17 9 -22 32 -17 69s21 65 47 82c-24 -20 -39 -65 -32 -97c5 3 11 6 18 7zM202 582c1 -17 -10 -33 -29 -36c-8 -1 -16 1 -23 5c-17 9 -22 32 -17 69s21 65 47 82c-24 -20 -39 -65 -32 -97
c5 3 11 6 18 7c19 3 35 -11 36 -30z" />
    <glyph glyph-name="quotedblright" unicode="&#x201d;" horiz-adv-x="261" 
d="M138 690c17 -9 22 -32 17 -69s-21 -65 -47 -82c24 20 39 65 32 97c-5 -3 -11 -6 -18 -7c-19 -3 -35 11 -36 30c-1 17 10 33 29 36c8 1 16 -1 23 -5zM219 690c17 -9 22 -32 17 -69s-21 -65 -47 -82c24 20 39 65 32 97c-5 -3 -11 -6 -18 -7c-19 -3 -35 11 -36 30
c-1 17 10 33 29 36c8 1 16 -1 23 -5z" />
    <glyph glyph-name="quotedblbase" unicode="&#x201e;" horiz-adv-x="275" 
d="M122 62c17 -9 22 -32 17 -69s-21 -65 -47 -82c24 20 39 65 32 97c-5 -3 -11 -6 -18 -7c-19 -3 -35 11 -36 30c-1 17 10 33 29 36c8 1 16 -1 23 -5zM217 62c17 -9 22 -32 17 -69s-21 -65 -47 -82c24 20 39 65 32 97c-5 -3 -11 -6 -18 -7c-19 -3 -35 11 -36 30
c-1 17 10 33 29 36c8 1 16 -1 23 -5z" />
    <glyph glyph-name="dagger" unicode="&#x2020;" horiz-adv-x="472" 
d="M239 579h168v-6h-168v-629h-6v629h-168v6h168v228h6v-228z" />
    <glyph glyph-name="daggerdbl" unicode="&#x2021;" horiz-adv-x="472" 
d="M407 579v-6h-168v-364h168v-6h-168v-259h-6v259h-168v6h168v364h-168v6h168v228h6v-228h168z" />
    <glyph glyph-name="bullet" unicode="&#x2022;" horiz-adv-x="248" 
d="M124 246c-32 0 -59 26 -59 59c0 32 27 59 59 59c33 0 59 -27 59 -59c0 -33 -26 -59 -59 -59z" />
    <glyph glyph-name="ellipsis" unicode="&#x2026;" horiz-adv-x="398" 
d="M124 6c-28 -31 -78 19 -46 47c30 30 77 -16 46 -47zM234 6c-28 -31 -78 19 -46 47c30 30 77 -16 46 -47zM345 6c-12 -12 -34 -12 -47 0c-12 13 -12 35 0 47c31 31 78 -16 47 -47z" />
    <glyph glyph-name="perthousand" unicode="&#x2030;" horiz-adv-x="964" 
d="M188 425c-44 -2 -126 11 -146 110c-16 80 27 150 104 170c92 21 164 -22 173 -121c9 -89 -48 -154 -131 -159zM291 587c-12 83 -65 130 -142 114c-72 -18 -92 -99 -80 -149c13 -89 70 -126 130 -121c37 3 64 19 79 49s20 66 13 107zM95 0h-19l459 701h17zM468 -5
c-44 -2 -126 11 -146 110c-16 80 27 150 104 170c92 21 164 -22 173 -121c9 -89 -48 -154 -131 -159zM788 -5c-44 -2 -126 11 -146 110c-16 80 27 150 104 170c92 21 164 -22 173 -121c9 -89 -48 -154 -131 -159zM571 157c-12 83 -65 130 -142 114c-72 -18 -92 -99 -80 -149
c13 -89 70 -126 130 -121c37 3 64 19 79 49s20 66 13 107zM891 157c-12 83 -65 130 -142 114c-72 -18 -92 -99 -80 -149c13 -89 70 -126 130 -121c37 3 64 19 79 49s20 66 13 107z" />
    <glyph glyph-name="guilsinglleft" unicode="&#x2039;" horiz-adv-x="229" 
d="M7 275l167 142l-142 -143l132 -150z" />
    <glyph glyph-name="guilsinglright" unicode="&#x203a;" horiz-adv-x="229" 
d="M40 417l167 -142l-157 -151l132 150z" />
    <glyph glyph-name="Euro" unicode="&#x20ac;" horiz-adv-x="597" 
d="M397 376h-361l-11 9h61c3 52 12 99 35 154c24 56 69 108 130 143c115 66 292 9 292 -110c0 -29 -16 -46 -37 -45c-27 1 -41 32 -33 63c32 113 -128 147 -212 75c-38 -29 -66 -70 -84 -123s-28 -106 -31 -157h260zM501 172c21 1 37 -14 37 -45c0 -29 -16 -58 -49 -86
c-32 -28 -62 -44 -91 -49c-69 -9 -124 -2 -165 22c-91 53 -138 143 -146 292h-51l-11 9h381l-9 -9h-251c4 -84 20 -154 51 -215c32 -60 88 -96 161 -95c40 1 71 13 92 36c22 23 30 49 24 78c-9 28 0 61 27 62z" />
    <glyph glyph-name="trademark" unicode="&#x2122;" horiz-adv-x="749" 
d="M684 400h-83c5 0 30 2 30 27v215c0 13 -2 20 -6 20c-1 0 -5 -6 -12 -19l-106 -242l-127 251c-5 11 -10 13 -14 5c-2 -4 -3 -10 -3 -19v-187c0 -50 37 -51 38 -51h-76c3 0 35 3 35 51v186c0 52 -24 61 -31 61l-2 1h54l117 -228c11 -25 23 -24 36 2l100 225h44
c-2 0 -26 -1 -26 -29v-242c0 -18 11 -27 32 -27zM65 636l9 62h240l9 -62c-2 13 -9 25 -20 37c-15 14 -39 21 -72 21h-24v-267c0 -18 11 -27 32 -27h-85c21 0 32 9 32 27v267h-27c-34 0 -58 -7 -73 -21c-11 -11 -19 -25 -20 -32z" />
    <glyph glyph-name="partialdiff" unicode="&#x2202;" horiz-adv-x="502" 
d="M268 -8c-43 -3 -87 4 -136 27c-49 24 -90 77 -105 153c-13 66 -4 125 27 177c31 53 79 87 142 102c84 20 152 12 203 -25c-42 151 -134 235 -277 252c111 -5 197 -44 256 -117c60 -73 94 -169 102 -289c5 -83 -12 -149 -52 -199c-39 -50 -93 -77 -160 -81zM434 259
c-11 67 -36 119 -77 154c-40 35 -91 46 -153 31c-124 -28 -146 -163 -134 -244c11 -73 37 -126 78 -158c41 -31 86 -45 136 -41c61 6 103 33 128 82s33 108 22 176z" />
    <glyph glyph-name="emptyset" unicode="&#x2205;" horiz-adv-x="555" 
d="M512 265c9 -74 -7 -138 -50 -191c-42 -53 -95 -80 -158 -82c-71 -1 -129 16 -174 53l-40 -44h-20l49 54c-29 29 -48 66 -58 111c-15 67 -7 127 23 180c30 54 76 90 137 107c84 24 166 9 222 -42l34 38h21l-44 -49c32 -34 51 -79 58 -135zM103 192c9 -41 24 -76 45 -105
l268 295c-47 59 -119 85 -199 62c-35 -10 -62 -29 -83 -57c-40 -55 -43 -123 -31 -195zM320 6c126 3 169 128 144 269c-6 33 -19 65 -38 94l-269 -294c41 -47 96 -70 163 -69z" />
    <glyph glyph-name="product" unicode="&#x220f;" horiz-adv-x="772" 
d="M125 -216v965h522v-963h-14v950h-494v-951z" />
    <glyph glyph-name="summation" unicode="&#x2211;" horiz-adv-x="592" 
d="M518 -85h-453v16l290 440l-289 395v17h471v-16h-451l292 -394l-293 -443h433v-15z" />
    <glyph glyph-name="minus" unicode="&#x2212;" horiz-adv-x="455" 
d="M55 351v9h345v-9h-345z" />
    <glyph glyph-name="radical" unicode="&#x221a;" horiz-adv-x="525" 
d="M490 699l-228 -903l-147 340h-60v14h73l131 -307l214 857z" />
    <glyph glyph-name="infinity" unicode="&#x221e;" horiz-adv-x="633" 
d="M332 377c36 55 88 80 156 75c49 -3 83 -25 102 -65c20 -40 24 -81 11 -124c-17 -59 -65 -97 -144 -96c-58 1 -104 37 -139 107c-13 -26 -33 -51 -61 -75c-28 -23 -63 -34 -104 -32c-43 1 -76 18 -99 49c-23 32 -32 68 -28 108c5 77 64 125 136 121
c59 -3 106 -43 141 -120c2 2 13 30 29 52zM324 287c28 -61 71 -93 129 -94c63 -3 127 32 143 99c13 59 -4 103 -51 131c-45 26 -88 25 -129 -4c-18 -12 -32 -25 -43 -40s-21 -33 -31 -54c-9 -21 -15 -33 -18 -38zM148 193c65 -3 101 38 149 122c-36 63 -80 95 -133 98
c-33 3 -62 -6 -89 -25s-41 -45 -43 -77c-2 -29 7 -55 27 -79s50 -37 89 -39z" />
    <glyph glyph-name="integral" unicode="&#x222b;" horiz-adv-x="468" 
d="M372 798c39 -8 71 -33 71 -66c0 -15 -11 -28 -27 -28c-21 0 -31 21 -28 46c3 27 -22 43 -53 44c-60 1 -79 -40 -79 -140v-718c0 -108 -67 -168 -160 -148c-39 8 -71 33 -71 66c0 15 11 28 27 28c21 0 31 -21 28 -46c-3 -27 22 -43 53 -44c60 -1 79 40 79 140v718
c0 108 67 168 160 148z" />
    <glyph glyph-name="approxequal" unicode="&#x2248;" horiz-adv-x="378" 
d="M55 328c7 48 39 75 80 72c16 -1 37 -11 63 -29c27 -17 46 -26 59 -26c39 0 65 20 65 51c7 -36 -25 -73 -65 -73c-21 0 -44 9 -70 28s-49 28 -69 28s-48 -14 -63 -51zM55 258c7 48 39 75 80 72c16 -1 37 -11 63 -29c27 -17 46 -26 59 -26c39 0 65 20 65 51
c7 -36 -25 -73 -65 -73c-21 0 -44 9 -70 28s-49 28 -69 28s-48 -14 -63 -51z" />
    <glyph glyph-name="notequal" unicode="&#x2260;" horiz-adv-x="527" 
d="M457 435v-9h-161l-93 -151h254v-9h-259l-70 -113h-13l70 113h-115v9h121l93 151h-214v9h220l61 99h12l-61 -99h155z" />
    <glyph glyph-name="lessequal" unicode="&#x2264;" horiz-adv-x="457" 
d="M40 356l347 142v-10l-320 -132l320 -140v-11zM57 153v9h345v-9h-345z" />
    <glyph glyph-name="greaterequal" unicode="&#x2265;" horiz-adv-x="485" 
d="M83 498l347 -142l-347 -151v11l320 140l-320 132v10zM413 162v-9h-345v9h345z" />
    <glyph glyph-name="zero.osf" horiz-adv-x="544" 
d="M288 5c-43 -3 -84 4 -133 27c-48 23 -88 75 -104 150c-13 65 -5 123 26 174s78 84 141 99c74 18 137 10 189 -24c53 -33 83 -90 91 -170c7 -72 -10 -132 -51 -179c-40 -47 -93 -73 -159 -77zM452 267c-11 66 -36 116 -76 151c-39 35 -90 45 -151 31
c-123 -27 -143 -161 -131 -240c11 -72 36 -124 76 -155c41 -31 85 -44 134 -40c60 5 102 32 127 80c25 49 32 106 21 173z" />
    <glyph glyph-name="one.osf" horiz-adv-x="257" 
d="M149 259v-210c0 -23 12 -38 29 -43c19 -5 25 -6 34 -6h-167c9 0 16 1 33 6s29 20 29 43v210c-1 0 -1 19 0 57c0 52 -2 79 -14 84c-11 7 -20 2 -48 -15l105 91c0 -73 -1 -126 -1 -161v-56z" />
    <glyph glyph-name="two.osf" horiz-adv-x="445" 
d="M228 40h180l-89 -148l7 15c17 39 25 63 22 72c-6 14 -31 21 -74 21h-226c69 37 130 82 185 136c27 27 46 47 59 62c27 31 52 84 48 140c-5 69 -62 104 -131 92c-48 -9 -90 -45 -105 -70l-12 -18c3 5 4 12 19 36c21 32 57 70 111 81c51 10 90 1 117 -26s41 -59 41 -95
s-12 -70 -37 -101c-24 -31 -67 -76 -130 -135c-32 -29 -47 -47 -46 -52c2 -5 22 -9 61 -10z" />
    <glyph glyph-name="three.osf" horiz-adv-x="528" 
d="M391 141c88 -21 139 -93 139 -188c0 -71 -27 -127 -81 -169c-53 -42 -120 -56 -199 -42c-84 15 -140 71 -169 167c23 -39 43 -67 59 -82c35 -33 81 -51 138 -54c55 -3 101 10 138 39s57 73 58 131c2 61 -15 107 -52 138c-36 32 -80 46 -133 42l10 2c17 5 31 10 58 27
c36 23 72 66 78 137c3 40 -9 75 -35 104s-63 43 -111 41c-75 -3 -116 -28 -163 -85c39 69 95 106 168 112c62 5 109 -7 140 -38c31 -30 48 -66 50 -108c4 -80 -27 -138 -93 -174z" />
    <glyph glyph-name="four.osf" horiz-adv-x="600" 
d="M617 44l-39 -43h-121v-141l-42 -44v185h-346l388 558v-515h160zM152 43l263 1v386c0 36 -10 39 -30 10l-247 -355c-20 -28 -15 -42 14 -42z" />
    <glyph glyph-name="five.osf" horiz-adv-x="532" 
d="M156 356l-31 -143c-5 -21 -5 -34 -1 -37c3 -2 8 0 17 6c50 35 103 54 158 55c117 3 201 -68 201 -197c0 -63 -25 -119 -74 -168c-31 -31 -76 -60 -134 -87s-108 -47 -150 -59l-64 -17c243 80 366 187 369 322c1 43 -12 81 -38 114s-65 50 -118 50c-43 0 -81 -7 -114 -21
c-33 -13 -55 -27 -67 -40l-17 -20l74 347h297l-32 -46h-218c-23 0 -35 -3 -43 -16c-8 -12 -10 -19 -15 -43z" />
    <glyph glyph-name="six.osf" horiz-adv-x="584" 
d="M233 610c78 83 165 124 260 124c-27 -3 -57 -10 -105 -31c-48 -20 -101 -64 -140 -123c-41 -64 -68 -124 -81 -180c31 26 67 44 107 53c73 19 138 11 194 -24s88 -92 96 -173c7 -74 -10 -137 -53 -188c-42 -51 -97 -77 -166 -78c-51 0 -88 6 -137 29
c-48 24 -87 79 -107 159c-19 81 -11 282 132 432zM362 0c58 3 100 29 125 80s34 111 26 178s-34 118 -78 155s-97 47 -158 31c-37 -10 -67 -29 -89 -58c-44 -56 -51 -122 -40 -193c25 -160 136 -198 214 -193z" />
    <glyph glyph-name="seven.osf" horiz-adv-x="536" 
d="M100 458h436c-53 -75 -103 -164 -152 -267c-37 -78 -62 -146 -77 -203s-25 -121 -31 -192c-3 -29 -12 -44 -29 -47c-13 -2 -21 5 -26 20c-2 6 -3 13 -2 21c13 119 71 271 176 455c49 86 73 138 74 156c0 13 -11 21 -32 23c-7 1 -21 1 -40 0h-24h-126
c-57 0 -97 -5 -122 -16s-43 -35 -55 -73z" />
    <glyph glyph-name="eight.osf" horiz-adv-x="554" 
d="M346 392l73 -36c37 -18 69 -44 94 -78c25 -33 36 -72 32 -116c-3 -59 -33 -106 -90 -140c-57 -33 -121 -45 -192 -35c-59 8 -106 31 -140 70c-33 39 -46 84 -37 136c7 48 32 86 73 115s68 43 119 64c-28 12 -57 30 -93 61c-35 32 -58 81 -55 133c3 51 26 89 69 116
s93 38 149 34c53 -3 94 -20 124 -51c31 -31 45 -67 42 -109c-3 -64 -59 -119 -168 -164zM169 572c1 -85 60 -130 165 -175c85 41 131 93 137 156c3 40 -8 76 -34 107s-62 48 -109 49c-97 3 -160 -41 -159 -137zM289 367c-85 -33 -144 -80 -156 -175c-6 -52 7 -97 39 -135
c33 -38 79 -58 138 -61c79 -4 135 16 168 60s39 97 16 160c-12 32 -36 62 -72 83c-17 11 -33 20 -46 27s-30 15 -50 24c-19 9 -32 14 -37 17z" />
    <glyph glyph-name="nine.osf" horiz-adv-x="550" 
d="M399 -166c-79 -85 -167 -128 -263 -128c27 4 57 11 105 34c48 21 103 65 143 124c39 58 67 120 84 186c-32 -25 -68 -43 -108 -54c-71 -19 -134 -11 -189 23c-55 35 -86 92 -94 172c-7 71 11 132 53 181c42 50 96 77 162 80c95 5 204 -26 238 -185c11 -51 13 -100 1 -180
c-11 -79 -56 -172 -132 -253zM274 443c-55 -7 -95 -34 -119 -83s-32 -106 -25 -172c8 -65 33 -116 76 -152c43 -35 95 -45 155 -30c125 32 134 164 122 247c-11 75 -36 127 -75 156s-83 40 -134 34z" />
    <glyph glyph-name="ampersand.001" horiz-adv-x="744" 
d="M789 485c33 0 58 -14 58 -42c0 -17 -11 -31 -28 -31c-13 0 -24 6 -35 18s-24 18 -41 18c-23 0 -45 -9 -64 -20c-17 -11 -41 -38 -56 -55c-7 -8 -16 -21 -27 -38l-25 -40l-28 -45l-27 -46c31 -43 55 -83 70 -119c24 -55 36 -107 36 -158c0 -80 -25 -150 -75 -211
c-55 -67 -113 -98 -204 -98c-19 0 -33 1 -43 2c-83 8 -128 81 -138 110l-5 11c3 -5 4 -11 23 -31c26 -28 69 -59 140 -59c80 0 144 31 193 94s74 136 74 220c0 67 -26 143 -79 226c-51 -84 -86 -138 -105 -161c-49 -61 -105 -93 -168 -96h-12c-48 0 -89 15 -124 44
s-52 70 -52 124c0 23 4 45 13 67c19 44 39 72 83 112c23 20 42 36 58 48l66 48c29 20 50 35 63 45c-49 61 -74 116 -74 166c0 43 13 78 39 107s58 43 97 43c64 0 108 -39 109 -108c1 -64 -40 -115 -105 -172c-8 -7 -26 -20 -53 -41l139 -168c8 -9 26 -34 29 -38l30 49l33 53
l27 44c19 29 43 63 72 85c34 29 73 43 116 43zM271 588c0 -53 13 -94 64 -162l35 28c71 60 99 108 98 173c-1 45 -34 79 -78 82c-29 2 -57 -9 -82 -34c-25 -24 -37 -53 -37 -87zM244 -29c53 0 101 24 145 72c23 24 42 47 58 70s35 51 56 86c-7 12 -15 24 -24 36
c-24 35 -49 66 -65 85c-7 9 -19 24 -36 43l-41 50c-49 -35 -80 -58 -92 -68c-97 -76 -150 -141 -150 -229c0 -81 54 -145 149 -145z" />
    </font>
</defs>
</svg>
